ISO-10303-21;
HEADER;
/* Generated by software containing ST-Developer
 * from STEP Tools, Inc. (www.steptools.com) 
 */

FILE_DESCRIPTION(
/* description */ (''),
/* implementation_level */ '2;1');

FILE_NAME(
/* name */ 'Peekabot 3d design part 1 v1 v21.step',
/* time_stamp */ '2026-06-02T18:18:12+05:30',
/* author */ (''),
/* organization */ (''),
/* preprocessor_version */ 'ST-DEVELOPER v20.1',
/* originating_system */ 'Autodesk Translation Framework v15.8.0.0',
/* authorisation */ '');

FILE_SCHEMA (('AUTOMOTIVE_DESIGN { 1 0 10303 214 3 1 1 }','TECHNICAL_DATA_PACKAGING'));
ENDSEC;

DATA;
#10=MECHANICAL_DESIGN_GEOMETRIC_PRESENTATION_REPRESENTATION('',(#13),#1331);
#11=SHAPE_REPRESENTATION_RELATIONSHIP('SRR','None',#1338,#12);
#12=ADVANCED_BREP_SHAPE_REPRESENTATION('',(#14),#1330);
#13=STYLED_ITEM('',(#1347),#14);
#14=MANIFOLD_SOLID_BREP('Body1',#807);
#15=ELLIPSE('',#853,2.12132034355964,1.5);
#16=ELLIPSE('',#854,2.12132034355964,1.5);
#17=ELLIPSE('',#856,2.12132034355964,1.5);
#18=ELLIPSE('',#857,2.12132034355964,1.5);
#19=CYLINDRICAL_SURFACE('',#832,3.);
#20=CYLINDRICAL_SURFACE('',#844,3.);
#21=CYLINDRICAL_SURFACE('',#846,3.);
#22=CYLINDRICAL_SURFACE('',#849,3.);
#23=CYLINDRICAL_SURFACE('',#852,1.5);
#24=CYLINDRICAL_SURFACE('',#855,1.5);
#25=CYLINDRICAL_SURFACE('',#858,1.5);
#26=CYLINDRICAL_SURFACE('',#859,1.5);
#27=CYLINDRICAL_SURFACE('',#880,1.115);
#28=CYLINDRICAL_SURFACE('',#881,1.115);
#29=CYLINDRICAL_SURFACE('',#882,1.115);
#30=CYLINDRICAL_SURFACE('',#883,1.115);
#31=CYLINDRICAL_SURFACE('',#884,1.115);
#32=CYLINDRICAL_SURFACE('',#885,1.1);
#33=CYLINDRICAL_SURFACE('',#886,1.115);
#34=CYLINDRICAL_SURFACE('',#887,1.115);
#35=CIRCLE('',#825,1.115);
#36=CIRCLE('',#826,1.1);
#37=CIRCLE('',#827,1.115);
#38=CIRCLE('',#828,1.115);
#39=CIRCLE('',#833,3.);
#40=CIRCLE('',#834,3.);
#41=CIRCLE('',#836,3.);
#42=CIRCLE('',#837,3.);
#43=CIRCLE('',#838,3.);
#44=CIRCLE('',#839,1.115);
#45=CIRCLE('',#840,1.115);
#46=CIRCLE('',#841,1.115);
#47=CIRCLE('',#842,1.115);
#48=CIRCLE('',#845,3.);
#49=CIRCLE('',#847,3.);
#50=CIRCLE('',#850,3.);
#51=CIRCLE('',#869,1.115);
#52=CIRCLE('',#870,1.115);
#53=CIRCLE('',#871,1.1);
#54=CIRCLE('',#872,1.115);
#55=CIRCLE('',#873,1.115);
#56=CIRCLE('',#874,1.115);
#57=CIRCLE('',#875,1.115);
#58=CIRCLE('',#876,1.115);
#59=FACE_BOUND('',#122,.T.);
#60=FACE_BOUND('',#124,.T.);
#61=FACE_BOUND('',#125,.T.);
#62=FACE_BOUND('',#126,.T.);
#63=FACE_BOUND('',#127,.T.);
#64=FACE_BOUND('',#133,.T.);
#65=FACE_BOUND('',#134,.T.);
#66=FACE_BOUND('',#135,.T.);
#67=FACE_BOUND('',#136,.T.);
#68=FACE_BOUND('',#137,.T.);
#69=FACE_BOUND('',#144,.T.);
#70=FACE_BOUND('',#154,.T.);
#71=FACE_BOUND('',#159,.T.);
#72=FACE_BOUND('',#160,.T.);
#73=FACE_BOUND('',#161,.T.);
#74=FACE_BOUND('',#162,.T.);
#75=FACE_BOUND('',#163,.T.);
#76=FACE_BOUND('',#164,.T.);
#77=FACE_BOUND('',#165,.T.);
#78=FACE_BOUND('',#166,.T.);
#79=FACE_BOUND('',#167,.T.);
#80=FACE_OUTER_BOUND('',#119,.T.);
#81=FACE_OUTER_BOUND('',#120,.T.);
#82=FACE_OUTER_BOUND('',#121,.T.);
#83=FACE_OUTER_BOUND('',#123,.T.);
#84=FACE_OUTER_BOUND('',#128,.T.);
#85=FACE_OUTER_BOUND('',#129,.T.);
#86=FACE_OUTER_BOUND('',#130,.T.);
#87=FACE_OUTER_BOUND('',#131,.T.);
#88=FACE_OUTER_BOUND('',#132,.T.);
#89=FACE_OUTER_BOUND('',#138,.T.);
#90=FACE_OUTER_BOUND('',#139,.T.);
#91=FACE_OUTER_BOUND('',#140,.T.);
#92=FACE_OUTER_BOUND('',#141,.T.);
#93=FACE_OUTER_BOUND('',#142,.T.);
#94=FACE_OUTER_BOUND('',#143,.T.);
#95=FACE_OUTER_BOUND('',#145,.T.);
#96=FACE_OUTER_BOUND('',#146,.T.);
#97=FACE_OUTER_BOUND('',#147,.T.);
#98=FACE_OUTER_BOUND('',#148,.T.);
#99=FACE_OUTER_BOUND('',#149,.T.);
#100=FACE_OUTER_BOUND('',#150,.T.);
#101=FACE_OUTER_BOUND('',#151,.T.);
#102=FACE_OUTER_BOUND('',#152,.T.);
#103=FACE_OUTER_BOUND('',#153,.T.);
#104=FACE_OUTER_BOUND('',#155,.T.);
#105=FACE_OUTER_BOUND('',#156,.T.);
#106=FACE_OUTER_BOUND('',#157,.T.);
#107=FACE_OUTER_BOUND('',#158,.T.);
#108=FACE_OUTER_BOUND('',#168,.T.);
#109=FACE_OUTER_BOUND('',#169,.T.);
#110=FACE_OUTER_BOUND('',#170,.T.);
#111=FACE_OUTER_BOUND('',#171,.T.);
#112=FACE_OUTER_BOUND('',#172,.T.);
#113=FACE_OUTER_BOUND('',#173,.T.);
#114=FACE_OUTER_BOUND('',#174,.T.);
#115=FACE_OUTER_BOUND('',#175,.T.);
#116=FACE_OUTER_BOUND('',#176,.T.);
#117=FACE_OUTER_BOUND('',#177,.T.);
#118=FACE_OUTER_BOUND('',#178,.T.);
#119=EDGE_LOOP('',(#525,#526,#527,#528,#529,#530));
#120=EDGE_LOOP('',(#531,#532,#533,#534,#535,#536));
#121=EDGE_LOOP('',(#537,#538,#539,#540));
#122=EDGE_LOOP('',(#541,#542,#543,#544));
#123=EDGE_LOOP('',(#545,#546,#547,#548,#549,#550,#551,#552,#553,#554,#555,
#556));
#124=EDGE_LOOP('',(#557));
#125=EDGE_LOOP('',(#558));
#126=EDGE_LOOP('',(#559));
#127=EDGE_LOOP('',(#560));
#128=EDGE_LOOP('',(#561,#562,#563,#564));
#129=EDGE_LOOP('',(#565,#566,#567,#568));
#130=EDGE_LOOP('',(#569,#570,#571,#572));
#131=EDGE_LOOP('',(#573,#574,#575,#576));
#132=EDGE_LOOP('',(#577,#578,#579,#580,#581,#582,#583,#584));
#133=EDGE_LOOP('',(#585,#586,#587,#588));
#134=EDGE_LOOP('',(#589));
#135=EDGE_LOOP('',(#590));
#136=EDGE_LOOP('',(#591));
#137=EDGE_LOOP('',(#592));
#138=EDGE_LOOP('',(#593,#594,#595,#596));
#139=EDGE_LOOP('',(#597,#598,#599,#600));
#140=EDGE_LOOP('',(#601,#602,#603,#604));
#141=EDGE_LOOP('',(#605,#606,#607,#608));
#142=EDGE_LOOP('',(#609,#610,#611,#612));
#143=EDGE_LOOP('',(#613,#614,#615,#616));
#144=EDGE_LOOP('',(#617,#618,#619,#620));
#145=EDGE_LOOP('',(#621,#622,#623,#624));
#146=EDGE_LOOP('',(#625,#626,#627,#628));
#147=EDGE_LOOP('',(#629,#630,#631,#632));
#148=EDGE_LOOP('',(#633,#634,#635,#636));
#149=EDGE_LOOP('',(#637,#638,#639,#640));
#150=EDGE_LOOP('',(#641,#642,#643,#644));
#151=EDGE_LOOP('',(#645,#646,#647,#648));
#152=EDGE_LOOP('',(#649,#650,#651,#652));
#153=EDGE_LOOP('',(#653,#654,#655,#656,#657,#658,#659,#660));
#154=EDGE_LOOP('',(#661,#662,#663,#664));
#155=EDGE_LOOP('',(#665,#666,#667,#668));
#156=EDGE_LOOP('',(#669,#670,#671,#672));
#157=EDGE_LOOP('',(#673,#674,#675,#676));
#158=EDGE_LOOP('',(#677,#678,#679,#680,#681,#682,#683,#684));
#159=EDGE_LOOP('',(#685,#686,#687,#688));
#160=EDGE_LOOP('',(#689));
#161=EDGE_LOOP('',(#690));
#162=EDGE_LOOP('',(#691));
#163=EDGE_LOOP('',(#692));
#164=EDGE_LOOP('',(#693));
#165=EDGE_LOOP('',(#694));
#166=EDGE_LOOP('',(#695));
#167=EDGE_LOOP('',(#696));
#168=EDGE_LOOP('',(#697,#698,#699,#700));
#169=EDGE_LOOP('',(#701,#702,#703,#704));
#170=EDGE_LOOP('',(#705,#706,#707,#708,#709,#710,#711,#712));
#171=EDGE_LOOP('',(#713,#714,#715,#716));
#172=EDGE_LOOP('',(#717,#718,#719,#720));
#173=EDGE_LOOP('',(#721,#722,#723,#724));
#174=EDGE_LOOP('',(#725,#726,#727,#728));
#175=EDGE_LOOP('',(#729,#730,#731,#732));
#176=EDGE_LOOP('',(#733,#734,#735,#736));
#177=EDGE_LOOP('',(#737,#738,#739,#740));
#178=EDGE_LOOP('',(#741,#742,#743,#744));
#179=LINE('',#1110,#261);
#180=LINE('',#1112,#262);
#181=LINE('',#1114,#263);
#182=LINE('',#1116,#264);
#183=LINE('',#1118,#265);
#184=LINE('',#1119,#266);
#185=LINE('',#1123,#267);
#186=LINE('',#1125,#268);
#187=LINE('',#1127,#269);
#188=LINE('',#1129,#270);
#189=LINE('',#1131,#271);
#190=LINE('',#1132,#272);
#191=LINE('',#1136,#273);
#192=LINE('',#1138,#274);
#193=LINE('',#1140,#275);
#194=LINE('',#1141,#276);
#195=LINE('',#1142,#277);
#196=LINE('',#1143,#278);
#197=LINE('',#1145,#279);
#198=LINE('',#1147,#280);
#199=LINE('',#1149,#281);
#200=LINE('',#1151,#282);
#201=LINE('',#1153,#283);
#202=LINE('',#1155,#284);
#203=LINE('',#1157,#285);
#204=LINE('',#1159,#286);
#205=LINE('',#1161,#287);
#206=LINE('',#1162,#288);
#207=LINE('',#1172,#289);
#208=LINE('',#1174,#290);
#209=LINE('',#1181,#291);
#210=LINE('',#1184,#292);
#211=LINE('',#1187,#293);
#212=LINE('',#1192,#294);
#213=LINE('',#1195,#295);
#214=LINE('',#1198,#296);
#215=LINE('',#1200,#297);
#216=LINE('',#1202,#298);
#217=LINE('',#1203,#299);
#218=LINE('',#1214,#300);
#219=LINE('',#1215,#301);
#220=LINE('',#1222,#302);
#221=LINE('',#1223,#303);
#222=LINE('',#1226,#304);
#223=LINE('',#1227,#305);
#224=LINE('',#1231,#306);
#225=LINE('',#1234,#307);
#226=LINE('',#1236,#308);
#227=LINE('',#1238,#309);
#228=LINE('',#1239,#310);
#229=LINE('',#1244,#311);
#230=LINE('',#1249,#312);
#231=LINE('',#1253,#313);
#232=LINE('',#1255,#314);
#233=LINE('',#1258,#315);
#234=LINE('',#1260,#316);
#235=LINE('',#1261,#317);
#236=LINE('',#1264,#318);
#237=LINE('',#1265,#319);
#238=LINE('',#1268,#320);
#239=LINE('',#1269,#321);
#240=LINE('',#1271,#322);
#241=LINE('',#1273,#323);
#242=LINE('',#1274,#324);
#243=LINE('',#1276,#325);
#244=LINE('',#1278,#326);
#245=LINE('',#1279,#327);
#246=LINE('',#1283,#328);
#247=LINE('',#1284,#329);
#248=LINE('',#1285,#330);
#249=LINE('',#1287,#331);
#250=LINE('',#1289,#332);
#251=LINE('',#1308,#333);
#252=LINE('',#1310,#334);
#253=LINE('',#1313,#335);
#254=LINE('',#1315,#336);
#255=LINE('',#1317,#337);
#256=LINE('',#1319,#338);
#257=LINE('',#1321,#339);
#258=LINE('',#1323,#340);
#259=LINE('',#1325,#341);
#260=LINE('',#1327,#342);
#261=VECTOR('',#892,10.);
#262=VECTOR('',#893,10.);
#263=VECTOR('',#894,10.);
#264=VECTOR('',#895,10.);
#265=VECTOR('',#896,10.);
#266=VECTOR('',#897,10.);
#267=VECTOR('',#900,10.);
#268=VECTOR('',#901,10.);
#269=VECTOR('',#902,10.);
#270=VECTOR('',#903,10.);
#271=VECTOR('',#904,10.);
#272=VECTOR('',#905,10.);
#273=VECTOR('',#908,10.);
#274=VECTOR('',#909,10.);
#275=VECTOR('',#910,10.);
#276=VECTOR('',#911,10.);
#277=VECTOR('',#912,10.);
#278=VECTOR('',#913,10.);
#279=VECTOR('',#916,10.);
#280=VECTOR('',#917,10.);
#281=VECTOR('',#918,10.);
#282=VECTOR('',#919,10.);
#283=VECTOR('',#920,10.);
#284=VECTOR('',#921,10.);
#285=VECTOR('',#922,10.);
#286=VECTOR('',#923,10.);
#287=VECTOR('',#924,10.);
#288=VECTOR('',#925,10.);
#289=VECTOR('',#936,10.);
#290=VECTOR('',#939,10.);
#291=VECTOR('',#946,10.);
#292=VECTOR('',#949,10.);
#293=VECTOR('',#952,10.);
#294=VECTOR('',#957,10.);
#295=VECTOR('',#960,10.);
#296=VECTOR('',#961,10.);
#297=VECTOR('',#962,10.);
#298=VECTOR('',#963,10.);
#299=VECTOR('',#964,10.);
#300=VECTOR('',#975,10.);
#301=VECTOR('',#976,10.);
#302=VECTOR('',#985,10.);
#303=VECTOR('',#986,10.);
#304=VECTOR('',#989,10.);
#305=VECTOR('',#990,10.);
#306=VECTOR('',#997,10.);
#307=VECTOR('',#998,10.);
#308=VECTOR('',#999,10.);
#309=VECTOR('',#1000,10.);
#310=VECTOR('',#1001,10.);
#311=VECTOR('',#1006,10.);
#312=VECTOR('',#1011,10.);
#313=VECTOR('',#1018,10.);
#314=VECTOR('',#1021,10.);
#315=VECTOR('',#1024,10.);
#316=VECTOR('',#1025,10.);
#317=VECTOR('',#1026,10.);
#318=VECTOR('',#1029,10.);
#319=VECTOR('',#1030,10.);
#320=VECTOR('',#1033,10.);
#321=VECTOR('',#1034,10.);
#322=VECTOR('',#1037,10.);
#323=VECTOR('',#1040,10.);
#324=VECTOR('',#1041,10.);
#325=VECTOR('',#1042,10.);
#326=VECTOR('',#1043,10.);
#327=VECTOR('',#1044,10.);
#328=VECTOR('',#1047,10.);
#329=VECTOR('',#1048,10.);
#330=VECTOR('',#1049,10.);
#331=VECTOR('',#1052,10.);
#332=VECTOR('',#1055,10.);
#333=VECTOR('',#1076,10.);
#334=VECTOR('',#1079,10.);
#335=VECTOR('',#1084,1.115);
#336=VECTOR('',#1087,1.115);
#337=VECTOR('',#1090,1.115);
#338=VECTOR('',#1093,1.115);
#339=VECTOR('',#1096,1.115);
#340=VECTOR('',#1099,1.1);
#341=VECTOR('',#1102,1.115);
#342=VECTOR('',#1105,1.115);
#343=VERTEX_POINT('',#1108);
#344=VERTEX_POINT('',#1109);
#345=VERTEX_POINT('',#1111);
#346=VERTEX_POINT('',#1113);
#347=VERTEX_POINT('',#1115);
#348=VERTEX_POINT('',#1117);
#349=VERTEX_POINT('',#1121);
#350=VERTEX_POINT('',#1122);
#351=VERTEX_POINT('',#1124);
#352=VERTEX_POINT('',#1126);
#353=VERTEX_POINT('',#1128);
#354=VERTEX_POINT('',#1130);
#355=VERTEX_POINT('',#1134);
#356=VERTEX_POINT('',#1135);
#357=VERTEX_POINT('',#1137);
#358=VERTEX_POINT('',#1139);
#359=VERTEX_POINT('',#1146);
#360=VERTEX_POINT('',#1148);
#361=VERTEX_POINT('',#1150);
#362=VERTEX_POINT('',#1152);
#363=VERTEX_POINT('',#1154);
#364=VERTEX_POINT('',#1156);
#365=VERTEX_POINT('',#1158);
#366=VERTEX_POINT('',#1160);
#367=VERTEX_POINT('',#1163);
#368=VERTEX_POINT('',#1165);
#369=VERTEX_POINT('',#1167);
#370=VERTEX_POINT('',#1169);
#371=VERTEX_POINT('',#1177);
#372=VERTEX_POINT('',#1178);
#373=VERTEX_POINT('',#1180);
#374=VERTEX_POINT('',#1182);
#375=VERTEX_POINT('',#1186);
#376=VERTEX_POINT('',#1189);
#377=VERTEX_POINT('',#1191);
#378=VERTEX_POINT('',#1193);
#379=VERTEX_POINT('',#1196);
#380=VERTEX_POINT('',#1197);
#381=VERTEX_POINT('',#1199);
#382=VERTEX_POINT('',#1201);
#383=VERTEX_POINT('',#1204);
#384=VERTEX_POINT('',#1206);
#385=VERTEX_POINT('',#1208);
#386=VERTEX_POINT('',#1210);
#387=VERTEX_POINT('',#1213);
#388=VERTEX_POINT('',#1219);
#389=VERTEX_POINT('',#1220);
#390=VERTEX_POINT('',#1225);
#391=VERTEX_POINT('',#1232);
#392=VERTEX_POINT('',#1233);
#393=VERTEX_POINT('',#1235);
#394=VERTEX_POINT('',#1237);
#395=VERTEX_POINT('',#1241);
#396=VERTEX_POINT('',#1243);
#397=VERTEX_POINT('',#1247);
#398=VERTEX_POINT('',#1248);
#399=VERTEX_POINT('',#1257);
#400=VERTEX_POINT('',#1259);
#401=VERTEX_POINT('',#1263);
#402=VERTEX_POINT('',#1267);
#403=VERTEX_POINT('',#1275);
#404=VERTEX_POINT('',#1277);
#405=VERTEX_POINT('',#1281);
#406=VERTEX_POINT('',#1282);
#407=VERTEX_POINT('',#1291);
#408=VERTEX_POINT('',#1293);
#409=VERTEX_POINT('',#1295);
#410=VERTEX_POINT('',#1297);
#411=VERTEX_POINT('',#1299);
#412=VERTEX_POINT('',#1301);
#413=VERTEX_POINT('',#1303);
#414=VERTEX_POINT('',#1305);
#415=EDGE_CURVE('',#343,#344,#179,.T.);
#416=EDGE_CURVE('',#345,#343,#180,.T.);
#417=EDGE_CURVE('',#345,#346,#181,.T.);
#418=EDGE_CURVE('',#347,#346,#182,.T.);
#419=EDGE_CURVE('',#348,#347,#183,.T.);
#420=EDGE_CURVE('',#348,#344,#184,.T.);
#421=EDGE_CURVE('',#349,#350,#185,.T.);
#422=EDGE_CURVE('',#351,#349,#186,.T.);
#423=EDGE_CURVE('',#352,#351,#187,.T.);
#424=EDGE_CURVE('',#352,#353,#188,.T.);
#425=EDGE_CURVE('',#353,#354,#189,.T.);
#426=EDGE_CURVE('',#350,#354,#190,.T.);
#427=EDGE_CURVE('',#355,#356,#191,.T.);
#428=EDGE_CURVE('',#355,#357,#192,.T.);
#429=EDGE_CURVE('',#358,#357,#193,.T.);
#430=EDGE_CURVE('',#356,#358,#194,.T.);
#431=EDGE_CURVE('',#351,#348,#195,.T.);
#432=EDGE_CURVE('',#347,#352,#196,.T.);
#433=EDGE_CURVE('',#354,#345,#197,.T.);
#434=EDGE_CURVE('',#343,#359,#198,.T.);
#435=EDGE_CURVE('',#359,#360,#199,.T.);
#436=EDGE_CURVE('',#360,#361,#200,.T.);
#437=EDGE_CURVE('',#361,#362,#201,.T.);
#438=EDGE_CURVE('',#362,#363,#202,.T.);
#439=EDGE_CURVE('',#363,#364,#203,.T.);
#440=EDGE_CURVE('',#364,#365,#204,.T.);
#441=EDGE_CURVE('',#365,#366,#205,.T.);
#442=EDGE_CURVE('',#366,#350,#206,.T.);
#443=EDGE_CURVE('',#367,#367,#35,.T.);
#444=EDGE_CURVE('',#368,#368,#36,.T.);
#445=EDGE_CURVE('',#369,#369,#37,.T.);
#446=EDGE_CURVE('',#370,#370,#38,.T.);
#447=EDGE_CURVE('',#346,#353,#207,.T.);
#448=EDGE_CURVE('',#344,#349,#208,.T.);
#449=EDGE_CURVE('',#371,#372,#39,.T.);
#450=EDGE_CURVE('',#372,#373,#209,.T.);
#451=EDGE_CURVE('',#373,#374,#40,.T.);
#452=EDGE_CURVE('',#374,#371,#210,.T.);
#453=EDGE_CURVE('',#371,#375,#211,.T.);
#454=EDGE_CURVE('',#356,#375,#41,.T.);
#455=EDGE_CURVE('',#376,#358,#42,.T.);
#456=EDGE_CURVE('',#376,#377,#212,.T.);
#457=EDGE_CURVE('',#378,#377,#43,.T.);
#458=EDGE_CURVE('',#378,#372,#213,.T.);
#459=EDGE_CURVE('',#379,#380,#214,.T.);
#460=EDGE_CURVE('',#380,#381,#215,.T.);
#461=EDGE_CURVE('',#381,#382,#216,.T.);
#462=EDGE_CURVE('',#382,#379,#217,.T.);
#463=EDGE_CURVE('',#383,#383,#44,.T.);
#464=EDGE_CURVE('',#384,#384,#45,.T.);
#465=EDGE_CURVE('',#385,#385,#46,.T.);
#466=EDGE_CURVE('',#386,#386,#47,.T.);
#467=EDGE_CURVE('',#374,#387,#218,.T.);
#468=EDGE_CURVE('',#375,#387,#219,.T.);
#469=EDGE_CURVE('',#387,#355,#48,.T.);
#470=EDGE_CURVE('',#388,#389,#49,.T.);
#471=EDGE_CURVE('',#389,#378,#220,.T.);
#472=EDGE_CURVE('',#377,#388,#221,.T.);
#473=EDGE_CURVE('',#390,#376,#222,.T.);
#474=EDGE_CURVE('',#390,#388,#223,.T.);
#475=EDGE_CURVE('',#357,#390,#50,.T.);
#476=EDGE_CURVE('',#389,#373,#224,.T.);
#477=EDGE_CURVE('',#391,#392,#225,.T.);
#478=EDGE_CURVE('',#393,#391,#226,.T.);
#479=EDGE_CURVE('',#394,#393,#227,.T.);
#480=EDGE_CURVE('',#392,#394,#228,.T.);
#481=EDGE_CURVE('',#393,#395,#15,.T.);
#482=EDGE_CURVE('',#395,#396,#229,.T.);
#483=EDGE_CURVE('',#394,#396,#16,.T.);
#484=EDGE_CURVE('',#397,#398,#230,.T.);
#485=EDGE_CURVE('',#398,#391,#17,.T.);
#486=EDGE_CURVE('',#392,#397,#18,.T.);
#487=EDGE_CURVE('',#398,#395,#231,.T.);
#488=EDGE_CURVE('',#396,#397,#232,.T.);
#489=EDGE_CURVE('',#399,#398,#233,.T.);
#490=EDGE_CURVE('',#400,#399,#234,.T.);
#491=EDGE_CURVE('',#395,#400,#235,.T.);
#492=EDGE_CURVE('',#397,#401,#236,.T.);
#493=EDGE_CURVE('',#399,#401,#237,.T.);
#494=EDGE_CURVE('',#402,#396,#238,.T.);
#495=EDGE_CURVE('',#402,#401,#239,.T.);
#496=EDGE_CURVE('',#402,#400,#240,.T.);
#497=EDGE_CURVE('',#381,#360,#241,.T.);
#498=EDGE_CURVE('',#365,#380,#242,.T.);
#499=EDGE_CURVE('',#364,#403,#243,.T.);
#500=EDGE_CURVE('',#404,#403,#244,.T.);
#501=EDGE_CURVE('',#361,#404,#245,.T.);
#502=EDGE_CURVE('',#405,#406,#246,.T.);
#503=EDGE_CURVE('',#363,#405,#247,.T.);
#504=EDGE_CURVE('',#362,#406,#248,.T.);
#505=EDGE_CURVE('',#406,#404,#249,.T.);
#506=EDGE_CURVE('',#403,#405,#250,.T.);
#507=EDGE_CURVE('',#407,#407,#51,.T.);
#508=EDGE_CURVE('',#408,#408,#52,.T.);
#509=EDGE_CURVE('',#409,#409,#53,.T.);
#510=EDGE_CURVE('',#410,#410,#54,.T.);
#511=EDGE_CURVE('',#411,#411,#55,.T.);
#512=EDGE_CURVE('',#412,#412,#56,.T.);
#513=EDGE_CURVE('',#413,#413,#57,.T.);
#514=EDGE_CURVE('',#414,#414,#58,.T.);
#515=EDGE_CURVE('',#382,#359,#251,.T.);
#516=EDGE_CURVE('',#366,#379,#252,.T.);
#517=EDGE_CURVE('',#414,#385,#253,.T.);
#518=EDGE_CURVE('',#413,#384,#254,.T.);
#519=EDGE_CURVE('',#412,#386,#255,.T.);
#520=EDGE_CURVE('',#411,#383,#256,.T.);
#521=EDGE_CURVE('',#367,#407,#257,.T.);
#522=EDGE_CURVE('',#368,#409,#258,.T.);
#523=EDGE_CURVE('',#369,#408,#259,.T.);
#524=EDGE_CURVE('',#370,#410,#260,.T.);
#525=ORIENTED_EDGE('',*,*,#415,.F.);
#526=ORIENTED_EDGE('',*,*,#416,.F.);
#527=ORIENTED_EDGE('',*,*,#417,.T.);
#528=ORIENTED_EDGE('',*,*,#418,.F.);
#529=ORIENTED_EDGE('',*,*,#419,.F.);
#530=ORIENTED_EDGE('',*,*,#420,.T.);
#531=ORIENTED_EDGE('',*,*,#421,.F.);
#532=ORIENTED_EDGE('',*,*,#422,.F.);
#533=ORIENTED_EDGE('',*,*,#423,.F.);
#534=ORIENTED_EDGE('',*,*,#424,.T.);
#535=ORIENTED_EDGE('',*,*,#425,.T.);
#536=ORIENTED_EDGE('',*,*,#426,.F.);
#537=ORIENTED_EDGE('',*,*,#427,.F.);
#538=ORIENTED_EDGE('',*,*,#428,.T.);
#539=ORIENTED_EDGE('',*,*,#429,.F.);
#540=ORIENTED_EDGE('',*,*,#430,.F.);
#541=ORIENTED_EDGE('',*,*,#431,.T.);
#542=ORIENTED_EDGE('',*,*,#419,.T.);
#543=ORIENTED_EDGE('',*,*,#432,.T.);
#544=ORIENTED_EDGE('',*,*,#423,.T.);
#545=ORIENTED_EDGE('',*,*,#433,.T.);
#546=ORIENTED_EDGE('',*,*,#416,.T.);
#547=ORIENTED_EDGE('',*,*,#434,.T.);
#548=ORIENTED_EDGE('',*,*,#435,.T.);
#549=ORIENTED_EDGE('',*,*,#436,.T.);
#550=ORIENTED_EDGE('',*,*,#437,.T.);
#551=ORIENTED_EDGE('',*,*,#438,.T.);
#552=ORIENTED_EDGE('',*,*,#439,.T.);
#553=ORIENTED_EDGE('',*,*,#440,.T.);
#554=ORIENTED_EDGE('',*,*,#441,.T.);
#555=ORIENTED_EDGE('',*,*,#442,.T.);
#556=ORIENTED_EDGE('',*,*,#426,.T.);
#557=ORIENTED_EDGE('',*,*,#443,.T.);
#558=ORIENTED_EDGE('',*,*,#444,.T.);
#559=ORIENTED_EDGE('',*,*,#445,.T.);
#560=ORIENTED_EDGE('',*,*,#446,.T.);
#561=ORIENTED_EDGE('',*,*,#433,.F.);
#562=ORIENTED_EDGE('',*,*,#425,.F.);
#563=ORIENTED_EDGE('',*,*,#447,.F.);
#564=ORIENTED_EDGE('',*,*,#417,.F.);
#565=ORIENTED_EDGE('',*,*,#448,.F.);
#566=ORIENTED_EDGE('',*,*,#420,.F.);
#567=ORIENTED_EDGE('',*,*,#431,.F.);
#568=ORIENTED_EDGE('',*,*,#422,.T.);
#569=ORIENTED_EDGE('',*,*,#432,.F.);
#570=ORIENTED_EDGE('',*,*,#418,.T.);
#571=ORIENTED_EDGE('',*,*,#447,.T.);
#572=ORIENTED_EDGE('',*,*,#424,.F.);
#573=ORIENTED_EDGE('',*,*,#449,.T.);
#574=ORIENTED_EDGE('',*,*,#450,.T.);
#575=ORIENTED_EDGE('',*,*,#451,.T.);
#576=ORIENTED_EDGE('',*,*,#452,.T.);
#577=ORIENTED_EDGE('',*,*,#449,.F.);
#578=ORIENTED_EDGE('',*,*,#453,.T.);
#579=ORIENTED_EDGE('',*,*,#454,.F.);
#580=ORIENTED_EDGE('',*,*,#430,.T.);
#581=ORIENTED_EDGE('',*,*,#455,.F.);
#582=ORIENTED_EDGE('',*,*,#456,.T.);
#583=ORIENTED_EDGE('',*,*,#457,.F.);
#584=ORIENTED_EDGE('',*,*,#458,.T.);
#585=ORIENTED_EDGE('',*,*,#459,.T.);
#586=ORIENTED_EDGE('',*,*,#460,.T.);
#587=ORIENTED_EDGE('',*,*,#461,.T.);
#588=ORIENTED_EDGE('',*,*,#462,.T.);
#589=ORIENTED_EDGE('',*,*,#463,.T.);
#590=ORIENTED_EDGE('',*,*,#464,.T.);
#591=ORIENTED_EDGE('',*,*,#465,.T.);
#592=ORIENTED_EDGE('',*,*,#466,.T.);
#593=ORIENTED_EDGE('',*,*,#452,.F.);
#594=ORIENTED_EDGE('',*,*,#467,.T.);
#595=ORIENTED_EDGE('',*,*,#468,.F.);
#596=ORIENTED_EDGE('',*,*,#453,.F.);
#597=ORIENTED_EDGE('',*,*,#454,.T.);
#598=ORIENTED_EDGE('',*,*,#468,.T.);
#599=ORIENTED_EDGE('',*,*,#469,.T.);
#600=ORIENTED_EDGE('',*,*,#427,.T.);
#601=ORIENTED_EDGE('',*,*,#470,.T.);
#602=ORIENTED_EDGE('',*,*,#471,.T.);
#603=ORIENTED_EDGE('',*,*,#457,.T.);
#604=ORIENTED_EDGE('',*,*,#472,.T.);
#605=ORIENTED_EDGE('',*,*,#472,.F.);
#606=ORIENTED_EDGE('',*,*,#456,.F.);
#607=ORIENTED_EDGE('',*,*,#473,.F.);
#608=ORIENTED_EDGE('',*,*,#474,.T.);
#609=ORIENTED_EDGE('',*,*,#455,.T.);
#610=ORIENTED_EDGE('',*,*,#429,.T.);
#611=ORIENTED_EDGE('',*,*,#475,.T.);
#612=ORIENTED_EDGE('',*,*,#473,.T.);
#613=ORIENTED_EDGE('',*,*,#450,.F.);
#614=ORIENTED_EDGE('',*,*,#458,.F.);
#615=ORIENTED_EDGE('',*,*,#471,.F.);
#616=ORIENTED_EDGE('',*,*,#476,.T.);
#617=ORIENTED_EDGE('',*,*,#477,.F.);
#618=ORIENTED_EDGE('',*,*,#478,.F.);
#619=ORIENTED_EDGE('',*,*,#479,.F.);
#620=ORIENTED_EDGE('',*,*,#480,.F.);
#621=ORIENTED_EDGE('',*,*,#479,.T.);
#622=ORIENTED_EDGE('',*,*,#481,.T.);
#623=ORIENTED_EDGE('',*,*,#482,.T.);
#624=ORIENTED_EDGE('',*,*,#483,.F.);
#625=ORIENTED_EDGE('',*,*,#484,.T.);
#626=ORIENTED_EDGE('',*,*,#485,.T.);
#627=ORIENTED_EDGE('',*,*,#477,.T.);
#628=ORIENTED_EDGE('',*,*,#486,.T.);
#629=ORIENTED_EDGE('',*,*,#478,.T.);
#630=ORIENTED_EDGE('',*,*,#485,.F.);
#631=ORIENTED_EDGE('',*,*,#487,.T.);
#632=ORIENTED_EDGE('',*,*,#481,.F.);
#633=ORIENTED_EDGE('',*,*,#488,.T.);
#634=ORIENTED_EDGE('',*,*,#486,.F.);
#635=ORIENTED_EDGE('',*,*,#480,.T.);
#636=ORIENTED_EDGE('',*,*,#483,.T.);
#637=ORIENTED_EDGE('',*,*,#487,.F.);
#638=ORIENTED_EDGE('',*,*,#489,.F.);
#639=ORIENTED_EDGE('',*,*,#490,.F.);
#640=ORIENTED_EDGE('',*,*,#491,.F.);
#641=ORIENTED_EDGE('',*,*,#484,.F.);
#642=ORIENTED_EDGE('',*,*,#492,.T.);
#643=ORIENTED_EDGE('',*,*,#493,.F.);
#644=ORIENTED_EDGE('',*,*,#489,.T.);
#645=ORIENTED_EDGE('',*,*,#488,.F.);
#646=ORIENTED_EDGE('',*,*,#494,.F.);
#647=ORIENTED_EDGE('',*,*,#495,.T.);
#648=ORIENTED_EDGE('',*,*,#492,.F.);
#649=ORIENTED_EDGE('',*,*,#482,.F.);
#650=ORIENTED_EDGE('',*,*,#491,.T.);
#651=ORIENTED_EDGE('',*,*,#496,.F.);
#652=ORIENTED_EDGE('',*,*,#494,.T.);
#653=ORIENTED_EDGE('',*,*,#436,.F.);
#654=ORIENTED_EDGE('',*,*,#497,.F.);
#655=ORIENTED_EDGE('',*,*,#460,.F.);
#656=ORIENTED_EDGE('',*,*,#498,.F.);
#657=ORIENTED_EDGE('',*,*,#440,.F.);
#658=ORIENTED_EDGE('',*,*,#499,.T.);
#659=ORIENTED_EDGE('',*,*,#500,.F.);
#660=ORIENTED_EDGE('',*,*,#501,.F.);
#661=ORIENTED_EDGE('',*,*,#493,.T.);
#662=ORIENTED_EDGE('',*,*,#495,.F.);
#663=ORIENTED_EDGE('',*,*,#496,.T.);
#664=ORIENTED_EDGE('',*,*,#490,.T.);
#665=ORIENTED_EDGE('',*,*,#502,.F.);
#666=ORIENTED_EDGE('',*,*,#503,.F.);
#667=ORIENTED_EDGE('',*,*,#438,.F.);
#668=ORIENTED_EDGE('',*,*,#504,.T.);
#669=ORIENTED_EDGE('',*,*,#505,.F.);
#670=ORIENTED_EDGE('',*,*,#504,.F.);
#671=ORIENTED_EDGE('',*,*,#437,.F.);
#672=ORIENTED_EDGE('',*,*,#501,.T.);
#673=ORIENTED_EDGE('',*,*,#506,.F.);
#674=ORIENTED_EDGE('',*,*,#499,.F.);
#675=ORIENTED_EDGE('',*,*,#439,.F.);
#676=ORIENTED_EDGE('',*,*,#503,.T.);
#677=ORIENTED_EDGE('',*,*,#451,.F.);
#678=ORIENTED_EDGE('',*,*,#476,.F.);
#679=ORIENTED_EDGE('',*,*,#470,.F.);
#680=ORIENTED_EDGE('',*,*,#474,.F.);
#681=ORIENTED_EDGE('',*,*,#475,.F.);
#682=ORIENTED_EDGE('',*,*,#428,.F.);
#683=ORIENTED_EDGE('',*,*,#469,.F.);
#684=ORIENTED_EDGE('',*,*,#467,.F.);
#685=ORIENTED_EDGE('',*,*,#500,.T.);
#686=ORIENTED_EDGE('',*,*,#506,.T.);
#687=ORIENTED_EDGE('',*,*,#502,.T.);
#688=ORIENTED_EDGE('',*,*,#505,.T.);
#689=ORIENTED_EDGE('',*,*,#507,.F.);
#690=ORIENTED_EDGE('',*,*,#508,.F.);
#691=ORIENTED_EDGE('',*,*,#509,.F.);
#692=ORIENTED_EDGE('',*,*,#510,.F.);
#693=ORIENTED_EDGE('',*,*,#511,.F.);
#694=ORIENTED_EDGE('',*,*,#512,.F.);
#695=ORIENTED_EDGE('',*,*,#513,.F.);
#696=ORIENTED_EDGE('',*,*,#514,.F.);
#697=ORIENTED_EDGE('',*,*,#435,.F.);
#698=ORIENTED_EDGE('',*,*,#515,.F.);
#699=ORIENTED_EDGE('',*,*,#461,.F.);
#700=ORIENTED_EDGE('',*,*,#497,.T.);
#701=ORIENTED_EDGE('',*,*,#441,.F.);
#702=ORIENTED_EDGE('',*,*,#498,.T.);
#703=ORIENTED_EDGE('',*,*,#459,.F.);
#704=ORIENTED_EDGE('',*,*,#516,.F.);
#705=ORIENTED_EDGE('',*,*,#448,.T.);
#706=ORIENTED_EDGE('',*,*,#421,.T.);
#707=ORIENTED_EDGE('',*,*,#442,.F.);
#708=ORIENTED_EDGE('',*,*,#516,.T.);
#709=ORIENTED_EDGE('',*,*,#462,.F.);
#710=ORIENTED_EDGE('',*,*,#515,.T.);
#711=ORIENTED_EDGE('',*,*,#434,.F.);
#712=ORIENTED_EDGE('',*,*,#415,.T.);
#713=ORIENTED_EDGE('',*,*,#514,.T.);
#714=ORIENTED_EDGE('',*,*,#517,.T.);
#715=ORIENTED_EDGE('',*,*,#465,.F.);
#716=ORIENTED_EDGE('',*,*,#517,.F.);
#717=ORIENTED_EDGE('',*,*,#513,.T.);
#718=ORIENTED_EDGE('',*,*,#518,.T.);
#719=ORIENTED_EDGE('',*,*,#464,.F.);
#720=ORIENTED_EDGE('',*,*,#518,.F.);
#721=ORIENTED_EDGE('',*,*,#512,.T.);
#722=ORIENTED_EDGE('',*,*,#519,.T.);
#723=ORIENTED_EDGE('',*,*,#466,.F.);
#724=ORIENTED_EDGE('',*,*,#519,.F.);
#725=ORIENTED_EDGE('',*,*,#511,.T.);
#726=ORIENTED_EDGE('',*,*,#520,.T.);
#727=ORIENTED_EDGE('',*,*,#463,.F.);
#728=ORIENTED_EDGE('',*,*,#520,.F.);
#729=ORIENTED_EDGE('',*,*,#443,.F.);
#730=ORIENTED_EDGE('',*,*,#521,.T.);
#731=ORIENTED_EDGE('',*,*,#507,.T.);
#732=ORIENTED_EDGE('',*,*,#521,.F.);
#733=ORIENTED_EDGE('',*,*,#444,.F.);
#734=ORIENTED_EDGE('',*,*,#522,.T.);
#735=ORIENTED_EDGE('',*,*,#509,.T.);
#736=ORIENTED_EDGE('',*,*,#522,.F.);
#737=ORIENTED_EDGE('',*,*,#445,.F.);
#738=ORIENTED_EDGE('',*,*,#523,.T.);
#739=ORIENTED_EDGE('',*,*,#508,.T.);
#740=ORIENTED_EDGE('',*,*,#523,.F.);
#741=ORIENTED_EDGE('',*,*,#446,.F.);
#742=ORIENTED_EDGE('',*,*,#524,.T.);
#743=ORIENTED_EDGE('',*,*,#510,.T.);
#744=ORIENTED_EDGE('',*,*,#524,.F.);
#745=PLANE('',#821);
#746=PLANE('',#822);
#747=PLANE('',#823);
#748=PLANE('',#824);
#749=PLANE('',#829);
#750=PLANE('',#830);
#751=PLANE('',#831);
#752=PLANE('',#835);
#753=PLANE('',#843);
#754=PLANE('',#848);
#755=PLANE('',#851);
#756=PLANE('',#860);
#757=PLANE('',#861);
#758=PLANE('',#862);
#759=PLANE('',#863);
#760=PLANE('',#864);
#761=PLANE('',#865);
#762=PLANE('',#866);
#763=PLANE('',#867);
#764=PLANE('',#868);
#765=PLANE('',#877);
#766=PLANE('',#878);
#767=PLANE('',#879);
#768=ADVANCED_FACE('',(#80),#745,.F.);
#769=ADVANCED_FACE('',(#81),#746,.F.);
#770=ADVANCED_FACE('',(#82,#59),#747,.T.);
#771=ADVANCED_FACE('',(#83,#60,#61,#62,#63),#748,.T.);
#772=ADVANCED_FACE('',(#84),#749,.F.);
#773=ADVANCED_FACE('',(#85),#750,.F.);
#774=ADVANCED_FACE('',(#86),#751,.F.);
#775=ADVANCED_FACE('',(#87),#19,.T.);
#776=ADVANCED_FACE('',(#88,#64,#65,#66,#67,#68),#752,.T.);
#777=ADVANCED_FACE('',(#89),#753,.T.);
#778=ADVANCED_FACE('',(#90),#20,.T.);
#779=ADVANCED_FACE('',(#91),#21,.T.);
#780=ADVANCED_FACE('',(#92),#754,.T.);
#781=ADVANCED_FACE('',(#93),#22,.T.);
#782=ADVANCED_FACE('',(#94,#69),#755,.T.);
#783=ADVANCED_FACE('',(#95),#23,.T.);
#784=ADVANCED_FACE('',(#96),#24,.T.);
#785=ADVANCED_FACE('',(#97),#25,.T.);
#786=ADVANCED_FACE('',(#98),#26,.T.);
#787=ADVANCED_FACE('',(#99),#756,.F.);
#788=ADVANCED_FACE('',(#100),#757,.F.);
#789=ADVANCED_FACE('',(#101),#758,.T.);
#790=ADVANCED_FACE('',(#102),#759,.F.);
#791=ADVANCED_FACE('',(#103,#70),#760,.F.);
#792=ADVANCED_FACE('',(#104),#761,.F.);
#793=ADVANCED_FACE('',(#105),#762,.F.);
#794=ADVANCED_FACE('',(#106),#763,.F.);
#795=ADVANCED_FACE('',(#107,#71,#72,#73,#74,#75,#76,#77,#78,#79),#764,.F.);
#796=ADVANCED_FACE('',(#108),#765,.F.);
#797=ADVANCED_FACE('',(#109),#766,.F.);
#798=ADVANCED_FACE('',(#110),#767,.F.);
#799=ADVANCED_FACE('',(#111),#27,.F.);
#800=ADVANCED_FACE('',(#112),#28,.F.);
#801=ADVANCED_FACE('',(#113),#29,.F.);
#802=ADVANCED_FACE('',(#114),#30,.F.);
#803=ADVANCED_FACE('',(#115),#31,.F.);
#804=ADVANCED_FACE('',(#116),#32,.F.);
#805=ADVANCED_FACE('',(#117),#33,.F.);
#806=ADVANCED_FACE('',(#118),#34,.F.);
#807=CLOSED_SHELL('',(#768,#769,#770,#771,#772,#773,#774,#775,#776,#777,
#778,#779,#780,#781,#782,#783,#784,#785,#786,#787,#788,#789,#790,#791,#792,
#793,#794,#795,#796,#797,#798,#799,#800,#801,#802,#803,#804,#805,#806));
#808=DERIVED_UNIT_ELEMENT(#810,1.);
#809=DERIVED_UNIT_ELEMENT(#1333,-3.);
#810=(
MASS_UNIT()
NAMED_UNIT(*)
SI_UNIT(.KILO.,.GRAM.)
);
#811=DERIVED_UNIT((#808,#809));
#812=MEASURE_REPRESENTATION_ITEM('density measure',
POSITIVE_RATIO_MEASURE(952.),#811);
#813=PROPERTY_DEFINITION_REPRESENTATION(#818,#815);
#814=PROPERTY_DEFINITION_REPRESENTATION(#819,#816);
#815=REPRESENTATION('material name',(#817),#1330);
#816=REPRESENTATION('density',(#812),#1330);
#817=DESCRIPTIVE_REPRESENTATION_ITEM('Plastic, Opaque White',
'Plastic, Opaque White');
#818=PROPERTY_DEFINITION('material property','material name',#1340);
#819=PROPERTY_DEFINITION('material property','density of part',#1340);
#820=AXIS2_PLACEMENT_3D('',#1106,#888,#889);
#821=AXIS2_PLACEMENT_3D('',#1107,#890,#891);
#822=AXIS2_PLACEMENT_3D('',#1120,#898,#899);
#823=AXIS2_PLACEMENT_3D('',#1133,#906,#907);
#824=AXIS2_PLACEMENT_3D('',#1144,#914,#915);
#825=AXIS2_PLACEMENT_3D('',#1164,#926,#927);
#826=AXIS2_PLACEMENT_3D('',#1166,#928,#929);
#827=AXIS2_PLACEMENT_3D('',#1168,#930,#931);
#828=AXIS2_PLACEMENT_3D('',#1170,#932,#933);
#829=AXIS2_PLACEMENT_3D('',#1171,#934,#935);
#830=AXIS2_PLACEMENT_3D('',#1173,#937,#938);
#831=AXIS2_PLACEMENT_3D('',#1175,#940,#941);
#832=AXIS2_PLACEMENT_3D('',#1176,#942,#943);
#833=AXIS2_PLACEMENT_3D('',#1179,#944,#945);
#834=AXIS2_PLACEMENT_3D('',#1183,#947,#948);
#835=AXIS2_PLACEMENT_3D('',#1185,#950,#951);
#836=AXIS2_PLACEMENT_3D('',#1188,#953,#954);
#837=AXIS2_PLACEMENT_3D('',#1190,#955,#956);
#838=AXIS2_PLACEMENT_3D('',#1194,#958,#959);
#839=AXIS2_PLACEMENT_3D('',#1205,#965,#966);
#840=AXIS2_PLACEMENT_3D('',#1207,#967,#968);
#841=AXIS2_PLACEMENT_3D('',#1209,#969,#970);
#842=AXIS2_PLACEMENT_3D('',#1211,#971,#972);
#843=AXIS2_PLACEMENT_3D('',#1212,#973,#974);
#844=AXIS2_PLACEMENT_3D('',#1216,#977,#978);
#845=AXIS2_PLACEMENT_3D('',#1217,#979,#980);
#846=AXIS2_PLACEMENT_3D('',#1218,#981,#982);
#847=AXIS2_PLACEMENT_3D('',#1221,#983,#984);
#848=AXIS2_PLACEMENT_3D('',#1224,#987,#988);
#849=AXIS2_PLACEMENT_3D('',#1228,#991,#992);
#850=AXIS2_PLACEMENT_3D('',#1229,#993,#994);
#851=AXIS2_PLACEMENT_3D('',#1230,#995,#996);
#852=AXIS2_PLACEMENT_3D('',#1240,#1002,#1003);
#853=AXIS2_PLACEMENT_3D('',#1242,#1004,#1005);
#854=AXIS2_PLACEMENT_3D('',#1245,#1007,#1008);
#855=AXIS2_PLACEMENT_3D('',#1246,#1009,#1010);
#856=AXIS2_PLACEMENT_3D('',#1250,#1012,#1013);
#857=AXIS2_PLACEMENT_3D('',#1251,#1014,#1015);
#858=AXIS2_PLACEMENT_3D('',#1252,#1016,#1017);
#859=AXIS2_PLACEMENT_3D('',#1254,#1019,#1020);
#860=AXIS2_PLACEMENT_3D('',#1256,#1022,#1023);
#861=AXIS2_PLACEMENT_3D('',#1262,#1027,#1028);
#862=AXIS2_PLACEMENT_3D('',#1266,#1031,#1032);
#863=AXIS2_PLACEMENT_3D('',#1270,#1035,#1036);
#864=AXIS2_PLACEMENT_3D('',#1272,#1038,#1039);
#865=AXIS2_PLACEMENT_3D('',#1280,#1045,#1046);
#866=AXIS2_PLACEMENT_3D('',#1286,#1050,#1051);
#867=AXIS2_PLACEMENT_3D('',#1288,#1053,#1054);
#868=AXIS2_PLACEMENT_3D('',#1290,#1056,#1057);
#869=AXIS2_PLACEMENT_3D('',#1292,#1058,#1059);
#870=AXIS2_PLACEMENT_3D('',#1294,#1060,#1061);
#871=AXIS2_PLACEMENT_3D('',#1296,#1062,#1063);
#872=AXIS2_PLACEMENT_3D('',#1298,#1064,#1065);
#873=AXIS2_PLACEMENT_3D('',#1300,#1066,#1067);
#874=AXIS2_PLACEMENT_3D('',#1302,#1068,#1069);
#875=AXIS2_PLACEMENT_3D('',#1304,#1070,#1071);
#876=AXIS2_PLACEMENT_3D('',#1306,#1072,#1073);
#877=AXIS2_PLACEMENT_3D('',#1307,#1074,#1075);
#878=AXIS2_PLACEMENT_3D('',#1309,#1077,#1078);
#879=AXIS2_PLACEMENT_3D('',#1311,#1080,#1081);
#880=AXIS2_PLACEMENT_3D('',#1312,#1082,#1083);
#881=AXIS2_PLACEMENT_3D('',#1314,#1085,#1086);
#882=AXIS2_PLACEMENT_3D('',#1316,#1088,#1089);
#883=AXIS2_PLACEMENT_3D('',#1318,#1091,#1092);
#884=AXIS2_PLACEMENT_3D('',#1320,#1094,#1095);
#885=AXIS2_PLACEMENT_3D('',#1322,#1097,#1098);
#886=AXIS2_PLACEMENT_3D('',#1324,#1100,#1101);
#887=AXIS2_PLACEMENT_3D('',#1326,#1103,#1104);
#888=DIRECTION('axis',(0.,0.,1.));
#889=DIRECTION('refdir',(1.,0.,0.));
#890=DIRECTION('center_axis',(1.,0.,-9.57088814332031E-17));
#891=DIRECTION('ref_axis',(-9.57088814332031E-17,0.,-1.));
#892=DIRECTION('',(9.57088814332031E-17,0.,1.));
#893=DIRECTION('',(0.,-1.,0.));
#894=DIRECTION('',(-9.57088814332031E-17,0.,-1.));
#895=DIRECTION('',(0.,1.,0.));
#896=DIRECTION('',(-9.57088814332031E-17,0.,-1.));
#897=DIRECTION('',(0.,1.,0.));
#898=DIRECTION('center_axis',(-1.,0.,0.));
#899=DIRECTION('ref_axis',(0.,0.,1.));
#900=DIRECTION('',(0.,0.,-1.));
#901=DIRECTION('',(0.,1.,0.));
#902=DIRECTION('',(0.,0.,1.));
#903=DIRECTION('',(0.,1.,0.));
#904=DIRECTION('',(0.,0.,1.));
#905=DIRECTION('',(0.,1.,0.));
#906=DIRECTION('center_axis',(0.,-1.,0.));
#907=DIRECTION('ref_axis',(1.,0.,0.));
#908=DIRECTION('',(0.,0.,1.));
#909=DIRECTION('',(1.,0.,0.));
#910=DIRECTION('',(0.,0.,-1.));
#911=DIRECTION('',(1.,0.,0.));
#912=DIRECTION('',(1.,0.,0.));
#913=DIRECTION('',(-1.,0.,0.));
#914=DIRECTION('center_axis',(0.,0.,1.));
#915=DIRECTION('ref_axis',(1.,0.,0.));
#916=DIRECTION('',(1.,0.,0.));
#917=DIRECTION('',(1.,0.,0.));
#918=DIRECTION('',(0.,1.,0.));
#919=DIRECTION('',(-1.,0.,0.));
#920=DIRECTION('',(0.,-1.,0.));
#921=DIRECTION('',(-1.,0.,0.));
#922=DIRECTION('',(0.,1.,0.));
#923=DIRECTION('',(-1.,0.,0.));
#924=DIRECTION('',(0.,-1.,0.));
#925=DIRECTION('',(1.,0.,0.));
#926=DIRECTION('center_axis',(0.,0.,-1.));
#927=DIRECTION('ref_axis',(1.,0.,0.));
#928=DIRECTION('center_axis',(0.,0.,-1.));
#929=DIRECTION('ref_axis',(1.,0.,0.));
#930=DIRECTION('center_axis',(0.,0.,-1.));
#931=DIRECTION('ref_axis',(1.,0.,0.));
#932=DIRECTION('center_axis',(0.,0.,-1.));
#933=DIRECTION('ref_axis',(1.,0.,0.));
#934=DIRECTION('center_axis',(0.,1.,0.));
#935=DIRECTION('ref_axis',(0.,0.,1.));
#936=DIRECTION('',(-1.,0.,0.));
#937=DIRECTION('center_axis',(0.,0.,1.));
#938=DIRECTION('ref_axis',(1.,0.,0.));
#939=DIRECTION('',(-1.,0.,0.));
#940=DIRECTION('center_axis',(0.,0.,-1.));
#941=DIRECTION('ref_axis',(-1.,0.,0.));
#942=DIRECTION('center_axis',(0.,0.,1.));
#943=DIRECTION('ref_axis',(-0.707106781186547,0.707106781186547,0.));
#944=DIRECTION('center_axis',(0.,0.,-1.));
#945=DIRECTION('ref_axis',(-0.707106781186547,0.707106781186547,0.));
#946=DIRECTION('',(0.,0.,-1.));
#947=DIRECTION('center_axis',(0.,0.,1.));
#948=DIRECTION('ref_axis',(-0.707106781186547,0.707106781186547,0.));
#949=DIRECTION('',(0.,0.,1.));
#950=DIRECTION('center_axis',(0.,0.,1.));
#951=DIRECTION('ref_axis',(1.,0.,0.));
#952=DIRECTION('',(0.,-1.,0.));
#953=DIRECTION('center_axis',(0.,0.,-1.));
#954=DIRECTION('ref_axis',(-0.707106781186547,-0.707106781186547,0.));
#955=DIRECTION('center_axis',(0.,0.,-1.));
#956=DIRECTION('ref_axis',(0.707106781186547,-0.707106781186547,0.));
#957=DIRECTION('',(0.,1.,0.));
#958=DIRECTION('center_axis',(0.,0.,-1.));
#959=DIRECTION('ref_axis',(0.707106781186547,0.707106781186547,0.));
#960=DIRECTION('',(-1.,0.,0.));
#961=DIRECTION('',(0.,1.,0.));
#962=DIRECTION('',(1.,0.,0.));
#963=DIRECTION('',(0.,-1.,0.));
#964=DIRECTION('',(-1.,0.,0.));
#965=DIRECTION('center_axis',(0.,0.,-1.));
#966=DIRECTION('ref_axis',(-1.,0.,0.));
#967=DIRECTION('center_axis',(0.,0.,-1.));
#968=DIRECTION('ref_axis',(-1.,0.,0.));
#969=DIRECTION('center_axis',(0.,0.,-1.));
#970=DIRECTION('ref_axis',(-1.,0.,0.));
#971=DIRECTION('center_axis',(0.,0.,-1.));
#972=DIRECTION('ref_axis',(-1.,0.,0.));
#973=DIRECTION('center_axis',(-1.,0.,0.));
#974=DIRECTION('ref_axis',(0.,-1.,0.));
#975=DIRECTION('',(0.,-1.,0.));
#976=DIRECTION('',(0.,0.,-1.));
#977=DIRECTION('center_axis',(0.,0.,1.));
#978=DIRECTION('ref_axis',(-0.707106781186547,-0.707106781186547,0.));
#979=DIRECTION('center_axis',(0.,0.,1.));
#980=DIRECTION('ref_axis',(-0.707106781186547,-0.707106781186547,0.));
#981=DIRECTION('center_axis',(0.,0.,-1.));
#982=DIRECTION('ref_axis',(0.707106781186547,0.707106781186547,0.));
#983=DIRECTION('center_axis',(0.,0.,1.));
#984=DIRECTION('ref_axis',(0.707106781186547,0.707106781186547,0.));
#985=DIRECTION('',(0.,0.,1.));
#986=DIRECTION('',(0.,0.,-1.));
#987=DIRECTION('center_axis',(1.,0.,0.));
#988=DIRECTION('ref_axis',(0.,1.,0.));
#989=DIRECTION('',(0.,0.,1.));
#990=DIRECTION('',(0.,1.,0.));
#991=DIRECTION('center_axis',(0.,0.,1.));
#992=DIRECTION('ref_axis',(0.707106781186547,-0.707106781186547,0.));
#993=DIRECTION('center_axis',(0.,0.,1.));
#994=DIRECTION('ref_axis',(0.707106781186547,-0.707106781186547,0.));
#995=DIRECTION('center_axis',(0.,1.,0.));
#996=DIRECTION('ref_axis',(-1.,0.,0.));
#997=DIRECTION('',(-1.,0.,0.));
#998=DIRECTION('',(1.,0.,0.));
#999=DIRECTION('',(0.,0.,1.));
#1000=DIRECTION('',(-1.,0.,0.));
#1001=DIRECTION('',(0.,0.,-1.));
#1002=DIRECTION('center_axis',(1.,0.,0.));
#1003=DIRECTION('ref_axis',(0.,0.707106781186544,0.707106781186551));
#1004=DIRECTION('center_axis',(0.707106781186547,0.,-0.707106781186548));
#1005=DIRECTION('ref_axis',(-0.707106781186548,0.,-0.707106781186547));
#1006=DIRECTION('',(1.,0.,0.));
#1007=DIRECTION('center_axis',(0.707106781186548,0.,0.707106781186547));
#1008=DIRECTION('ref_axis',(-0.707106781186547,0.,0.707106781186548));
#1009=DIRECTION('center_axis',(-1.,0.,0.));
#1010=DIRECTION('ref_axis',(0.,0.707106781186543,-0.707106781186552));
#1011=DIRECTION('',(-1.,0.,0.));
#1012=DIRECTION('center_axis',(0.707106781186547,0.,0.707106781186548));
#1013=DIRECTION('ref_axis',(0.707106781186548,0.,-0.707106781186547));
#1014=DIRECTION('center_axis',(-0.707106781186549,0.,0.707106781186547));
#1015=DIRECTION('ref_axis',(0.707106781186546,0.,0.707106781186548));
#1016=DIRECTION('center_axis',(0.,0.,-1.));
#1017=DIRECTION('ref_axis',(0.707106781186551,0.707106781186544,0.));
#1018=DIRECTION('',(0.,0.,-1.));
#1019=DIRECTION('center_axis',(0.,0.,-1.));
#1020=DIRECTION('ref_axis',(-0.707106781186548,0.707106781186547,0.));
#1021=DIRECTION('',(0.,0.,1.));
#1022=DIRECTION('center_axis',(-1.,0.,0.));
#1023=DIRECTION('ref_axis',(0.,0.,1.));
#1024=DIRECTION('',(0.,1.,0.));
#1025=DIRECTION('',(0.,0.,1.));
#1026=DIRECTION('',(0.,-1.,0.));
#1027=DIRECTION('center_axis',(0.,0.,1.));
#1028=DIRECTION('ref_axis',(-1.,0.,0.));
#1029=DIRECTION('',(0.,-1.,0.));
#1030=DIRECTION('',(1.,0.,0.));
#1031=DIRECTION('center_axis',(-1.,0.,0.));
#1032=DIRECTION('ref_axis',(0.,0.,1.));
#1033=DIRECTION('',(0.,1.,0.));
#1034=DIRECTION('',(0.,0.,1.));
#1035=DIRECTION('center_axis',(0.,0.,-1.));
#1036=DIRECTION('ref_axis',(1.,0.,0.));
#1037=DIRECTION('',(-1.,0.,0.));
#1038=DIRECTION('center_axis',(0.,1.,0.));
#1039=DIRECTION('ref_axis',(0.,0.,1.));
#1040=DIRECTION('',(0.,0.,-1.));
#1041=DIRECTION('',(0.,0.,1.));
#1042=DIRECTION('',(0.,0.,-1.));
#1043=DIRECTION('',(-1.,0.,0.));
#1044=DIRECTION('',(0.,0.,-1.));
#1045=DIRECTION('center_axis',(0.,-1.,0.));
#1046=DIRECTION('ref_axis',(-1.,0.,0.));
#1047=DIRECTION('',(1.,0.,0.));
#1048=DIRECTION('',(0.,0.,-1.));
#1049=DIRECTION('',(0.,0.,-1.));
#1050=DIRECTION('center_axis',(1.,0.,0.));
#1051=DIRECTION('ref_axis',(0.,-1.,0.));
#1052=DIRECTION('',(0.,1.,0.));
#1053=DIRECTION('center_axis',(-1.,0.,0.));
#1054=DIRECTION('ref_axis',(0.,1.,0.));
#1055=DIRECTION('',(0.,-1.,0.));
#1056=DIRECTION('center_axis',(0.,0.,1.));
#1057=DIRECTION('ref_axis',(1.,0.,0.));
#1058=DIRECTION('center_axis',(0.,0.,-1.));
#1059=DIRECTION('ref_axis',(1.,0.,0.));
#1060=DIRECTION('center_axis',(0.,0.,-1.));
#1061=DIRECTION('ref_axis',(1.,0.,0.));
#1062=DIRECTION('center_axis',(0.,0.,-1.));
#1063=DIRECTION('ref_axis',(1.,0.,0.));
#1064=DIRECTION('center_axis',(0.,0.,-1.));
#1065=DIRECTION('ref_axis',(1.,0.,0.));
#1066=DIRECTION('center_axis',(0.,0.,-1.));
#1067=DIRECTION('ref_axis',(1.,0.,0.));
#1068=DIRECTION('center_axis',(0.,0.,-1.));
#1069=DIRECTION('ref_axis',(1.,0.,0.));
#1070=DIRECTION('center_axis',(0.,0.,-1.));
#1071=DIRECTION('ref_axis',(1.,0.,0.));
#1072=DIRECTION('center_axis',(0.,0.,-1.));
#1073=DIRECTION('ref_axis',(1.,0.,0.));
#1074=DIRECTION('center_axis',(1.,0.,0.));
#1075=DIRECTION('ref_axis',(0.,0.,-1.));
#1076=DIRECTION('',(0.,0.,-1.));
#1077=DIRECTION('center_axis',(-1.,0.,0.));
#1078=DIRECTION('ref_axis',(0.,0.,1.));
#1079=DIRECTION('',(0.,0.,1.));
#1080=DIRECTION('center_axis',(0.,-1.,0.));
#1081=DIRECTION('ref_axis',(0.,0.,-1.));
#1082=DIRECTION('center_axis',(0.,0.,1.));
#1083=DIRECTION('ref_axis',(1.,0.,0.));
#1084=DIRECTION('',(0.,0.,1.));
#1085=DIRECTION('center_axis',(0.,0.,1.));
#1086=DIRECTION('ref_axis',(1.,0.,0.));
#1087=DIRECTION('',(0.,0.,1.));
#1088=DIRECTION('center_axis',(0.,0.,1.));
#1089=DIRECTION('ref_axis',(1.,0.,0.));
#1090=DIRECTION('',(0.,0.,1.));
#1091=DIRECTION('center_axis',(0.,0.,1.));
#1092=DIRECTION('ref_axis',(1.,0.,0.));
#1093=DIRECTION('',(0.,0.,1.));
#1094=DIRECTION('center_axis',(0.,0.,1.));
#1095=DIRECTION('ref_axis',(1.,0.,0.));
#1096=DIRECTION('',(0.,0.,-1.));
#1097=DIRECTION('center_axis',(0.,0.,1.));
#1098=DIRECTION('ref_axis',(1.,0.,0.));
#1099=DIRECTION('',(0.,0.,-1.));
#1100=DIRECTION('center_axis',(0.,0.,1.));
#1101=DIRECTION('ref_axis',(1.,0.,0.));
#1102=DIRECTION('',(0.,0.,-1.));
#1103=DIRECTION('center_axis',(0.,0.,1.));
#1104=DIRECTION('ref_axis',(1.,0.,0.));
#1105=DIRECTION('',(0.,0.,-1.));
#1106=CARTESIAN_POINT('',(0.,0.,0.));
#1107=CARTESIAN_POINT('Origin',(9.38177657381737,-41.,15.3));
#1108=CARTESIAN_POINT('',(9.38177657381737,-35.25,5.));
#1109=CARTESIAN_POINT('',(9.38177657381737,-35.25,15.3));
#1110=CARTESIAN_POINT('',(9.38177657381737,-35.25,7.65));
#1111=CARTESIAN_POINT('',(9.38177657381737,-20.7,5.));
#1112=CARTESIAN_POINT('',(9.38177657381737,-20.5,5.));
#1113=CARTESIAN_POINT('',(9.38177657381737,-20.7,3.7));
#1114=CARTESIAN_POINT('',(9.38177657381737,-20.7,3.7));
#1115=CARTESIAN_POINT('',(9.38177657381737,-41.,3.7));
#1116=CARTESIAN_POINT('',(9.38177657381737,-41.,3.7));
#1117=CARTESIAN_POINT('',(9.38177657381737,-41.,15.3));
#1118=CARTESIAN_POINT('',(9.38177657381737,-41.,7.65));
#1119=CARTESIAN_POINT('',(9.38177657381737,-41.,15.3));
#1120=CARTESIAN_POINT('Origin',(-9.26127664634143,-41.,3.7));
#1121=CARTESIAN_POINT('',(-9.26127664634143,-35.25,15.3));
#1122=CARTESIAN_POINT('',(-9.26127664634143,-35.25,5.));
#1123=CARTESIAN_POINT('',(-9.26127664634143,-35.25,1.85));
#1124=CARTESIAN_POINT('',(-9.26127664634143,-41.,15.3));
#1125=CARTESIAN_POINT('',(-9.26127664634143,-41.,15.3));
#1126=CARTESIAN_POINT('',(-9.26127664634143,-41.,3.7));
#1127=CARTESIAN_POINT('',(-9.26127664634143,-41.,1.85));
#1128=CARTESIAN_POINT('',(-9.26127664634143,-20.7,3.7));
#1129=CARTESIAN_POINT('',(-9.26127664634143,-41.,3.7));
#1130=CARTESIAN_POINT('',(-9.26127664634143,-20.7,5.));
#1131=CARTESIAN_POINT('',(-9.26127664634143,-20.7,15.3));
#1132=CARTESIAN_POINT('',(-9.26127664634143,-20.5,5.));
#1133=CARTESIAN_POINT('Origin',(-27.,-41.,0.));
#1134=CARTESIAN_POINT('',(-24.,-41.,0.));
#1135=CARTESIAN_POINT('',(-24.,-41.,19.));
#1136=CARTESIAN_POINT('',(-24.,-41.,0.));
#1137=CARTESIAN_POINT('',(24.,-41.,0.));
#1138=CARTESIAN_POINT('',(-13.5,-41.,0.));
#1139=CARTESIAN_POINT('',(24.,-41.,19.));
#1140=CARTESIAN_POINT('',(24.,-41.,0.));
#1141=CARTESIAN_POINT('',(27.,-41.,19.));
#1142=CARTESIAN_POINT('',(-17.8,-41.,15.3));
#1143=CARTESIAN_POINT('',(-17.8,-41.,3.7));
#1144=CARTESIAN_POINT('Origin',(0.,0.,5.));
#1145=CARTESIAN_POINT('',(4.49544414345434,-20.7,5.));
#1146=CARTESIAN_POINT('',(22.75,-35.25,5.));
#1147=CARTESIAN_POINT('',(17.75,-35.25,5.));
#1148=CARTESIAN_POINT('',(22.75,33.25,5.));
#1149=CARTESIAN_POINT('',(22.75,28.25,5.));
#1150=CARTESIAN_POINT('',(5.06700088121652,33.25,5.));
#1151=CARTESIAN_POINT('',(-17.75,33.25,5.));
#1152=CARTESIAN_POINT('',(5.06700088121652,26.25,5.));
#1153=CARTESIAN_POINT('',(5.06700088121652,16.625,5.));
#1154=CARTESIAN_POINT('',(-4.93299911878348,26.25,5.));
#1155=CARTESIAN_POINT('',(2.53350044060826,26.25,5.));
#1156=CARTESIAN_POINT('',(-4.93299911878348,33.25,5.));
#1157=CARTESIAN_POINT('',(-4.93299911878348,13.125,5.));
#1158=CARTESIAN_POINT('',(-22.75,33.25,5.));
#1159=CARTESIAN_POINT('',(-17.75,33.25,5.));
#1160=CARTESIAN_POINT('',(-22.75,-35.25,5.));
#1161=CARTESIAN_POINT('',(-22.75,-24.75,5.));
#1162=CARTESIAN_POINT('',(17.75,-35.25,5.));
#1163=CARTESIAN_POINT('',(-15.3647459274255,-21.7497459274255,5.));
#1164=CARTESIAN_POINT('Origin',(-14.2497459274255,-21.7497459274255,5.));
#1165=CARTESIAN_POINT('',(12.6497592731862,21.7499308584044,5.));
#1166=CARTESIAN_POINT('Origin',(13.7497592731862,21.7499308584044,5.));
#1167=CARTESIAN_POINT('',(12.6347592731862,-21.7499308584044,5.));
#1168=CARTESIAN_POINT('Origin',(13.7497592731862,-21.7499308584044,5.));
#1169=CARTESIAN_POINT('',(-15.3647459274255,21.7497459274255,5.));
#1170=CARTESIAN_POINT('Origin',(-14.2497459274255,21.7497459274255,5.));
#1171=CARTESIAN_POINT('Origin',(0.,-20.7,9.5));
#1172=CARTESIAN_POINT('',(-9.26127664634143,-20.7,3.7));
#1173=CARTESIAN_POINT('Origin',(-8.6,-41.,15.3));
#1174=CARTESIAN_POINT('',(4.325,-35.25,15.3));
#1175=CARTESIAN_POINT('Origin',(8.6,-41.,3.7));
#1176=CARTESIAN_POINT('Origin',(-24.,38.,0.));
#1177=CARTESIAN_POINT('',(-27.,38.,19.));
#1178=CARTESIAN_POINT('',(-24.,41.,19.));
#1179=CARTESIAN_POINT('Origin',(-24.,38.,19.));
#1180=CARTESIAN_POINT('',(-24.,41.,0.));
#1181=CARTESIAN_POINT('',(-24.,41.,0.));
#1182=CARTESIAN_POINT('',(-27.,38.,0.));
#1183=CARTESIAN_POINT('Origin',(-24.,38.,0.));
#1184=CARTESIAN_POINT('',(-27.,38.,0.));
#1185=CARTESIAN_POINT('Origin',(0.,0.,19.));
#1186=CARTESIAN_POINT('',(-27.,-38.,19.));
#1187=CARTESIAN_POINT('',(-27.,-41.,19.));
#1188=CARTESIAN_POINT('Origin',(-24.,-38.,19.));
#1189=CARTESIAN_POINT('',(27.,-38.,19.));
#1190=CARTESIAN_POINT('Origin',(24.,-38.,19.));
#1191=CARTESIAN_POINT('',(27.,38.,19.));
#1192=CARTESIAN_POINT('',(27.,41.,19.));
#1193=CARTESIAN_POINT('',(24.,41.,19.));
#1194=CARTESIAN_POINT('Origin',(24.,38.,19.));
#1195=CARTESIAN_POINT('',(-27.,41.,19.));
#1196=CARTESIAN_POINT('',(-22.75,-35.25,19.));
#1197=CARTESIAN_POINT('',(-22.75,33.25,19.));
#1198=CARTESIAN_POINT('',(-22.75,14.125,19.));
#1199=CARTESIAN_POINT('',(22.75,33.25,19.));
#1200=CARTESIAN_POINT('',(-8.625,33.25,19.));
#1201=CARTESIAN_POINT('',(22.75,-35.25,19.));
#1202=CARTESIAN_POINT('',(22.75,14.125,19.));
#1203=CARTESIAN_POINT('',(8.875,-35.25,19.));
#1204=CARTESIAN_POINT('',(-25.2865728752538,38.1715728752538,19.));
#1205=CARTESIAN_POINT('Origin',(-24.1715728752538,38.1715728752538,19.));
#1206=CARTESIAN_POINT('',(-25.2865728752538,-38.1715728752538,19.));
#1207=CARTESIAN_POINT('Origin',(-24.1715728752538,-38.1715728752538,19.));
#1208=CARTESIAN_POINT('',(23.0565728752538,38.1715728752538,19.));
#1209=CARTESIAN_POINT('Origin',(24.1715728752538,38.1715728752538,19.));
#1210=CARTESIAN_POINT('',(23.0565728752538,-38.1715728752538,19.));
#1211=CARTESIAN_POINT('Origin',(24.1715728752538,-38.1715728752538,19.));
#1212=CARTESIAN_POINT('Origin',(-27.,41.,0.));
#1213=CARTESIAN_POINT('',(-27.,-38.,0.));
#1214=CARTESIAN_POINT('',(-27.,20.5,0.));
#1215=CARTESIAN_POINT('',(-27.,-38.,0.));
#1216=CARTESIAN_POINT('Origin',(-24.,-38.,0.));
#1217=CARTESIAN_POINT('Origin',(-24.,-38.,0.));
#1218=CARTESIAN_POINT('Origin',(24.,38.,0.));
#1219=CARTESIAN_POINT('',(27.,38.,0.));
#1220=CARTESIAN_POINT('',(24.,41.,0.));
#1221=CARTESIAN_POINT('Origin',(24.,38.,0.));
#1222=CARTESIAN_POINT('',(24.,41.,0.));
#1223=CARTESIAN_POINT('',(27.,38.,0.));
#1224=CARTESIAN_POINT('Origin',(27.,-41.,0.));
#1225=CARTESIAN_POINT('',(27.,-38.,0.));
#1226=CARTESIAN_POINT('',(27.,-38.,0.));
#1227=CARTESIAN_POINT('',(27.,-20.5,0.));
#1228=CARTESIAN_POINT('Origin',(24.,-38.,0.));
#1229=CARTESIAN_POINT('Origin',(24.,-38.,0.));
#1230=CARTESIAN_POINT('Origin',(27.,41.,0.));
#1231=CARTESIAN_POINT('',(13.5,41.,0.));
#1232=CARTESIAN_POINT('',(-1.24999999999999,41.,15.5));
#1233=CARTESIAN_POINT('',(13.75,41.,15.5));
#1234=CARTESIAN_POINT('',(18.625,41.,15.5));
#1235=CARTESIAN_POINT('',(-1.24999999999999,41.,5.5));
#1236=CARTESIAN_POINT('',(-1.24999999999999,41.,7.));
#1237=CARTESIAN_POINT('',(13.75,41.,5.5));
#1238=CARTESIAN_POINT('',(13.625,41.,5.5));
#1239=CARTESIAN_POINT('',(13.75,41.,3.5));
#1240=CARTESIAN_POINT('Origin',(13.625,39.5,5.5));
#1241=CARTESIAN_POINT('',(0.250000000000013,39.5,7.));
#1242=CARTESIAN_POINT('Origin',(-1.24999999999999,39.5,5.5));
#1243=CARTESIAN_POINT('',(12.25,39.5,7.));
#1244=CARTESIAN_POINT('',(13.625,39.5,7.));
#1245=CARTESIAN_POINT('Origin',(13.75,39.5,5.5));
#1246=CARTESIAN_POINT('Origin',(18.625,39.5,15.5));
#1247=CARTESIAN_POINT('',(12.25,39.5,14.));
#1248=CARTESIAN_POINT('',(0.250000000000013,39.5,14.));
#1249=CARTESIAN_POINT('',(18.625,39.5,14.));
#1250=CARTESIAN_POINT('Origin',(-1.24999999999999,39.5,15.5));
#1251=CARTESIAN_POINT('Origin',(13.75,39.5,15.5));
#1252=CARTESIAN_POINT('Origin',(-1.24999999999999,39.5,7.));
#1253=CARTESIAN_POINT('',(0.250000000000012,39.5,7.));
#1254=CARTESIAN_POINT('Origin',(13.75,39.5,3.5));
#1255=CARTESIAN_POINT('',(12.25,39.5,3.5));
#1256=CARTESIAN_POINT('Origin',(0.250000000000012,29.75,14.));
#1257=CARTESIAN_POINT('',(0.250000000000012,33.25,14.));
#1258=CARTESIAN_POINT('',(0.250000000000013,29.75,14.));
#1259=CARTESIAN_POINT('',(0.250000000000013,33.25,7.));
#1260=CARTESIAN_POINT('',(0.250000000000012,33.25,7.));
#1261=CARTESIAN_POINT('',(0.250000000000013,29.75,7.));
#1262=CARTESIAN_POINT('Origin',(10.25,29.75,14.));
#1263=CARTESIAN_POINT('',(12.25,33.25,14.));
#1264=CARTESIAN_POINT('',(12.25,29.75,14.));
#1265=CARTESIAN_POINT('',(-7.99999999999999,33.25,14.));
#1266=CARTESIAN_POINT('Origin',(12.25,29.75,7.));
#1267=CARTESIAN_POINT('',(12.25,33.25,7.));
#1268=CARTESIAN_POINT('',(12.25,29.75,7.));
#1269=CARTESIAN_POINT('',(12.25,33.25,3.5));
#1270=CARTESIAN_POINT('Origin',(0.250000000000013,29.75,7.));
#1271=CARTESIAN_POINT('',(-8.24999999999999,33.25,7.));
#1272=CARTESIAN_POINT('Origin',(-17.25,33.25,0.));
#1273=CARTESIAN_POINT('',(22.75,33.25,0.));
#1274=CARTESIAN_POINT('',(-22.75,33.25,0.));
#1275=CARTESIAN_POINT('',(-4.93299911878348,33.25,0.));
#1276=CARTESIAN_POINT('',(-4.93299911878348,33.25,5.));
#1277=CARTESIAN_POINT('',(5.06700088121652,33.25,0.));
#1278=CARTESIAN_POINT('',(-2.46649955939174,33.25,0.));
#1279=CARTESIAN_POINT('',(5.06700088121652,33.25,5.));
#1280=CARTESIAN_POINT('Origin',(5.06700088121652,26.25,5.));
#1281=CARTESIAN_POINT('',(-4.93299911878348,26.25,0.));
#1282=CARTESIAN_POINT('',(5.06700088121652,26.25,0.));
#1283=CARTESIAN_POINT('',(2.53350044060826,26.25,0.));
#1284=CARTESIAN_POINT('',(-4.93299911878348,26.25,5.));
#1285=CARTESIAN_POINT('',(5.06700088121652,26.25,5.));
#1286=CARTESIAN_POINT('Origin',(5.06700088121652,33.25,5.));
#1287=CARTESIAN_POINT('',(5.06700088121652,16.625,0.));
#1288=CARTESIAN_POINT('Origin',(-4.93299911878348,26.25,5.));
#1289=CARTESIAN_POINT('',(-4.93299911878348,13.125,0.));
#1290=CARTESIAN_POINT('Origin',(0.,0.,0.));
#1291=CARTESIAN_POINT('',(-15.3647459274255,-21.7497459274255,0.));
#1292=CARTESIAN_POINT('Origin',(-14.2497459274255,-21.7497459274255,0.));
#1293=CARTESIAN_POINT('',(12.6347592731862,-21.7499308584044,0.));
#1294=CARTESIAN_POINT('Origin',(13.7497592731862,-21.7499308584044,0.));
#1295=CARTESIAN_POINT('',(12.6497592731862,21.7499308584044,0.));
#1296=CARTESIAN_POINT('Origin',(13.7497592731862,21.7499308584044,0.));
#1297=CARTESIAN_POINT('',(-15.3647459274255,21.7497459274255,0.));
#1298=CARTESIAN_POINT('Origin',(-14.2497459274255,21.7497459274255,0.));
#1299=CARTESIAN_POINT('',(-25.2865728752538,38.1715728752538,0.));
#1300=CARTESIAN_POINT('Origin',(-24.1715728752538,38.1715728752538,0.));
#1301=CARTESIAN_POINT('',(23.0565728752538,-38.1715728752538,0.));
#1302=CARTESIAN_POINT('Origin',(24.1715728752538,-38.1715728752538,0.));
#1303=CARTESIAN_POINT('',(-25.2865728752538,-38.1715728752538,0.));
#1304=CARTESIAN_POINT('Origin',(-24.1715728752538,-38.1715728752538,0.));
#1305=CARTESIAN_POINT('',(23.0565728752538,38.1715728752538,0.));
#1306=CARTESIAN_POINT('Origin',(24.1715728752538,38.1715728752538,0.));
#1307=CARTESIAN_POINT('Origin',(22.75,24.75,0.));
#1308=CARTESIAN_POINT('',(22.75,-35.25,0.));
#1309=CARTESIAN_POINT('Origin',(-22.75,-24.75,0.));
#1310=CARTESIAN_POINT('',(-22.75,-35.25,0.));
#1311=CARTESIAN_POINT('Origin',(17.25,-35.25,0.));
#1312=CARTESIAN_POINT('Origin',(24.1715728752538,38.1715728752538,-5.));
#1313=CARTESIAN_POINT('',(23.0565728752538,38.1715728752538,-5.));
#1314=CARTESIAN_POINT('Origin',(-24.1715728752538,-38.1715728752538,-5.));
#1315=CARTESIAN_POINT('',(-25.2865728752538,-38.1715728752538,-5.));
#1316=CARTESIAN_POINT('Origin',(24.1715728752538,-38.1715728752538,-5.));
#1317=CARTESIAN_POINT('',(23.0565728752538,-38.1715728752538,-5.));
#1318=CARTESIAN_POINT('Origin',(-24.1715728752538,38.1715728752538,-5.));
#1319=CARTESIAN_POINT('',(-25.2865728752538,38.1715728752538,-5.));
#1320=CARTESIAN_POINT('Origin',(-14.2497459274255,-21.7497459274255,0.));
#1321=CARTESIAN_POINT('',(-15.3647459274255,-21.7497459274255,0.));
#1322=CARTESIAN_POINT('Origin',(13.7497592731862,21.7499308584044,0.));
#1323=CARTESIAN_POINT('',(12.6497592731862,21.7499308584044,0.));
#1324=CARTESIAN_POINT('Origin',(13.7497592731862,-21.7499308584044,0.));
#1325=CARTESIAN_POINT('',(12.6347592731862,-21.7499308584044,0.));
#1326=CARTESIAN_POINT('Origin',(-14.2497459274255,21.7497459274255,0.));
#1327=CARTESIAN_POINT('',(-15.3647459274255,21.7497459274255,0.));
#1328=UNCERTAINTY_MEASURE_WITH_UNIT(LENGTH_MEASURE(0.01),#1332,
'DISTANCE_ACCURACY_VALUE',
'Maximum model space distance between geometric entities at asserted c
onnectivities');
#1329=UNCERTAINTY_MEASURE_WITH_UNIT(LENGTH_MEASURE(0.01),#1332,
'DISTANCE_ACCURACY_VALUE',
'Maximum model space distance between geometric entities at asserted c
onnectivities');
#1330=(
GEOMETRIC_REPRESENTATION_CONTEXT(3)
GLOBAL_UNCERTAINTY_ASSIGNED_CONTEXT((#1328))
GLOBAL_UNIT_ASSIGNED_CONTEXT((#1332,#1334,#1335))
REPRESENTATION_CONTEXT('','3D')
);
#1331=(
GEOMETRIC_REPRESENTATION_CONTEXT(3)
GLOBAL_UNCERTAINTY_ASSIGNED_CONTEXT((#1329))
GLOBAL_UNIT_ASSIGNED_CONTEXT((#1332,#1334,#1335))
REPRESENTATION_CONTEXT('','3D')
);
#1332=(
LENGTH_UNIT()
NAMED_UNIT(*)
SI_UNIT(.MILLI.,.METRE.)
);
#1333=(
LENGTH_UNIT()
NAMED_UNIT(*)
SI_UNIT($,.METRE.)
);
#1334=(
NAMED_UNIT(*)
PLANE_ANGLE_UNIT()
SI_UNIT($,.RADIAN.)
);
#1335=(
NAMED_UNIT(*)
SI_UNIT($,.STERADIAN.)
SOLID_ANGLE_UNIT()
);
#1336=SHAPE_DEFINITION_REPRESENTATION(#1337,#1338);
#1337=PRODUCT_DEFINITION_SHAPE('',$,#1340);
#1338=SHAPE_REPRESENTATION('',(#820),#1330);
#1339=PRODUCT_DEFINITION_CONTEXT('part definition',#1344,'design');
#1340=PRODUCT_DEFINITION('Peekabot 3d design part 1 v1',
'Peekabot 3d design part 1 v1 v21',#1341,#1339);
#1341=PRODUCT_DEFINITION_FORMATION('',$,#1346);
#1342=PRODUCT_RELATED_PRODUCT_CATEGORY(
'Peekabot 3d design part 1 v1 v21','Peekabot 3d design part 1 v1 v21',(#1346));
#1343=APPLICATION_PROTOCOL_DEFINITION('international standard',
'automotive_design',2009,#1344);
#1344=APPLICATION_CONTEXT(
'Core Data for Automotive Mechanical Design Process');
#1345=PRODUCT_CONTEXT('part definition',#1344,'mechanical');
#1346=PRODUCT('Peekabot 3d design part 1 v1',
'Peekabot 3d design part 1 v1 v21',$,(#1345));
#1347=PRESENTATION_STYLE_ASSIGNMENT((#1348));
#1348=SURFACE_STYLE_USAGE(.BOTH.,#1349);
#1349=SURFACE_SIDE_STYLE('',(#1350));
#1350=SURFACE_STYLE_FILL_AREA(#1351);
#1351=FILL_AREA_STYLE('Plastic - Matte (White)',(#1352));
#1352=FILL_AREA_STYLE_COLOUR('Plastic - Matte (White)',#1353);
#1353=COLOUR_RGB('Plastic - Matte (White)',0.964705882352941,0.964705882352941,
0.952941176470588);
ENDSEC;
END-ISO-10303-21;
