%TF.GenerationSoftware,KiCad,Pcbnew,9.0.7*%
%TF.CreationDate,2026-04-14T21:34:59+05:30*%
%TF.ProjectId,peekabot_pcb_v1,7065656b-6162-46f7-945f-7063625f7631,rev?*%
%TF.SameCoordinates,Original*%
%TF.FileFunction,Copper,L1,Top*%
%TF.FilePolarity,Positive*%
%FSLAX46Y46*%
G04 Gerber Fmt 4.6, Leading zero omitted, Abs format (unit mm)*
G04 Created by KiCad (PCBNEW 9.0.7) date 2026-04-14 21:34:59*
%MOMM*%
%LPD*%
G01*
G04 APERTURE LIST*
G04 Aperture macros list*
%AMRoundRect*
0 Rectangle with rounded corners*
0 $1 Rounding radius*
0 $2 $3 $4 $5 $6 $7 $8 $9 X,Y pos of 4 corners*
0 Add a 4 corners polygon primitive as box body*
4,1,4,$2,$3,$4,$5,$6,$7,$8,$9,$2,$3,0*
0 Add four circle primitives for the rounded corners*
1,1,$1+$1,$2,$3*
1,1,$1+$1,$4,$5*
1,1,$1+$1,$6,$7*
1,1,$1+$1,$8,$9*
0 Add four rect primitives between the rounded corners*
20,1,$1+$1,$2,$3,$4,$5,0*
20,1,$1+$1,$4,$5,$6,$7,0*
20,1,$1+$1,$6,$7,$8,$9,0*
20,1,$1+$1,$8,$9,$2,$3,0*%
G04 Aperture macros list end*
%TA.AperFunction,SMDPad,CuDef*%
%ADD10R,0.400000X1.350000*%
%TD*%
%TA.AperFunction,HeatsinkPad*%
%ADD11O,1.200000X1.900000*%
%TD*%
%TA.AperFunction,SMDPad,CuDef*%
%ADD12R,1.200000X1.900000*%
%TD*%
%TA.AperFunction,HeatsinkPad*%
%ADD13C,1.450000*%
%TD*%
%TA.AperFunction,SMDPad,CuDef*%
%ADD14R,1.500000X1.900000*%
%TD*%
%TA.AperFunction,SMDPad,CuDef*%
%ADD15RoundRect,0.250000X0.262500X0.450000X-0.262500X0.450000X-0.262500X-0.450000X0.262500X-0.450000X0*%
%TD*%
%TA.AperFunction,ComponentPad*%
%ADD16R,1.700000X1.700000*%
%TD*%
%TA.AperFunction,ComponentPad*%
%ADD17C,1.700000*%
%TD*%
%TA.AperFunction,SMDPad,CuDef*%
%ADD18RoundRect,0.250000X0.450000X-0.325000X0.450000X0.325000X-0.450000X0.325000X-0.450000X-0.325000X0*%
%TD*%
%TA.AperFunction,SMDPad,CuDef*%
%ADD19RoundRect,0.250000X-0.250000X-0.475000X0.250000X-0.475000X0.250000X0.475000X-0.250000X0.475000X0*%
%TD*%
%TA.AperFunction,SMDPad,CuDef*%
%ADD20RoundRect,0.250000X-0.325000X-0.450000X0.325000X-0.450000X0.325000X0.450000X-0.325000X0.450000X0*%
%TD*%
%TA.AperFunction,SMDPad,CuDef*%
%ADD21RoundRect,0.073750X0.731250X0.221250X-0.731250X0.221250X-0.731250X-0.221250X0.731250X-0.221250X0*%
%TD*%
%TA.AperFunction,SMDPad,CuDef*%
%ADD22R,2.210000X3.100000*%
%TD*%
%TA.AperFunction,ComponentPad*%
%ADD23RoundRect,0.250000X-0.600000X-0.750000X0.600000X-0.750000X0.600000X0.750000X-0.600000X0.750000X0*%
%TD*%
%TA.AperFunction,ComponentPad*%
%ADD24O,1.700000X2.000000*%
%TD*%
%TA.AperFunction,SMDPad,CuDef*%
%ADD25RoundRect,0.250000X0.475000X-0.250000X0.475000X0.250000X-0.475000X0.250000X-0.475000X-0.250000X0*%
%TD*%
%TA.AperFunction,SMDPad,CuDef*%
%ADD26RoundRect,0.250000X-0.262500X-0.450000X0.262500X-0.450000X0.262500X0.450000X-0.262500X0.450000X0*%
%TD*%
%TA.AperFunction,SMDPad,CuDef*%
%ADD27R,1.500000X2.200000*%
%TD*%
%TA.AperFunction,SMDPad,CuDef*%
%ADD28RoundRect,0.250000X-0.475000X0.250000X-0.475000X-0.250000X0.475000X-0.250000X0.475000X0.250000X0*%
%TD*%
%TA.AperFunction,SMDPad,CuDef*%
%ADD29RoundRect,0.250000X0.250000X0.475000X-0.250000X0.475000X-0.250000X-0.475000X0.250000X-0.475000X0*%
%TD*%
%TA.AperFunction,SMDPad,CuDef*%
%ADD30RoundRect,0.250000X0.450000X-0.262500X0.450000X0.262500X-0.450000X0.262500X-0.450000X-0.262500X0*%
%TD*%
%TA.AperFunction,SMDPad,CuDef*%
%ADD31R,0.900000X1.000000*%
%TD*%
%TA.AperFunction,ViaPad*%
%ADD32C,0.600000*%
%TD*%
%TA.AperFunction,Conductor*%
%ADD33C,0.200000*%
%TD*%
G04 APERTURE END LIST*
D10*
%TO.P,J3,1,VBUS*%
%TO.N,Net-(J3-VBUS)*%
X150300000Y-58200000D03*
%TO.P,J3,2,D-*%
%TO.N,unconnected-(J3-D--Pad2)*%
X149650000Y-58200000D03*
%TO.P,J3,3,D+*%
%TO.N,unconnected-(J3-D+-Pad3)*%
X149000000Y-58200000D03*
%TO.P,J3,4,ID*%
%TO.N,unconnected-(J3-ID-Pad4)*%
X148350000Y-58200000D03*
%TO.P,J3,5,GND*%
%TO.N,GND*%
X147700000Y-58200000D03*
D11*
%TO.P,J3,6,Shield*%
X152500000Y-55500000D03*
D12*
X151900000Y-55500000D03*
D13*
X151500000Y-58200000D03*
D14*
X150000000Y-55500000D03*
X148000000Y-55500000D03*
D13*
X146500000Y-58200000D03*
D12*
X146100000Y-55500000D03*
D11*
X145500000Y-55500000D03*
%TD*%
D15*
%TO.P,R3,1*%
%TO.N,Net-(U1-KEY)*%
X140912500Y-85000000D03*
%TO.P,R3,2*%
%TO.N,Net-(D1-A)*%
X139087500Y-85000000D03*
%TD*%
D16*
%TO.P,J1,1,Pin_1*%
%TO.N,3v3*%
X154757000Y-66969534D03*
D17*
%TO.P,J1,2,Pin_2*%
%TO.N,io16*%
X154757000Y-69509534D03*
%TO.P,J1,3,Pin_3*%
%TO.N,io0*%
X154757000Y-72049534D03*
%TO.P,J1,4,Pin_4*%
%TO.N,GND*%
X154757000Y-74589534D03*
%TO.P,J1,5,Pin_5*%
%TO.N,VCC*%
X154757000Y-77129534D03*
%TO.P,J1,6,Pin_6*%
%TO.N,UOR*%
X154757000Y-79669534D03*
%TO.P,J1,7,Pin_7*%
%TO.N,UOT*%
X154757000Y-82209534D03*
%TO.P,J1,8,Pin_8*%
%TO.N,GND*%
X154757000Y-84749534D03*
%TD*%
D18*
%TO.P,D3,1,K*%
%TO.N,GND*%
X150000000Y-68000000D03*
%TO.P,D3,2,A*%
%TO.N,Net-(D3-A)*%
X150000000Y-65950000D03*
%TD*%
D19*
%TO.P,C7,1*%
%TO.N,Net-(C7-Pad1)*%
X135050000Y-77000000D03*
%TO.P,C7,2*%
%TO.N,GND*%
X136950000Y-77000000D03*
%TD*%
%TO.P,C2,1*%
%TO.N,5V*%
X135050000Y-69000000D03*
%TO.P,C2,2*%
%TO.N,GND*%
X136950000Y-69000000D03*
%TD*%
D20*
%TO.P,D1,1,K*%
%TO.N,GND*%
X134862500Y-85000000D03*
%TO.P,D1,2,A*%
%TO.N,Net-(D1-A)*%
X136912500Y-85000000D03*
%TD*%
D16*
%TO.P,J2,1,Pin_1*%
%TO.N,io4*%
X131500000Y-84540000D03*
D17*
%TO.P,J2,2,Pin_2*%
%TO.N,io2*%
X131500000Y-82000000D03*
%TO.P,J2,3,Pin_3*%
%TO.N,io14*%
X131500000Y-79460000D03*
%TO.P,J2,4,Pin_4*%
%TO.N,io15*%
X131500000Y-76920000D03*
%TO.P,J2,5,Pin_5*%
%TO.N,io13*%
X131500000Y-74380000D03*
%TO.P,J2,6,Pin_6*%
%TO.N,io12*%
X131500000Y-71840000D03*
%TO.P,J2,7,Pin_7*%
%TO.N,GND*%
X131500000Y-69300000D03*
%TO.P,J2,8,Pin_8*%
%TO.N,5V*%
X131500000Y-66760000D03*
%TD*%
D21*
%TO.P,U1,1,VIN*%
%TO.N,Net-(J3-VBUS)*%
X145310000Y-70000000D03*
%TO.P,U1,2,LED1*%
%TO.N,Net-(D2-A)*%
X145310000Y-68730000D03*
%TO.P,U1,3,LED2*%
%TO.N,BAT*%
X145310000Y-67460000D03*
%TO.P,U1,4,LED3*%
%TO.N,Net-(D3-A)*%
X145310000Y-66190000D03*
%TO.P,U1,5,KEY*%
%TO.N,Net-(U1-KEY)*%
X140000000Y-66190000D03*
%TO.P,U1,6,BAT*%
%TO.N,BAT*%
X140000000Y-67460000D03*
%TO.P,U1,7,SW*%
%TO.N,Net-(U1-SW)*%
X140000000Y-68730000D03*
%TO.P,U1,8,VOUT*%
%TO.N,5V*%
X140000000Y-70000000D03*
D22*
%TO.P,U1,9,POWERPAD*%
%TO.N,GND*%
X142655000Y-68095000D03*
%TD*%
D23*
%TO.P,J4,1,Pin_1*%
%TO.N,BAT*%
X134750000Y-61032500D03*
D24*
%TO.P,J4,2,Pin_2*%
%TO.N,GND*%
X137250000Y-61032500D03*
%TD*%
D25*
%TO.P,C8,1*%
%TO.N,5V*%
X150000000Y-71900000D03*
%TO.P,C8,2*%
%TO.N,GND*%
X150000000Y-70000000D03*
%TD*%
D26*
%TO.P,R4,1*%
%TO.N,Net-(U1-KEY)*%
X143087500Y-85000000D03*
%TO.P,R4,2*%
%TO.N,Net-(R4-Pad2)*%
X144912500Y-85000000D03*
%TD*%
D27*
%TO.P,L1,1,1*%
%TO.N,Net-(U1-SW)*%
X140300000Y-78500000D03*
%TO.P,L1,2,2*%
%TO.N,BAT*%
X146700000Y-78500000D03*
%TD*%
D20*
%TO.P,D2,1,K*%
%TO.N,GND*%
X142950000Y-63500000D03*
%TO.P,D2,2,A*%
%TO.N,Net-(D2-A)*%
X145000000Y-63500000D03*
%TD*%
D28*
%TO.P,C9,1*%
%TO.N,5V*%
X150000000Y-75000000D03*
%TO.P,C9,2*%
%TO.N,GND*%
X150000000Y-76900000D03*
%TD*%
D19*
%TO.P,C5,1*%
%TO.N,Net-(C5-Pad1)*%
X151600000Y-63500000D03*
%TO.P,C5,2*%
%TO.N,GND*%
X153500000Y-63500000D03*
%TD*%
D29*
%TO.P,C1,1*%
%TO.N,Net-(J3-VBUS)*%
X142400000Y-72500000D03*
%TO.P,C1,2*%
%TO.N,GND*%
X140500000Y-72500000D03*
%TD*%
D15*
%TO.P,R5,1*%
%TO.N,BAT*%
X136775000Y-79500000D03*
%TO.P,R5,2*%
%TO.N,Net-(C7-Pad1)*%
X134950000Y-79500000D03*
%TD*%
D29*
%TO.P,C6,1*%
%TO.N,BAT*%
X136850000Y-74500000D03*
%TO.P,C6,2*%
%TO.N,GND*%
X134950000Y-74500000D03*
%TD*%
D26*
%TO.P,R2,1*%
%TO.N,Net-(J3-VBUS)*%
X144087500Y-72500000D03*
%TO.P,R2,2*%
%TO.N,Net-(C5-Pad1)*%
X145912500Y-72500000D03*
%TD*%
D30*
%TO.P,R1,1*%
%TO.N,io0*%
X150000000Y-84825000D03*
%TO.P,R1,2*%
%TO.N,VCC*%
X150000000Y-83000000D03*
%TD*%
D31*
%TO.P,IO0,1,1*%
%TO.N,io0*%
X148500000Y-98400000D03*
X152600000Y-98400000D03*
%TO.P,IO0,2,2*%
%TO.N,GND*%
X148500000Y-100000000D03*
X152600000Y-100000000D03*
%TD*%
D19*
%TO.P,C3,1*%
%TO.N,5V*%
X135050000Y-71500000D03*
%TO.P,C3,2*%
%TO.N,GND*%
X136950000Y-71500000D03*
%TD*%
D31*
%TO.P,KEY,1,1*%
%TO.N,Net-(R4-Pad2)*%
X133400000Y-98000000D03*
X137500000Y-98000000D03*
%TO.P,KEY,2,2*%
%TO.N,GND*%
X133400000Y-99600000D03*
X137500000Y-99600000D03*
%TD*%
D19*
%TO.P,C4,1*%
%TO.N,5V*%
X135050000Y-66500000D03*
%TO.P,C4,2*%
%TO.N,GND*%
X136950000Y-66500000D03*
%TD*%
D32*
%TO.N,*%
X159000000Y-75000000D03*
X139500000Y-74000000D03*
X149100000Y-74000000D03*
X158000000Y-72000000D03*
X146500000Y-74000000D03*
X140751000Y-74500000D03*
X147900000Y-74500000D03*
%TO.N,GND*%
X154000000Y-88500000D03*
%TO.N,5V*%
X139500000Y-71000000D03*
X147500000Y-72500000D03*
%TO.N,BAT*%
X148500000Y-78500000D03*
X138500000Y-67500000D03*
X134500000Y-63000000D03*
X147000000Y-67500000D03*
X137000000Y-73000000D03*
%TO.N,Net-(D3-A)*%
X145500000Y-65000000D03*
X150000000Y-64100000D03*
%TO.N,VCC*%
X153000000Y-77000000D03*
%TO.N,Net-(U1-SW)*%
X138500000Y-69000000D03*
X138500000Y-78500000D03*
%TD*%
D33*
%TO.N,*%
X149000000Y-74000000D02*
X149100000Y-74000000D01*
X149289840Y-71099000D02*
X148974000Y-71414840D01*
X148500000Y-74500000D02*
X149000000Y-74000000D01*
X150809160Y-71000000D02*
X150710160Y-71099000D01*
X155233760Y-70898534D02*
X154280240Y-70898534D01*
X147533900Y-71899000D02*
X147251057Y-71899000D01*
X140950000Y-74500000D02*
X140751000Y-74500000D01*
X148974000Y-71414840D02*
X148974000Y-71499000D01*
X147251057Y-71899000D02*
X146899000Y-72251057D01*
X155335226Y-71000000D02*
X155233760Y-70898534D01*
X157950466Y-72049534D02*
X157549534Y-72049534D01*
X148974000Y-71499000D02*
X147933900Y-71499000D01*
X140500000Y-74000000D02*
X140500000Y-74500000D01*
X156500000Y-71000000D02*
X155335226Y-71000000D01*
X154178774Y-71000000D02*
X150809160Y-71000000D01*
X146899000Y-72251057D02*
X146899000Y-73601000D01*
X147900000Y-74500000D02*
X148500000Y-74500000D01*
X157549534Y-72049534D02*
X156500000Y-71000000D01*
X140500000Y-74000000D02*
X139500000Y-74000000D01*
X158000000Y-72000000D02*
X157950466Y-72049534D01*
X147933900Y-71499000D02*
X147533900Y-71899000D01*
X140500000Y-74500000D02*
X140950000Y-74500000D01*
X146899000Y-73601000D02*
X146500000Y-74000000D01*
X154280240Y-70898534D02*
X154178774Y-71000000D01*
X150710160Y-71099000D02*
X149289840Y-71099000D01*
%TO.N,Net-(J3-VBUS)*%
X148000000Y-62000000D02*
X148000000Y-69500000D01*
X144087500Y-71222500D02*
X144087500Y-72500000D01*
X150300000Y-58200000D02*
X150300000Y-59700000D01*
X148000000Y-69500000D02*
X147500000Y-70000000D01*
X147500000Y-70000000D02*
X145310000Y-70000000D01*
X150300000Y-59700000D02*
X148000000Y-62000000D01*
X144087500Y-72500000D02*
X142400000Y-72500000D01*
X145310000Y-70000000D02*
X144087500Y-71222500D01*
%TO.N,GND*%
X151500000Y-57923000D02*
X151500000Y-58200000D01*
X137856000Y-65594000D02*
X136950000Y-66500000D01*
X142950000Y-67800000D02*
X142655000Y-68095000D01*
X153351000Y-94101000D02*
X151800000Y-92550000D01*
X130349000Y-68149000D02*
X131500000Y-69300000D01*
X136950000Y-76500000D02*
X136950000Y-77000000D01*
X142950000Y-62950000D02*
X142950000Y-63500000D01*
X132632240Y-64000000D02*
X130349000Y-66283240D01*
X150801000Y-57224000D02*
X151500000Y-57923000D01*
X137250000Y-66200000D02*
X136950000Y-66500000D01*
X141904000Y-65594000D02*
X137856000Y-65594000D01*
X147700000Y-58200000D02*
X146500000Y-58200000D01*
X135535160Y-72526000D02*
X134564840Y-72526000D01*
X137250000Y-64000000D02*
X137250000Y-66200000D01*
X147700000Y-57373000D02*
X147849000Y-57224000D01*
X137250000Y-61032500D02*
X137250000Y-64000000D01*
X150000000Y-55500000D02*
X148000000Y-55500000D01*
X130349000Y-68310160D02*
X130349000Y-66283240D01*
X151500000Y-58200000D02*
X151500000Y-55900000D01*
X137000000Y-64000000D02*
X132632240Y-64000000D01*
X148000000Y-55500000D02*
X146100000Y-55500000D01*
X147849000Y-57224000D02*
X150801000Y-57224000D01*
X147700000Y-58200000D02*
X142950000Y-62950000D01*
X134564840Y-72526000D02*
X130349000Y-68310160D01*
X142655000Y-68095000D02*
X142655000Y-66345000D01*
X153950000Y-88450000D02*
X154000000Y-88500000D01*
X142655000Y-66345000D02*
X141904000Y-65594000D01*
X146100000Y-55500000D02*
X146100000Y-57800000D01*
X130349000Y-66283240D02*
X130349000Y-68149000D01*
X137000000Y-64000000D02*
X137250000Y-64000000D01*
X137660160Y-72210160D02*
X135851000Y-72210160D01*
X151800000Y-88450000D02*
X151800000Y-92550000D01*
X142950000Y-63500000D02*
X142950000Y-67800000D01*
X151900000Y-55500000D02*
X150000000Y-55500000D01*
X137950000Y-72500000D02*
X140500000Y-72500000D01*
X147700000Y-58200000D02*
X147700000Y-57373000D01*
X137950000Y-72500000D02*
X137660160Y-72210160D01*
X146100000Y-57800000D02*
X146500000Y-58200000D01*
X151500000Y-55900000D02*
X151900000Y-55500000D01*
X134950000Y-74500000D02*
X136950000Y-76500000D01*
X152600000Y-100000000D02*
X153351000Y-99249000D01*
X152600000Y-100000000D02*
X148500000Y-100000000D01*
X136950000Y-71500000D02*
X137950000Y-72500000D01*
X136950000Y-69000000D02*
X136950000Y-66500000D01*
X151800000Y-88450000D02*
X153950000Y-88450000D01*
X153351000Y-99249000D02*
X153351000Y-94101000D01*
X135851000Y-72210160D02*
X135535160Y-72526000D01*
%TO.N,5V*%
X135050000Y-71500000D02*
X136076000Y-70474000D01*
X140000000Y-70500000D02*
X139500000Y-71000000D01*
X147500000Y-72500000D02*
X148100000Y-71900000D01*
X140000000Y-70000000D02*
X140000000Y-70500000D01*
X135050000Y-66500000D02*
X131760000Y-66500000D01*
X138974000Y-70474000D02*
X139500000Y-71000000D01*
X150000000Y-75050000D02*
X150000000Y-71950000D01*
X136076000Y-70474000D02*
X138974000Y-70474000D01*
X135050000Y-66500000D02*
X135050000Y-71500000D01*
X148100000Y-71900000D02*
X150000000Y-71900000D01*
X131760000Y-66500000D02*
X131500000Y-66760000D01*
%TO.N,Net-(C5-Pad1)*%
X148401000Y-70011500D02*
X145912500Y-72500000D01*
X149500000Y-63500000D02*
X148401000Y-64599000D01*
X151600000Y-63500000D02*
X149500000Y-63500000D01*
X148401000Y-64599000D02*
X148401000Y-70011500D01*
%TO.N,BAT*%
X134750000Y-62750000D02*
X134500000Y-63000000D01*
X145350000Y-67500000D02*
X145310000Y-67460000D01*
X136850000Y-73150000D02*
X137000000Y-73000000D01*
X136775000Y-79500000D02*
X137751000Y-78524000D01*
X146700000Y-78500000D02*
X148500000Y-78500000D01*
X139960000Y-67500000D02*
X140000000Y-67460000D01*
X134750000Y-61032500D02*
X134750000Y-62750000D01*
X138500000Y-67500000D02*
X139960000Y-67500000D01*
X137751000Y-75401000D02*
X136850000Y-74500000D01*
X136850000Y-74500000D02*
X136850000Y-73150000D01*
X147000000Y-67500000D02*
X145350000Y-67500000D01*
X137751000Y-78524000D02*
X137751000Y-75401000D01*
%TO.N,Net-(C7-Pad1)*%
X134950000Y-79500000D02*
X134950000Y-77100000D01*
X134950000Y-77100000D02*
X135050000Y-77000000D01*
%TO.N,Net-(D1-A)*%
X139087500Y-85000000D02*
X136912500Y-85000000D01*
%TO.N,Net-(D2-A)*%
X145000000Y-63500000D02*
X144204000Y-64296000D01*
X144204000Y-64296000D02*
X144204000Y-68429000D01*
X144204000Y-68429000D02*
X144505000Y-68730000D01*
X144505000Y-68730000D02*
X145310000Y-68730000D01*
%TO.N,Net-(D3-A)*%
X145500000Y-65000000D02*
X145500000Y-66000000D01*
X150000000Y-65950000D02*
X150000000Y-64100000D01*
X145500000Y-66000000D02*
X145310000Y-66190000D01*
%TO.N,VCC*%
X150000000Y-80160000D02*
X153000000Y-77160000D01*
X153000000Y-77160000D02*
X153000000Y-77000000D01*
X150000000Y-83000000D02*
X150000000Y-80160000D01*
%TO.N,io0*%
X150000000Y-96900000D02*
X148500000Y-98400000D01*
X153500000Y-78287760D02*
X153476760Y-78311000D01*
X153601000Y-77248943D02*
X153500000Y-77349943D01*
X150000000Y-84825000D02*
X150000000Y-96900000D01*
X153601000Y-76751057D02*
X153601000Y-77248943D01*
X152500000Y-75650057D02*
X153601000Y-76751057D01*
X151001000Y-83824000D02*
X150000000Y-84825000D01*
X154757000Y-72049534D02*
X154757000Y-72625000D01*
X153476760Y-78311000D02*
X152689000Y-78311000D01*
X153500000Y-77349943D02*
X153500000Y-78287760D01*
X152500000Y-74882000D02*
X152500000Y-75650057D01*
X152689000Y-78311000D02*
X151001000Y-79999000D01*
X148500000Y-98400000D02*
X152600000Y-98400000D01*
X151001000Y-79999000D02*
X151001000Y-83824000D01*
X154757000Y-72625000D02*
X152500000Y-74882000D01*
%TO.N,Net-(U1-SW)*%
X138500000Y-69000000D02*
X139730000Y-69000000D01*
X139730000Y-69000000D02*
X140000000Y-68730000D01*
X140300000Y-78500000D02*
X138500000Y-78500000D01*
%TO.N,Net-(U1-KEY)*%
X140000000Y-66190000D02*
X140805000Y-66190000D01*
X141351000Y-71598160D02*
X141351000Y-84561500D01*
X140805000Y-66190000D02*
X141106000Y-66491000D01*
X141351000Y-84561500D02*
X140912500Y-85000000D01*
X141106000Y-66491000D02*
X141106000Y-71353160D01*
X140912500Y-85000000D02*
X143087500Y-85000000D01*
X141106000Y-71353160D02*
X141351000Y-71598160D01*
%TO.N,Net-(R4-Pad2)*%
X133400000Y-98000000D02*
X137500000Y-98000000D01*
X137500000Y-98000000D02*
X144912500Y-90587500D01*
X144912500Y-90587500D02*
X144912500Y-85000000D01*
%TD*%
%TA.AperFunction,Conductor*%
%TO.N,GND*%
G36*
X137143039Y-71094185D02*
G01*
X137188794Y-71146989D01*
X137200000Y-71198500D01*
X137200000Y-71250000D01*
X137949999Y-71250000D01*
X137949999Y-71198500D01*
X137969684Y-71131461D01*
X138022488Y-71085706D01*
X138073999Y-71074500D01*
X138596872Y-71074500D01*
X138663911Y-71094185D01*
X138709666Y-71146989D01*
X138718489Y-71174308D01*
X138730261Y-71233491D01*
X138730264Y-71233501D01*
X138790602Y-71379172D01*
X138790609Y-71379185D01*
X138878210Y-71510288D01*
X138878213Y-71510292D01*
X138989707Y-71621786D01*
X138989711Y-71621789D01*
X139120814Y-71709390D01*
X139120827Y-71709397D01*
X139218853Y-71750000D01*
X139266503Y-71769737D01*
X139405273Y-71797340D01*
X139467184Y-71829724D01*
X139501758Y-71890440D01*
X139504440Y-71931560D01*
X139500000Y-71975013D01*
X139500000Y-72250000D01*
X140376000Y-72250000D01*
X140443039Y-72269685D01*
X140488794Y-72322489D01*
X140500000Y-72374000D01*
X140500000Y-72626000D01*
X140480315Y-72693039D01*
X140427511Y-72738794D01*
X140376000Y-72750000D01*
X139500001Y-72750000D01*
X139500001Y-73024971D01*
X139500002Y-73024991D01*
X139504440Y-73068441D01*
X139491670Y-73137134D01*
X139443788Y-73188017D01*
X139405274Y-73202658D01*
X139266508Y-73230261D01*
X139266498Y-73230264D01*
X139120827Y-73290602D01*
X139120814Y-73290609D01*
X138989711Y-73378210D01*
X138989707Y-73378213D01*
X138878213Y-73489707D01*
X138878210Y-73489711D01*
X138790609Y-73620814D01*
X138790602Y-73620827D01*
X138730264Y-73766498D01*
X138730261Y-73766510D01*
X138699500Y-73921153D01*
X138699500Y-74078846D01*
X138730261Y-74233489D01*
X138730264Y-74233501D01*
X138790602Y-74379172D01*
X138790609Y-74379185D01*
X138878210Y-74510288D01*
X138878213Y-74510292D01*
X138989707Y-74621786D01*
X138989711Y-74621789D01*
X139120814Y-74709390D01*
X139120827Y-74709397D01*
X139258683Y-74766498D01*
X139266503Y-74769737D01*
X139421153Y-74800499D01*
X139421156Y-74800500D01*
X139421158Y-74800500D01*
X139578844Y-74800500D01*
X139578845Y-74800499D01*
X139733497Y-74769737D01*
X139817706Y-74734856D01*
X139847206Y-74731684D01*
X139876314Y-74725921D01*
X139881562Y-74727991D01*
X139887172Y-74727388D01*
X139913704Y-74740669D01*
X139941310Y-74751558D01*
X139945834Y-74756752D01*
X139949651Y-74758663D01*
X139965796Y-74776978D01*
X139969431Y-74782029D01*
X140019480Y-74868716D01*
X140063550Y-74912786D01*
X140069413Y-74920931D01*
X140069751Y-74921892D01*
X140071875Y-74924480D01*
X140129210Y-75010288D01*
X140129213Y-75010292D01*
X140240707Y-75121786D01*
X140240711Y-75121789D01*
X140371814Y-75209390D01*
X140371827Y-75209397D01*
X140493479Y-75259786D01*
X140517503Y-75269737D01*
X140627987Y-75291713D01*
X140650691Y-75296230D01*
X140712602Y-75328615D01*
X140747176Y-75389330D01*
X140750500Y-75417847D01*
X140750500Y-76775500D01*
X140730815Y-76842539D01*
X140678011Y-76888294D01*
X140626500Y-76899500D01*
X139502129Y-76899500D01*
X139502123Y-76899501D01*
X139442516Y-76905908D01*
X139307671Y-76956202D01*
X139307664Y-76956206D01*
X139192455Y-77042452D01*
X139192452Y-77042455D01*
X139106206Y-77157664D01*
X139106202Y-77157671D01*
X139055908Y-77292517D01*
X139054814Y-77302697D01*
X139049501Y-77352123D01*
X139049500Y-77352135D01*
X139049500Y-77675575D01*
X139029815Y-77742614D01*
X138977011Y-77788369D01*
X138907853Y-77798313D01*
X138878048Y-77790137D01*
X138820571Y-77766330D01*
X138733497Y-77730263D01*
X138733492Y-77730262D01*
X138733489Y-77730261D01*
X138578845Y-77699500D01*
X138578842Y-77699500D01*
X138475500Y-77699500D01*
X138408461Y-77679815D01*
X138362706Y-77627011D01*
X138351500Y-77575500D01*
X138351500Y-75321943D01*
X138345754Y-75300500D01*
X138327801Y-75233497D01*
X138310577Y-75169216D01*
X138310573Y-75169209D01*
X138231524Y-75032290D01*
X138231521Y-75032286D01*
X138231520Y-75032284D01*
X138119716Y-74920480D01*
X138119715Y-74920479D01*
X138115385Y-74916149D01*
X138115374Y-74916139D01*
X137886818Y-74687583D01*
X137853333Y-74626260D01*
X137850499Y-74599902D01*
X137850499Y-73974998D01*
X137850498Y-73974981D01*
X137839999Y-73872203D01*
X137839998Y-73872200D01*
X137784814Y-73705666D01*
X137692712Y-73556344D01*
X137692710Y-73556342D01*
X137688920Y-73550197D01*
X137690302Y-73549344D01*
X137667417Y-73492619D01*
X137680457Y-73423977D01*
X137687723Y-73411611D01*
X137709394Y-73379179D01*
X137769737Y-73233497D01*
X137800500Y-73078842D01*
X137800500Y-72921158D01*
X137800500Y-72921155D01*
X137800499Y-72921153D01*
X137797485Y-72906002D01*
X137769737Y-72766503D01*
X137713405Y-72630506D01*
X137705937Y-72561038D01*
X137737212Y-72498559D01*
X137740287Y-72495372D01*
X137792315Y-72443344D01*
X137884356Y-72294124D01*
X137884358Y-72294119D01*
X137939505Y-72127697D01*
X137939506Y-72127690D01*
X137949999Y-72024986D01*
X137950000Y-72024973D01*
X137950000Y-71750000D01*
X137074000Y-71750000D01*
X137006961Y-71730315D01*
X136961206Y-71677511D01*
X136950000Y-71626000D01*
X136950000Y-71500000D01*
X136824000Y-71500000D01*
X136815314Y-71497449D01*
X136806353Y-71498738D01*
X136782312Y-71487759D01*
X136756961Y-71480315D01*
X136751033Y-71473474D01*
X136742797Y-71469713D01*
X136728507Y-71447478D01*
X136711206Y-71427511D01*
X136708918Y-71416996D01*
X136705023Y-71410935D01*
X136700000Y-71376000D01*
X136700000Y-71198500D01*
X136719685Y-71131461D01*
X136772489Y-71085706D01*
X136824000Y-71074500D01*
X137076000Y-71074500D01*
X137143039Y-71094185D01*
G37*
%TD.AperFunction*%
%TA.AperFunction,Conductor*%
G36*
X135979156Y-75410236D02*
G01*
X136005243Y-75440341D01*
X136007288Y-75443656D01*
X136131344Y-75567712D01*
X136280666Y-75659814D01*
X136284148Y-75660967D01*
X136286222Y-75662404D01*
X136287209Y-75662864D01*
X136287130Y-75663032D01*
X136341592Y-75700739D01*
X136368415Y-75765255D01*
X136356100Y-75834031D01*
X136310240Y-75884211D01*
X136231659Y-75932680D01*
X136231655Y-75932683D01*
X136107683Y-76056655D01*
X136107679Y-76056660D01*
X136105826Y-76059665D01*
X136104018Y-76061290D01*
X136103202Y-76062323D01*
X136103025Y-76062183D01*
X136053874Y-76106385D01*
X135984911Y-76117601D01*
X135920831Y-76089752D01*
X135894753Y-76059653D01*
X135893538Y-76057683D01*
X135892712Y-76056344D01*
X135768656Y-75932288D01*
X135669026Y-75870836D01*
X135619336Y-75840187D01*
X135619335Y-75840186D01*
X135619334Y-75840186D01*
X135615844Y-75839029D01*
X135613767Y-75837591D01*
X135612791Y-75837136D01*
X135612868Y-75836969D01*
X135558403Y-75799254D01*
X135531583Y-75734737D01*
X135543902Y-75665961D01*
X135589760Y-75615787D01*
X135668343Y-75567317D01*
X135792318Y-75443342D01*
X135794165Y-75440348D01*
X135795969Y-75438724D01*
X135796798Y-75437677D01*
X135796976Y-75437818D01*
X135846110Y-75393621D01*
X135915073Y-75382396D01*
X135979156Y-75410236D01*
G37*
%TD.AperFunction*%
%TA.AperFunction,Conductor*%
G36*
X154291075Y-74782527D02*
G01*
X154356901Y-74896541D01*
X154449993Y-74989633D01*
X154564007Y-75055459D01*
X154627590Y-75072496D01*
X153995282Y-75704803D01*
X153995282Y-75704804D01*
X154049452Y-75744160D01*
X154049451Y-75744160D01*
X154058495Y-75748768D01*
X154061255Y-75751375D01*
X154064940Y-75752296D01*
X154086457Y-75775176D01*
X154109292Y-75796742D01*
X154110204Y-75800428D01*
X154112806Y-75803194D01*
X154118536Y-75834074D01*
X154126087Y-75864563D01*
X154124862Y-75868157D01*
X154125555Y-75871891D01*
X154113680Y-75900969D01*
X154103550Y-75930698D01*
X154100159Y-75934081D01*
X154099141Y-75936575D01*
X154091021Y-75943200D01*
X154073430Y-75960754D01*
X154066276Y-75965773D01*
X154049184Y-75974483D01*
X153916584Y-76070821D01*
X153915706Y-76071438D01*
X153883561Y-76082315D01*
X153851555Y-76093735D01*
X153850524Y-76093495D01*
X153849523Y-76093834D01*
X153816594Y-76085604D01*
X153783501Y-76077909D01*
X153782374Y-76077053D01*
X153781738Y-76076894D01*
X153780668Y-76075756D01*
X153756796Y-76057618D01*
X153136819Y-75437641D01*
X153103334Y-75376318D01*
X153100500Y-75349960D01*
X153100500Y-75182096D01*
X153120185Y-75115057D01*
X153136809Y-75094425D01*
X153269042Y-74962192D01*
X153330359Y-74928711D01*
X153400051Y-74933695D01*
X153455985Y-74975566D01*
X153474649Y-75011558D01*
X153505905Y-75107752D01*
X153602375Y-75297084D01*
X153641728Y-75351250D01*
X154274037Y-74718942D01*
X154291075Y-74782527D01*
G37*
%TD.AperFunction*%
%TA.AperFunction,Conductor*%
G36*
X159442539Y-53520185D02*
G01*
X159488294Y-53572989D01*
X159499500Y-53624500D01*
X159499500Y-74154865D01*
X159479815Y-74221904D01*
X159427011Y-74267659D01*
X159357853Y-74277603D01*
X159328048Y-74269427D01*
X159323780Y-74267659D01*
X159233497Y-74230263D01*
X159233494Y-74230262D01*
X159233491Y-74230261D01*
X159078845Y-74199500D01*
X159078842Y-74199500D01*
X158921158Y-74199500D01*
X158921155Y-74199500D01*
X158766510Y-74230261D01*
X158766498Y-74230264D01*
X158620827Y-74290602D01*
X158620814Y-74290609D01*
X158489711Y-74378210D01*
X158489707Y-74378213D01*
X158378213Y-74489707D01*
X158378210Y-74489711D01*
X158290609Y-74620814D01*
X158290602Y-74620827D01*
X158230264Y-74766498D01*
X158230261Y-74766510D01*
X158199500Y-74921153D01*
X158199500Y-75078846D01*
X158230261Y-75233489D01*
X158230264Y-75233501D01*
X158290602Y-75379172D01*
X158290609Y-75379185D01*
X158378210Y-75510288D01*
X158378213Y-75510292D01*
X158489707Y-75621786D01*
X158489711Y-75621789D01*
X158620814Y-75709390D01*
X158620827Y-75709397D01*
X158754948Y-75764951D01*
X158766503Y-75769737D01*
X158914894Y-75799254D01*
X158921153Y-75800499D01*
X158921156Y-75800500D01*
X158921158Y-75800500D01*
X159078844Y-75800500D01*
X159078845Y-75800499D01*
X159233497Y-75769737D01*
X159328048Y-75730572D01*
X159397517Y-75723104D01*
X159459996Y-75754379D01*
X159495648Y-75814468D01*
X159499500Y-75845134D01*
X159499500Y-101875500D01*
X159479815Y-101942539D01*
X159427011Y-101988294D01*
X159375500Y-101999500D01*
X126124500Y-101999500D01*
X126057461Y-101979815D01*
X126011706Y-101927011D01*
X126000500Y-101875500D01*
X126000500Y-99393713D01*
X127149500Y-99393713D01*
X127149500Y-99606287D01*
X127182754Y-99816243D01*
X127193722Y-99850000D01*
X127248444Y-100018414D01*
X127344951Y-100207820D01*
X127469890Y-100379786D01*
X127620213Y-100530109D01*
X127792179Y-100655048D01*
X127792181Y-100655049D01*
X127792184Y-100655051D01*
X127981588Y-100751557D01*
X128183757Y-100817246D01*
X128393713Y-100850500D01*
X128393714Y-100850500D01*
X128606286Y-100850500D01*
X128606287Y-100850500D01*
X128816243Y-100817246D01*
X129018412Y-100751557D01*
X129207816Y-100655051D01*
X129229789Y-100639086D01*
X129379786Y-100530109D01*
X129379788Y-100530106D01*
X129379792Y-100530104D01*
X129530104Y-100379792D01*
X129530106Y-100379788D01*
X129530109Y-100379786D01*
X129655048Y-100207820D01*
X129655047Y-100207820D01*
X129655051Y-100207816D01*
X129685608Y-100147844D01*
X132450000Y-100147844D01*
X132456401Y-100207372D01*
X132456403Y-100207379D01*
X132506645Y-100342086D01*
X132506649Y-100342093D01*
X132592809Y-100457187D01*
X132592812Y-100457190D01*
X132707906Y-100543350D01*
X132707913Y-100543354D01*
X132842620Y-100593596D01*
X132842627Y-100593598D01*
X132902155Y-100599999D01*
X132902172Y-100600000D01*
X133150000Y-100600000D01*
X133650000Y-100600000D01*
X133897828Y-100600000D01*
X133897844Y-100599999D01*
X133957372Y-100593598D01*
X133957379Y-100593596D01*
X134092086Y-100543354D01*
X134092093Y-100543350D01*
X134207187Y-100457190D01*
X134207190Y-100457187D01*
X134293350Y-100342093D01*
X134293354Y-100342086D01*
X134343596Y-100207379D01*
X134343598Y-100207372D01*
X134349999Y-100147844D01*
X136550000Y-100147844D01*
X136556401Y-100207372D01*
X136556403Y-100207379D01*
X136606645Y-100342086D01*
X136606649Y-100342093D01*
X136692809Y-100457187D01*
X136692812Y-100457190D01*
X136807906Y-100543350D01*
X136807913Y-100543354D01*
X136942620Y-100593596D01*
X136942627Y-100593598D01*
X137002155Y-100599999D01*
X137002172Y-100600000D01*
X137250000Y-100600000D01*
X137750000Y-100600000D01*
X137997828Y-100600000D01*
X137997844Y-100599999D01*
X138057372Y-100593598D01*
X138057379Y-100593596D01*
X138180048Y-100547844D01*
X147550000Y-100547844D01*
X147556401Y-100607372D01*
X147556403Y-100607379D01*
X147606645Y-100742086D01*
X147606649Y-100742093D01*
X147692809Y-100857187D01*
X147692812Y-100857190D01*
X147807906Y-100943350D01*
X147807913Y-100943354D01*
X147942620Y-100993596D01*
X147942627Y-100993598D01*
X148002155Y-100999999D01*
X148002172Y-101000000D01*
X148250000Y-101000000D01*
X148750000Y-101000000D01*
X148997828Y-101000000D01*
X148997844Y-100999999D01*
X149057372Y-100993598D01*
X149057379Y-100993596D01*
X149192086Y-100943354D01*
X149192093Y-100943350D01*
X149307187Y-100857190D01*
X149307190Y-100857187D01*
X149393350Y-100742093D01*
X149393354Y-100742086D01*
X149443596Y-100607379D01*
X149443598Y-100607372D01*
X149449999Y-100547844D01*
X151650000Y-100547844D01*
X151656401Y-100607372D01*
X151656403Y-100607379D01*
X151706645Y-100742086D01*
X151706649Y-100742093D01*
X151792809Y-100857187D01*
X151792812Y-100857190D01*
X151907906Y-100943350D01*
X151907913Y-100943354D01*
X152042620Y-100993596D01*
X152042627Y-100993598D01*
X152102155Y-100999999D01*
X152102172Y-101000000D01*
X152350000Y-101000000D01*
X152850000Y-101000000D01*
X153097828Y-101000000D01*
X153097844Y-100999999D01*
X153157372Y-100993598D01*
X153157379Y-100993596D01*
X153292086Y-100943354D01*
X153292093Y-100943350D01*
X153407187Y-100857190D01*
X153407190Y-100857187D01*
X153493350Y-100742093D01*
X153493354Y-100742086D01*
X153543596Y-100607379D01*
X153543598Y-100607372D01*
X153549999Y-100547844D01*
X153550000Y-100547827D01*
X153550000Y-100250000D01*
X152850000Y-100250000D01*
X152850000Y-101000000D01*
X152350000Y-101000000D01*
X152350000Y-100250000D01*
X151650000Y-100250000D01*
X151650000Y-100547844D01*
X149449999Y-100547844D01*
X149450000Y-100547827D01*
X149450000Y-100250000D01*
X148750000Y-100250000D01*
X148750000Y-101000000D01*
X148250000Y-101000000D01*
X148250000Y-100250000D01*
X147550000Y-100250000D01*
X147550000Y-100547844D01*
X138180048Y-100547844D01*
X138192086Y-100543354D01*
X138192093Y-100543350D01*
X138307187Y-100457190D01*
X138307190Y-100457187D01*
X138393350Y-100342093D01*
X138393354Y-100342086D01*
X138443596Y-100207379D01*
X138443598Y-100207373D01*
X138445963Y-100185381D01*
X138445963Y-100185380D01*
X138449999Y-100147844D01*
X138450000Y-100147827D01*
X138450000Y-99850000D01*
X137750000Y-99850000D01*
X137750000Y-100600000D01*
X137250000Y-100600000D01*
X137250000Y-99850000D01*
X136550000Y-99850000D01*
X136550000Y-100147844D01*
X134349999Y-100147844D01*
X134350000Y-100147827D01*
X134350000Y-99850000D01*
X133650000Y-99850000D01*
X133650000Y-100600000D01*
X133150000Y-100600000D01*
X133150000Y-99850000D01*
X132450000Y-99850000D01*
X132450000Y-100147844D01*
X129685608Y-100147844D01*
X129751557Y-100018412D01*
X129817246Y-99816243D01*
X129850500Y-99606287D01*
X129850500Y-99393713D01*
X129817246Y-99183757D01*
X129751557Y-98981588D01*
X129655051Y-98792184D01*
X129655049Y-98792181D01*
X129655048Y-98792179D01*
X129530109Y-98620213D01*
X129379786Y-98469890D01*
X129207820Y-98344951D01*
X129018414Y-98248444D01*
X129018413Y-98248443D01*
X129018412Y-98248443D01*
X128816243Y-98182754D01*
X128816241Y-98182753D01*
X128816240Y-98182753D01*
X128654957Y-98157208D01*
X128606287Y-98149500D01*
X128393713Y-98149500D01*
X128345042Y-98157208D01*
X128183760Y-98182753D01*
X127981585Y-98248444D01*
X127792179Y-98344951D01*
X127620213Y-98469890D01*
X127469890Y-98620213D01*
X127344951Y-98792179D01*
X127248444Y-98981585D01*
X127248443Y-98981587D01*
X127248443Y-98981588D01*
X127244856Y-98992627D01*
X127182753Y-99183760D01*
X127149673Y-99392620D01*
X127149500Y-99393713D01*
X126000500Y-99393713D01*
X126000500Y-66653713D01*
X130149500Y-66653713D01*
X130149500Y-66866286D01*
X130169048Y-66989711D01*
X130182754Y-67076243D01*
X130225127Y-67206654D01*
X130248444Y-67278414D01*
X130344951Y-67467820D01*
X130469890Y-67639786D01*
X130620213Y-67790109D01*
X130792179Y-67915048D01*
X130792181Y-67915049D01*
X130792184Y-67915051D01*
X130801493Y-67919794D01*
X130852290Y-67967766D01*
X130869087Y-68035587D01*
X130846552Y-68101722D01*
X130801505Y-68140760D01*
X130792446Y-68145376D01*
X130792440Y-68145380D01*
X130738282Y-68184727D01*
X130738282Y-68184728D01*
X131370591Y-68817037D01*
X131307007Y-68834075D01*
X131192993Y-68899901D01*
X131099901Y-68992993D01*
X131034075Y-69107007D01*
X131017037Y-69170591D01*
X130384728Y-68538282D01*
X130384727Y-68538282D01*
X130345380Y-68592439D01*
X130248904Y-68781782D01*
X130183242Y-68983869D01*
X130183242Y-68983872D01*
X130150000Y-69193753D01*
X130150000Y-69406246D01*
X130183242Y-69616127D01*
X130183242Y-69616130D01*
X130248904Y-69818217D01*
X130345375Y-70007550D01*
X130384728Y-70061716D01*
X131017037Y-69429408D01*
X131034075Y-69492993D01*
X131099901Y-69607007D01*
X131192993Y-69700099D01*
X131307007Y-69765925D01*
X131370590Y-69782962D01*
X130738282Y-70415269D01*
X130738282Y-70415270D01*
X130792452Y-70454626D01*
X130792451Y-70454626D01*
X130801495Y-70459234D01*
X130852292Y-70507208D01*
X130869087Y-70575029D01*
X130846550Y-70641164D01*
X130801499Y-70680202D01*
X130792182Y-70684949D01*
X130620213Y-70809890D01*
X130469890Y-70960213D01*
X130344951Y-71132179D01*
X130248444Y-71321585D01*
X130248443Y-71321587D01*
X130248443Y-71321588D01*
X130228175Y-71383966D01*
X130182753Y-71523760D01*
X130149500Y-71733713D01*
X130149500Y-71946286D01*
X130178248Y-72127797D01*
X130182754Y-72156243D01*
X130227623Y-72294336D01*
X130248444Y-72358414D01*
X130344951Y-72547820D01*
X130469890Y-72719786D01*
X130620213Y-72870109D01*
X130792182Y-72995050D01*
X130800946Y-72999516D01*
X130851742Y-73047491D01*
X130868536Y-73115312D01*
X130845998Y-73181447D01*
X130800946Y-73220484D01*
X130792182Y-73224949D01*
X130620213Y-73349890D01*
X130469890Y-73500213D01*
X130344951Y-73672179D01*
X130248444Y-73861585D01*
X130182753Y-74063760D01*
X130180364Y-74078846D01*
X130149500Y-74273713D01*
X130149500Y-74486287D01*
X130153302Y-74510289D01*
X130182680Y-74695780D01*
X130182754Y-74696243D01*
X130216629Y-74800500D01*
X130248444Y-74898414D01*
X130344951Y-75087820D01*
X130469890Y-75259786D01*
X130620213Y-75410109D01*
X130792182Y-75535050D01*
X130800946Y-75539516D01*
X130851742Y-75587491D01*
X130868536Y-75655312D01*
X130845998Y-75721447D01*
X130800946Y-75760484D01*
X130792182Y-75764949D01*
X130620213Y-75889890D01*
X130469890Y-76040213D01*
X130344951Y-76212179D01*
X130248444Y-76401585D01*
X130182753Y-76603760D01*
X130156978Y-76766498D01*
X130149500Y-76813713D01*
X130149500Y-77026287D01*
X130182754Y-77236243D01*
X130220407Y-77352128D01*
X130248444Y-77438414D01*
X130344951Y-77627820D01*
X130469890Y-77799786D01*
X130620213Y-77950109D01*
X130792182Y-78075050D01*
X130800946Y-78079516D01*
X130851742Y-78127491D01*
X130868536Y-78195312D01*
X130845998Y-78261447D01*
X130800946Y-78300484D01*
X130792182Y-78304949D01*
X130620213Y-78429890D01*
X130469890Y-78580213D01*
X130344951Y-78752179D01*
X130248444Y-78941585D01*
X130182753Y-79143760D01*
X130149500Y-79353713D01*
X130149500Y-79566286D01*
X130162422Y-79647876D01*
X130182754Y-79776243D01*
X130241663Y-79957546D01*
X130248444Y-79978414D01*
X130344951Y-80167820D01*
X130469890Y-80339786D01*
X130620213Y-80490109D01*
X130792182Y-80615050D01*
X130800946Y-80619516D01*
X130851742Y-80667491D01*
X130868536Y-80735312D01*
X130845998Y-80801447D01*
X130800946Y-80840484D01*
X130792182Y-80844949D01*
X130620213Y-80969890D01*
X130469890Y-81120213D01*
X130344951Y-81292179D01*
X130248444Y-81481585D01*
X130182753Y-81683760D01*
X130149500Y-81893713D01*
X130149500Y-82106286D01*
X130182753Y-82316239D01*
X130248444Y-82518414D01*
X130344951Y-82707820D01*
X130469890Y-82879786D01*
X130583430Y-82993326D01*
X130616915Y-83054649D01*
X130611931Y-83124341D01*
X130570059Y-83180274D01*
X130539083Y-83197189D01*
X130407669Y-83246203D01*
X130407664Y-83246206D01*
X130292455Y-83332452D01*
X130292452Y-83332455D01*
X130206206Y-83447664D01*
X130206202Y-83447671D01*
X130155908Y-83582517D01*
X130149501Y-83642116D01*
X130149501Y-83642123D01*
X130149500Y-83642135D01*
X130149500Y-85437870D01*
X130149501Y-85437876D01*
X130155908Y-85497483D01*
X130206202Y-85632328D01*
X130206206Y-85632335D01*
X130292452Y-85747544D01*
X130292455Y-85747547D01*
X130407664Y-85833793D01*
X130407671Y-85833797D01*
X130542517Y-85884091D01*
X130542516Y-85884091D01*
X130549444Y-85884835D01*
X130602127Y-85890500D01*
X132397872Y-85890499D01*
X132457483Y-85884091D01*
X132592331Y-85833796D01*
X132707546Y-85747546D01*
X132793796Y-85632331D01*
X132843157Y-85499986D01*
X133787501Y-85499986D01*
X133797994Y-85602697D01*
X133853141Y-85769119D01*
X133853143Y-85769124D01*
X133945184Y-85918345D01*
X134069154Y-86042315D01*
X134218375Y-86134356D01*
X134218380Y-86134358D01*
X134384802Y-86189505D01*
X134384809Y-86189506D01*
X134487519Y-86199999D01*
X134612499Y-86199999D01*
X134612500Y-86199998D01*
X134612500Y-85250000D01*
X133787501Y-85250000D01*
X133787501Y-85499986D01*
X132843157Y-85499986D01*
X132844091Y-85497483D01*
X132850500Y-85437873D01*
X132850499Y-84500013D01*
X133787500Y-84500013D01*
X133787500Y-84750000D01*
X134612500Y-84750000D01*
X134612500Y-83800000D01*
X134487527Y-83800000D01*
X134487512Y-83800001D01*
X134384802Y-83810494D01*
X134218380Y-83865641D01*
X134218375Y-83865643D01*
X134069154Y-83957684D01*
X133945184Y-84081654D01*
X133853143Y-84230875D01*
X133853141Y-84230880D01*
X133797994Y-84397302D01*
X133797993Y-84397309D01*
X133787500Y-84500013D01*
X132850499Y-84500013D01*
X132850499Y-83642128D01*
X132844091Y-83582517D01*
X132843836Y-83581834D01*
X132793797Y-83447671D01*
X132793793Y-83447664D01*
X132707547Y-83332455D01*
X132707544Y-83332452D01*
X132592335Y-83246206D01*
X132592328Y-83246202D01*
X132460917Y-83197189D01*
X132404983Y-83155318D01*
X132380566Y-83089853D01*
X132395418Y-83021580D01*
X132416563Y-82993332D01*
X132530104Y-82879792D01*
X132655051Y-82707816D01*
X132751557Y-82518412D01*
X132817246Y-82316243D01*
X132850500Y-82106287D01*
X132850500Y-81893713D01*
X132817246Y-81683757D01*
X132751557Y-81481588D01*
X132655051Y-81292184D01*
X132655049Y-81292181D01*
X132655048Y-81292179D01*
X132530109Y-81120213D01*
X132379786Y-80969890D01*
X132207820Y-80844951D01*
X132207115Y-80844591D01*
X132199054Y-80840485D01*
X132148259Y-80792512D01*
X132131463Y-80724692D01*
X132153999Y-80658556D01*
X132199054Y-80619515D01*
X132207816Y-80615051D01*
X132229789Y-80599086D01*
X132379786Y-80490109D01*
X132379788Y-80490106D01*
X132379792Y-80490104D01*
X132530104Y-80339792D01*
X132530106Y-80339788D01*
X132530109Y-80339786D01*
X132655048Y-80167820D01*
X132655047Y-80167820D01*
X132655051Y-80167816D01*
X132751557Y-79978412D01*
X132817246Y-79776243D01*
X132850500Y-79566287D01*
X132850500Y-79353713D01*
X132817246Y-79143757D01*
X132751557Y-78941588D01*
X132655051Y-78752184D01*
X132655049Y-78752181D01*
X132655048Y-78752179D01*
X132530109Y-78580213D01*
X132379786Y-78429890D01*
X132207820Y-78304951D01*
X132204171Y-78303092D01*
X132199054Y-78300485D01*
X132148259Y-78252512D01*
X132131463Y-78184692D01*
X132153999Y-78118556D01*
X132199054Y-78079515D01*
X132207816Y-78075051D01*
X132242917Y-78049549D01*
X132379786Y-77950109D01*
X132379788Y-77950106D01*
X132379792Y-77950104D01*
X132530104Y-77799792D01*
X132530106Y-77799788D01*
X132530109Y-77799786D01*
X132655048Y-77627820D01*
X132655047Y-77627820D01*
X132655051Y-77627816D01*
X132751557Y-77438412D01*
X132817246Y-77236243D01*
X132850500Y-77026287D01*
X132850500Y-76813713D01*
X132817246Y-76603757D01*
X132751557Y-76401588D01*
X132655051Y-76212184D01*
X132655049Y-76212181D01*
X132655048Y-76212179D01*
X132530109Y-76040213D01*
X132379786Y-75889890D01*
X132207820Y-75764951D01*
X132207115Y-75764591D01*
X132199054Y-75760485D01*
X132148259Y-75712512D01*
X132131463Y-75644692D01*
X132153999Y-75578556D01*
X132199054Y-75539515D01*
X132207816Y-75535051D01*
X132241900Y-75510288D01*
X132379786Y-75410109D01*
X132379788Y-75410106D01*
X132379792Y-75410104D01*
X132530104Y-75259792D01*
X132530106Y-75259788D01*
X132530109Y-75259786D01*
X132652289Y-75091618D01*
X132655051Y-75087816D01*
X132751557Y-74898412D01*
X132817246Y-74696243D01*
X132850500Y-74486287D01*
X132850500Y-74273713D01*
X132817246Y-74063757D01*
X132788411Y-73975013D01*
X133950000Y-73975013D01*
X133950000Y-74250000D01*
X134700000Y-74250000D01*
X134700000Y-73275000D01*
X134699999Y-73274999D01*
X134650029Y-73275000D01*
X134650011Y-73275001D01*
X134547302Y-73285494D01*
X134380880Y-73340641D01*
X134380875Y-73340643D01*
X134231654Y-73432684D01*
X134107684Y-73556654D01*
X134015643Y-73705875D01*
X134015641Y-73705880D01*
X133960494Y-73872302D01*
X133960493Y-73872309D01*
X133950000Y-73975013D01*
X132788411Y-73975013D01*
X132751557Y-73861588D01*
X132655051Y-73672184D01*
X132655049Y-73672181D01*
X132655048Y-73672179D01*
X132530109Y-73500213D01*
X132379786Y-73349890D01*
X132207820Y-73224951D01*
X132207115Y-73224591D01*
X132199054Y-73220485D01*
X132148259Y-73172512D01*
X132131463Y-73104692D01*
X132153999Y-73038556D01*
X132199054Y-72999515D01*
X132207816Y-72995051D01*
X132293015Y-72933151D01*
X132379786Y-72870109D01*
X132379788Y-72870106D01*
X132379792Y-72870104D01*
X132530104Y-72719792D01*
X132530106Y-72719788D01*
X132530109Y-72719786D01*
X132655048Y-72547820D01*
X132655047Y-72547820D01*
X132655051Y-72547816D01*
X132751557Y-72358412D01*
X132817246Y-72156243D01*
X132850500Y-71946287D01*
X132850500Y-71733713D01*
X132817246Y-71523757D01*
X132751557Y-71321588D01*
X132655051Y-71132184D01*
X132655049Y-71132181D01*
X132655048Y-71132179D01*
X132530109Y-70960213D01*
X132379786Y-70809890D01*
X132207817Y-70684949D01*
X132198504Y-70680204D01*
X132147707Y-70632230D01*
X132130912Y-70564409D01*
X132153449Y-70498274D01*
X132198507Y-70459232D01*
X132207555Y-70454622D01*
X132261716Y-70415270D01*
X132261717Y-70415270D01*
X131629408Y-69782962D01*
X131692993Y-69765925D01*
X131807007Y-69700099D01*
X131900099Y-69607007D01*
X131965925Y-69492993D01*
X131982962Y-69429409D01*
X132615270Y-70061717D01*
X132615270Y-70061716D01*
X132654622Y-70007554D01*
X132751095Y-69818217D01*
X132816757Y-69616130D01*
X132816757Y-69616127D01*
X132850000Y-69406246D01*
X132850000Y-69193753D01*
X132816757Y-68983872D01*
X132816757Y-68983869D01*
X132751095Y-68781782D01*
X132654624Y-68592449D01*
X132615270Y-68538282D01*
X132615269Y-68538282D01*
X131982962Y-69170590D01*
X131965925Y-69107007D01*
X131900099Y-68992993D01*
X131807007Y-68899901D01*
X131692993Y-68834075D01*
X131629409Y-68817037D01*
X132261716Y-68184728D01*
X132207547Y-68145373D01*
X132207547Y-68145372D01*
X132198500Y-68140763D01*
X132147706Y-68092788D01*
X132130912Y-68024966D01*
X132153451Y-67958832D01*
X132198508Y-67919793D01*
X132207816Y-67915051D01*
X132325631Y-67829454D01*
X132379786Y-67790109D01*
X132379788Y-67790106D01*
X132379792Y-67790104D01*
X132530104Y-67639792D01*
X132530106Y-67639788D01*
X132530109Y-67639786D01*
X132655048Y-67467820D01*
X132655047Y-67467820D01*
X132655051Y-67467816D01*
X132751557Y-67278412D01*
X132751558Y-67278409D01*
X132781525Y-67186182D01*
X132820962Y-67128506D01*
X132885321Y-67101308D01*
X132899456Y-67100500D01*
X133961415Y-67100500D01*
X134028454Y-67120185D01*
X134074209Y-67172989D01*
X134079118Y-67185489D01*
X134115186Y-67294334D01*
X134207288Y-67443656D01*
X134331344Y-67567712D01*
X134390596Y-67604258D01*
X134397420Y-67611844D01*
X134406703Y-67616084D01*
X134420389Y-67637380D01*
X134437321Y-67656204D01*
X134439965Y-67667842D01*
X134444477Y-67674862D01*
X134449500Y-67709797D01*
X134449500Y-67790201D01*
X134429815Y-67857240D01*
X134390598Y-67895739D01*
X134331344Y-67932287D01*
X134207289Y-68056342D01*
X134115187Y-68205663D01*
X134115185Y-68205668D01*
X134110719Y-68219147D01*
X134060001Y-68372203D01*
X134060001Y-68372204D01*
X134060000Y-68372204D01*
X134049500Y-68474983D01*
X134049500Y-69525001D01*
X134049501Y-69525019D01*
X134060000Y-69627796D01*
X134060001Y-69627799D01*
X134097550Y-69741113D01*
X134115186Y-69794334D01*
X134207288Y-69943656D01*
X134331344Y-70067712D01*
X134390596Y-70104258D01*
X134397420Y-70111844D01*
X134406703Y-70116084D01*
X134420389Y-70137380D01*
X134437321Y-70156204D01*
X134439965Y-70167842D01*
X134444477Y-70174862D01*
X134449500Y-70209797D01*
X134449500Y-70290201D01*
X134429815Y-70357240D01*
X134390598Y-70395739D01*
X134331344Y-70432287D01*
X134207289Y-70556342D01*
X134115187Y-70705663D01*
X134115185Y-70705668D01*
X134087349Y-70789670D01*
X134060001Y-70872203D01*
X134060001Y-70872204D01*
X134060000Y-70872204D01*
X134049500Y-70974983D01*
X134049500Y-72025001D01*
X134049501Y-72025019D01*
X134060000Y-72127796D01*
X134060001Y-72127799D01*
X134095028Y-72233501D01*
X134115186Y-72294334D01*
X134207288Y-72443656D01*
X134331344Y-72567712D01*
X134480666Y-72659814D01*
X134647203Y-72714999D01*
X134749991Y-72725500D01*
X135350008Y-72725499D01*
X135350016Y-72725498D01*
X135350019Y-72725498D01*
X135406302Y-72719748D01*
X135452797Y-72714999D01*
X135619334Y-72659814D01*
X135768656Y-72567712D01*
X135892712Y-72443656D01*
X135894752Y-72440347D01*
X135896745Y-72438555D01*
X135897193Y-72437989D01*
X135897289Y-72438065D01*
X135946694Y-72393623D01*
X136015656Y-72382395D01*
X136079740Y-72410234D01*
X136089728Y-72419548D01*
X136232178Y-72567874D01*
X136247753Y-72597820D01*
X136263909Y-72627408D01*
X136263816Y-72628705D01*
X136264417Y-72629861D01*
X136261330Y-72663460D01*
X136258925Y-72697100D01*
X136258032Y-72699367D01*
X136258026Y-72699438D01*
X136257982Y-72699493D01*
X136257304Y-72701218D01*
X136230264Y-72766498D01*
X136230261Y-72766510D01*
X136199500Y-72921153D01*
X136199500Y-73078846D01*
X136230261Y-73233489D01*
X136230264Y-73233501D01*
X136235309Y-73245680D01*
X136242778Y-73315149D01*
X136211502Y-73377628D01*
X136185846Y-73398670D01*
X136131344Y-73432287D01*
X136007288Y-73556343D01*
X136007283Y-73556349D01*
X136005241Y-73559661D01*
X136003247Y-73561453D01*
X136002807Y-73562011D01*
X136002711Y-73561935D01*
X135953291Y-73606383D01*
X135884328Y-73617602D01*
X135820247Y-73589755D01*
X135794168Y-73559656D01*
X135792319Y-73556659D01*
X135792316Y-73556655D01*
X135668345Y-73432684D01*
X135519124Y-73340643D01*
X135519119Y-73340641D01*
X135352697Y-73285494D01*
X135352690Y-73285493D01*
X135249986Y-73275000D01*
X135200000Y-73275000D01*
X135200000Y-74376000D01*
X135180315Y-74443039D01*
X135127511Y-74488794D01*
X135076000Y-74500000D01*
X134950000Y-74500000D01*
X134950000Y-74626000D01*
X134930315Y-74693039D01*
X134877511Y-74738794D01*
X134826000Y-74750000D01*
X133950001Y-74750000D01*
X133950001Y-75024986D01*
X133960494Y-75127697D01*
X134015641Y-75294119D01*
X134015643Y-75294124D01*
X134107684Y-75443345D01*
X134231654Y-75567315D01*
X134380875Y-75659356D01*
X134380877Y-75659357D01*
X134384077Y-75660417D01*
X134385987Y-75661739D01*
X134387421Y-75662408D01*
X134387306Y-75662652D01*
X134441524Y-75700187D01*
X134468350Y-75764701D01*
X134456039Y-75833478D01*
X134410176Y-75883663D01*
X134331347Y-75932285D01*
X134331343Y-75932288D01*
X134207289Y-76056342D01*
X134115187Y-76205663D01*
X134115185Y-76205668D01*
X134100579Y-76249747D01*
X134060001Y-76372203D01*
X134060001Y-76372204D01*
X134060000Y-76372204D01*
X134049500Y-76474983D01*
X134049500Y-77525001D01*
X134049501Y-77525019D01*
X134060000Y-77627796D01*
X134060001Y-77627799D01*
X134115185Y-77794331D01*
X134115187Y-77794336D01*
X134139872Y-77834356D01*
X134205249Y-77940351D01*
X134207289Y-77943657D01*
X134313181Y-78049549D01*
X134327884Y-78076476D01*
X134344477Y-78102295D01*
X134345368Y-78108495D01*
X134346666Y-78110872D01*
X134349500Y-78137230D01*
X134349500Y-78307491D01*
X134329815Y-78374530D01*
X134290598Y-78413029D01*
X134218844Y-78457287D01*
X134094789Y-78581342D01*
X134002687Y-78730663D01*
X134002685Y-78730668D01*
X133983110Y-78789742D01*
X133947501Y-78897203D01*
X133947501Y-78897204D01*
X133947500Y-78897204D01*
X133937000Y-78999983D01*
X133937000Y-80000001D01*
X133937001Y-80000019D01*
X133947500Y-80102796D01*
X133947501Y-80102799D01*
X134002685Y-80269331D01*
X134002686Y-80269334D01*
X134094788Y-80418656D01*
X134218844Y-80542712D01*
X134368166Y-80634814D01*
X134534703Y-80689999D01*
X134637491Y-80700500D01*
X135262508Y-80700499D01*
X135262516Y-80700498D01*
X135262519Y-80700498D01*
X135318802Y-80694748D01*
X135365297Y-80689999D01*
X135531834Y-80634814D01*
X135681156Y-80542712D01*
X135774819Y-80449049D01*
X135836142Y-80415564D01*
X135905834Y-80420548D01*
X135950181Y-80449049D01*
X136043844Y-80542712D01*
X136193166Y-80634814D01*
X136359703Y-80689999D01*
X136462491Y-80700500D01*
X137087508Y-80700499D01*
X137087516Y-80700498D01*
X137087519Y-80700498D01*
X137143802Y-80694748D01*
X137190297Y-80689999D01*
X137356834Y-80634814D01*
X137506156Y-80542712D01*
X137630212Y-80418656D01*
X137722314Y-80269334D01*
X137777499Y-80102797D01*
X137788000Y-80000009D01*
X137787999Y-79387595D01*
X137796645Y-79358149D01*
X137803167Y-79328169D01*
X137806919Y-79323155D01*
X137807683Y-79320557D01*
X137824313Y-79299920D01*
X137925388Y-79198845D01*
X137986709Y-79165362D01*
X138056401Y-79170346D01*
X138081956Y-79183425D01*
X138120821Y-79209394D01*
X138120824Y-79209395D01*
X138120825Y-79209396D01*
X138179424Y-79233668D01*
X138266503Y-79269737D01*
X138387259Y-79293757D01*
X138421153Y-79300499D01*
X138421156Y-79300500D01*
X138421158Y-79300500D01*
X138578844Y-79300500D01*
X138578845Y-79300499D01*
X138733497Y-79269737D01*
X138878049Y-79209861D01*
X138947518Y-79202393D01*
X139009997Y-79233668D01*
X139045649Y-79293757D01*
X139049501Y-79324423D01*
X139049501Y-79647876D01*
X139055908Y-79707483D01*
X139106202Y-79842328D01*
X139106206Y-79842335D01*
X139192452Y-79957544D01*
X139192455Y-79957547D01*
X139307664Y-80043793D01*
X139307671Y-80043797D01*
X139442517Y-80094091D01*
X139442516Y-80094091D01*
X139449444Y-80094835D01*
X139502127Y-80100500D01*
X140626500Y-80100499D01*
X140693539Y-80120184D01*
X140739294Y-80172987D01*
X140750500Y-80224499D01*
X140750500Y-83675500D01*
X140730815Y-83742539D01*
X140678011Y-83788294D01*
X140626504Y-83799500D01*
X140600000Y-83799500D01*
X140599980Y-83799501D01*
X140497203Y-83810000D01*
X140497200Y-83810001D01*
X140330668Y-83865185D01*
X140330663Y-83865187D01*
X140181342Y-83957289D01*
X140087681Y-84050951D01*
X140026358Y-84084436D01*
X139956666Y-84079452D01*
X139912319Y-84050951D01*
X139818657Y-83957289D01*
X139818656Y-83957288D01*
X139669334Y-83865186D01*
X139502797Y-83810001D01*
X139502795Y-83810000D01*
X139400010Y-83799500D01*
X138774998Y-83799500D01*
X138774980Y-83799501D01*
X138672203Y-83810000D01*
X138672200Y-83810001D01*
X138505668Y-83865185D01*
X138505663Y-83865187D01*
X138356342Y-83957289D01*
X138232289Y-84081342D01*
X138136789Y-84236174D01*
X138084841Y-84282898D01*
X138015878Y-84294121D01*
X137951796Y-84266277D01*
X137925711Y-84236174D01*
X137917203Y-84222380D01*
X137830212Y-84081344D01*
X137706156Y-83957288D01*
X137556834Y-83865186D01*
X137390297Y-83810001D01*
X137390295Y-83810000D01*
X137287510Y-83799500D01*
X136537498Y-83799500D01*
X136537480Y-83799501D01*
X136434703Y-83810000D01*
X136434700Y-83810001D01*
X136268168Y-83865185D01*
X136268163Y-83865187D01*
X136118842Y-83957289D01*
X135994788Y-84081343D01*
X135994783Y-84081349D01*
X135992741Y-84084661D01*
X135990747Y-84086453D01*
X135990307Y-84087011D01*
X135990211Y-84086935D01*
X135940791Y-84131383D01*
X135871828Y-84142602D01*
X135807747Y-84114755D01*
X135781668Y-84084656D01*
X135779819Y-84081659D01*
X135779816Y-84081655D01*
X135655845Y-83957684D01*
X135506624Y-83865643D01*
X135506619Y-83865641D01*
X135340197Y-83810494D01*
X135340190Y-83810493D01*
X135237486Y-83800000D01*
X135112500Y-83800000D01*
X135112500Y-86199999D01*
X135237472Y-86199999D01*
X135237486Y-86199998D01*
X135340197Y-86189505D01*
X135506619Y-86134358D01*
X135506624Y-86134356D01*
X135655845Y-86042315D01*
X135779818Y-85918342D01*
X135781665Y-85915348D01*
X135783469Y-85913724D01*
X135784298Y-85912677D01*
X135784476Y-85912818D01*
X135833610Y-85868621D01*
X135902573Y-85857396D01*
X135966656Y-85885236D01*
X135992743Y-85915341D01*
X135994788Y-85918656D01*
X136118844Y-86042712D01*
X136268166Y-86134814D01*
X136434703Y-86189999D01*
X136537491Y-86200500D01*
X137287508Y-86200499D01*
X137287516Y-86200498D01*
X137287519Y-86200498D01*
X137365745Y-86192507D01*
X137390297Y-86189999D01*
X137556834Y-86134814D01*
X137706156Y-86042712D01*
X137830212Y-85918656D01*
X137922314Y-85769334D01*
X137922315Y-85769331D01*
X137925711Y-85763826D01*
X137977659Y-85717101D01*
X138046621Y-85705878D01*
X138110703Y-85733721D01*
X138136789Y-85763826D01*
X138140185Y-85769332D01*
X138140186Y-85769334D01*
X138175037Y-85825837D01*
X138232046Y-85918265D01*
X138232288Y-85918656D01*
X138356344Y-86042712D01*
X138505666Y-86134814D01*
X138672203Y-86189999D01*
X138774991Y-86200500D01*
X139400008Y-86200499D01*
X139400016Y-86200498D01*
X139400019Y-86200498D01*
X139478245Y-86192507D01*
X139502797Y-86189999D01*
X139669334Y-86134814D01*
X139818656Y-86042712D01*
X139912319Y-85949049D01*
X139973642Y-85915564D01*
X140043334Y-85920548D01*
X140087681Y-85949049D01*
X140181344Y-86042712D01*
X140330666Y-86134814D01*
X140497203Y-86189999D01*
X140599991Y-86200500D01*
X141225008Y-86200499D01*
X141225016Y-86200498D01*
X141225019Y-86200498D01*
X141303245Y-86192507D01*
X141327797Y-86189999D01*
X141494334Y-86134814D01*
X141643656Y-86042712D01*
X141767712Y-85918656D01*
X141859814Y-85769334D01*
X141882294Y-85701492D01*
X141922067Y-85644048D01*
X141986583Y-85617225D01*
X142055358Y-85629540D01*
X142106558Y-85677083D01*
X142117704Y-85701490D01*
X142138361Y-85763826D01*
X142140185Y-85769331D01*
X142140187Y-85769336D01*
X142159159Y-85800094D01*
X142232288Y-85918656D01*
X142356344Y-86042712D01*
X142505666Y-86134814D01*
X142672203Y-86189999D01*
X142774991Y-86200500D01*
X143400008Y-86200499D01*
X143400016Y-86200498D01*
X143400019Y-86200498D01*
X143478245Y-86192507D01*
X143502797Y-86189999D01*
X143669334Y-86134814D01*
X143818656Y-86042712D01*
X143912319Y-85949049D01*
X143915097Y-85947531D01*
X143916750Y-85944831D01*
X143945563Y-85930896D01*
X143973642Y-85915564D01*
X143976799Y-85915789D01*
X143979650Y-85914411D01*
X144011416Y-85918265D01*
X144043334Y-85920548D01*
X144046812Y-85922560D01*
X144049011Y-85922827D01*
X144059108Y-85929673D01*
X144079116Y-85941249D01*
X144083579Y-85944947D01*
X144181344Y-86042712D01*
X144260457Y-86091509D01*
X144267116Y-86097026D01*
X144282008Y-86119111D01*
X144299821Y-86138915D01*
X144302087Y-86148890D01*
X144306178Y-86154956D01*
X144306469Y-86168170D01*
X144312000Y-86192507D01*
X144312000Y-90287402D01*
X144292315Y-90354441D01*
X144275681Y-90375083D01*
X137687582Y-96963181D01*
X137626259Y-96996666D01*
X137599901Y-96999500D01*
X137002129Y-96999500D01*
X137002123Y-96999501D01*
X136942516Y-97005908D01*
X136807671Y-97056202D01*
X136807664Y-97056206D01*
X136692455Y-97142452D01*
X136692452Y-97142455D01*
X136606206Y-97257664D01*
X136606202Y-97257671D01*
X136583391Y-97318833D01*
X136541520Y-97374767D01*
X136476056Y-97399184D01*
X136467209Y-97399500D01*
X134432791Y-97399500D01*
X134365752Y-97379815D01*
X134319997Y-97327011D01*
X134316609Y-97318833D01*
X134293797Y-97257671D01*
X134293793Y-97257664D01*
X134207547Y-97142455D01*
X134207544Y-97142452D01*
X134092335Y-97056206D01*
X134092328Y-97056202D01*
X133957482Y-97005908D01*
X133957483Y-97005908D01*
X133897883Y-96999501D01*
X133897881Y-96999500D01*
X133897873Y-96999500D01*
X133897864Y-96999500D01*
X132902129Y-96999500D01*
X132902123Y-96999501D01*
X132842516Y-97005908D01*
X132707671Y-97056202D01*
X132707664Y-97056206D01*
X132592455Y-97142452D01*
X132592452Y-97142455D01*
X132506206Y-97257664D01*
X132506202Y-97257671D01*
X132455908Y-97392517D01*
X132449501Y-97452116D01*
X132449500Y-97452135D01*
X132449500Y-98547870D01*
X132449501Y-98547876D01*
X132455908Y-98607483D01*
X132509303Y-98750641D01*
X132507733Y-98751226D01*
X132520383Y-98809367D01*
X132508687Y-98849206D01*
X132509746Y-98849601D01*
X132456403Y-98992620D01*
X132456401Y-98992627D01*
X132450000Y-99052155D01*
X132450000Y-99350000D01*
X134350000Y-99350000D01*
X134350000Y-99052172D01*
X134349999Y-99052155D01*
X134343598Y-98992627D01*
X134343597Y-98992623D01*
X134290253Y-98849602D01*
X134291767Y-98849037D01*
X134286882Y-98825083D01*
X134279616Y-98791674D01*
X134279853Y-98790615D01*
X134279742Y-98790069D01*
X134280664Y-98787000D01*
X134287693Y-98755683D01*
X134291878Y-98744892D01*
X134293796Y-98742331D01*
X134316893Y-98680403D01*
X134317183Y-98679657D01*
X134337993Y-98652598D01*
X134358479Y-98625233D01*
X134359266Y-98624939D01*
X134359779Y-98624273D01*
X134391939Y-98612752D01*
X134423943Y-98600816D01*
X134425409Y-98600763D01*
X134425556Y-98600711D01*
X134425733Y-98600752D01*
X134432790Y-98600500D01*
X136467209Y-98600500D01*
X136534248Y-98620185D01*
X136580003Y-98672989D01*
X136583391Y-98681167D01*
X136609303Y-98750641D01*
X136607733Y-98751226D01*
X136620383Y-98809367D01*
X136608687Y-98849206D01*
X136609746Y-98849601D01*
X136556403Y-98992620D01*
X136556401Y-98992627D01*
X136550000Y-99052155D01*
X136550000Y-99350000D01*
X138450000Y-99350000D01*
X138450000Y-99052172D01*
X138449999Y-99052155D01*
X138443598Y-98992627D01*
X138443597Y-98992623D01*
X138390253Y-98849602D01*
X138392067Y-98848925D01*
X138379616Y-98791674D01*
X138391570Y-98750966D01*
X138390696Y-98750640D01*
X138393794Y-98742333D01*
X138393796Y-98742331D01*
X138444091Y-98607483D01*
X138450500Y-98547873D01*
X138450499Y-97950095D01*
X138470183Y-97883057D01*
X138486813Y-97862420D01*
X145281213Y-91068021D01*
X145281216Y-91068020D01*
X145393020Y-90956216D01*
X145443139Y-90869404D01*
X145472077Y-90819285D01*
X145513001Y-90666557D01*
X145513001Y-90508443D01*
X145513001Y-90500848D01*
X145513000Y-90500830D01*
X145513000Y-86192507D01*
X145532685Y-86125468D01*
X145571903Y-86086968D01*
X145643656Y-86042712D01*
X145767712Y-85918656D01*
X145859814Y-85769334D01*
X145914999Y-85602797D01*
X145925500Y-85500009D01*
X145925499Y-84499992D01*
X145925179Y-84496864D01*
X145914999Y-84397203D01*
X145914998Y-84397200D01*
X145880841Y-84294121D01*
X145859814Y-84230666D01*
X145767712Y-84081344D01*
X145643656Y-83957288D01*
X145494334Y-83865186D01*
X145327797Y-83810001D01*
X145327795Y-83810000D01*
X145225010Y-83799500D01*
X144599998Y-83799500D01*
X144599980Y-83799501D01*
X144497203Y-83810000D01*
X144497200Y-83810001D01*
X144330668Y-83865185D01*
X144330663Y-83865187D01*
X144181342Y-83957289D01*
X144087681Y-84050951D01*
X144026358Y-84084436D01*
X143956666Y-84079452D01*
X143912319Y-84050951D01*
X143818657Y-83957289D01*
X143818656Y-83957288D01*
X143669334Y-83865186D01*
X143502797Y-83810001D01*
X143502795Y-83810000D01*
X143400010Y-83799500D01*
X142774998Y-83799500D01*
X142774980Y-83799501D01*
X142672203Y-83810000D01*
X142672200Y-83810001D01*
X142505668Y-83865185D01*
X142505663Y-83865187D01*
X142356342Y-83957289D01*
X142232289Y-84081342D01*
X142213427Y-84111921D01*
X142198288Y-84136468D01*
X142181039Y-84164433D01*
X142129091Y-84211157D01*
X142060128Y-84222380D01*
X141996046Y-84194536D01*
X141957190Y-84136468D01*
X141951500Y-84099336D01*
X141951500Y-77352135D01*
X145449500Y-77352135D01*
X145449500Y-79647870D01*
X145449501Y-79647876D01*
X145455908Y-79707483D01*
X145506202Y-79842328D01*
X145506206Y-79842335D01*
X145592452Y-79957544D01*
X145592455Y-79957547D01*
X145707664Y-80043793D01*
X145707671Y-80043797D01*
X145842517Y-80094091D01*
X145842516Y-80094091D01*
X145849444Y-80094835D01*
X145902127Y-80100500D01*
X147497872Y-80100499D01*
X147557483Y-80094091D01*
X147692331Y-80043796D01*
X147807546Y-79957546D01*
X147893796Y-79842331D01*
X147944091Y-79707483D01*
X147950500Y-79647873D01*
X147950500Y-79324423D01*
X147970185Y-79257385D01*
X148022989Y-79211630D01*
X148092147Y-79201686D01*
X148121952Y-79209863D01*
X148236682Y-79257385D01*
X148266503Y-79269737D01*
X148387259Y-79293757D01*
X148421153Y-79300499D01*
X148421156Y-79300500D01*
X148421158Y-79300500D01*
X148578844Y-79300500D01*
X148578845Y-79300499D01*
X148733497Y-79269737D01*
X148879179Y-79209394D01*
X149010289Y-79121789D01*
X149121789Y-79010289D01*
X149209394Y-78879179D01*
X149269737Y-78733497D01*
X149300500Y-78578842D01*
X149300500Y-78421158D01*
X149300500Y-78421155D01*
X149300499Y-78421153D01*
X149292530Y-78381091D01*
X149269737Y-78266503D01*
X149245688Y-78208443D01*
X149209397Y-78120827D01*
X149209390Y-78120814D01*
X149165101Y-78054531D01*
X149144223Y-77987853D01*
X149162708Y-77920473D01*
X149214686Y-77873783D01*
X149283656Y-77862607D01*
X149307208Y-77867934D01*
X149372305Y-77889505D01*
X149372309Y-77889506D01*
X149475019Y-77899999D01*
X149749999Y-77899999D01*
X150250000Y-77899999D01*
X150524972Y-77899999D01*
X150524986Y-77899998D01*
X150627697Y-77889505D01*
X150794119Y-77834358D01*
X150794124Y-77834356D01*
X150943345Y-77742315D01*
X151067315Y-77618345D01*
X151159356Y-77469124D01*
X151159358Y-77469119D01*
X151214505Y-77302697D01*
X151214506Y-77302690D01*
X151224999Y-77199986D01*
X151225000Y-77199973D01*
X151225000Y-77150000D01*
X150250000Y-77150000D01*
X150250000Y-77899999D01*
X149749999Y-77899999D01*
X149750000Y-77899998D01*
X149750000Y-77150000D01*
X148775001Y-77150000D01*
X148775001Y-77199986D01*
X148785494Y-77302697D01*
X148840641Y-77469119D01*
X148840643Y-77469124D01*
X148892416Y-77553060D01*
X148910856Y-77620452D01*
X148889934Y-77687116D01*
X148836292Y-77731886D01*
X148766961Y-77740547D01*
X148739426Y-77732719D01*
X148733497Y-77730263D01*
X148733489Y-77730261D01*
X148578845Y-77699500D01*
X148578842Y-77699500D01*
X148421158Y-77699500D01*
X148421155Y-77699500D01*
X148266510Y-77730261D01*
X148266498Y-77730264D01*
X148121951Y-77790137D01*
X148052482Y-77797606D01*
X147990003Y-77766330D01*
X147954351Y-77706241D01*
X147950499Y-77675576D01*
X147950499Y-77352129D01*
X147950498Y-77352123D01*
X147950497Y-77352116D01*
X147944091Y-77292517D01*
X147923102Y-77236243D01*
X147893797Y-77157671D01*
X147893793Y-77157664D01*
X147807547Y-77042455D01*
X147807544Y-77042452D01*
X147692335Y-76956206D01*
X147692328Y-76956202D01*
X147557482Y-76905908D01*
X147557483Y-76905908D01*
X147497883Y-76899501D01*
X147497881Y-76899500D01*
X147497873Y-76899500D01*
X147497864Y-76899500D01*
X145902129Y-76899500D01*
X145902123Y-76899501D01*
X145842516Y-76905908D01*
X145707671Y-76956202D01*
X145707664Y-76956206D01*
X145592455Y-77042452D01*
X145592452Y-77042455D01*
X145506206Y-77157664D01*
X145506202Y-77157671D01*
X145455908Y-77292517D01*
X145454814Y-77302697D01*
X145449501Y-77352123D01*
X145449500Y-77352135D01*
X141951500Y-77352135D01*
X141951500Y-73847643D01*
X141971185Y-73780604D01*
X142023989Y-73734849D01*
X142088107Y-73724286D01*
X142091130Y-73724594D01*
X142099991Y-73725500D01*
X142700008Y-73725499D01*
X142700016Y-73725498D01*
X142700019Y-73725498D01*
X142756302Y-73719748D01*
X142802797Y-73714999D01*
X142969334Y-73659814D01*
X143118656Y-73567712D01*
X143162319Y-73524049D01*
X143223642Y-73490564D01*
X143293334Y-73495548D01*
X143337681Y-73524049D01*
X143356344Y-73542712D01*
X143505666Y-73634814D01*
X143672203Y-73689999D01*
X143774991Y-73700500D01*
X144400008Y-73700499D01*
X144400016Y-73700498D01*
X144400019Y-73700498D01*
X144497148Y-73690576D01*
X144502797Y-73689999D01*
X144669334Y-73634814D01*
X144818656Y-73542712D01*
X144912319Y-73449049D01*
X144973642Y-73415564D01*
X145043334Y-73420548D01*
X145087681Y-73449049D01*
X145181344Y-73542712D01*
X145330666Y-73634814D01*
X145497203Y-73689999D01*
X145548210Y-73695210D01*
X145603132Y-73700821D01*
X145603015Y-73701964D01*
X145664582Y-73723487D01*
X145707602Y-73778542D01*
X145714028Y-73848116D01*
X145713960Y-73848462D01*
X145699500Y-73921159D01*
X145699500Y-74078846D01*
X145730261Y-74233489D01*
X145730264Y-74233501D01*
X145790602Y-74379172D01*
X145790609Y-74379185D01*
X145878210Y-74510288D01*
X145878213Y-74510292D01*
X145989707Y-74621786D01*
X145989711Y-74621789D01*
X146120814Y-74709390D01*
X146120827Y-74709397D01*
X146258683Y-74766498D01*
X146266503Y-74769737D01*
X146421153Y-74800499D01*
X146421156Y-74800500D01*
X146421158Y-74800500D01*
X146578844Y-74800500D01*
X146578845Y-74800499D01*
X146733497Y-74769737D01*
X146879179Y-74709394D01*
X146879184Y-74709390D01*
X146879187Y-74709389D01*
X146942849Y-74666851D01*
X147009526Y-74645972D01*
X147076907Y-74664456D01*
X147123597Y-74716434D01*
X147129648Y-74732013D01*
X147190602Y-74879172D01*
X147190609Y-74879185D01*
X147278210Y-75010288D01*
X147278213Y-75010292D01*
X147389707Y-75121786D01*
X147389711Y-75121789D01*
X147520814Y-75209390D01*
X147520827Y-75209397D01*
X147642479Y-75259786D01*
X147666503Y-75269737D01*
X147803985Y-75297084D01*
X147821153Y-75300499D01*
X147821156Y-75300500D01*
X147821158Y-75300500D01*
X147978844Y-75300500D01*
X147978845Y-75300499D01*
X148133497Y-75269737D01*
X148279179Y-75209394D01*
X148396833Y-75130780D01*
X148410873Y-75121399D01*
X148425074Y-75116412D01*
X148434705Y-75108977D01*
X148459573Y-75104299D01*
X148469077Y-75100962D01*
X148474406Y-75100501D01*
X148579057Y-75100501D01*
X148628951Y-75087131D01*
X148639813Y-75086192D01*
X148663795Y-75091036D01*
X148688254Y-75091618D01*
X148697434Y-75097831D01*
X148708299Y-75100026D01*
X148725853Y-75117065D01*
X148746118Y-75130780D01*
X148750481Y-75140970D01*
X148758435Y-75148690D01*
X148763990Y-75172515D01*
X148773623Y-75195008D01*
X148774500Y-75209730D01*
X148774500Y-75300000D01*
X148774501Y-75300019D01*
X148785000Y-75402796D01*
X148785001Y-75402799D01*
X148840185Y-75569331D01*
X148840187Y-75569336D01*
X148845874Y-75578556D01*
X148932288Y-75718656D01*
X149056344Y-75842712D01*
X149059628Y-75844737D01*
X149059653Y-75844753D01*
X149061445Y-75846746D01*
X149062011Y-75847193D01*
X149061934Y-75847289D01*
X149106379Y-75896699D01*
X149117603Y-75965661D01*
X149089761Y-76029744D01*
X149059665Y-76055826D01*
X149056660Y-76057679D01*
X149056655Y-76057683D01*
X148932684Y-76181654D01*
X148840643Y-76330875D01*
X148840641Y-76330880D01*
X148785494Y-76497302D01*
X148785493Y-76497309D01*
X148775000Y-76600013D01*
X148775000Y-76650000D01*
X151224999Y-76650000D01*
X151224999Y-76600028D01*
X151224998Y-76600013D01*
X151214505Y-76497302D01*
X151159358Y-76330880D01*
X151159356Y-76330875D01*
X151067315Y-76181654D01*
X150943344Y-76057683D01*
X150943341Y-76057681D01*
X150940339Y-76055829D01*
X150938713Y-76054021D01*
X150937677Y-76053202D01*
X150937817Y-76053024D01*
X150893617Y-76003880D01*
X150882397Y-75934917D01*
X150910243Y-75870836D01*
X150940344Y-75844754D01*
X150943656Y-75842712D01*
X151067712Y-75718656D01*
X151159814Y-75569334D01*
X151214999Y-75402797D01*
X151225500Y-75300009D01*
X151225499Y-74699992D01*
X151224231Y-74687583D01*
X151214999Y-74597203D01*
X151214998Y-74597200D01*
X151182789Y-74500000D01*
X151159814Y-74430666D01*
X151067712Y-74281344D01*
X150943656Y-74157288D01*
X150816474Y-74078842D01*
X150794336Y-74065187D01*
X150794335Y-74065186D01*
X150794334Y-74065186D01*
X150733301Y-74044961D01*
X150685495Y-74029120D01*
X150628050Y-73989347D01*
X150601228Y-73924831D01*
X150600500Y-73911414D01*
X150600500Y-72988585D01*
X150620185Y-72921546D01*
X150672989Y-72875791D01*
X150685489Y-72870881D01*
X150794334Y-72834814D01*
X150943656Y-72742712D01*
X151067712Y-72618656D01*
X151159814Y-72469334D01*
X151214999Y-72302797D01*
X151225500Y-72200009D01*
X151225499Y-71724499D01*
X151245183Y-71657461D01*
X151297987Y-71611706D01*
X151349499Y-71600500D01*
X153315601Y-71600500D01*
X153382640Y-71620185D01*
X153428395Y-71672989D01*
X153438339Y-71742147D01*
X153438074Y-71743898D01*
X153406500Y-71943247D01*
X153406500Y-72155820D01*
X153438587Y-72358414D01*
X153439754Y-72365777D01*
X153505366Y-72567710D01*
X153505444Y-72567948D01*
X153532384Y-72620821D01*
X153601949Y-72757350D01*
X153608598Y-72766502D01*
X153612696Y-72772142D01*
X153636174Y-72837949D01*
X153620347Y-72906002D01*
X153600057Y-72932706D01*
X152131286Y-74401478D01*
X152019481Y-74513282D01*
X152019479Y-74513285D01*
X152008341Y-74532578D01*
X151977884Y-74585331D01*
X151940423Y-74650215D01*
X151899499Y-74802943D01*
X151899499Y-74802945D01*
X151899499Y-74971046D01*
X151899500Y-74971059D01*
X151899500Y-75563387D01*
X151899499Y-75563405D01*
X151899499Y-75729111D01*
X151899498Y-75729111D01*
X151940424Y-75881846D01*
X151940425Y-75881847D01*
X151962164Y-75919499D01*
X151962165Y-75919501D01*
X152019475Y-76018766D01*
X152019481Y-76018774D01*
X152138349Y-76137642D01*
X152138355Y-76137647D01*
X152351196Y-76350488D01*
X152384681Y-76411811D01*
X152379697Y-76481503D01*
X152366618Y-76507059D01*
X152290608Y-76620816D01*
X152290602Y-76620827D01*
X152230264Y-76766498D01*
X152230261Y-76766510D01*
X152199500Y-76921153D01*
X152199500Y-77059901D01*
X152179815Y-77126940D01*
X152163181Y-77147582D01*
X149631286Y-79679478D01*
X149519481Y-79791282D01*
X149519480Y-79791284D01*
X149474775Y-79868716D01*
X149440423Y-79928215D01*
X149399499Y-80080943D01*
X149399499Y-80080945D01*
X149399499Y-80249046D01*
X149399500Y-80249059D01*
X149399500Y-81907199D01*
X149379815Y-81974238D01*
X149327011Y-82019993D01*
X149314507Y-82024903D01*
X149281962Y-82035688D01*
X149230668Y-82052685D01*
X149230663Y-82052687D01*
X149081342Y-82144789D01*
X148957289Y-82268842D01*
X148865187Y-82418163D01*
X148865186Y-82418166D01*
X148810001Y-82584703D01*
X148810001Y-82584704D01*
X148810000Y-82584704D01*
X148799500Y-82687483D01*
X148799500Y-83312501D01*
X148799501Y-83312519D01*
X148810000Y-83415296D01*
X148810001Y-83415299D01*
X148865185Y-83581831D01*
X148865187Y-83581836D01*
X148957289Y-83731157D01*
X149050951Y-83824819D01*
X149084436Y-83886142D01*
X149079452Y-83955834D01*
X149050951Y-84000181D01*
X148957289Y-84093842D01*
X148865187Y-84243163D01*
X148865186Y-84243166D01*
X148810001Y-84409703D01*
X148810001Y-84409704D01*
X148810000Y-84409704D01*
X148799500Y-84512483D01*
X148799500Y-85137501D01*
X148799501Y-85137519D01*
X148810000Y-85240296D01*
X148810001Y-85240299D01*
X148813216Y-85250000D01*
X148865186Y-85406834D01*
X148957288Y-85556156D01*
X149081344Y-85680212D01*
X149230666Y-85772314D01*
X149314505Y-85800095D01*
X149371948Y-85839866D01*
X149398772Y-85904382D01*
X149399500Y-85917800D01*
X149399500Y-96599902D01*
X149379815Y-96666941D01*
X149363181Y-96687583D01*
X148687582Y-97363181D01*
X148626259Y-97396666D01*
X148599901Y-97399500D01*
X148002129Y-97399500D01*
X148002123Y-97399501D01*
X147942516Y-97405908D01*
X147807671Y-97456202D01*
X147807664Y-97456206D01*
X147692455Y-97542452D01*
X147692452Y-97542455D01*
X147606206Y-97657664D01*
X147606202Y-97657671D01*
X147555908Y-97792517D01*
X147549501Y-97852116D01*
X147549501Y-97852123D01*
X147549500Y-97852135D01*
X147549500Y-98947870D01*
X147549501Y-98947876D01*
X147555908Y-99007483D01*
X147609303Y-99150641D01*
X147607733Y-99151226D01*
X147620383Y-99209367D01*
X147608687Y-99249206D01*
X147609746Y-99249601D01*
X147556403Y-99392620D01*
X147556401Y-99392627D01*
X147550000Y-99452155D01*
X147550000Y-99750000D01*
X149450000Y-99750000D01*
X149450000Y-99452172D01*
X149449999Y-99452155D01*
X149443598Y-99392627D01*
X149443597Y-99392623D01*
X149390253Y-99249602D01*
X149391767Y-99249037D01*
X149386882Y-99225083D01*
X149379616Y-99191674D01*
X149379853Y-99190615D01*
X149379742Y-99190069D01*
X149380664Y-99187000D01*
X149387693Y-99155683D01*
X149391878Y-99144892D01*
X149393796Y-99142331D01*
X149416893Y-99080403D01*
X149417183Y-99079657D01*
X149437993Y-99052598D01*
X149458479Y-99025233D01*
X149459266Y-99024939D01*
X149459779Y-99024273D01*
X149491939Y-99012752D01*
X149523943Y-99000816D01*
X149525409Y-99000763D01*
X149525556Y-99000711D01*
X149525733Y-99000752D01*
X149532790Y-99000500D01*
X151567209Y-99000500D01*
X151634248Y-99020185D01*
X151680003Y-99072989D01*
X151683391Y-99081167D01*
X151709303Y-99150641D01*
X151707733Y-99151226D01*
X151720383Y-99209367D01*
X151708687Y-99249206D01*
X151709746Y-99249601D01*
X151656403Y-99392620D01*
X151656401Y-99392627D01*
X151650000Y-99452155D01*
X151650000Y-99750000D01*
X153550000Y-99750000D01*
X153550000Y-99452172D01*
X153549999Y-99452155D01*
X153546103Y-99415924D01*
X153538483Y-99393713D01*
X155149500Y-99393713D01*
X155149500Y-99606287D01*
X155182754Y-99816243D01*
X155193722Y-99850000D01*
X155248444Y-100018414D01*
X155344951Y-100207820D01*
X155469890Y-100379786D01*
X155620213Y-100530109D01*
X155792179Y-100655048D01*
X155792181Y-100655049D01*
X155792184Y-100655051D01*
X155981588Y-100751557D01*
X156183757Y-100817246D01*
X156393713Y-100850500D01*
X156393714Y-100850500D01*
X156606286Y-100850500D01*
X156606287Y-100850500D01*
X156816243Y-100817246D01*
X157018412Y-100751557D01*
X157207816Y-100655051D01*
X157229789Y-100639086D01*
X157379786Y-100530109D01*
X157379788Y-100530106D01*
X157379792Y-100530104D01*
X157530104Y-100379792D01*
X157530106Y-100379788D01*
X157530109Y-100379786D01*
X157655048Y-100207820D01*
X157655047Y-100207820D01*
X157655051Y-100207816D01*
X157751557Y-100018412D01*
X157817246Y-99816243D01*
X157850500Y-99606287D01*
X157850500Y-99393713D01*
X157817246Y-99183757D01*
X157751557Y-98981588D01*
X157655051Y-98792184D01*
X157655049Y-98792181D01*
X157655048Y-98792179D01*
X157530109Y-98620213D01*
X157379786Y-98469890D01*
X157207820Y-98344951D01*
X157018414Y-98248444D01*
X157018413Y-98248443D01*
X157018412Y-98248443D01*
X156816243Y-98182754D01*
X156816241Y-98182753D01*
X156816240Y-98182753D01*
X156654957Y-98157208D01*
X156606287Y-98149500D01*
X156393713Y-98149500D01*
X156345042Y-98157208D01*
X156183760Y-98182753D01*
X155981585Y-98248444D01*
X155792179Y-98344951D01*
X155620213Y-98469890D01*
X155469890Y-98620213D01*
X155344951Y-98792179D01*
X155248444Y-98981585D01*
X155248443Y-98981587D01*
X155248443Y-98981588D01*
X155244856Y-98992627D01*
X155182753Y-99183760D01*
X155149673Y-99392620D01*
X155149500Y-99393713D01*
X153538483Y-99393713D01*
X153486011Y-99240765D01*
X153484896Y-99215951D01*
X153479616Y-99191674D01*
X153483249Y-99179301D01*
X153482875Y-99170966D01*
X153488582Y-99161141D01*
X153491570Y-99150966D01*
X153490696Y-99150640D01*
X153493794Y-99142333D01*
X153493796Y-99142331D01*
X153544091Y-99007483D01*
X153550500Y-98947873D01*
X153550499Y-97852128D01*
X153544091Y-97792517D01*
X153539353Y-97779815D01*
X153493797Y-97657671D01*
X153493793Y-97657664D01*
X153407547Y-97542455D01*
X153407544Y-97542452D01*
X153292335Y-97456206D01*
X153292328Y-97456202D01*
X153157482Y-97405908D01*
X153157483Y-97405908D01*
X153097883Y-97399501D01*
X153097881Y-97399500D01*
X153097873Y-97399500D01*
X153097864Y-97399500D01*
X152102129Y-97399500D01*
X152102123Y-97399501D01*
X152042516Y-97405908D01*
X151907671Y-97456202D01*
X151907664Y-97456206D01*
X151792455Y-97542452D01*
X151792452Y-97542455D01*
X151706206Y-97657664D01*
X151706202Y-97657671D01*
X151683391Y-97718833D01*
X151641520Y-97774767D01*
X151576056Y-97799184D01*
X151567209Y-97799500D01*
X150249096Y-97799500D01*
X150182057Y-97779815D01*
X150136302Y-97727011D01*
X150126358Y-97657853D01*
X150155383Y-97594297D01*
X150161415Y-97587819D01*
X150206782Y-97542452D01*
X150358506Y-97390727D01*
X150358511Y-97390724D01*
X150368714Y-97380520D01*
X150368716Y-97380520D01*
X150480520Y-97268716D01*
X150559577Y-97131784D01*
X150600500Y-96979057D01*
X150600500Y-85917800D01*
X150605158Y-85901936D01*
X150604806Y-85885406D01*
X150614799Y-85869103D01*
X150620185Y-85850761D01*
X150632993Y-85839421D01*
X150641320Y-85825837D01*
X150661847Y-85813874D01*
X150670598Y-85806128D01*
X150677841Y-85802631D01*
X150769334Y-85772314D01*
X150918656Y-85680212D01*
X151042712Y-85556156D01*
X151134814Y-85406834D01*
X151189999Y-85240297D01*
X151200500Y-85137509D01*
X151200499Y-84525097D01*
X151220184Y-84458059D01*
X151236818Y-84437417D01*
X151324800Y-84349435D01*
X151481520Y-84192716D01*
X151560577Y-84055784D01*
X151601501Y-83903057D01*
X151601501Y-83744942D01*
X151601501Y-83737347D01*
X151601500Y-83737329D01*
X151601500Y-80299097D01*
X151621185Y-80232058D01*
X151637819Y-80211416D01*
X152901416Y-78947819D01*
X152962739Y-78914334D01*
X152989097Y-78911500D01*
X153390095Y-78911500D01*
X153397699Y-78911500D01*
X153397703Y-78911501D01*
X153425190Y-78911501D01*
X153492228Y-78931187D01*
X153522096Y-78965659D01*
X153537980Y-78983990D01*
X153537982Y-78983993D01*
X153542942Y-79018500D01*
X153547924Y-79053148D01*
X153535671Y-79091796D01*
X153505444Y-79151119D01*
X153505443Y-79151121D01*
X153505443Y-79151122D01*
X153486509Y-79209394D01*
X153439753Y-79353294D01*
X153406500Y-79563247D01*
X153406500Y-79775820D01*
X153438587Y-79978414D01*
X153439754Y-79985777D01*
X153498902Y-80167816D01*
X153505444Y-80187948D01*
X153601951Y-80377354D01*
X153726890Y-80549320D01*
X153877213Y-80699643D01*
X154049182Y-80824584D01*
X154057946Y-80829050D01*
X154108742Y-80877025D01*
X154125536Y-80944846D01*
X154102998Y-81010981D01*
X154057946Y-81050018D01*
X154049182Y-81054483D01*
X153877213Y-81179424D01*
X153726890Y-81329747D01*
X153601951Y-81501713D01*
X153505444Y-81691119D01*
X153439753Y-81893294D01*
X153406500Y-82103247D01*
X153406500Y-82315820D01*
X153438587Y-82518414D01*
X153439754Y-82525777D01*
X153498902Y-82707816D01*
X153505444Y-82727948D01*
X153601951Y-82917354D01*
X153726890Y-83089320D01*
X153877213Y-83239643D01*
X154049179Y-83364582D01*
X154049181Y-83364583D01*
X154049184Y-83364585D01*
X154058493Y-83369328D01*
X154109290Y-83417300D01*
X154126087Y-83485121D01*
X154103552Y-83551256D01*
X154058505Y-83590294D01*
X154049446Y-83594910D01*
X154049440Y-83594914D01*
X153995282Y-83634261D01*
X153995282Y-83634262D01*
X154627591Y-84266571D01*
X154564007Y-84283609D01*
X154449993Y-84349435D01*
X154356901Y-84442527D01*
X154291075Y-84556541D01*
X154274037Y-84620125D01*
X153641728Y-83987816D01*
X153641727Y-83987816D01*
X153602380Y-84041973D01*
X153505904Y-84231316D01*
X153440242Y-84433403D01*
X153440242Y-84433406D01*
X153407000Y-84643287D01*
X153407000Y-84855780D01*
X153440242Y-85065661D01*
X153440242Y-85065664D01*
X153505904Y-85267751D01*
X153602375Y-85457084D01*
X153641728Y-85511250D01*
X154274037Y-84878942D01*
X154291075Y-84942527D01*
X154356901Y-85056541D01*
X154449993Y-85149633D01*
X154564007Y-85215459D01*
X154627590Y-85232496D01*
X153995282Y-85864803D01*
X153995282Y-85864804D01*
X154049449Y-85904158D01*
X154238782Y-86000629D01*
X154440870Y-86066291D01*
X154650754Y-86099534D01*
X154863246Y-86099534D01*
X155073127Y-86066291D01*
X155073130Y-86066291D01*
X155275217Y-86000629D01*
X155464554Y-85904156D01*
X155518716Y-85864804D01*
X155518717Y-85864804D01*
X154886408Y-85232496D01*
X154949993Y-85215459D01*
X155064007Y-85149633D01*
X155157099Y-85056541D01*
X155222925Y-84942527D01*
X155239962Y-84878942D01*
X155872270Y-85511251D01*
X155872270Y-85511250D01*
X155911622Y-85457088D01*
X156008095Y-85267751D01*
X156073757Y-85065664D01*
X156073757Y-85065661D01*
X156107000Y-84855780D01*
X156107000Y-84643287D01*
X156073757Y-84433406D01*
X156073757Y-84433403D01*
X156008095Y-84231316D01*
X155911624Y-84041983D01*
X155872270Y-83987816D01*
X155872269Y-83987816D01*
X155239962Y-84620124D01*
X155222925Y-84556541D01*
X155157099Y-84442527D01*
X155064007Y-84349435D01*
X154949993Y-84283609D01*
X154886409Y-84266571D01*
X155518716Y-83634262D01*
X155464547Y-83594907D01*
X155464547Y-83594906D01*
X155455500Y-83590297D01*
X155404706Y-83542322D01*
X155387912Y-83474500D01*
X155410451Y-83408366D01*
X155455508Y-83369327D01*
X155464816Y-83364585D01*
X155544007Y-83307049D01*
X155636786Y-83239643D01*
X155636788Y-83239640D01*
X155636792Y-83239638D01*
X155787104Y-83089326D01*
X155787106Y-83089322D01*
X155787109Y-83089320D01*
X155912048Y-82917354D01*
X155912047Y-82917354D01*
X155912051Y-82917350D01*
X156008557Y-82727946D01*
X156074246Y-82525777D01*
X156107500Y-82315821D01*
X156107500Y-82103247D01*
X156074246Y-81893291D01*
X156008557Y-81691122D01*
X155912051Y-81501718D01*
X155912049Y-81501715D01*
X155912048Y-81501713D01*
X155787109Y-81329747D01*
X155636786Y-81179424D01*
X155464820Y-81054485D01*
X155464115Y-81054125D01*
X155456054Y-81050019D01*
X155405259Y-81002046D01*
X155388463Y-80934226D01*
X155410999Y-80868090D01*
X155456054Y-80829049D01*
X155464816Y-80824585D01*
X155508961Y-80792512D01*
X155636786Y-80699643D01*
X155636788Y-80699640D01*
X155636792Y-80699638D01*
X155787104Y-80549326D01*
X155787106Y-80549322D01*
X155787109Y-80549320D01*
X155912048Y-80377354D01*
X155912047Y-80377354D01*
X155912051Y-80377350D01*
X156008557Y-80187946D01*
X156074246Y-79985777D01*
X156107500Y-79775821D01*
X156107500Y-79563247D01*
X156074246Y-79353291D01*
X156008557Y-79151122D01*
X155912051Y-78961718D01*
X155912049Y-78961715D01*
X155912048Y-78961713D01*
X155787109Y-78789747D01*
X155636786Y-78639424D01*
X155464820Y-78514485D01*
X155464115Y-78514125D01*
X155456054Y-78510019D01*
X155405259Y-78462046D01*
X155388463Y-78394226D01*
X155410999Y-78328090D01*
X155456054Y-78289049D01*
X155464816Y-78284585D01*
X155534306Y-78234098D01*
X155636786Y-78159643D01*
X155636788Y-78159640D01*
X155636792Y-78159638D01*
X155787104Y-78009326D01*
X155787106Y-78009322D01*
X155787109Y-78009320D01*
X155912048Y-77837354D01*
X155912047Y-77837354D01*
X155912051Y-77837350D01*
X156008557Y-77647946D01*
X156074246Y-77445777D01*
X156107500Y-77235821D01*
X156107500Y-77023247D01*
X156074246Y-76813291D01*
X156008557Y-76611122D01*
X155912051Y-76421718D01*
X155912049Y-76421715D01*
X155912048Y-76421713D01*
X155787109Y-76249747D01*
X155636786Y-76099424D01*
X155464817Y-75974483D01*
X155455504Y-75969738D01*
X155404707Y-75921764D01*
X155387912Y-75853943D01*
X155410449Y-75787808D01*
X155455507Y-75748766D01*
X155464555Y-75744156D01*
X155518716Y-75704804D01*
X155518717Y-75704804D01*
X154886408Y-75072496D01*
X154949993Y-75055459D01*
X155064007Y-74989633D01*
X155157099Y-74896541D01*
X155222925Y-74782527D01*
X155239962Y-74718942D01*
X155872270Y-75351251D01*
X155872270Y-75351250D01*
X155911622Y-75297088D01*
X156008095Y-75107751D01*
X156073757Y-74905664D01*
X156073757Y-74905661D01*
X156107000Y-74695780D01*
X156107000Y-74483287D01*
X156073757Y-74273406D01*
X156073757Y-74273403D01*
X156008095Y-74071316D01*
X155911624Y-73881983D01*
X155872270Y-73827816D01*
X155872269Y-73827816D01*
X155239962Y-74460124D01*
X155222925Y-74396541D01*
X155157099Y-74282527D01*
X155064007Y-74189435D01*
X154949993Y-74123609D01*
X154886408Y-74106571D01*
X155518716Y-73474262D01*
X155464547Y-73434907D01*
X155464547Y-73434906D01*
X155455500Y-73430297D01*
X155404706Y-73382322D01*
X155387912Y-73314500D01*
X155410451Y-73248366D01*
X155455508Y-73209327D01*
X155464816Y-73204585D01*
X155602308Y-73104692D01*
X155636786Y-73079643D01*
X155636788Y-73079640D01*
X155636792Y-73079638D01*
X155787104Y-72929326D01*
X155787106Y-72929322D01*
X155787109Y-72929320D01*
X155912048Y-72757354D01*
X155912047Y-72757354D01*
X155912051Y-72757350D01*
X156008557Y-72567946D01*
X156074246Y-72365777D01*
X156107500Y-72155821D01*
X156107500Y-71943247D01*
X156075926Y-71743898D01*
X156078321Y-71725358D01*
X156075661Y-71706853D01*
X156082707Y-71691423D01*
X156084881Y-71674604D01*
X156096919Y-71660303D01*
X156104686Y-71643297D01*
X156118955Y-71634126D01*
X156129877Y-71621153D01*
X156147735Y-71615630D01*
X156163464Y-71605523D01*
X156195167Y-71600964D01*
X156196628Y-71600513D01*
X156198399Y-71600500D01*
X156199903Y-71600500D01*
X156266942Y-71620185D01*
X156287584Y-71636819D01*
X157064673Y-72413908D01*
X157064683Y-72413919D01*
X157069013Y-72418249D01*
X157069014Y-72418250D01*
X157180818Y-72530054D01*
X157246326Y-72567874D01*
X157267629Y-72580173D01*
X157267631Y-72580175D01*
X157302502Y-72600308D01*
X157317749Y-72609111D01*
X157470476Y-72650034D01*
X157470477Y-72650034D01*
X157494368Y-72650034D01*
X157561407Y-72669719D01*
X157563260Y-72670933D01*
X157620812Y-72709389D01*
X157620827Y-72709397D01*
X157758683Y-72766498D01*
X157766503Y-72769737D01*
X157921153Y-72800499D01*
X157921156Y-72800500D01*
X157921158Y-72800500D01*
X158078844Y-72800500D01*
X158078845Y-72800499D01*
X158233497Y-72769737D01*
X158379179Y-72709394D01*
X158510289Y-72621789D01*
X158621789Y-72510289D01*
X158709394Y-72379179D01*
X158769737Y-72233497D01*
X158800500Y-72078842D01*
X158800500Y-71921158D01*
X158800500Y-71921155D01*
X158800499Y-71921153D01*
X158785728Y-71846895D01*
X158769737Y-71766503D01*
X158760374Y-71743898D01*
X158709397Y-71620827D01*
X158709390Y-71620814D01*
X158621789Y-71489711D01*
X158621786Y-71489707D01*
X158510292Y-71378213D01*
X158510288Y-71378210D01*
X158379185Y-71290609D01*
X158379172Y-71290602D01*
X158233501Y-71230264D01*
X158233489Y-71230261D01*
X158078845Y-71199500D01*
X158078842Y-71199500D01*
X157921158Y-71199500D01*
X157921155Y-71199500D01*
X157766511Y-71230260D01*
X157766502Y-71230263D01*
X157710814Y-71253329D01*
X157641345Y-71260796D01*
X157578866Y-71229520D01*
X157575683Y-71226448D01*
X156987590Y-70638355D01*
X156987588Y-70638352D01*
X156868717Y-70519481D01*
X156868716Y-70519480D01*
X156781904Y-70469360D01*
X156781904Y-70469359D01*
X156781900Y-70469358D01*
X156731785Y-70440423D01*
X156579057Y-70399499D01*
X156420943Y-70399499D01*
X156413347Y-70399499D01*
X156413331Y-70399500D01*
X156021591Y-70399500D01*
X155954552Y-70379815D01*
X155908797Y-70327011D01*
X155898853Y-70257853D01*
X155911106Y-70219205D01*
X155925366Y-70191216D01*
X156008557Y-70027946D01*
X156074246Y-69825777D01*
X156107500Y-69615821D01*
X156107500Y-69403247D01*
X156074246Y-69193291D01*
X156008557Y-68991122D01*
X155912051Y-68801718D01*
X155912049Y-68801715D01*
X155912048Y-68801713D01*
X155787109Y-68629747D01*
X155673569Y-68516207D01*
X155640084Y-68454884D01*
X155645068Y-68385192D01*
X155686940Y-68329259D01*
X155717915Y-68312344D01*
X155849331Y-68263330D01*
X155964546Y-68177080D01*
X156050796Y-68061865D01*
X156101091Y-67927017D01*
X156107500Y-67867407D01*
X156107499Y-66071662D01*
X156101091Y-66012051D01*
X156100504Y-66010478D01*
X156050797Y-65877205D01*
X156050793Y-65877198D01*
X155964547Y-65761989D01*
X155964544Y-65761986D01*
X155849335Y-65675740D01*
X155849328Y-65675736D01*
X155714482Y-65625442D01*
X155714483Y-65625442D01*
X155654883Y-65619035D01*
X155654881Y-65619034D01*
X155654873Y-65619034D01*
X155654864Y-65619034D01*
X153859129Y-65619034D01*
X153859123Y-65619035D01*
X153799516Y-65625442D01*
X153664671Y-65675736D01*
X153664664Y-65675740D01*
X153549455Y-65761986D01*
X153549452Y-65761989D01*
X153463206Y-65877198D01*
X153463202Y-65877205D01*
X153412908Y-66012051D01*
X153408594Y-66052184D01*
X153406501Y-66071657D01*
X153406500Y-66071669D01*
X153406500Y-67867404D01*
X153406501Y-67867410D01*
X153412908Y-67927017D01*
X153463202Y-68061862D01*
X153463206Y-68061869D01*
X153549452Y-68177078D01*
X153549455Y-68177081D01*
X153664664Y-68263327D01*
X153664671Y-68263331D01*
X153796082Y-68312344D01*
X153852016Y-68354215D01*
X153876433Y-68419679D01*
X153861582Y-68487952D01*
X153840431Y-68516207D01*
X153726889Y-68629749D01*
X153601951Y-68801713D01*
X153505444Y-68991119D01*
X153439753Y-69193294D01*
X153413221Y-69360810D01*
X153406500Y-69403247D01*
X153406500Y-69615821D01*
X153406549Y-69616130D01*
X153438556Y-69818217D01*
X153439754Y-69825777D01*
X153498817Y-70007554D01*
X153505444Y-70027948D01*
X153602894Y-70219205D01*
X153615790Y-70287874D01*
X153589514Y-70352615D01*
X153532407Y-70392872D01*
X153492409Y-70399500D01*
X151349000Y-70399500D01*
X151281961Y-70379815D01*
X151236206Y-70327011D01*
X151225000Y-70275500D01*
X151225000Y-70250000D01*
X150124000Y-70250000D01*
X150056961Y-70230315D01*
X150011206Y-70177511D01*
X150000000Y-70126000D01*
X150000000Y-70000000D01*
X149874000Y-70000000D01*
X149806961Y-69980315D01*
X149761206Y-69927511D01*
X149750000Y-69876000D01*
X149750000Y-69750000D01*
X150250000Y-69750000D01*
X151224999Y-69750000D01*
X151224999Y-69700028D01*
X151224998Y-69700013D01*
X151214505Y-69597302D01*
X151159358Y-69430880D01*
X151159356Y-69430875D01*
X151067315Y-69281654D01*
X150943343Y-69157682D01*
X150907100Y-69135327D01*
X150860376Y-69083379D01*
X150849155Y-69014416D01*
X150876999Y-68950334D01*
X150907107Y-68924247D01*
X150918344Y-68917316D01*
X151042315Y-68793345D01*
X151134356Y-68644124D01*
X151134358Y-68644119D01*
X151189505Y-68477697D01*
X151189506Y-68477690D01*
X151199999Y-68374986D01*
X151200000Y-68374973D01*
X151200000Y-68250000D01*
X150250000Y-68250000D01*
X150250000Y-69750000D01*
X149750000Y-69750000D01*
X149750000Y-68124000D01*
X149769685Y-68056961D01*
X149822489Y-68011206D01*
X149874000Y-68000000D01*
X150000000Y-68000000D01*
X150000000Y-67874000D01*
X150019685Y-67806961D01*
X150072489Y-67761206D01*
X150124000Y-67750000D01*
X151199999Y-67750000D01*
X151199999Y-67625028D01*
X151199998Y-67625013D01*
X151189505Y-67522302D01*
X151134358Y-67355880D01*
X151134356Y-67355875D01*
X151042315Y-67206654D01*
X150918344Y-67082683D01*
X150918341Y-67082681D01*
X150915339Y-67080829D01*
X150913713Y-67079021D01*
X150912677Y-67078202D01*
X150912817Y-67078024D01*
X150868617Y-67028880D01*
X150857397Y-66959917D01*
X150885243Y-66895836D01*
X150915344Y-66869754D01*
X150918656Y-66867712D01*
X151042712Y-66743656D01*
X151134814Y-66594334D01*
X151189999Y-66427797D01*
X151200500Y-66325009D01*
X151200499Y-65574992D01*
X151199099Y-65561290D01*
X151189999Y-65472203D01*
X151189998Y-65472200D01*
X151185548Y-65458772D01*
X151134814Y-65305666D01*
X151042712Y-65156344D01*
X150918656Y-65032288D01*
X150769334Y-64940186D01*
X150685495Y-64912404D01*
X150665463Y-64898534D01*
X150643297Y-64888412D01*
X150637248Y-64878999D01*
X150628051Y-64872632D01*
X150618697Y-64850133D01*
X150605523Y-64829634D01*
X150603064Y-64812532D01*
X150601228Y-64808116D01*
X150600500Y-64794699D01*
X150600500Y-64679765D01*
X150620185Y-64612726D01*
X150621398Y-64610874D01*
X150658863Y-64554804D01*
X150712475Y-64509999D01*
X150781800Y-64501292D01*
X150844828Y-64531447D01*
X150849646Y-64536014D01*
X150881344Y-64567712D01*
X151030666Y-64659814D01*
X151197203Y-64714999D01*
X151299991Y-64725500D01*
X151900008Y-64725499D01*
X151900016Y-64725498D01*
X151900019Y-64725498D01*
X151967633Y-64718591D01*
X152002797Y-64714999D01*
X152169334Y-64659814D01*
X152318656Y-64567712D01*
X152442712Y-64443656D01*
X152444752Y-64440347D01*
X152446745Y-64438555D01*
X152447193Y-64437989D01*
X152447289Y-64438065D01*
X152496694Y-64393623D01*
X152565656Y-64382395D01*
X152629740Y-64410234D01*
X152655829Y-64440339D01*
X152657681Y-64443341D01*
X152657683Y-64443344D01*
X152781654Y-64567315D01*
X152930875Y-64659356D01*
X152930880Y-64659358D01*
X153097302Y-64714505D01*
X153097309Y-64714506D01*
X153200019Y-64724999D01*
X153750000Y-64724999D01*
X153799972Y-64724999D01*
X153799986Y-64724998D01*
X153902697Y-64714505D01*
X154069119Y-64659358D01*
X154069124Y-64659356D01*
X154218345Y-64567315D01*
X154342315Y-64443345D01*
X154434356Y-64294124D01*
X154434358Y-64294119D01*
X154489505Y-64127697D01*
X154489506Y-64127690D01*
X154499999Y-64024986D01*
X154500000Y-64024973D01*
X154500000Y-63750000D01*
X153750000Y-63750000D01*
X153750000Y-64724999D01*
X153200019Y-64724999D01*
X153249999Y-64724998D01*
X153250000Y-64724998D01*
X153250000Y-63250000D01*
X153750000Y-63250000D01*
X154499999Y-63250000D01*
X154499999Y-62975028D01*
X154499998Y-62975013D01*
X154489505Y-62872302D01*
X154434358Y-62705880D01*
X154434356Y-62705875D01*
X154342315Y-62556654D01*
X154218345Y-62432684D01*
X154069124Y-62340643D01*
X154069119Y-62340641D01*
X153902697Y-62285494D01*
X153902690Y-62285493D01*
X153799986Y-62275000D01*
X153750000Y-62275000D01*
X153750000Y-63250000D01*
X153250000Y-63250000D01*
X153250000Y-62275000D01*
X153249999Y-62274999D01*
X153200029Y-62275000D01*
X153200011Y-62275001D01*
X153097302Y-62285494D01*
X152930880Y-62340641D01*
X152930875Y-62340643D01*
X152781654Y-62432684D01*
X152657683Y-62556655D01*
X152657679Y-62556660D01*
X152655826Y-62559665D01*
X152654018Y-62561290D01*
X152653202Y-62562323D01*
X152653025Y-62562183D01*
X152603874Y-62606385D01*
X152534911Y-62617601D01*
X152470831Y-62589752D01*
X152444753Y-62559653D01*
X152444737Y-62559628D01*
X152442712Y-62556344D01*
X152318656Y-62432288D01*
X152169334Y-62340186D01*
X152002797Y-62285001D01*
X152002795Y-62285000D01*
X151900010Y-62274500D01*
X151299998Y-62274500D01*
X151299980Y-62274501D01*
X151197203Y-62285000D01*
X151197200Y-62285001D01*
X151030668Y-62340185D01*
X151030663Y-62340187D01*
X150881342Y-62432289D01*
X150757289Y-62556342D01*
X150665187Y-62705663D01*
X150665185Y-62705668D01*
X150629121Y-62814504D01*
X150589348Y-62871949D01*
X150524833Y-62898772D01*
X150511415Y-62899500D01*
X149586670Y-62899500D01*
X149586654Y-62899499D01*
X149579058Y-62899499D01*
X149420943Y-62899499D01*
X149344579Y-62919961D01*
X149268214Y-62940423D01*
X149268209Y-62940426D01*
X149131290Y-63019475D01*
X149131282Y-63019481D01*
X148812181Y-63338583D01*
X148750858Y-63372068D01*
X148681166Y-63367084D01*
X148625233Y-63325212D01*
X148600816Y-63259748D01*
X148600500Y-63250902D01*
X148600500Y-62300096D01*
X148620185Y-62233057D01*
X148636814Y-62212420D01*
X150658506Y-60190727D01*
X150658511Y-60190724D01*
X150668714Y-60180520D01*
X150668716Y-60180520D01*
X150780520Y-60068716D01*
X150784603Y-60061642D01*
X150841459Y-59963167D01*
X150841460Y-59963164D01*
X150859576Y-59931787D01*
X150859577Y-59931785D01*
X150900500Y-59779058D01*
X150900500Y-59620943D01*
X150900500Y-59463923D01*
X150920185Y-59396884D01*
X150972989Y-59351129D01*
X151042147Y-59341185D01*
X151062818Y-59345992D01*
X151213143Y-59394835D01*
X151403591Y-59425000D01*
X151596409Y-59425000D01*
X151786856Y-59394835D01*
X151970234Y-59335253D01*
X151970237Y-59335252D01*
X152142040Y-59247713D01*
X152172227Y-59225780D01*
X152172228Y-59225780D01*
X151568172Y-58621725D01*
X151664044Y-58596037D01*
X151760956Y-58540084D01*
X151840084Y-58460956D01*
X151896037Y-58364044D01*
X151921725Y-58268172D01*
X152525780Y-58872228D01*
X152525780Y-58872227D01*
X152547713Y-58842040D01*
X152635252Y-58670237D01*
X152635253Y-58670234D01*
X152694835Y-58486856D01*
X152725000Y-58296409D01*
X152725000Y-58103590D01*
X152694835Y-57913143D01*
X152635253Y-57729765D01*
X152635252Y-57729762D01*
X152547712Y-57557957D01*
X152525781Y-57527771D01*
X152525780Y-57527771D01*
X151921725Y-58131826D01*
X151896037Y-58035956D01*
X151840084Y-57939044D01*
X151760956Y-57859916D01*
X151664044Y-57803963D01*
X151568171Y-57778274D01*
X152172227Y-57174218D01*
X152172220Y-57174129D01*
X152129701Y-57118990D01*
X152123720Y-57049377D01*
X152156325Y-56987581D01*
X152217163Y-56953223D01*
X152245251Y-56950000D01*
X152250000Y-56950000D01*
X152250000Y-56016988D01*
X152259940Y-56034205D01*
X152315795Y-56090060D01*
X152384204Y-56129556D01*
X152460504Y-56150000D01*
X152539496Y-56150000D01*
X152615796Y-56129556D01*
X152684205Y-56090060D01*
X152740060Y-56034205D01*
X152750000Y-56016988D01*
X152750000Y-56924115D01*
X152757584Y-56922914D01*
X152922255Y-56869408D01*
X153076524Y-56790804D01*
X153216602Y-56689032D01*
X153339032Y-56566602D01*
X153440804Y-56426524D01*
X153519408Y-56272257D01*
X153572914Y-56107584D01*
X153600000Y-55936571D01*
X153600000Y-55893713D01*
X155149500Y-55893713D01*
X155149500Y-56106287D01*
X155156424Y-56150000D01*
X155182753Y-56316239D01*
X155248444Y-56518414D01*
X155344951Y-56707820D01*
X155469890Y-56879786D01*
X155620213Y-57030109D01*
X155792179Y-57155048D01*
X155792181Y-57155049D01*
X155792184Y-57155051D01*
X155981588Y-57251557D01*
X156183757Y-57317246D01*
X156393713Y-57350500D01*
X156393714Y-57350500D01*
X156606286Y-57350500D01*
X156606287Y-57350500D01*
X156816243Y-57317246D01*
X157018412Y-57251557D01*
X157207816Y-57155051D01*
X157295085Y-57091647D01*
X157379786Y-57030109D01*
X157379788Y-57030106D01*
X157379792Y-57030104D01*
X157530104Y-56879792D01*
X157530106Y-56879788D01*
X157530109Y-56879786D01*
X157655048Y-56707820D01*
X157655047Y-56707820D01*
X157655051Y-56707816D01*
X157751557Y-56518412D01*
X157817246Y-56316243D01*
X157850500Y-56106287D01*
X157850500Y-55893713D01*
X157817246Y-55683757D01*
X157751557Y-55481588D01*
X157655051Y-55292184D01*
X157655049Y-55292181D01*
X157655048Y-55292179D01*
X157530109Y-55120213D01*
X157379786Y-54969890D01*
X157207820Y-54844951D01*
X157018414Y-54748444D01*
X157018413Y-54748443D01*
X157018412Y-54748443D01*
X156816243Y-54682754D01*
X156816241Y-54682753D01*
X156816240Y-54682753D01*
X156654957Y-54657208D01*
X156606287Y-54649500D01*
X156393713Y-54649500D01*
X156345042Y-54657208D01*
X156183760Y-54682753D01*
X155981585Y-54748444D01*
X155792179Y-54844951D01*
X155620213Y-54969890D01*
X155469890Y-55120213D01*
X155344951Y-55292179D01*
X155248444Y-55481585D01*
X155182753Y-55683760D01*
X155177324Y-55718040D01*
X155149500Y-55893713D01*
X153600000Y-55893713D01*
X153600000Y-55750000D01*
X152800000Y-55750000D01*
X152800000Y-55250000D01*
X153600000Y-55250000D01*
X153600000Y-55063428D01*
X153572914Y-54892415D01*
X153519408Y-54727742D01*
X153440804Y-54573475D01*
X153339032Y-54433397D01*
X153216602Y-54310967D01*
X153076524Y-54209195D01*
X152922257Y-54130591D01*
X152757589Y-54077087D01*
X152757581Y-54077085D01*
X152750000Y-54075884D01*
X152750000Y-54983011D01*
X152740060Y-54965795D01*
X152684205Y-54909940D01*
X152615796Y-54870444D01*
X152539496Y-54850000D01*
X152460504Y-54850000D01*
X152384204Y-54870444D01*
X152315795Y-54909940D01*
X152259940Y-54965795D01*
X152250000Y-54983011D01*
X152250000Y-54050000D01*
X152150000Y-54050000D01*
X152150000Y-55250000D01*
X152200000Y-55250000D01*
X152200000Y-55750000D01*
X145800000Y-55750000D01*
X145800000Y-55250000D01*
X145850000Y-55250000D01*
X146350000Y-55250000D01*
X147750000Y-55250000D01*
X148250000Y-55250000D01*
X149750000Y-55250000D01*
X150250000Y-55250000D01*
X151650000Y-55250000D01*
X151650000Y-54050000D01*
X151252155Y-54050000D01*
X151192627Y-54056401D01*
X151192619Y-54056403D01*
X151068333Y-54102759D01*
X150998641Y-54107743D01*
X150981667Y-54102759D01*
X150857380Y-54056403D01*
X150857372Y-54056401D01*
X150797844Y-54050000D01*
X150250000Y-54050000D01*
X150250000Y-55250000D01*
X149750000Y-55250000D01*
X149750000Y-54050000D01*
X149202155Y-54050000D01*
X149142627Y-54056401D01*
X149142616Y-54056403D01*
X149043332Y-54093434D01*
X148973640Y-54098418D01*
X148956668Y-54093434D01*
X148857383Y-54056403D01*
X148857372Y-54056401D01*
X148797844Y-54050000D01*
X148250000Y-54050000D01*
X148250000Y-55250000D01*
X147750000Y-55250000D01*
X147750000Y-54050000D01*
X147202155Y-54050000D01*
X147142627Y-54056401D01*
X147142619Y-54056403D01*
X147018333Y-54102759D01*
X146948641Y-54107743D01*
X146931667Y-54102759D01*
X146807380Y-54056403D01*
X146807372Y-54056401D01*
X146747844Y-54050000D01*
X146350000Y-54050000D01*
X146350000Y-55250000D01*
X145850000Y-55250000D01*
X145850000Y-54050000D01*
X145750000Y-54050000D01*
X145750000Y-54983011D01*
X145740060Y-54965795D01*
X145684205Y-54909940D01*
X145615796Y-54870444D01*
X145539496Y-54850000D01*
X145460504Y-54850000D01*
X145384204Y-54870444D01*
X145315795Y-54909940D01*
X145259940Y-54965795D01*
X145250000Y-54983011D01*
X145250000Y-54075884D01*
X145249999Y-54075884D01*
X145242418Y-54077085D01*
X145242410Y-54077087D01*
X145077742Y-54130591D01*
X144923475Y-54209195D01*
X144783397Y-54310967D01*
X144660967Y-54433397D01*
X144559195Y-54573475D01*
X144480591Y-54727742D01*
X144427085Y-54892415D01*
X144400000Y-55063428D01*
X144400000Y-55250000D01*
X145200000Y-55250000D01*
X145200000Y-55750000D01*
X144400000Y-55750000D01*
X144400000Y-55936571D01*
X144427085Y-56107584D01*
X144480591Y-56272257D01*
X144559195Y-56426524D01*
X144660967Y-56566602D01*
X144783397Y-56689032D01*
X144923475Y-56790804D01*
X145077744Y-56869408D01*
X145242415Y-56922914D01*
X145242414Y-56922914D01*
X145249999Y-56924115D01*
X145250000Y-56924114D01*
X145250000Y-56016988D01*
X145259940Y-56034205D01*
X145315795Y-56090060D01*
X145384204Y-56129556D01*
X145460504Y-56150000D01*
X145539496Y-56150000D01*
X145615796Y-56129556D01*
X145684205Y-56090060D01*
X145740060Y-56034205D01*
X145750000Y-56016988D01*
X145750000Y-56950000D01*
X145754748Y-56950000D01*
X145821787Y-56969685D01*
X145867542Y-57022489D01*
X145877486Y-57091647D01*
X145848461Y-57155203D01*
X145827773Y-57174188D01*
X145827771Y-57174219D01*
X146431827Y-57778274D01*
X146335956Y-57803963D01*
X146239044Y-57859916D01*
X146159916Y-57939044D01*
X146103963Y-58035956D01*
X146078274Y-58131827D01*
X145474219Y-57527771D01*
X145474216Y-57527771D01*
X145452292Y-57557950D01*
X145452288Y-57557955D01*
X145364747Y-57729762D01*
X145364746Y-57729765D01*
X145305164Y-57913143D01*
X145275000Y-58103590D01*
X145275000Y-58296409D01*
X145305164Y-58486856D01*
X145364746Y-58670234D01*
X145364747Y-58670237D01*
X145452288Y-58842043D01*
X145474217Y-58872227D01*
X145474218Y-58872227D01*
X146078274Y-58268171D01*
X146103963Y-58364044D01*
X146159916Y-58460956D01*
X146239044Y-58540084D01*
X146335956Y-58596037D01*
X146431826Y-58621725D01*
X145827771Y-59225780D01*
X145827771Y-59225781D01*
X145857957Y-59247712D01*
X146029762Y-59335252D01*
X146029765Y-59335253D01*
X146213143Y-59394835D01*
X146403591Y-59425000D01*
X146596409Y-59425000D01*
X146786856Y-59394835D01*
X146970234Y-59335253D01*
X146970241Y-59335250D01*
X147086041Y-59276246D01*
X147154710Y-59263349D01*
X147216649Y-59287464D01*
X147257910Y-59318352D01*
X147257913Y-59318354D01*
X147392620Y-59368596D01*
X147392627Y-59368598D01*
X147452155Y-59374999D01*
X147452172Y-59375000D01*
X147500000Y-59375000D01*
X147500000Y-59214435D01*
X147506708Y-59191587D01*
X147509067Y-59167891D01*
X147516372Y-59158676D01*
X147519685Y-59147396D01*
X147537677Y-59131804D01*
X147552475Y-59113142D01*
X147563604Y-59109339D01*
X147572489Y-59101641D01*
X147596057Y-59098252D01*
X147618593Y-59090553D01*
X147630008Y-59093370D01*
X147641647Y-59091697D01*
X147663307Y-59101588D01*
X147686427Y-59107295D01*
X147697596Y-59117248D01*
X147705203Y-59120722D01*
X147714083Y-59129223D01*
X147718988Y-59134408D01*
X147792454Y-59232546D01*
X147858803Y-59282214D01*
X147866083Y-59289911D01*
X147877342Y-59311966D01*
X147892182Y-59331789D01*
X147894761Y-59346086D01*
X147897852Y-59352140D01*
X147897141Y-59359279D01*
X147899972Y-59374972D01*
X147900000Y-59375000D01*
X147947828Y-59375000D01*
X147947839Y-59374999D01*
X148009395Y-59368380D01*
X148035909Y-59368380D01*
X148042514Y-59369090D01*
X148042517Y-59369091D01*
X148102127Y-59375500D01*
X148597872Y-59375499D01*
X148657483Y-59369091D01*
X148657486Y-59369089D01*
X148661744Y-59368632D01*
X148688254Y-59368632D01*
X148692514Y-59369089D01*
X148692517Y-59369091D01*
X148752127Y-59375500D01*
X149247872Y-59375499D01*
X149307483Y-59369091D01*
X149307486Y-59369089D01*
X149311744Y-59368632D01*
X149331217Y-59368078D01*
X149341136Y-59368576D01*
X149342517Y-59369091D01*
X149402127Y-59375500D01*
X149479028Y-59375499D01*
X149482121Y-59375655D01*
X149512286Y-59386182D01*
X149542941Y-59395183D01*
X149545049Y-59397616D01*
X149548089Y-59398677D01*
X149567771Y-59423837D01*
X149588697Y-59447986D01*
X149589155Y-59451173D01*
X149591139Y-59453709D01*
X149594093Y-59485517D01*
X149598641Y-59517144D01*
X149597303Y-59520073D01*
X149597601Y-59523279D01*
X149582889Y-59551635D01*
X149569617Y-59580701D01*
X149565539Y-59585079D01*
X149565426Y-59585299D01*
X149565231Y-59585410D01*
X149563584Y-59587180D01*
X147519481Y-61631282D01*
X147519477Y-61631287D01*
X147496966Y-61670280D01*
X147496965Y-61670282D01*
X147440423Y-61768215D01*
X147399499Y-61920943D01*
X147399499Y-61920945D01*
X147399499Y-62089046D01*
X147399500Y-62089059D01*
X147399500Y-66613444D01*
X147379815Y-66680483D01*
X147327011Y-66726238D01*
X147257853Y-66736182D01*
X147239575Y-66731202D01*
X147239324Y-66732031D01*
X147233500Y-66730264D01*
X147233497Y-66730263D01*
X147233492Y-66730262D01*
X147233489Y-66730261D01*
X147078845Y-66699500D01*
X147078842Y-66699500D01*
X146921158Y-66699500D01*
X146921155Y-66699500D01*
X146766510Y-66730261D01*
X146766495Y-66730265D01*
X146758398Y-66733619D01*
X146688928Y-66741083D01*
X146626451Y-66709804D01*
X146590803Y-66649713D01*
X146593301Y-66579888D01*
X146596380Y-66571632D01*
X146600719Y-66561159D01*
X146615500Y-66448887D01*
X146615499Y-65931114D01*
X146611337Y-65899500D01*
X146600720Y-65818848D01*
X146600719Y-65818847D01*
X146600719Y-65818841D01*
X146542856Y-65679147D01*
X146450810Y-65559190D01*
X146330853Y-65467144D01*
X146330848Y-65467142D01*
X146310641Y-65458772D01*
X146256238Y-65414931D01*
X146234173Y-65348637D01*
X146243532Y-65296760D01*
X146269737Y-65233497D01*
X146300500Y-65078842D01*
X146300500Y-64921158D01*
X146300500Y-64921155D01*
X146300499Y-64921153D01*
X146292114Y-64878999D01*
X146269737Y-64766503D01*
X146252545Y-64724998D01*
X146209397Y-64620827D01*
X146209390Y-64620814D01*
X146121789Y-64489711D01*
X146121786Y-64489707D01*
X146036735Y-64404656D01*
X146003250Y-64343333D01*
X146008039Y-64276354D01*
X146007542Y-64276189D01*
X146008192Y-64274227D01*
X146008234Y-64273641D01*
X146008961Y-64271906D01*
X146009812Y-64269336D01*
X146009814Y-64269334D01*
X146064999Y-64102797D01*
X146075500Y-64000009D01*
X146075499Y-62999992D01*
X146072947Y-62975013D01*
X146064999Y-62897203D01*
X146064998Y-62897200D01*
X146056631Y-62871949D01*
X146009814Y-62730666D01*
X145917712Y-62581344D01*
X145793656Y-62457288D01*
X145644334Y-62365186D01*
X145477797Y-62310001D01*
X145477795Y-62310000D01*
X145375010Y-62299500D01*
X144624998Y-62299500D01*
X144624980Y-62299501D01*
X144522203Y-62310000D01*
X144522200Y-62310001D01*
X144355668Y-62365185D01*
X144355663Y-62365187D01*
X144206342Y-62457289D01*
X144082288Y-62581343D01*
X144082283Y-62581349D01*
X144080241Y-62584661D01*
X144078247Y-62586453D01*
X144077807Y-62587011D01*
X144077711Y-62586935D01*
X144028291Y-62631383D01*
X143959328Y-62642602D01*
X143895247Y-62614755D01*
X143869168Y-62584656D01*
X143867319Y-62581659D01*
X143867316Y-62581655D01*
X143743345Y-62457684D01*
X143594124Y-62365643D01*
X143594119Y-62365641D01*
X143427697Y-62310494D01*
X143427690Y-62310493D01*
X143324986Y-62300000D01*
X143200000Y-62300000D01*
X143200000Y-64699999D01*
X143324972Y-64699999D01*
X143324986Y-64699998D01*
X143427694Y-64689506D01*
X143440492Y-64685265D01*
X143510320Y-64682861D01*
X143570363Y-64718591D01*
X143601558Y-64781110D01*
X143603500Y-64802970D01*
X143603500Y-65921000D01*
X143583815Y-65988039D01*
X143531011Y-66033794D01*
X143479500Y-66045000D01*
X142905000Y-66045000D01*
X142905000Y-70145000D01*
X143807828Y-70145000D01*
X143807841Y-70144999D01*
X143867243Y-70138612D01*
X143875010Y-70140013D01*
X143882622Y-70137919D01*
X143908906Y-70146127D01*
X143936003Y-70151016D01*
X143941780Y-70156394D01*
X143949315Y-70158748D01*
X143966987Y-70179863D01*
X143987141Y-70198626D01*
X143990233Y-70207636D01*
X143994160Y-70212328D01*
X143997771Y-70229601D01*
X144003522Y-70246357D01*
X144004500Y-70254105D01*
X144004501Y-70258886D01*
X144019281Y-70371159D01*
X144019294Y-70371191D01*
X144019563Y-70373316D01*
X144014047Y-70407513D01*
X144008714Y-70441711D01*
X144008476Y-70442048D01*
X144008437Y-70442295D01*
X144007818Y-70442984D01*
X143984222Y-70476541D01*
X143718786Y-70741978D01*
X143606981Y-70853782D01*
X143606975Y-70853790D01*
X143568207Y-70920940D01*
X143568207Y-70920942D01*
X143527923Y-70990714D01*
X143527923Y-70990715D01*
X143486999Y-71143443D01*
X143486999Y-71143445D01*
X143486999Y-71307492D01*
X143485320Y-71313206D01*
X143486459Y-71319054D01*
X143475589Y-71346349D01*
X143467314Y-71374531D01*
X143462245Y-71379856D01*
X143460609Y-71383966D01*
X143445365Y-71397592D01*
X143435110Y-71408368D01*
X143431673Y-71410824D01*
X143356344Y-71457288D01*
X143330444Y-71483186D01*
X143322110Y-71489145D01*
X143298393Y-71497401D01*
X143276352Y-71509436D01*
X143265962Y-71508692D01*
X143256124Y-71512118D01*
X143231705Y-71506241D01*
X143206661Y-71504449D01*
X143196125Y-71497677D01*
X143188194Y-71495769D01*
X143180267Y-71487486D01*
X143162318Y-71475950D01*
X143118657Y-71432289D01*
X143118656Y-71432288D01*
X142994323Y-71355599D01*
X142969336Y-71340187D01*
X142969331Y-71340185D01*
X142914947Y-71322164D01*
X142802797Y-71285001D01*
X142802795Y-71285000D01*
X142700010Y-71274500D01*
X142099998Y-71274500D01*
X142099980Y-71274501D01*
X141997203Y-71285000D01*
X141997198Y-71285002D01*
X141980934Y-71290391D01*
X141911105Y-71292791D01*
X141851201Y-71257204D01*
X141841590Y-71246887D01*
X141831520Y-71229444D01*
X141741278Y-71139202D01*
X141739768Y-71137581D01*
X141725066Y-71108231D01*
X141709334Y-71079418D01*
X141708978Y-71076113D01*
X141708476Y-71075110D01*
X141708673Y-71073271D01*
X141706500Y-71053061D01*
X141706500Y-70269000D01*
X141726185Y-70201961D01*
X141778989Y-70156206D01*
X141830500Y-70145000D01*
X142405000Y-70145000D01*
X142405000Y-66045000D01*
X141560599Y-66045000D01*
X141531187Y-66036363D01*
X141501215Y-66029856D01*
X141496171Y-66026081D01*
X141493560Y-66025315D01*
X141478880Y-66013491D01*
X141478684Y-66013727D01*
X141478672Y-66013717D01*
X141475018Y-66010380D01*
X141472952Y-66008716D01*
X141471680Y-66007445D01*
X141470406Y-66006171D01*
X141470404Y-66006167D01*
X141470397Y-66006160D01*
X141470374Y-66006139D01*
X141313564Y-65849329D01*
X141286684Y-65809100D01*
X141232857Y-65679149D01*
X141232856Y-65679148D01*
X141232856Y-65679147D01*
X141140810Y-65559190D01*
X141020853Y-65467144D01*
X141020852Y-65467143D01*
X141020850Y-65467142D01*
X140881162Y-65409282D01*
X140881160Y-65409281D01*
X140881159Y-65409281D01*
X140768887Y-65394500D01*
X139231111Y-65394500D01*
X139118848Y-65409279D01*
X139118837Y-65409282D01*
X138979149Y-65467142D01*
X138859190Y-65559190D01*
X138767142Y-65679149D01*
X138709282Y-65818837D01*
X138709281Y-65818841D01*
X138694500Y-65931105D01*
X138694500Y-66448889D01*
X138709052Y-66559433D01*
X138698285Y-66628468D01*
X138651904Y-66680723D01*
X138584635Y-66699607D01*
X138582691Y-66699500D01*
X138578842Y-66699500D01*
X138421158Y-66699500D01*
X138421155Y-66699500D01*
X138266510Y-66730261D01*
X138266498Y-66730264D01*
X138120817Y-66790606D01*
X138117064Y-66792613D01*
X138048661Y-66806853D01*
X137983418Y-66781850D01*
X137970933Y-66770933D01*
X137950000Y-66750000D01*
X137200000Y-66750000D01*
X137200000Y-69749500D01*
X137180315Y-69816539D01*
X137127511Y-69862294D01*
X137076000Y-69873500D01*
X136824000Y-69873500D01*
X136756961Y-69853815D01*
X136711206Y-69801011D01*
X136700000Y-69749500D01*
X136700000Y-66250000D01*
X137200000Y-66250000D01*
X137949999Y-66250000D01*
X137949999Y-65975028D01*
X137949998Y-65975013D01*
X137939505Y-65872302D01*
X137884358Y-65705880D01*
X137884356Y-65705875D01*
X137792315Y-65556654D01*
X137668345Y-65432684D01*
X137519124Y-65340643D01*
X137519119Y-65340641D01*
X137352697Y-65285494D01*
X137352690Y-65285493D01*
X137249986Y-65275000D01*
X137200000Y-65275000D01*
X137200000Y-66250000D01*
X136700000Y-66250000D01*
X136700000Y-65275000D01*
X136699999Y-65274999D01*
X136650029Y-65275000D01*
X136650011Y-65275001D01*
X136547302Y-65285494D01*
X136380880Y-65340641D01*
X136380875Y-65340643D01*
X136231654Y-65432684D01*
X136107683Y-65556655D01*
X136107679Y-65556660D01*
X136105826Y-65559665D01*
X136104018Y-65561290D01*
X136103202Y-65562323D01*
X136103025Y-65562183D01*
X136053874Y-65606385D01*
X135984911Y-65617601D01*
X135920831Y-65589752D01*
X135894753Y-65559653D01*
X135894467Y-65559190D01*
X135892712Y-65556344D01*
X135768656Y-65432288D01*
X135675888Y-65375069D01*
X135619336Y-65340187D01*
X135619331Y-65340185D01*
X135617862Y-65339698D01*
X135452797Y-65285001D01*
X135452795Y-65285000D01*
X135350010Y-65274500D01*
X134749998Y-65274500D01*
X134749980Y-65274501D01*
X134647203Y-65285000D01*
X134647200Y-65285001D01*
X134480668Y-65340185D01*
X134480663Y-65340187D01*
X134331342Y-65432289D01*
X134207289Y-65556342D01*
X134115187Y-65705663D01*
X134115185Y-65705668D01*
X134115115Y-65705880D01*
X134080912Y-65809100D01*
X134079121Y-65814504D01*
X134039348Y-65871949D01*
X133974833Y-65898772D01*
X133961415Y-65899500D01*
X132600759Y-65899500D01*
X132533720Y-65879815D01*
X132513078Y-65863182D01*
X132458996Y-65809100D01*
X132379792Y-65729896D01*
X132379788Y-65729893D01*
X132379784Y-65729889D01*
X132207820Y-65604951D01*
X132018414Y-65508444D01*
X132018413Y-65508443D01*
X132018412Y-65508443D01*
X131816243Y-65442754D01*
X131816241Y-65442753D01*
X131816240Y-65442753D01*
X131654957Y-65417208D01*
X131606287Y-65409500D01*
X131393713Y-65409500D01*
X131345042Y-65417208D01*
X131183760Y-65442753D01*
X130981585Y-65508444D01*
X130792179Y-65604951D01*
X130620213Y-65729890D01*
X130469890Y-65880213D01*
X130344951Y-66052179D01*
X130248444Y-66241585D01*
X130182753Y-66443760D01*
X130149500Y-66653713D01*
X126000500Y-66653713D01*
X126000500Y-63999986D01*
X141875001Y-63999986D01*
X141885494Y-64102697D01*
X141940641Y-64269119D01*
X141940643Y-64269124D01*
X142032684Y-64418345D01*
X142156654Y-64542315D01*
X142305875Y-64634356D01*
X142305880Y-64634358D01*
X142472302Y-64689505D01*
X142472309Y-64689506D01*
X142575019Y-64699999D01*
X142699999Y-64699999D01*
X142700000Y-64699998D01*
X142700000Y-63750000D01*
X141875001Y-63750000D01*
X141875001Y-63999986D01*
X126000500Y-63999986D01*
X126000500Y-60232483D01*
X133399500Y-60232483D01*
X133399500Y-61832501D01*
X133399501Y-61832518D01*
X133410000Y-61935296D01*
X133410001Y-61935299D01*
X133444031Y-62037993D01*
X133465186Y-62101834D01*
X133557287Y-62251155D01*
X133557289Y-62251157D01*
X133681344Y-62375212D01*
X133765483Y-62427109D01*
X133812208Y-62479057D01*
X133823431Y-62548019D01*
X133803490Y-62601538D01*
X133790608Y-62620816D01*
X133790602Y-62620827D01*
X133730264Y-62766498D01*
X133730261Y-62766510D01*
X133699500Y-62921153D01*
X133699500Y-63078846D01*
X133730261Y-63233489D01*
X133730264Y-63233501D01*
X133790602Y-63379172D01*
X133790609Y-63379185D01*
X133878210Y-63510288D01*
X133878213Y-63510292D01*
X133989707Y-63621786D01*
X133989711Y-63621789D01*
X134120814Y-63709390D01*
X134120827Y-63709397D01*
X134218853Y-63750000D01*
X134266503Y-63769737D01*
X134421153Y-63800499D01*
X134421156Y-63800500D01*
X134421158Y-63800500D01*
X134578844Y-63800500D01*
X134578845Y-63800499D01*
X134733497Y-63769737D01*
X134879179Y-63709394D01*
X135010289Y-63621789D01*
X135010292Y-63621786D01*
X135021122Y-63610957D01*
X135121786Y-63510292D01*
X135121789Y-63510289D01*
X135209394Y-63379179D01*
X135212340Y-63372068D01*
X135231748Y-63325212D01*
X135269737Y-63233497D01*
X135300500Y-63078842D01*
X135300500Y-63028362D01*
X135300557Y-63027972D01*
X135300501Y-63027778D01*
X135300808Y-63026249D01*
X135304644Y-63000013D01*
X141875000Y-63000013D01*
X141875000Y-63250000D01*
X142700000Y-63250000D01*
X142700000Y-62300000D01*
X142575027Y-62300000D01*
X142575012Y-62300001D01*
X142472302Y-62310494D01*
X142305880Y-62365641D01*
X142305875Y-62365643D01*
X142156654Y-62457684D01*
X142032684Y-62581654D01*
X141940643Y-62730875D01*
X141940641Y-62730880D01*
X141885494Y-62897302D01*
X141885493Y-62897309D01*
X141875000Y-63000013D01*
X135304644Y-63000013D01*
X135305689Y-62992867D01*
X135308380Y-62983855D01*
X135309577Y-62981784D01*
X135350500Y-62829057D01*
X135350500Y-62650034D01*
X135370185Y-62582995D01*
X135422989Y-62537240D01*
X135461897Y-62526676D01*
X135502797Y-62522499D01*
X135669334Y-62467314D01*
X135818656Y-62375212D01*
X135942712Y-62251156D01*
X136034814Y-62101834D01*
X136034814Y-62101831D01*
X136038448Y-62095941D01*
X136090395Y-62049216D01*
X136159358Y-62037993D01*
X136223440Y-62065836D01*
X136231668Y-62073356D01*
X136370535Y-62212223D01*
X136370540Y-62212227D01*
X136542442Y-62337120D01*
X136731782Y-62433595D01*
X136933871Y-62499257D01*
X137000000Y-62509731D01*
X137000000Y-61465512D01*
X137057007Y-61498425D01*
X137184174Y-61532500D01*
X137315826Y-61532500D01*
X137442993Y-61498425D01*
X137500000Y-61465512D01*
X137500000Y-62509730D01*
X137566126Y-62499257D01*
X137566129Y-62499257D01*
X137768217Y-62433595D01*
X137957557Y-62337120D01*
X138129459Y-62212227D01*
X138129464Y-62212223D01*
X138279723Y-62061964D01*
X138279727Y-62061959D01*
X138404620Y-61890057D01*
X138501095Y-61700717D01*
X138566757Y-61498630D01*
X138566757Y-61498627D01*
X138600000Y-61288746D01*
X138600000Y-61282500D01*
X137683012Y-61282500D01*
X137715925Y-61225493D01*
X137750000Y-61098326D01*
X137750000Y-60966674D01*
X137715925Y-60839507D01*
X137683012Y-60782500D01*
X138600000Y-60782500D01*
X138600000Y-60776253D01*
X138566757Y-60566372D01*
X138566757Y-60566369D01*
X138501095Y-60364282D01*
X138404620Y-60174942D01*
X138279727Y-60003040D01*
X138279723Y-60003035D01*
X138129464Y-59852776D01*
X138129459Y-59852772D01*
X137957557Y-59727879D01*
X137768215Y-59631403D01*
X137566124Y-59565741D01*
X137500000Y-59555268D01*
X137500000Y-60599488D01*
X137442993Y-60566575D01*
X137315826Y-60532500D01*
X137184174Y-60532500D01*
X137057007Y-60566575D01*
X137000000Y-60599488D01*
X137000000Y-59555268D01*
X136999999Y-59555268D01*
X136933875Y-59565741D01*
X136731784Y-59631403D01*
X136542442Y-59727879D01*
X136370541Y-59852771D01*
X136231668Y-59991644D01*
X136170345Y-60025128D01*
X136100653Y-60020144D01*
X136044720Y-59978272D01*
X136038448Y-59969058D01*
X135942712Y-59813844D01*
X135818657Y-59689789D01*
X135818656Y-59689788D01*
X135669334Y-59597686D01*
X135502797Y-59542501D01*
X135502795Y-59542500D01*
X135400010Y-59532000D01*
X134099998Y-59532000D01*
X134099981Y-59532001D01*
X133997203Y-59542500D01*
X133997200Y-59542501D01*
X133830668Y-59597685D01*
X133830663Y-59597687D01*
X133681342Y-59689789D01*
X133557289Y-59813842D01*
X133465187Y-59963163D01*
X133465187Y-59963164D01*
X133465186Y-59963166D01*
X133410001Y-60129703D01*
X133410001Y-60129704D01*
X133410000Y-60129704D01*
X133399500Y-60232483D01*
X126000500Y-60232483D01*
X126000500Y-55893713D01*
X127149500Y-55893713D01*
X127149500Y-56106287D01*
X127156424Y-56150000D01*
X127182753Y-56316239D01*
X127248444Y-56518414D01*
X127344951Y-56707820D01*
X127469890Y-56879786D01*
X127620213Y-57030109D01*
X127792179Y-57155048D01*
X127792181Y-57155049D01*
X127792184Y-57155051D01*
X127981588Y-57251557D01*
X128183757Y-57317246D01*
X128393713Y-57350500D01*
X128393714Y-57350500D01*
X128606286Y-57350500D01*
X128606287Y-57350500D01*
X128816243Y-57317246D01*
X129018412Y-57251557D01*
X129207816Y-57155051D01*
X129295085Y-57091647D01*
X129379786Y-57030109D01*
X129379788Y-57030106D01*
X129379792Y-57030104D01*
X129530104Y-56879792D01*
X129530106Y-56879788D01*
X129530109Y-56879786D01*
X129655048Y-56707820D01*
X129655047Y-56707820D01*
X129655051Y-56707816D01*
X129751557Y-56518412D01*
X129817246Y-56316243D01*
X129850500Y-56106287D01*
X129850500Y-55893713D01*
X129817246Y-55683757D01*
X129751557Y-55481588D01*
X129655051Y-55292184D01*
X129624403Y-55250000D01*
X129538266Y-55131441D01*
X129538265Y-55131440D01*
X129530107Y-55120211D01*
X129379786Y-54969890D01*
X129207820Y-54844951D01*
X129018414Y-54748444D01*
X129018413Y-54748443D01*
X129018412Y-54748443D01*
X128816243Y-54682754D01*
X128816241Y-54682753D01*
X128816240Y-54682753D01*
X128654957Y-54657208D01*
X128606287Y-54649500D01*
X128393713Y-54649500D01*
X128345042Y-54657208D01*
X128183760Y-54682753D01*
X127981585Y-54748444D01*
X127792179Y-54844951D01*
X127620213Y-54969890D01*
X127469890Y-55120213D01*
X127344951Y-55292179D01*
X127248444Y-55481585D01*
X127182753Y-55683760D01*
X127177324Y-55718040D01*
X127149500Y-55893713D01*
X126000500Y-55893713D01*
X126000500Y-53624500D01*
X126020185Y-53557461D01*
X126072989Y-53511706D01*
X126124500Y-53500500D01*
X159375500Y-53500500D01*
X159442539Y-53520185D01*
G37*
%TD.AperFunction*%
%TD*%
M02*
