%TF.GenerationSoftware,KiCad,Pcbnew,9.0.7*%
%TF.CreationDate,2026-04-09T23:12:23+05:30*%
%TF.ProjectId,peekabot_pcb_v1,7065656b-6162-46f7-945f-7063625f7631,rev?*%
%TF.SameCoordinates,Original*%
%TF.FileFunction,Soldermask,Top*%
%TF.FilePolarity,Negative*%
%FSLAX46Y46*%
G04 Gerber Fmt 4.6, Leading zero omitted, Abs format (unit mm)*
G04 Created by KiCad (PCBNEW 9.0.7) date 2026-04-09 23:12:23*
%MOMM*%
%LPD*%
G01*
G04 APERTURE LIST*
G04 Aperture macros list*
%AMRoundRect*
0 Rectangle with rounded corners*
0 $1 Rounding radius*
0 $2 $3 $4 $5 $6 $7 $8 $9 X,Y pos of 4 corners*
0 Add a 4 corners polygon primitive as box body*
4,1,4,$2,$3,$4,$5,$6,$7,$8,$9,$2,$3,0*
0 Add four circle primitives for the rounded corners*
1,1,$1+$1,$2,$3*
1,1,$1+$1,$4,$5*
1,1,$1+$1,$6,$7*
1,1,$1+$1,$8,$9*
0 Add four rect primitives between the rounded corners*
20,1,$1+$1,$2,$3,$4,$5,0*
20,1,$1+$1,$4,$5,$6,$7,0*
20,1,$1+$1,$6,$7,$8,$9,0*
20,1,$1+$1,$8,$9,$2,$3,0*%
G04 Aperture macros list end*
%ADD10C,1.700000*%
%ADD11R,1.700000X1.700000*%
%ADD12C,2.200000*%
%ADD13RoundRect,0.250000X-0.250000X-0.475000X0.250000X-0.475000X0.250000X0.475000X-0.250000X0.475000X0*%
%ADD14RoundRect,0.250000X-0.262500X-0.450000X0.262500X-0.450000X0.262500X0.450000X-0.262500X0.450000X0*%
%ADD15RoundRect,0.250000X0.475000X-0.250000X0.475000X0.250000X-0.475000X0.250000X-0.475000X-0.250000X0*%
%ADD16RoundRect,0.250000X-0.475000X0.250000X-0.475000X-0.250000X0.475000X-0.250000X0.475000X0.250000X0*%
%ADD17RoundRect,0.250000X0.450000X-0.262500X0.450000X0.262500X-0.450000X0.262500X-0.450000X-0.262500X0*%
%ADD18RoundRect,0.102000X1.105000X1.550000X-1.105000X1.550000X-1.105000X-1.550000X1.105000X-1.550000X0*%
%ADD19RoundRect,0.099250X0.807750X0.297750X-0.807750X0.297750X-0.807750X-0.297750X0.807750X-0.297750X0*%
%ADD20R,0.400000X1.350000*%
%ADD21O,1.200000X1.900000*%
%ADD22R,1.200000X1.900000*%
%ADD23C,1.450000*%
%ADD24R,1.500000X1.900000*%
%ADD25RoundRect,0.250000X0.262500X0.450000X-0.262500X0.450000X-0.262500X-0.450000X0.262500X-0.450000X0*%
%ADD26RoundRect,0.250000X0.450000X-0.325000X0.450000X0.325000X-0.450000X0.325000X-0.450000X-0.325000X0*%
%ADD27RoundRect,0.250000X-0.325000X-0.450000X0.325000X-0.450000X0.325000X0.450000X-0.325000X0.450000X0*%
%ADD28RoundRect,0.250000X-0.600000X-0.750000X0.600000X-0.750000X0.600000X0.750000X-0.600000X0.750000X0*%
%ADD29O,1.700000X2.000000*%
%ADD30R,1.500000X2.200000*%
%ADD31RoundRect,0.250000X0.250000X0.475000X-0.250000X0.475000X-0.250000X-0.475000X0.250000X-0.475000X0*%
%ADD32R,0.900000X1.000000*%
G04 APERTURE END LIST*
D10*
%TO.C,J1*%
X153000000Y-84780000D03*
X153000000Y-82240000D03*
X153000000Y-79700000D03*
X153000000Y-77160000D03*
X153000000Y-74620000D03*
X153000000Y-72080000D03*
X153000000Y-69540000D03*
D11*
X153000000Y-67000000D03*
%TD*%
D12*
%TO.C,REF\u002A\u002A*%
X156500000Y-99500000D03*
%TD*%
%TO.C,REF\u002A\u002A*%
X128500000Y-56000000D03*
%TD*%
%TO.C,REF\u002A\u002A*%
X128500000Y-99500000D03*
%TD*%
%TO.C,REF\u002A\u002A*%
X156500000Y-56000000D03*
%TD*%
D13*
%TO.C,C5*%
X153500000Y-63500000D03*
X151600000Y-63500000D03*
%TD*%
D14*
%TO.C,R2*%
X145912500Y-72500000D03*
X144087500Y-72500000D03*
%TD*%
D15*
%TO.C,C8*%
X150000000Y-70000000D03*
X150000000Y-71900000D03*
%TD*%
D16*
%TO.C,C9*%
X150000000Y-76900000D03*
X150000000Y-75000000D03*
%TD*%
D17*
%TO.C,R1*%
X150000000Y-83000000D03*
X150000000Y-84825000D03*
%TD*%
D18*
%TO.C,U1*%
X142655000Y-68095000D03*
D19*
X140000000Y-70000000D03*
X140000000Y-68730000D03*
X140000000Y-67460000D03*
X140000000Y-66190000D03*
X145310000Y-66190000D03*
X145310000Y-67460000D03*
X145310000Y-68730000D03*
X145310000Y-70000000D03*
%TD*%
D20*
%TO.C,J3*%
X150300000Y-58200000D03*
X149650000Y-58200000D03*
X149000000Y-58200000D03*
X148350000Y-58200000D03*
X147700000Y-58200000D03*
D21*
X152500000Y-55500000D03*
D22*
X151900000Y-55500000D03*
D23*
X151500000Y-58200000D03*
D24*
X150000000Y-55500000D03*
X148000000Y-55500000D03*
D23*
X146500000Y-58200000D03*
D22*
X146100000Y-55500000D03*
D21*
X145500000Y-55500000D03*
%TD*%
D25*
%TO.C,R3*%
X140912500Y-85000000D03*
X139087500Y-85000000D03*
%TD*%
D26*
%TO.C,D3*%
X150000000Y-68000000D03*
X150000000Y-65950000D03*
%TD*%
D13*
%TO.C,C7*%
X135050000Y-77000000D03*
X136950000Y-77000000D03*
%TD*%
%TO.C,C2*%
X135050000Y-69000000D03*
X136950000Y-69000000D03*
%TD*%
D27*
%TO.C,D1*%
X134862500Y-85000000D03*
X136912500Y-85000000D03*
%TD*%
D11*
%TO.C,J2*%
X131500000Y-84540000D03*
D10*
X131500000Y-82000000D03*
X131500000Y-79460000D03*
X131500000Y-76920000D03*
X131500000Y-74380000D03*
X131500000Y-71840000D03*
X131500000Y-69300000D03*
X131500000Y-66760000D03*
%TD*%
D28*
%TO.C,J4*%
X134750000Y-61032500D03*
D29*
X137250000Y-61032500D03*
%TD*%
D14*
%TO.C,R4*%
X143087500Y-85000000D03*
X144912500Y-85000000D03*
%TD*%
D30*
%TO.C,L1*%
X140300000Y-78500000D03*
X146700000Y-78500000D03*
%TD*%
D27*
%TO.C,D2*%
X142950000Y-63500000D03*
X145000000Y-63500000D03*
%TD*%
D31*
%TO.C,C1*%
X142400000Y-72500000D03*
X140500000Y-72500000D03*
%TD*%
D25*
%TO.C,R5*%
X136775000Y-79500000D03*
X134950000Y-79500000D03*
%TD*%
D31*
%TO.C,C6*%
X136850000Y-74500000D03*
X134950000Y-74500000D03*
%TD*%
D32*
%TO.C,IO0*%
X148500000Y-98400000D03*
X152600000Y-98400000D03*
X148500000Y-100000000D03*
X152600000Y-100000000D03*
%TD*%
D13*
%TO.C,C3*%
X135050000Y-71500000D03*
X136950000Y-71500000D03*
%TD*%
D32*
%TO.C,KEY*%
X133400000Y-98000000D03*
X137500000Y-98000000D03*
X133400000Y-99600000D03*
X137500000Y-99600000D03*
%TD*%
D13*
%TO.C,C4*%
X135050000Y-66500000D03*
X136950000Y-66500000D03*
%TD*%
M02*
