M48
; DRILL file {KiCad 9.0.7} date 2026-04-09T23:12:19+0530
; FORMAT={-:-/ absolute / metric / decimal}
; #@! TF.CreationDate,2026-04-09T23:12:19+05:30
; #@! TF.GenerationSoftware,Kicad,Pcbnew,9.0.7
; #@! TF.FileFunction,Plated,1,2,PTH
FMAT,2
METRIC
; #@! TA.AperFunction,Plated,PTH,ViaDrill
T1C0.300
; #@! TA.AperFunction,Plated,PTH,ComponentDrill
T2C0.600
; #@! TA.AperFunction,Plated,PTH,ComponentDrill
T3C0.850
; #@! TA.AperFunction,Plated,PTH,ComponentDrill
T4C1.000
%
G90
G05
T1
X134.5Y-63.0
X137.0Y-73.0
X138.5Y-67.5
X138.5Y-69.0
X138.5Y-78.5
X139.5Y-71.0
X139.5Y-74.0
X140.751Y-74.5
X145.5Y-65.0
X146.5Y-74.0
X147.0Y-67.5
X147.5Y-72.5
X147.9Y-74.5
X148.5Y-78.5
X149.1Y-74.0
X150.0Y-64.1
X154.0Y-88.5
X158.0Y-72.0
X159.0Y-75.0
T3
X146.5Y-58.2
X151.5Y-58.2
T4
X131.5Y-66.76
X131.5Y-69.3
X131.5Y-71.84
X131.5Y-74.38
X131.5Y-76.92
X131.5Y-79.46
X131.5Y-82.0
X131.5Y-84.54
X134.75Y-61.032
X137.25Y-61.032
X153.0Y-67.0
X153.0Y-69.54
X153.0Y-72.08
X153.0Y-74.62
X153.0Y-77.16
X153.0Y-79.7
X153.0Y-82.24
X153.0Y-84.78
T2
G00X145.5Y-55.85
M15
G01X145.5Y-55.15
M16
G05
G00X152.5Y-55.15
M15
G01X152.5Y-55.85
M16
G05
M30
