%TF.GenerationSoftware,KiCad,Pcbnew,9.0.7*%
%TF.CreationDate,2026-04-14T21:34:59+05:30*%
%TF.ProjectId,peekabot_pcb_v1,7065656b-6162-46f7-945f-7063625f7631,rev?*%
%TF.SameCoordinates,Original*%
%TF.FileFunction,Copper,L2,Bot*%
%TF.FilePolarity,Positive*%
%FSLAX46Y46*%
G04 Gerber Fmt 4.6, Leading zero omitted, Abs format (unit mm)*
G04 Created by KiCad (PCBNEW 9.0.7) date 2026-04-14 21:34:59*
%MOMM*%
%LPD*%
G01*
G04 APERTURE LIST*
G04 Aperture macros list*
%AMRoundRect*
0 Rectangle with rounded corners*
0 $1 Rounding radius*
0 $2 $3 $4 $5 $6 $7 $8 $9 X,Y pos of 4 corners*
0 Add a 4 corners polygon primitive as box body*
4,1,4,$2,$3,$4,$5,$6,$7,$8,$9,$2,$3,0*
0 Add four circle primitives for the rounded corners*
1,1,$1+$1,$2,$3*
1,1,$1+$1,$4,$5*
1,1,$1+$1,$6,$7*
1,1,$1+$1,$8,$9*
0 Add four rect primitives between the rounded corners*
20,1,$1+$1,$2,$3,$4,$5,0*
20,1,$1+$1,$4,$5,$6,$7,0*
20,1,$1+$1,$6,$7,$8,$9,0*
20,1,$1+$1,$8,$9,$2,$3,0*%
G04 Aperture macros list end*
%ADD10C,0.300000*%
%TA.AperFunction,NonConductor*%
%ADD11C,0.300000*%
%TD*%
%TA.AperFunction,HeatsinkPad*%
%ADD12O,1.200000X1.900000*%
%TD*%
%TA.AperFunction,HeatsinkPad*%
%ADD13C,1.450000*%
%TD*%
%TA.AperFunction,ComponentPad*%
%ADD14R,1.700000X1.700000*%
%TD*%
%TA.AperFunction,ComponentPad*%
%ADD15C,1.700000*%
%TD*%
%TA.AperFunction,ComponentPad*%
%ADD16RoundRect,0.250000X-0.600000X-0.750000X0.600000X-0.750000X0.600000X0.750000X-0.600000X0.750000X0*%
%TD*%
%TA.AperFunction,ComponentPad*%
%ADD17O,1.700000X2.000000*%
%TD*%
%TA.AperFunction,ViaPad*%
%ADD18C,0.600000*%
%TD*%
%TA.AperFunction,Conductor*%
%ADD19C,0.200000*%
%TD*%
G04 APERTURE END LIST*
D10*
D11*
X158945489Y-96300828D02*
X158945489Y-94800828D01*
X158945489Y-94800828D02*
X158445489Y-95872257D01*
X158445489Y-95872257D02*
X157945489Y-94800828D01*
X157945489Y-94800828D02*
X157945489Y-96300828D01*
X156588346Y-96300828D02*
X156588346Y-95515114D01*
X156588346Y-95515114D02*
X156659774Y-95372257D01*
X156659774Y-95372257D02*
X156802631Y-95300828D01*
X156802631Y-95300828D02*
X157088346Y-95300828D01*
X157088346Y-95300828D02*
X157231203Y-95372257D01*
X156588346Y-96229400D02*
X156731203Y-96300828D01*
X156731203Y-96300828D02*
X157088346Y-96300828D01*
X157088346Y-96300828D02*
X157231203Y-96229400D01*
X157231203Y-96229400D02*
X157302631Y-96086542D01*
X157302631Y-96086542D02*
X157302631Y-95943685D01*
X157302631Y-95943685D02*
X157231203Y-95800828D01*
X157231203Y-95800828D02*
X157088346Y-95729400D01*
X157088346Y-95729400D02*
X156731203Y-95729400D01*
X156731203Y-95729400D02*
X156588346Y-95657971D01*
X155231203Y-96300828D02*
X155231203Y-94800828D01*
X155231203Y-96229400D02*
X155374060Y-96300828D01*
X155374060Y-96300828D02*
X155659774Y-96300828D01*
X155659774Y-96300828D02*
X155802631Y-96229400D01*
X155802631Y-96229400D02*
X155874060Y-96157971D01*
X155874060Y-96157971D02*
X155945488Y-96015114D01*
X155945488Y-96015114D02*
X155945488Y-95586542D01*
X155945488Y-95586542D02*
X155874060Y-95443685D01*
X155874060Y-95443685D02*
X155802631Y-95372257D01*
X155802631Y-95372257D02*
X155659774Y-95300828D01*
X155659774Y-95300828D02*
X155374060Y-95300828D01*
X155374060Y-95300828D02*
X155231203Y-95372257D01*
X153945488Y-96229400D02*
X154088345Y-96300828D01*
X154088345Y-96300828D02*
X154374060Y-96300828D01*
X154374060Y-96300828D02*
X154516917Y-96229400D01*
X154516917Y-96229400D02*
X154588345Y-96086542D01*
X154588345Y-96086542D02*
X154588345Y-95515114D01*
X154588345Y-95515114D02*
X154516917Y-95372257D01*
X154516917Y-95372257D02*
X154374060Y-95300828D01*
X154374060Y-95300828D02*
X154088345Y-95300828D01*
X154088345Y-95300828D02*
X153945488Y-95372257D01*
X153945488Y-95372257D02*
X153874060Y-95515114D01*
X153874060Y-95515114D02*
X153874060Y-95657971D01*
X153874060Y-95657971D02*
X154588345Y-95800828D01*
X152088346Y-96300828D02*
X152088346Y-94800828D01*
X152088346Y-95372257D02*
X151945489Y-95300828D01*
X151945489Y-95300828D02*
X151659774Y-95300828D01*
X151659774Y-95300828D02*
X151516917Y-95372257D01*
X151516917Y-95372257D02*
X151445489Y-95443685D01*
X151445489Y-95443685D02*
X151374060Y-95586542D01*
X151374060Y-95586542D02*
X151374060Y-96015114D01*
X151374060Y-96015114D02*
X151445489Y-96157971D01*
X151445489Y-96157971D02*
X151516917Y-96229400D01*
X151516917Y-96229400D02*
X151659774Y-96300828D01*
X151659774Y-96300828D02*
X151945489Y-96300828D01*
X151945489Y-96300828D02*
X152088346Y-96229400D01*
X150874060Y-95300828D02*
X150516917Y-96300828D01*
X150159774Y-95300828D02*
X150516917Y-96300828D01*
X150516917Y-96300828D02*
X150659774Y-96657971D01*
X150659774Y-96657971D02*
X150731203Y-96729400D01*
X150731203Y-96729400D02*
X150874060Y-96800828D01*
X148445489Y-96300828D02*
X148445489Y-94800828D01*
X148445489Y-94800828D02*
X147874060Y-94800828D01*
X147874060Y-94800828D02*
X147731203Y-94872257D01*
X147731203Y-94872257D02*
X147659774Y-94943685D01*
X147659774Y-94943685D02*
X147588346Y-95086542D01*
X147588346Y-95086542D02*
X147588346Y-95300828D01*
X147588346Y-95300828D02*
X147659774Y-95443685D01*
X147659774Y-95443685D02*
X147731203Y-95515114D01*
X147731203Y-95515114D02*
X147874060Y-95586542D01*
X147874060Y-95586542D02*
X148445489Y-95586542D01*
X146302632Y-96300828D02*
X146302632Y-95515114D01*
X146302632Y-95515114D02*
X146374060Y-95372257D01*
X146374060Y-95372257D02*
X146516917Y-95300828D01*
X146516917Y-95300828D02*
X146802632Y-95300828D01*
X146802632Y-95300828D02*
X146945489Y-95372257D01*
X146302632Y-96229400D02*
X146445489Y-96300828D01*
X146445489Y-96300828D02*
X146802632Y-96300828D01*
X146802632Y-96300828D02*
X146945489Y-96229400D01*
X146945489Y-96229400D02*
X147016917Y-96086542D01*
X147016917Y-96086542D02*
X147016917Y-95943685D01*
X147016917Y-95943685D02*
X146945489Y-95800828D01*
X146945489Y-95800828D02*
X146802632Y-95729400D01*
X146802632Y-95729400D02*
X146445489Y-95729400D01*
X146445489Y-95729400D02*
X146302632Y-95657971D01*
X145588346Y-96300828D02*
X145588346Y-95300828D01*
X145588346Y-95586542D02*
X145516917Y-95443685D01*
X145516917Y-95443685D02*
X145445489Y-95372257D01*
X145445489Y-95372257D02*
X145302631Y-95300828D01*
X145302631Y-95300828D02*
X145159774Y-95300828D01*
X144874060Y-95300828D02*
X144302632Y-95300828D01*
X144659775Y-94800828D02*
X144659775Y-96086542D01*
X144659775Y-96086542D02*
X144588346Y-96229400D01*
X144588346Y-96229400D02*
X144445489Y-96300828D01*
X144445489Y-96300828D02*
X144302632Y-96300828D01*
X143802632Y-96300828D02*
X143802632Y-94800828D01*
X143159775Y-96300828D02*
X143159775Y-95515114D01*
X143159775Y-95515114D02*
X143231203Y-95372257D01*
X143231203Y-95372257D02*
X143374060Y-95300828D01*
X143374060Y-95300828D02*
X143588346Y-95300828D01*
X143588346Y-95300828D02*
X143731203Y-95372257D01*
X143731203Y-95372257D02*
X143802632Y-95443685D01*
D12*
%TO.P,J3,6,Shield*%
%TO.N,GND*%
X152500000Y-55500000D03*
D13*
X151500000Y-58200000D03*
X146500000Y-58200000D03*
D12*
X145500000Y-55500000D03*
%TD*%
D14*
%TO.P,J1,1,Pin_1*%
%TO.N,3v3*%
X154757000Y-66969534D03*
D15*
%TO.P,J1,2,Pin_2*%
%TO.N,io16*%
X154757000Y-69509534D03*
%TO.P,J1,3,Pin_3*%
%TO.N,io0*%
X154757000Y-72049534D03*
%TO.P,J1,4,Pin_4*%
%TO.N,GND*%
X154757000Y-74589534D03*
%TO.P,J1,5,Pin_5*%
%TO.N,VCC*%
X154757000Y-77129534D03*
%TO.P,J1,6,Pin_6*%
%TO.N,UOR*%
X154757000Y-79669534D03*
%TO.P,J1,7,Pin_7*%
%TO.N,UOT*%
X154757000Y-82209534D03*
%TO.P,J1,8,Pin_8*%
%TO.N,GND*%
X154757000Y-84749534D03*
%TD*%
D14*
%TO.P,J2,1,Pin_1*%
%TO.N,io4*%
X131500000Y-84540000D03*
D15*
%TO.P,J2,2,Pin_2*%
%TO.N,io2*%
X131500000Y-82000000D03*
%TO.P,J2,3,Pin_3*%
%TO.N,io14*%
X131500000Y-79460000D03*
%TO.P,J2,4,Pin_4*%
%TO.N,io15*%
X131500000Y-76920000D03*
%TO.P,J2,5,Pin_5*%
%TO.N,io13*%
X131500000Y-74380000D03*
%TO.P,J2,6,Pin_6*%
%TO.N,io12*%
X131500000Y-71840000D03*
%TO.P,J2,7,Pin_7*%
%TO.N,GND*%
X131500000Y-69300000D03*
%TO.P,J2,8,Pin_8*%
%TO.N,5V*%
X131500000Y-66760000D03*
%TD*%
D16*
%TO.P,J4,1,Pin_1*%
%TO.N,BAT*%
X134750000Y-61032500D03*
D17*
%TO.P,J4,2,Pin_2*%
%TO.N,GND*%
X137250000Y-61032500D03*
%TD*%
D18*
%TO.N,*%
X159000000Y-75000000D03*
X139500000Y-74000000D03*
X149100000Y-74000000D03*
X158000000Y-72000000D03*
X146500000Y-74000000D03*
X140751000Y-74500000D03*
X147900000Y-74500000D03*
%TO.N,GND*%
X154000000Y-88500000D03*
%TO.N,5V*%
X139500000Y-71000000D03*
X147500000Y-72500000D03*
%TO.N,BAT*%
X148500000Y-78500000D03*
X138500000Y-67500000D03*
X134500000Y-63000000D03*
X147000000Y-67500000D03*
X137000000Y-73000000D03*
%TO.N,Net-(D3-A)*%
X145500000Y-65000000D03*
X150000000Y-64100000D03*
%TO.N,VCC*%
X153000000Y-77000000D03*
%TO.N,Net-(U1-SW)*%
X138500000Y-69000000D03*
X138500000Y-78500000D03*
%TD*%
D19*
%TO.N,*%
X154518240Y-73200534D02*
X154995760Y-73200534D01*
X157469000Y-73469000D02*
X159000000Y-75000000D01*
X139500000Y-74000000D02*
X147500000Y-74000000D01*
X149100000Y-74000000D02*
X149631000Y-73469000D01*
X149631000Y-73469000D02*
X154249774Y-73469000D01*
X148099000Y-74500000D02*
X147900000Y-74500000D01*
X140751000Y-74500000D02*
X148099000Y-74500000D01*
X155264226Y-73469000D02*
X157469000Y-73469000D01*
X154995760Y-73200534D02*
X155264226Y-73469000D01*
X147500000Y-74000000D02*
X146500000Y-74000000D01*
X154249774Y-73469000D02*
X154518240Y-73200534D01*
%TO.N,GND*%
X153000000Y-86000000D02*
X153000000Y-87500000D01*
X154250466Y-84749534D02*
X153000000Y-86000000D01*
X153000000Y-87500000D02*
X154000000Y-88500000D01*
X154757000Y-84749534D02*
X154250466Y-84749534D01*
%TO.N,5V*%
X141000000Y-72500000D02*
X147500000Y-72500000D01*
X139500000Y-71000000D02*
X141000000Y-72500000D01*
%TO.N,BAT*%
X148500000Y-78500000D02*
X148500000Y-69000000D01*
X138500000Y-67000000D02*
X138500000Y-67500000D01*
X147000000Y-67500000D02*
X138500000Y-67500000D01*
X148500000Y-69000000D02*
X147000000Y-67500000D01*
X137000000Y-69000000D02*
X138500000Y-67500000D01*
X137000000Y-73000000D02*
X137000000Y-69000000D01*
X134500000Y-63000000D02*
X138500000Y-67000000D01*
%TO.N,Net-(D3-A)*%
X149100000Y-65000000D02*
X145500000Y-65000000D01*
X150000000Y-64100000D02*
X149100000Y-65000000D01*
%TO.N,VCC*%
X153000000Y-77000000D02*
X154627466Y-77000000D01*
X154627466Y-77000000D02*
X154757000Y-77129534D01*
%TO.N,Net-(U1-SW)*%
X138500000Y-78500000D02*
X138500000Y-69000000D01*
%TD*%
M02*
