%TF.GenerationSoftware,KiCad,Pcbnew,9.0.7*%
%TF.CreationDate,2026-04-14T21:34:59+05:30*%
%TF.ProjectId,peekabot_pcb_v1,7065656b-6162-46f7-945f-7063625f7631,rev?*%
%TF.SameCoordinates,Original*%
%TF.FileFunction,Legend,Top*%
%TF.FilePolarity,Positive*%
%FSLAX46Y46*%
G04 Gerber Fmt 4.6, Leading zero omitted, Abs format (unit mm)*
G04 Created by KiCad (PCBNEW 9.0.7) date 2026-04-14 21:34:59*
%MOMM*%
%LPD*%
G01*
G04 APERTURE LIST*
%ADD10C,0.300000*%
%ADD11C,0.125000*%
%ADD12C,0.150000*%
%ADD13C,0.075000*%
%ADD14C,0.090000*%
%ADD15C,0.000000*%
%ADD16C,0.120000*%
%ADD17C,0.127000*%
%ADD18C,0.200000*%
G04 APERTURE END LIST*
D10*
X135178572Y-91249757D02*
X135035715Y-91178328D01*
X135035715Y-91178328D02*
X134821429Y-91178328D01*
X134821429Y-91178328D02*
X134607143Y-91249757D01*
X134607143Y-91249757D02*
X134464286Y-91392614D01*
X134464286Y-91392614D02*
X134392857Y-91535471D01*
X134392857Y-91535471D02*
X134321429Y-91821185D01*
X134321429Y-91821185D02*
X134321429Y-92035471D01*
X134321429Y-92035471D02*
X134392857Y-92321185D01*
X134392857Y-92321185D02*
X134464286Y-92464042D01*
X134464286Y-92464042D02*
X134607143Y-92606900D01*
X134607143Y-92606900D02*
X134821429Y-92678328D01*
X134821429Y-92678328D02*
X134964286Y-92678328D01*
X134964286Y-92678328D02*
X135178572Y-92606900D01*
X135178572Y-92606900D02*
X135250000Y-92535471D01*
X135250000Y-92535471D02*
X135250000Y-92035471D01*
X135250000Y-92035471D02*
X134964286Y-92035471D01*
X136107143Y-91178328D02*
X136107143Y-91535471D01*
X135750000Y-91392614D02*
X136107143Y-91535471D01*
X136107143Y-91535471D02*
X136464286Y-91392614D01*
X135892857Y-91821185D02*
X136107143Y-91535471D01*
X136107143Y-91535471D02*
X136321429Y-91821185D01*
X137250000Y-91178328D02*
X137250000Y-91535471D01*
X136892857Y-91392614D02*
X137250000Y-91535471D01*
X137250000Y-91535471D02*
X137607143Y-91392614D01*
X137035714Y-91821185D02*
X137250000Y-91535471D01*
X137250000Y-91535471D02*
X137464286Y-91821185D01*
X138392857Y-91178328D02*
X138392857Y-91535471D01*
X138035714Y-91392614D02*
X138392857Y-91535471D01*
X138392857Y-91535471D02*
X138750000Y-91392614D01*
X138178571Y-91821185D02*
X138392857Y-91535471D01*
X138392857Y-91535471D02*
X138607143Y-91821185D01*
D11*
X148833333Y-56724809D02*
X148833333Y-57081952D01*
X148833333Y-57081952D02*
X148809524Y-57153380D01*
X148809524Y-57153380D02*
X148761905Y-57201000D01*
X148761905Y-57201000D02*
X148690476Y-57224809D01*
X148690476Y-57224809D02*
X148642857Y-57224809D01*
X149023809Y-56724809D02*
X149333333Y-56724809D01*
X149333333Y-56724809D02*
X149166666Y-56915285D01*
X149166666Y-56915285D02*
X149238095Y-56915285D01*
X149238095Y-56915285D02*
X149285714Y-56939095D01*
X149285714Y-56939095D02*
X149309523Y-56962904D01*
X149309523Y-56962904D02*
X149333333Y-57010523D01*
X149333333Y-57010523D02*
X149333333Y-57129571D01*
X149333333Y-57129571D02*
X149309523Y-57177190D01*
X149309523Y-57177190D02*
X149285714Y-57201000D01*
X149285714Y-57201000D02*
X149238095Y-57224809D01*
X149238095Y-57224809D02*
X149095238Y-57224809D01*
X149095238Y-57224809D02*
X149047619Y-57201000D01*
X149047619Y-57201000D02*
X149023809Y-57177190D01*
D12*
X127166666Y-53304819D02*
X126833333Y-52828628D01*
X126595238Y-53304819D02*
X126595238Y-52304819D01*
X126595238Y-52304819D02*
X126976190Y-52304819D01*
X126976190Y-52304819D02*
X127071428Y-52352438D01*
X127071428Y-52352438D02*
X127119047Y-52400057D01*
X127119047Y-52400057D02*
X127166666Y-52495295D01*
X127166666Y-52495295D02*
X127166666Y-52638152D01*
X127166666Y-52638152D02*
X127119047Y-52733390D01*
X127119047Y-52733390D02*
X127071428Y-52781009D01*
X127071428Y-52781009D02*
X126976190Y-52828628D01*
X126976190Y-52828628D02*
X126595238Y-52828628D01*
X127595238Y-52781009D02*
X127928571Y-52781009D01*
X128071428Y-53304819D02*
X127595238Y-53304819D01*
X127595238Y-53304819D02*
X127595238Y-52304819D01*
X127595238Y-52304819D02*
X128071428Y-52304819D01*
X128833333Y-52781009D02*
X128500000Y-52781009D01*
X128500000Y-53304819D02*
X128500000Y-52304819D01*
X128500000Y-52304819D02*
X128976190Y-52304819D01*
X129500000Y-52304819D02*
X129500000Y-52542914D01*
X129261905Y-52447676D02*
X129500000Y-52542914D01*
X129500000Y-52542914D02*
X129738095Y-52447676D01*
X129357143Y-52733390D02*
X129500000Y-52542914D01*
X129500000Y-52542914D02*
X129642857Y-52733390D01*
X130261905Y-52304819D02*
X130261905Y-52542914D01*
X130023810Y-52447676D02*
X130261905Y-52542914D01*
X130261905Y-52542914D02*
X130500000Y-52447676D01*
X130119048Y-52733390D02*
X130261905Y-52542914D01*
X130261905Y-52542914D02*
X130404762Y-52733390D01*
X139833333Y-87104819D02*
X139500000Y-86628628D01*
X139261905Y-87104819D02*
X139261905Y-86104819D01*
X139261905Y-86104819D02*
X139642857Y-86104819D01*
X139642857Y-86104819D02*
X139738095Y-86152438D01*
X139738095Y-86152438D02*
X139785714Y-86200057D01*
X139785714Y-86200057D02*
X139833333Y-86295295D01*
X139833333Y-86295295D02*
X139833333Y-86438152D01*
X139833333Y-86438152D02*
X139785714Y-86533390D01*
X139785714Y-86533390D02*
X139738095Y-86581009D01*
X139738095Y-86581009D02*
X139642857Y-86628628D01*
X139642857Y-86628628D02*
X139261905Y-86628628D01*
X140166667Y-86104819D02*
X140785714Y-86104819D01*
X140785714Y-86104819D02*
X140452381Y-86485771D01*
X140452381Y-86485771D02*
X140595238Y-86485771D01*
X140595238Y-86485771D02*
X140690476Y-86533390D01*
X140690476Y-86533390D02*
X140738095Y-86581009D01*
X140738095Y-86581009D02*
X140785714Y-86676247D01*
X140785714Y-86676247D02*
X140785714Y-86914342D01*
X140785714Y-86914342D02*
X140738095Y-87009580D01*
X140738095Y-87009580D02*
X140690476Y-87057200D01*
X140690476Y-87057200D02*
X140595238Y-87104819D01*
X140595238Y-87104819D02*
X140309524Y-87104819D01*
X140309524Y-87104819D02*
X140214286Y-87057200D01*
X140214286Y-87057200D02*
X140166667Y-87009580D01*
X155166666Y-53304819D02*
X154833333Y-52828628D01*
X154595238Y-53304819D02*
X154595238Y-52304819D01*
X154595238Y-52304819D02*
X154976190Y-52304819D01*
X154976190Y-52304819D02*
X155071428Y-52352438D01*
X155071428Y-52352438D02*
X155119047Y-52400057D01*
X155119047Y-52400057D02*
X155166666Y-52495295D01*
X155166666Y-52495295D02*
X155166666Y-52638152D01*
X155166666Y-52638152D02*
X155119047Y-52733390D01*
X155119047Y-52733390D02*
X155071428Y-52781009D01*
X155071428Y-52781009D02*
X154976190Y-52828628D01*
X154976190Y-52828628D02*
X154595238Y-52828628D01*
X155595238Y-52781009D02*
X155928571Y-52781009D01*
X156071428Y-53304819D02*
X155595238Y-53304819D01*
X155595238Y-53304819D02*
X155595238Y-52304819D01*
X155595238Y-52304819D02*
X156071428Y-52304819D01*
X156833333Y-52781009D02*
X156500000Y-52781009D01*
X156500000Y-53304819D02*
X156500000Y-52304819D01*
X156500000Y-52304819D02*
X156976190Y-52304819D01*
X157500000Y-52304819D02*
X157500000Y-52542914D01*
X157261905Y-52447676D02*
X157500000Y-52542914D01*
X157500000Y-52542914D02*
X157738095Y-52447676D01*
X157357143Y-52733390D02*
X157500000Y-52542914D01*
X157500000Y-52542914D02*
X157642857Y-52733390D01*
X158261905Y-52304819D02*
X158261905Y-52542914D01*
X158023810Y-52447676D02*
X158261905Y-52542914D01*
X158261905Y-52542914D02*
X158500000Y-52447676D01*
X158119048Y-52733390D02*
X158261905Y-52542914D01*
X158261905Y-52542914D02*
X158404762Y-52733390D01*
X156423666Y-65424353D02*
X156423666Y-66138638D01*
X156423666Y-66138638D02*
X156376047Y-66281495D01*
X156376047Y-66281495D02*
X156280809Y-66376734D01*
X156280809Y-66376734D02*
X156137952Y-66424353D01*
X156137952Y-66424353D02*
X156042714Y-66424353D01*
X157423666Y-66424353D02*
X156852238Y-66424353D01*
X157137952Y-66424353D02*
X157137952Y-65424353D01*
X157137952Y-65424353D02*
X157042714Y-65567210D01*
X157042714Y-65567210D02*
X156947476Y-65662448D01*
X156947476Y-65662448D02*
X156852238Y-65710067D01*
X150454819Y-67713094D02*
X149454819Y-67713094D01*
X149454819Y-67713094D02*
X149454819Y-67474999D01*
X149454819Y-67474999D02*
X149502438Y-67332142D01*
X149502438Y-67332142D02*
X149597676Y-67236904D01*
X149597676Y-67236904D02*
X149692914Y-67189285D01*
X149692914Y-67189285D02*
X149883390Y-67141666D01*
X149883390Y-67141666D02*
X150026247Y-67141666D01*
X150026247Y-67141666D02*
X150216723Y-67189285D01*
X150216723Y-67189285D02*
X150311961Y-67236904D01*
X150311961Y-67236904D02*
X150407200Y-67332142D01*
X150407200Y-67332142D02*
X150454819Y-67474999D01*
X150454819Y-67474999D02*
X150454819Y-67713094D01*
X149454819Y-66808332D02*
X149454819Y-66189285D01*
X149454819Y-66189285D02*
X149835771Y-66522618D01*
X149835771Y-66522618D02*
X149835771Y-66379761D01*
X149835771Y-66379761D02*
X149883390Y-66284523D01*
X149883390Y-66284523D02*
X149931009Y-66236904D01*
X149931009Y-66236904D02*
X150026247Y-66189285D01*
X150026247Y-66189285D02*
X150264342Y-66189285D01*
X150264342Y-66189285D02*
X150359580Y-66236904D01*
X150359580Y-66236904D02*
X150407200Y-66284523D01*
X150407200Y-66284523D02*
X150454819Y-66379761D01*
X150454819Y-66379761D02*
X150454819Y-66665475D01*
X150454819Y-66665475D02*
X150407200Y-66760713D01*
X150407200Y-66760713D02*
X150359580Y-66808332D01*
D13*
X133333333Y-77253266D02*
X133300000Y-77286600D01*
X133300000Y-77286600D02*
X133200000Y-77319933D01*
X133200000Y-77319933D02*
X133133333Y-77319933D01*
X133133333Y-77319933D02*
X133033333Y-77286600D01*
X133033333Y-77286600D02*
X132966667Y-77219933D01*
X132966667Y-77219933D02*
X132933333Y-77153266D01*
X132933333Y-77153266D02*
X132900000Y-77019933D01*
X132900000Y-77019933D02*
X132900000Y-76919933D01*
X132900000Y-76919933D02*
X132933333Y-76786600D01*
X132933333Y-76786600D02*
X132966667Y-76719933D01*
X132966667Y-76719933D02*
X133033333Y-76653266D01*
X133033333Y-76653266D02*
X133133333Y-76619933D01*
X133133333Y-76619933D02*
X133200000Y-76619933D01*
X133200000Y-76619933D02*
X133300000Y-76653266D01*
X133300000Y-76653266D02*
X133333333Y-76686600D01*
X133566667Y-76619933D02*
X134033333Y-76619933D01*
X134033333Y-76619933D02*
X133733333Y-77319933D01*
X133333333Y-69253266D02*
X133300000Y-69286600D01*
X133300000Y-69286600D02*
X133200000Y-69319933D01*
X133200000Y-69319933D02*
X133133333Y-69319933D01*
X133133333Y-69319933D02*
X133033333Y-69286600D01*
X133033333Y-69286600D02*
X132966667Y-69219933D01*
X132966667Y-69219933D02*
X132933333Y-69153266D01*
X132933333Y-69153266D02*
X132900000Y-69019933D01*
X132900000Y-69019933D02*
X132900000Y-68919933D01*
X132900000Y-68919933D02*
X132933333Y-68786600D01*
X132933333Y-68786600D02*
X132966667Y-68719933D01*
X132966667Y-68719933D02*
X133033333Y-68653266D01*
X133033333Y-68653266D02*
X133133333Y-68619933D01*
X133133333Y-68619933D02*
X133200000Y-68619933D01*
X133200000Y-68619933D02*
X133300000Y-68653266D01*
X133300000Y-68653266D02*
X133333333Y-68686600D01*
X133600000Y-68686600D02*
X133633333Y-68653266D01*
X133633333Y-68653266D02*
X133700000Y-68619933D01*
X133700000Y-68619933D02*
X133866667Y-68619933D01*
X133866667Y-68619933D02*
X133933333Y-68653266D01*
X133933333Y-68653266D02*
X133966667Y-68686600D01*
X133966667Y-68686600D02*
X134000000Y-68753266D01*
X134000000Y-68753266D02*
X134000000Y-68819933D01*
X134000000Y-68819933D02*
X133966667Y-68919933D01*
X133966667Y-68919933D02*
X133566667Y-69319933D01*
X133566667Y-69319933D02*
X134000000Y-69319933D01*
D12*
X135149405Y-83804819D02*
X135149405Y-82804819D01*
X135149405Y-82804819D02*
X135387500Y-82804819D01*
X135387500Y-82804819D02*
X135530357Y-82852438D01*
X135530357Y-82852438D02*
X135625595Y-82947676D01*
X135625595Y-82947676D02*
X135673214Y-83042914D01*
X135673214Y-83042914D02*
X135720833Y-83233390D01*
X135720833Y-83233390D02*
X135720833Y-83376247D01*
X135720833Y-83376247D02*
X135673214Y-83566723D01*
X135673214Y-83566723D02*
X135625595Y-83661961D01*
X135625595Y-83661961D02*
X135530357Y-83757200D01*
X135530357Y-83757200D02*
X135387500Y-83804819D01*
X135387500Y-83804819D02*
X135149405Y-83804819D01*
X136673214Y-83804819D02*
X136101786Y-83804819D01*
X136387500Y-83804819D02*
X136387500Y-82804819D01*
X136387500Y-82804819D02*
X136292262Y-82947676D01*
X136292262Y-82947676D02*
X136197024Y-83042914D01*
X136197024Y-83042914D02*
X136101786Y-83090533D01*
X133666666Y-84494819D02*
X133666666Y-85209104D01*
X133666666Y-85209104D02*
X133619047Y-85351961D01*
X133619047Y-85351961D02*
X133523809Y-85447200D01*
X133523809Y-85447200D02*
X133380952Y-85494819D01*
X133380952Y-85494819D02*
X133285714Y-85494819D01*
X134095238Y-84590057D02*
X134142857Y-84542438D01*
X134142857Y-84542438D02*
X134238095Y-84494819D01*
X134238095Y-84494819D02*
X134476190Y-84494819D01*
X134476190Y-84494819D02*
X134571428Y-84542438D01*
X134571428Y-84542438D02*
X134619047Y-84590057D01*
X134619047Y-84590057D02*
X134666666Y-84685295D01*
X134666666Y-84685295D02*
X134666666Y-84780533D01*
X134666666Y-84780533D02*
X134619047Y-84923390D01*
X134619047Y-84923390D02*
X134047619Y-85494819D01*
X134047619Y-85494819D02*
X134666666Y-85494819D01*
X142238095Y-69454819D02*
X142238095Y-70264342D01*
X142238095Y-70264342D02*
X142285714Y-70359580D01*
X142285714Y-70359580D02*
X142333333Y-70407200D01*
X142333333Y-70407200D02*
X142428571Y-70454819D01*
X142428571Y-70454819D02*
X142619047Y-70454819D01*
X142619047Y-70454819D02*
X142714285Y-70407200D01*
X142714285Y-70407200D02*
X142761904Y-70359580D01*
X142761904Y-70359580D02*
X142809523Y-70264342D01*
X142809523Y-70264342D02*
X142809523Y-69454819D01*
X143809523Y-70454819D02*
X143238095Y-70454819D01*
X143523809Y-70454819D02*
X143523809Y-69454819D01*
X143523809Y-69454819D02*
X143428571Y-69597676D01*
X143428571Y-69597676D02*
X143333333Y-69692914D01*
X143333333Y-69692914D02*
X143238095Y-69740533D01*
X135666666Y-56454819D02*
X135666666Y-57169104D01*
X135666666Y-57169104D02*
X135619047Y-57311961D01*
X135619047Y-57311961D02*
X135523809Y-57407200D01*
X135523809Y-57407200D02*
X135380952Y-57454819D01*
X135380952Y-57454819D02*
X135285714Y-57454819D01*
X136571428Y-56788152D02*
X136571428Y-57454819D01*
X136333333Y-56407200D02*
X136095238Y-57121485D01*
X136095238Y-57121485D02*
X136714285Y-57121485D01*
X130931009Y-64428572D02*
X130978628Y-64285715D01*
X130978628Y-64285715D02*
X131026247Y-64238096D01*
X131026247Y-64238096D02*
X131121485Y-64190477D01*
X131121485Y-64190477D02*
X131264342Y-64190477D01*
X131264342Y-64190477D02*
X131359580Y-64238096D01*
X131359580Y-64238096D02*
X131407200Y-64285715D01*
X131407200Y-64285715D02*
X131454819Y-64380953D01*
X131454819Y-64380953D02*
X131454819Y-64761905D01*
X131454819Y-64761905D02*
X130454819Y-64761905D01*
X130454819Y-64761905D02*
X130454819Y-64428572D01*
X130454819Y-64428572D02*
X130502438Y-64333334D01*
X130502438Y-64333334D02*
X130550057Y-64285715D01*
X130550057Y-64285715D02*
X130645295Y-64238096D01*
X130645295Y-64238096D02*
X130740533Y-64238096D01*
X130740533Y-64238096D02*
X130835771Y-64285715D01*
X130835771Y-64285715D02*
X130883390Y-64333334D01*
X130883390Y-64333334D02*
X130931009Y-64428572D01*
X130931009Y-64428572D02*
X130931009Y-64761905D01*
X131454819Y-63333334D02*
X130931009Y-63333334D01*
X130931009Y-63333334D02*
X130835771Y-63380953D01*
X130835771Y-63380953D02*
X130788152Y-63476191D01*
X130788152Y-63476191D02*
X130788152Y-63666667D01*
X130788152Y-63666667D02*
X130835771Y-63761905D01*
X131407200Y-63333334D02*
X131454819Y-63428572D01*
X131454819Y-63428572D02*
X131454819Y-63666667D01*
X131454819Y-63666667D02*
X131407200Y-63761905D01*
X131407200Y-63761905D02*
X131311961Y-63809524D01*
X131311961Y-63809524D02*
X131216723Y-63809524D01*
X131216723Y-63809524D02*
X131121485Y-63761905D01*
X131121485Y-63761905D02*
X131073866Y-63666667D01*
X131073866Y-63666667D02*
X131073866Y-63428572D01*
X131073866Y-63428572D02*
X131026247Y-63333334D01*
X130788152Y-63000000D02*
X130788152Y-62619048D01*
X130454819Y-62857143D02*
X131311961Y-62857143D01*
X131311961Y-62857143D02*
X131407200Y-62809524D01*
X131407200Y-62809524D02*
X131454819Y-62714286D01*
X131454819Y-62714286D02*
X131454819Y-62619048D01*
X130788152Y-62428571D02*
X130788152Y-62047619D01*
X130454819Y-62285714D02*
X131311961Y-62285714D01*
X131311961Y-62285714D02*
X131407200Y-62238095D01*
X131407200Y-62238095D02*
X131454819Y-62142857D01*
X131454819Y-62142857D02*
X131454819Y-62047619D01*
X131407200Y-61333333D02*
X131454819Y-61428571D01*
X131454819Y-61428571D02*
X131454819Y-61619047D01*
X131454819Y-61619047D02*
X131407200Y-61714285D01*
X131407200Y-61714285D02*
X131311961Y-61761904D01*
X131311961Y-61761904D02*
X130931009Y-61761904D01*
X130931009Y-61761904D02*
X130835771Y-61714285D01*
X130835771Y-61714285D02*
X130788152Y-61619047D01*
X130788152Y-61619047D02*
X130788152Y-61428571D01*
X130788152Y-61428571D02*
X130835771Y-61333333D01*
X130835771Y-61333333D02*
X130931009Y-61285714D01*
X130931009Y-61285714D02*
X131026247Y-61285714D01*
X131026247Y-61285714D02*
X131121485Y-61761904D01*
X131454819Y-60857142D02*
X130788152Y-60857142D01*
X130978628Y-60857142D02*
X130883390Y-60809523D01*
X130883390Y-60809523D02*
X130835771Y-60761904D01*
X130835771Y-60761904D02*
X130788152Y-60666666D01*
X130788152Y-60666666D02*
X130788152Y-60571428D01*
X130788152Y-60333332D02*
X131454819Y-60095237D01*
X130788152Y-59857142D02*
X131454819Y-60095237D01*
X131454819Y-60095237D02*
X131692914Y-60190475D01*
X131692914Y-60190475D02*
X131740533Y-60238094D01*
X131740533Y-60238094D02*
X131788152Y-60333332D01*
X131407200Y-58761903D02*
X131454819Y-58619046D01*
X131454819Y-58619046D02*
X131454819Y-58380951D01*
X131454819Y-58380951D02*
X131407200Y-58285713D01*
X131407200Y-58285713D02*
X131359580Y-58238094D01*
X131359580Y-58238094D02*
X131264342Y-58190475D01*
X131264342Y-58190475D02*
X131169104Y-58190475D01*
X131169104Y-58190475D02*
X131073866Y-58238094D01*
X131073866Y-58238094D02*
X131026247Y-58285713D01*
X131026247Y-58285713D02*
X130978628Y-58380951D01*
X130978628Y-58380951D02*
X130931009Y-58571427D01*
X130931009Y-58571427D02*
X130883390Y-58666665D01*
X130883390Y-58666665D02*
X130835771Y-58714284D01*
X130835771Y-58714284D02*
X130740533Y-58761903D01*
X130740533Y-58761903D02*
X130645295Y-58761903D01*
X130645295Y-58761903D02*
X130550057Y-58714284D01*
X130550057Y-58714284D02*
X130502438Y-58666665D01*
X130502438Y-58666665D02*
X130454819Y-58571427D01*
X130454819Y-58571427D02*
X130454819Y-58333332D01*
X130454819Y-58333332D02*
X130502438Y-58190475D01*
X131454819Y-57619046D02*
X131407200Y-57714284D01*
X131407200Y-57714284D02*
X131359580Y-57761903D01*
X131359580Y-57761903D02*
X131264342Y-57809522D01*
X131264342Y-57809522D02*
X130978628Y-57809522D01*
X130978628Y-57809522D02*
X130883390Y-57761903D01*
X130883390Y-57761903D02*
X130835771Y-57714284D01*
X130835771Y-57714284D02*
X130788152Y-57619046D01*
X130788152Y-57619046D02*
X130788152Y-57476189D01*
X130788152Y-57476189D02*
X130835771Y-57380951D01*
X130835771Y-57380951D02*
X130883390Y-57333332D01*
X130883390Y-57333332D02*
X130978628Y-57285713D01*
X130978628Y-57285713D02*
X131264342Y-57285713D01*
X131264342Y-57285713D02*
X131359580Y-57333332D01*
X131359580Y-57333332D02*
X131407200Y-57380951D01*
X131407200Y-57380951D02*
X131454819Y-57476189D01*
X131454819Y-57476189D02*
X131454819Y-57619046D01*
X131407200Y-56428570D02*
X131454819Y-56523808D01*
X131454819Y-56523808D02*
X131454819Y-56714284D01*
X131454819Y-56714284D02*
X131407200Y-56809522D01*
X131407200Y-56809522D02*
X131359580Y-56857141D01*
X131359580Y-56857141D02*
X131264342Y-56904760D01*
X131264342Y-56904760D02*
X130978628Y-56904760D01*
X130978628Y-56904760D02*
X130883390Y-56857141D01*
X130883390Y-56857141D02*
X130835771Y-56809522D01*
X130835771Y-56809522D02*
X130788152Y-56714284D01*
X130788152Y-56714284D02*
X130788152Y-56523808D01*
X130788152Y-56523808D02*
X130835771Y-56428570D01*
X131454819Y-55999998D02*
X130454819Y-55999998D01*
X131073866Y-55904760D02*
X131454819Y-55619046D01*
X130788152Y-55619046D02*
X131169104Y-55999998D01*
X131407200Y-54809522D02*
X131454819Y-54904760D01*
X131454819Y-54904760D02*
X131454819Y-55095236D01*
X131454819Y-55095236D02*
X131407200Y-55190474D01*
X131407200Y-55190474D02*
X131311961Y-55238093D01*
X131311961Y-55238093D02*
X130931009Y-55238093D01*
X130931009Y-55238093D02*
X130835771Y-55190474D01*
X130835771Y-55190474D02*
X130788152Y-55095236D01*
X130788152Y-55095236D02*
X130788152Y-54904760D01*
X130788152Y-54904760D02*
X130835771Y-54809522D01*
X130835771Y-54809522D02*
X130931009Y-54761903D01*
X130931009Y-54761903D02*
X131026247Y-54761903D01*
X131026247Y-54761903D02*
X131121485Y-55238093D01*
X130788152Y-54476188D02*
X130788152Y-54095236D01*
X130454819Y-54333331D02*
X131311961Y-54333331D01*
X131311961Y-54333331D02*
X131407200Y-54285712D01*
X131407200Y-54285712D02*
X131454819Y-54190474D01*
X131454819Y-54190474D02*
X131454819Y-54095236D01*
D13*
X148374999Y-71271635D02*
X148339285Y-71307350D01*
X148339285Y-71307350D02*
X148232142Y-71343064D01*
X148232142Y-71343064D02*
X148160714Y-71343064D01*
X148160714Y-71343064D02*
X148053571Y-71307350D01*
X148053571Y-71307350D02*
X147982142Y-71235921D01*
X147982142Y-71235921D02*
X147946428Y-71164492D01*
X147946428Y-71164492D02*
X147910714Y-71021635D01*
X147910714Y-71021635D02*
X147910714Y-70914492D01*
X147910714Y-70914492D02*
X147946428Y-70771635D01*
X147946428Y-70771635D02*
X147982142Y-70700207D01*
X147982142Y-70700207D02*
X148053571Y-70628778D01*
X148053571Y-70628778D02*
X148160714Y-70593064D01*
X148160714Y-70593064D02*
X148232142Y-70593064D01*
X148232142Y-70593064D02*
X148339285Y-70628778D01*
X148339285Y-70628778D02*
X148374999Y-70664492D01*
X148803571Y-70914492D02*
X148732142Y-70878778D01*
X148732142Y-70878778D02*
X148696428Y-70843064D01*
X148696428Y-70843064D02*
X148660714Y-70771635D01*
X148660714Y-70771635D02*
X148660714Y-70735921D01*
X148660714Y-70735921D02*
X148696428Y-70664492D01*
X148696428Y-70664492D02*
X148732142Y-70628778D01*
X148732142Y-70628778D02*
X148803571Y-70593064D01*
X148803571Y-70593064D02*
X148946428Y-70593064D01*
X148946428Y-70593064D02*
X149017857Y-70628778D01*
X149017857Y-70628778D02*
X149053571Y-70664492D01*
X149053571Y-70664492D02*
X149089285Y-70735921D01*
X149089285Y-70735921D02*
X149089285Y-70771635D01*
X149089285Y-70771635D02*
X149053571Y-70843064D01*
X149053571Y-70843064D02*
X149017857Y-70878778D01*
X149017857Y-70878778D02*
X148946428Y-70914492D01*
X148946428Y-70914492D02*
X148803571Y-70914492D01*
X148803571Y-70914492D02*
X148732142Y-70950207D01*
X148732142Y-70950207D02*
X148696428Y-70985921D01*
X148696428Y-70985921D02*
X148660714Y-71057350D01*
X148660714Y-71057350D02*
X148660714Y-71200207D01*
X148660714Y-71200207D02*
X148696428Y-71271635D01*
X148696428Y-71271635D02*
X148732142Y-71307350D01*
X148732142Y-71307350D02*
X148803571Y-71343064D01*
X148803571Y-71343064D02*
X148946428Y-71343064D01*
X148946428Y-71343064D02*
X149017857Y-71307350D01*
X149017857Y-71307350D02*
X149053571Y-71271635D01*
X149053571Y-71271635D02*
X149089285Y-71200207D01*
X149089285Y-71200207D02*
X149089285Y-71057350D01*
X149089285Y-71057350D02*
X149053571Y-70985921D01*
X149053571Y-70985921D02*
X149017857Y-70950207D01*
X149017857Y-70950207D02*
X148946428Y-70914492D01*
D12*
X143833333Y-83804819D02*
X143500000Y-83328628D01*
X143261905Y-83804819D02*
X143261905Y-82804819D01*
X143261905Y-82804819D02*
X143642857Y-82804819D01*
X143642857Y-82804819D02*
X143738095Y-82852438D01*
X143738095Y-82852438D02*
X143785714Y-82900057D01*
X143785714Y-82900057D02*
X143833333Y-82995295D01*
X143833333Y-82995295D02*
X143833333Y-83138152D01*
X143833333Y-83138152D02*
X143785714Y-83233390D01*
X143785714Y-83233390D02*
X143738095Y-83281009D01*
X143738095Y-83281009D02*
X143642857Y-83328628D01*
X143642857Y-83328628D02*
X143261905Y-83328628D01*
X144690476Y-83138152D02*
X144690476Y-83804819D01*
X144452381Y-82757200D02*
X144214286Y-83471485D01*
X144214286Y-83471485D02*
X144833333Y-83471485D01*
X143333333Y-74504819D02*
X142857143Y-74504819D01*
X142857143Y-74504819D02*
X142857143Y-73504819D01*
X144190476Y-74504819D02*
X143619048Y-74504819D01*
X143904762Y-74504819D02*
X143904762Y-73504819D01*
X143904762Y-73504819D02*
X143809524Y-73647676D01*
X143809524Y-73647676D02*
X143714286Y-73742914D01*
X143714286Y-73742914D02*
X143619048Y-73790533D01*
D14*
X146726629Y-63869047D02*
X146226629Y-63869047D01*
X146226629Y-63869047D02*
X146226629Y-63749999D01*
X146226629Y-63749999D02*
X146250439Y-63678571D01*
X146250439Y-63678571D02*
X146298058Y-63630952D01*
X146298058Y-63630952D02*
X146345677Y-63607142D01*
X146345677Y-63607142D02*
X146440915Y-63583333D01*
X146440915Y-63583333D02*
X146512343Y-63583333D01*
X146512343Y-63583333D02*
X146607581Y-63607142D01*
X146607581Y-63607142D02*
X146655200Y-63630952D01*
X146655200Y-63630952D02*
X146702820Y-63678571D01*
X146702820Y-63678571D02*
X146726629Y-63749999D01*
X146726629Y-63749999D02*
X146726629Y-63869047D01*
X146274248Y-63392856D02*
X146250439Y-63369047D01*
X146250439Y-63369047D02*
X146226629Y-63321428D01*
X146226629Y-63321428D02*
X146226629Y-63202380D01*
X146226629Y-63202380D02*
X146250439Y-63154761D01*
X146250439Y-63154761D02*
X146274248Y-63130952D01*
X146274248Y-63130952D02*
X146321867Y-63107142D01*
X146321867Y-63107142D02*
X146369486Y-63107142D01*
X146369486Y-63107142D02*
X146440915Y-63130952D01*
X146440915Y-63130952D02*
X146726629Y-63416666D01*
X146726629Y-63416666D02*
X146726629Y-63107142D01*
D12*
X150359580Y-76116666D02*
X150407200Y-76164285D01*
X150407200Y-76164285D02*
X150454819Y-76307142D01*
X150454819Y-76307142D02*
X150454819Y-76402380D01*
X150454819Y-76402380D02*
X150407200Y-76545237D01*
X150407200Y-76545237D02*
X150311961Y-76640475D01*
X150311961Y-76640475D02*
X150216723Y-76688094D01*
X150216723Y-76688094D02*
X150026247Y-76735713D01*
X150026247Y-76735713D02*
X149883390Y-76735713D01*
X149883390Y-76735713D02*
X149692914Y-76688094D01*
X149692914Y-76688094D02*
X149597676Y-76640475D01*
X149597676Y-76640475D02*
X149502438Y-76545237D01*
X149502438Y-76545237D02*
X149454819Y-76402380D01*
X149454819Y-76402380D02*
X149454819Y-76307142D01*
X149454819Y-76307142D02*
X149502438Y-76164285D01*
X149502438Y-76164285D02*
X149550057Y-76116666D01*
X150454819Y-75640475D02*
X150454819Y-75449999D01*
X150454819Y-75449999D02*
X150407200Y-75354761D01*
X150407200Y-75354761D02*
X150359580Y-75307142D01*
X150359580Y-75307142D02*
X150216723Y-75211904D01*
X150216723Y-75211904D02*
X150026247Y-75164285D01*
X150026247Y-75164285D02*
X149645295Y-75164285D01*
X149645295Y-75164285D02*
X149550057Y-75211904D01*
X149550057Y-75211904D02*
X149502438Y-75259523D01*
X149502438Y-75259523D02*
X149454819Y-75354761D01*
X149454819Y-75354761D02*
X149454819Y-75545237D01*
X149454819Y-75545237D02*
X149502438Y-75640475D01*
X149502438Y-75640475D02*
X149550057Y-75688094D01*
X149550057Y-75688094D02*
X149645295Y-75735713D01*
X149645295Y-75735713D02*
X149883390Y-75735713D01*
X149883390Y-75735713D02*
X149978628Y-75688094D01*
X149978628Y-75688094D02*
X150026247Y-75640475D01*
X150026247Y-75640475D02*
X150073866Y-75545237D01*
X150073866Y-75545237D02*
X150073866Y-75354761D01*
X150073866Y-75354761D02*
X150026247Y-75259523D01*
X150026247Y-75259523D02*
X149978628Y-75211904D01*
X149978628Y-75211904D02*
X149883390Y-75164285D01*
X127166666Y-96804819D02*
X126833333Y-96328628D01*
X126595238Y-96804819D02*
X126595238Y-95804819D01*
X126595238Y-95804819D02*
X126976190Y-95804819D01*
X126976190Y-95804819D02*
X127071428Y-95852438D01*
X127071428Y-95852438D02*
X127119047Y-95900057D01*
X127119047Y-95900057D02*
X127166666Y-95995295D01*
X127166666Y-95995295D02*
X127166666Y-96138152D01*
X127166666Y-96138152D02*
X127119047Y-96233390D01*
X127119047Y-96233390D02*
X127071428Y-96281009D01*
X127071428Y-96281009D02*
X126976190Y-96328628D01*
X126976190Y-96328628D02*
X126595238Y-96328628D01*
X127595238Y-96281009D02*
X127928571Y-96281009D01*
X128071428Y-96804819D02*
X127595238Y-96804819D01*
X127595238Y-96804819D02*
X127595238Y-95804819D01*
X127595238Y-95804819D02*
X128071428Y-95804819D01*
X128833333Y-96281009D02*
X128500000Y-96281009D01*
X128500000Y-96804819D02*
X128500000Y-95804819D01*
X128500000Y-95804819D02*
X128976190Y-95804819D01*
X129500000Y-95804819D02*
X129500000Y-96042914D01*
X129261905Y-95947676D02*
X129500000Y-96042914D01*
X129500000Y-96042914D02*
X129738095Y-95947676D01*
X129357143Y-96233390D02*
X129500000Y-96042914D01*
X129500000Y-96042914D02*
X129642857Y-96233390D01*
X130261905Y-95804819D02*
X130261905Y-96042914D01*
X130023810Y-95947676D02*
X130261905Y-96042914D01*
X130261905Y-96042914D02*
X130500000Y-95947676D01*
X130119048Y-96233390D02*
X130261905Y-96042914D01*
X130261905Y-96042914D02*
X130404762Y-96233390D01*
X152383333Y-63859580D02*
X152335714Y-63907200D01*
X152335714Y-63907200D02*
X152192857Y-63954819D01*
X152192857Y-63954819D02*
X152097619Y-63954819D01*
X152097619Y-63954819D02*
X151954762Y-63907200D01*
X151954762Y-63907200D02*
X151859524Y-63811961D01*
X151859524Y-63811961D02*
X151811905Y-63716723D01*
X151811905Y-63716723D02*
X151764286Y-63526247D01*
X151764286Y-63526247D02*
X151764286Y-63383390D01*
X151764286Y-63383390D02*
X151811905Y-63192914D01*
X151811905Y-63192914D02*
X151859524Y-63097676D01*
X151859524Y-63097676D02*
X151954762Y-63002438D01*
X151954762Y-63002438D02*
X152097619Y-62954819D01*
X152097619Y-62954819D02*
X152192857Y-62954819D01*
X152192857Y-62954819D02*
X152335714Y-63002438D01*
X152335714Y-63002438D02*
X152383333Y-63050057D01*
X153288095Y-62954819D02*
X152811905Y-62954819D01*
X152811905Y-62954819D02*
X152764286Y-63431009D01*
X152764286Y-63431009D02*
X152811905Y-63383390D01*
X152811905Y-63383390D02*
X152907143Y-63335771D01*
X152907143Y-63335771D02*
X153145238Y-63335771D01*
X153145238Y-63335771D02*
X153240476Y-63383390D01*
X153240476Y-63383390D02*
X153288095Y-63431009D01*
X153288095Y-63431009D02*
X153335714Y-63526247D01*
X153335714Y-63526247D02*
X153335714Y-63764342D01*
X153335714Y-63764342D02*
X153288095Y-63859580D01*
X153288095Y-63859580D02*
X153240476Y-63907200D01*
X153240476Y-63907200D02*
X153145238Y-63954819D01*
X153145238Y-63954819D02*
X152907143Y-63954819D01*
X152907143Y-63954819D02*
X152811905Y-63907200D01*
X152811905Y-63907200D02*
X152764286Y-63859580D01*
X141283333Y-72859580D02*
X141235714Y-72907200D01*
X141235714Y-72907200D02*
X141092857Y-72954819D01*
X141092857Y-72954819D02*
X140997619Y-72954819D01*
X140997619Y-72954819D02*
X140854762Y-72907200D01*
X140854762Y-72907200D02*
X140759524Y-72811961D01*
X140759524Y-72811961D02*
X140711905Y-72716723D01*
X140711905Y-72716723D02*
X140664286Y-72526247D01*
X140664286Y-72526247D02*
X140664286Y-72383390D01*
X140664286Y-72383390D02*
X140711905Y-72192914D01*
X140711905Y-72192914D02*
X140759524Y-72097676D01*
X140759524Y-72097676D02*
X140854762Y-72002438D01*
X140854762Y-72002438D02*
X140997619Y-71954819D01*
X140997619Y-71954819D02*
X141092857Y-71954819D01*
X141092857Y-71954819D02*
X141235714Y-72002438D01*
X141235714Y-72002438D02*
X141283333Y-72050057D01*
X142235714Y-72954819D02*
X141664286Y-72954819D01*
X141950000Y-72954819D02*
X141950000Y-71954819D01*
X141950000Y-71954819D02*
X141854762Y-72097676D01*
X141854762Y-72097676D02*
X141759524Y-72192914D01*
X141759524Y-72192914D02*
X141664286Y-72240533D01*
D13*
X133333333Y-79819933D02*
X133100000Y-79486600D01*
X132933333Y-79819933D02*
X132933333Y-79119933D01*
X132933333Y-79119933D02*
X133200000Y-79119933D01*
X133200000Y-79119933D02*
X133266667Y-79153266D01*
X133266667Y-79153266D02*
X133300000Y-79186600D01*
X133300000Y-79186600D02*
X133333333Y-79253266D01*
X133333333Y-79253266D02*
X133333333Y-79353266D01*
X133333333Y-79353266D02*
X133300000Y-79419933D01*
X133300000Y-79419933D02*
X133266667Y-79453266D01*
X133266667Y-79453266D02*
X133200000Y-79486600D01*
X133200000Y-79486600D02*
X132933333Y-79486600D01*
X133966667Y-79119933D02*
X133633333Y-79119933D01*
X133633333Y-79119933D02*
X133600000Y-79453266D01*
X133600000Y-79453266D02*
X133633333Y-79419933D01*
X133633333Y-79419933D02*
X133700000Y-79386600D01*
X133700000Y-79386600D02*
X133866667Y-79386600D01*
X133866667Y-79386600D02*
X133933333Y-79419933D01*
X133933333Y-79419933D02*
X133966667Y-79453266D01*
X133966667Y-79453266D02*
X134000000Y-79519933D01*
X134000000Y-79519933D02*
X134000000Y-79686600D01*
X134000000Y-79686600D02*
X133966667Y-79753266D01*
X133966667Y-79753266D02*
X133933333Y-79786600D01*
X133933333Y-79786600D02*
X133866667Y-79819933D01*
X133866667Y-79819933D02*
X133700000Y-79819933D01*
X133700000Y-79819933D02*
X133633333Y-79786600D01*
X133633333Y-79786600D02*
X133600000Y-79753266D01*
X133333333Y-74753266D02*
X133300000Y-74786600D01*
X133300000Y-74786600D02*
X133200000Y-74819933D01*
X133200000Y-74819933D02*
X133133333Y-74819933D01*
X133133333Y-74819933D02*
X133033333Y-74786600D01*
X133033333Y-74786600D02*
X132966667Y-74719933D01*
X132966667Y-74719933D02*
X132933333Y-74653266D01*
X132933333Y-74653266D02*
X132900000Y-74519933D01*
X132900000Y-74519933D02*
X132900000Y-74419933D01*
X132900000Y-74419933D02*
X132933333Y-74286600D01*
X132933333Y-74286600D02*
X132966667Y-74219933D01*
X132966667Y-74219933D02*
X133033333Y-74153266D01*
X133033333Y-74153266D02*
X133133333Y-74119933D01*
X133133333Y-74119933D02*
X133200000Y-74119933D01*
X133200000Y-74119933D02*
X133300000Y-74153266D01*
X133300000Y-74153266D02*
X133333333Y-74186600D01*
X133933333Y-74119933D02*
X133800000Y-74119933D01*
X133800000Y-74119933D02*
X133733333Y-74153266D01*
X133733333Y-74153266D02*
X133700000Y-74186600D01*
X133700000Y-74186600D02*
X133633333Y-74286600D01*
X133633333Y-74286600D02*
X133600000Y-74419933D01*
X133600000Y-74419933D02*
X133600000Y-74686600D01*
X133600000Y-74686600D02*
X133633333Y-74753266D01*
X133633333Y-74753266D02*
X133666667Y-74786600D01*
X133666667Y-74786600D02*
X133733333Y-74819933D01*
X133733333Y-74819933D02*
X133866667Y-74819933D01*
X133866667Y-74819933D02*
X133933333Y-74786600D01*
X133933333Y-74786600D02*
X133966667Y-74753266D01*
X133966667Y-74753266D02*
X134000000Y-74686600D01*
X134000000Y-74686600D02*
X134000000Y-74519933D01*
X134000000Y-74519933D02*
X133966667Y-74453266D01*
X133966667Y-74453266D02*
X133933333Y-74419933D01*
X133933333Y-74419933D02*
X133866667Y-74386600D01*
X133866667Y-74386600D02*
X133733333Y-74386600D01*
X133733333Y-74386600D02*
X133666667Y-74419933D01*
X133666667Y-74419933D02*
X133633333Y-74453266D01*
X133633333Y-74453266D02*
X133600000Y-74519933D01*
D12*
X144833333Y-72954819D02*
X144500000Y-72478628D01*
X144261905Y-72954819D02*
X144261905Y-71954819D01*
X144261905Y-71954819D02*
X144642857Y-71954819D01*
X144642857Y-71954819D02*
X144738095Y-72002438D01*
X144738095Y-72002438D02*
X144785714Y-72050057D01*
X144785714Y-72050057D02*
X144833333Y-72145295D01*
X144833333Y-72145295D02*
X144833333Y-72288152D01*
X144833333Y-72288152D02*
X144785714Y-72383390D01*
X144785714Y-72383390D02*
X144738095Y-72431009D01*
X144738095Y-72431009D02*
X144642857Y-72478628D01*
X144642857Y-72478628D02*
X144261905Y-72478628D01*
X145214286Y-72050057D02*
X145261905Y-72002438D01*
X145261905Y-72002438D02*
X145357143Y-71954819D01*
X145357143Y-71954819D02*
X145595238Y-71954819D01*
X145595238Y-71954819D02*
X145690476Y-72002438D01*
X145690476Y-72002438D02*
X145738095Y-72050057D01*
X145738095Y-72050057D02*
X145785714Y-72145295D01*
X145785714Y-72145295D02*
X145785714Y-72240533D01*
X145785714Y-72240533D02*
X145738095Y-72383390D01*
X145738095Y-72383390D02*
X145166667Y-72954819D01*
X145166667Y-72954819D02*
X145785714Y-72954819D01*
X155166666Y-96804819D02*
X154833333Y-96328628D01*
X154595238Y-96804819D02*
X154595238Y-95804819D01*
X154595238Y-95804819D02*
X154976190Y-95804819D01*
X154976190Y-95804819D02*
X155071428Y-95852438D01*
X155071428Y-95852438D02*
X155119047Y-95900057D01*
X155119047Y-95900057D02*
X155166666Y-95995295D01*
X155166666Y-95995295D02*
X155166666Y-96138152D01*
X155166666Y-96138152D02*
X155119047Y-96233390D01*
X155119047Y-96233390D02*
X155071428Y-96281009D01*
X155071428Y-96281009D02*
X154976190Y-96328628D01*
X154976190Y-96328628D02*
X154595238Y-96328628D01*
X155595238Y-96281009D02*
X155928571Y-96281009D01*
X156071428Y-96804819D02*
X155595238Y-96804819D01*
X155595238Y-96804819D02*
X155595238Y-95804819D01*
X155595238Y-95804819D02*
X156071428Y-95804819D01*
X156833333Y-96281009D02*
X156500000Y-96281009D01*
X156500000Y-96804819D02*
X156500000Y-95804819D01*
X156500000Y-95804819D02*
X156976190Y-95804819D01*
X157500000Y-95804819D02*
X157500000Y-96042914D01*
X157261905Y-95947676D02*
X157500000Y-96042914D01*
X157500000Y-96042914D02*
X157738095Y-95947676D01*
X157357143Y-96233390D02*
X157500000Y-96042914D01*
X157500000Y-96042914D02*
X157642857Y-96233390D01*
X158261905Y-95804819D02*
X158261905Y-96042914D01*
X158023810Y-95947676D02*
X158261905Y-96042914D01*
X158261905Y-96042914D02*
X158500000Y-95947676D01*
X158119048Y-96233390D02*
X158261905Y-96042914D01*
X158261905Y-96042914D02*
X158404762Y-96233390D01*
X148217319Y-87579166D02*
X147741128Y-87912499D01*
X148217319Y-88150594D02*
X147217319Y-88150594D01*
X147217319Y-88150594D02*
X147217319Y-87769642D01*
X147217319Y-87769642D02*
X147264938Y-87674404D01*
X147264938Y-87674404D02*
X147312557Y-87626785D01*
X147312557Y-87626785D02*
X147407795Y-87579166D01*
X147407795Y-87579166D02*
X147550652Y-87579166D01*
X147550652Y-87579166D02*
X147645890Y-87626785D01*
X147645890Y-87626785D02*
X147693509Y-87674404D01*
X147693509Y-87674404D02*
X147741128Y-87769642D01*
X147741128Y-87769642D02*
X147741128Y-88150594D01*
X148217319Y-86626785D02*
X148217319Y-87198213D01*
X148217319Y-86912499D02*
X147217319Y-86912499D01*
X147217319Y-86912499D02*
X147360176Y-87007737D01*
X147360176Y-87007737D02*
X147455414Y-87102975D01*
X147455414Y-87102975D02*
X147503033Y-87198213D01*
X149550000Y-97204819D02*
X149550000Y-96204819D01*
X150216666Y-96204819D02*
X150407142Y-96204819D01*
X150407142Y-96204819D02*
X150502380Y-96252438D01*
X150502380Y-96252438D02*
X150597618Y-96347676D01*
X150597618Y-96347676D02*
X150645237Y-96538152D01*
X150645237Y-96538152D02*
X150645237Y-96871485D01*
X150645237Y-96871485D02*
X150597618Y-97061961D01*
X150597618Y-97061961D02*
X150502380Y-97157200D01*
X150502380Y-97157200D02*
X150407142Y-97204819D01*
X150407142Y-97204819D02*
X150216666Y-97204819D01*
X150216666Y-97204819D02*
X150121428Y-97157200D01*
X150121428Y-97157200D02*
X150026190Y-97061961D01*
X150026190Y-97061961D02*
X149978571Y-96871485D01*
X149978571Y-96871485D02*
X149978571Y-96538152D01*
X149978571Y-96538152D02*
X150026190Y-96347676D01*
X150026190Y-96347676D02*
X150121428Y-96252438D01*
X150121428Y-96252438D02*
X150216666Y-96204819D01*
X151264285Y-96204819D02*
X151359523Y-96204819D01*
X151359523Y-96204819D02*
X151454761Y-96252438D01*
X151454761Y-96252438D02*
X151502380Y-96300057D01*
X151502380Y-96300057D02*
X151549999Y-96395295D01*
X151549999Y-96395295D02*
X151597618Y-96585771D01*
X151597618Y-96585771D02*
X151597618Y-96823866D01*
X151597618Y-96823866D02*
X151549999Y-97014342D01*
X151549999Y-97014342D02*
X151502380Y-97109580D01*
X151502380Y-97109580D02*
X151454761Y-97157200D01*
X151454761Y-97157200D02*
X151359523Y-97204819D01*
X151359523Y-97204819D02*
X151264285Y-97204819D01*
X151264285Y-97204819D02*
X151169047Y-97157200D01*
X151169047Y-97157200D02*
X151121428Y-97109580D01*
X151121428Y-97109580D02*
X151073809Y-97014342D01*
X151073809Y-97014342D02*
X151026190Y-96823866D01*
X151026190Y-96823866D02*
X151026190Y-96585771D01*
X151026190Y-96585771D02*
X151073809Y-96395295D01*
X151073809Y-96395295D02*
X151121428Y-96300057D01*
X151121428Y-96300057D02*
X151169047Y-96252438D01*
X151169047Y-96252438D02*
X151264285Y-96204819D01*
D13*
X133333333Y-71753266D02*
X133300000Y-71786600D01*
X133300000Y-71786600D02*
X133200000Y-71819933D01*
X133200000Y-71819933D02*
X133133333Y-71819933D01*
X133133333Y-71819933D02*
X133033333Y-71786600D01*
X133033333Y-71786600D02*
X132966667Y-71719933D01*
X132966667Y-71719933D02*
X132933333Y-71653266D01*
X132933333Y-71653266D02*
X132900000Y-71519933D01*
X132900000Y-71519933D02*
X132900000Y-71419933D01*
X132900000Y-71419933D02*
X132933333Y-71286600D01*
X132933333Y-71286600D02*
X132966667Y-71219933D01*
X132966667Y-71219933D02*
X133033333Y-71153266D01*
X133033333Y-71153266D02*
X133133333Y-71119933D01*
X133133333Y-71119933D02*
X133200000Y-71119933D01*
X133200000Y-71119933D02*
X133300000Y-71153266D01*
X133300000Y-71153266D02*
X133333333Y-71186600D01*
X133566667Y-71119933D02*
X134000000Y-71119933D01*
X134000000Y-71119933D02*
X133766667Y-71386600D01*
X133766667Y-71386600D02*
X133866667Y-71386600D01*
X133866667Y-71386600D02*
X133933333Y-71419933D01*
X133933333Y-71419933D02*
X133966667Y-71453266D01*
X133966667Y-71453266D02*
X134000000Y-71519933D01*
X134000000Y-71519933D02*
X134000000Y-71686600D01*
X134000000Y-71686600D02*
X133966667Y-71753266D01*
X133966667Y-71753266D02*
X133933333Y-71786600D01*
X133933333Y-71786600D02*
X133866667Y-71819933D01*
X133866667Y-71819933D02*
X133666667Y-71819933D01*
X133666667Y-71819933D02*
X133600000Y-71786600D01*
X133600000Y-71786600D02*
X133566667Y-71753266D01*
D12*
X134307143Y-96804819D02*
X134307143Y-95804819D01*
X134878571Y-96804819D02*
X134450000Y-96233390D01*
X134878571Y-95804819D02*
X134307143Y-96376247D01*
X135307143Y-96281009D02*
X135640476Y-96281009D01*
X135783333Y-96804819D02*
X135307143Y-96804819D01*
X135307143Y-96804819D02*
X135307143Y-95804819D01*
X135307143Y-95804819D02*
X135783333Y-95804819D01*
X136402381Y-96328628D02*
X136402381Y-96804819D01*
X136069048Y-95804819D02*
X136402381Y-96328628D01*
X136402381Y-96328628D02*
X136735714Y-95804819D01*
D13*
X133324999Y-66771635D02*
X133289285Y-66807350D01*
X133289285Y-66807350D02*
X133182142Y-66843064D01*
X133182142Y-66843064D02*
X133110714Y-66843064D01*
X133110714Y-66843064D02*
X133003571Y-66807350D01*
X133003571Y-66807350D02*
X132932142Y-66735921D01*
X132932142Y-66735921D02*
X132896428Y-66664492D01*
X132896428Y-66664492D02*
X132860714Y-66521635D01*
X132860714Y-66521635D02*
X132860714Y-66414492D01*
X132860714Y-66414492D02*
X132896428Y-66271635D01*
X132896428Y-66271635D02*
X132932142Y-66200207D01*
X132932142Y-66200207D02*
X133003571Y-66128778D01*
X133003571Y-66128778D02*
X133110714Y-66093064D01*
X133110714Y-66093064D02*
X133182142Y-66093064D01*
X133182142Y-66093064D02*
X133289285Y-66128778D01*
X133289285Y-66128778D02*
X133324999Y-66164492D01*
X133967857Y-66343064D02*
X133967857Y-66843064D01*
X133789285Y-66057350D02*
X133610714Y-66593064D01*
X133610714Y-66593064D02*
X134074999Y-66593064D01*
D15*
%TO.C,G\u002A\u002A\u002A*%
G36*
X130942357Y-88516801D02*
G01*
X131500143Y-88561147D01*
X132076470Y-88649701D01*
X132677294Y-88783987D01*
X133308572Y-88965529D01*
X133976260Y-89195852D01*
X134686314Y-89476481D01*
X135435329Y-89804660D01*
X135687349Y-89916169D01*
X135958317Y-90029861D01*
X136224469Y-90136167D01*
X136462037Y-90225516D01*
X136595060Y-90271680D01*
X137345617Y-90479564D01*
X138122840Y-90618603D01*
X138922112Y-90689271D01*
X139738816Y-90692040D01*
X140568336Y-90627382D01*
X141406055Y-90495770D01*
X142247358Y-90297675D01*
X143087627Y-90033571D01*
X143922246Y-89703930D01*
X144427994Y-89470197D01*
X144634598Y-89368329D01*
X144831648Y-89269416D01*
X145002633Y-89181869D01*
X145131043Y-89114104D01*
X145178930Y-89087512D01*
X145283191Y-89034897D01*
X145361035Y-89009373D01*
X145388062Y-89012020D01*
X145379422Y-89052431D01*
X145339726Y-89150329D01*
X145273487Y-89295983D01*
X145185220Y-89479664D01*
X145079439Y-89691643D01*
X145007859Y-89831429D01*
X144892286Y-90055970D01*
X144789382Y-90257738D01*
X144704019Y-90427032D01*
X144641065Y-90554154D01*
X144605389Y-90629403D01*
X144599102Y-90645669D01*
X144635391Y-90652224D01*
X144737323Y-90658075D01*
X144894494Y-90662952D01*
X145096500Y-90666589D01*
X145332938Y-90668715D01*
X145509432Y-90669161D01*
X145777555Y-90670586D01*
X146012959Y-90674622D01*
X146206092Y-90680906D01*
X146347401Y-90689076D01*
X146427332Y-90698771D01*
X146441578Y-90704458D01*
X146421360Y-90742064D01*
X146345329Y-90824205D01*
X146216912Y-90947728D01*
X146039535Y-91109484D01*
X145816625Y-91306318D01*
X145551606Y-91535081D01*
X145378593Y-91682302D01*
X145096895Y-91912059D01*
X144766071Y-92167249D01*
X144400978Y-92437458D01*
X144016477Y-92712274D01*
X143627425Y-92981284D01*
X143248681Y-93234076D01*
X142895105Y-93460236D01*
X142581555Y-93649352D01*
X142526796Y-93680769D01*
X141849840Y-94039961D01*
X141191822Y-94338196D01*
X140556877Y-94573950D01*
X139949137Y-94745698D01*
X139372734Y-94851915D01*
X139340403Y-94856027D01*
X139138377Y-94872346D01*
X138875212Y-94880261D01*
X138565305Y-94880160D01*
X138223054Y-94872432D01*
X137862858Y-94857467D01*
X137499114Y-94835654D01*
X137146220Y-94807382D01*
X136994311Y-94792606D01*
X136545956Y-94741044D01*
X136108939Y-94679313D01*
X135672009Y-94604961D01*
X135223914Y-94515540D01*
X134753404Y-94408598D01*
X134249227Y-94281685D01*
X133700131Y-94132352D01*
X133094865Y-93958148D01*
X132906736Y-93902481D01*
X132238036Y-93705792D01*
X131635234Y-93533501D01*
X131350596Y-93455275D01*
X135023284Y-93455275D01*
X135044335Y-93519378D01*
X135093556Y-93559218D01*
X135198317Y-93575027D01*
X135319691Y-93529246D01*
X135447374Y-93431411D01*
X135571060Y-93291054D01*
X135680445Y-93117711D01*
X135756578Y-92945766D01*
X135804981Y-92831337D01*
X135852066Y-92775057D01*
X135909153Y-92760478D01*
X135945294Y-92765466D01*
X135973614Y-92788375D01*
X135998454Y-92841122D01*
X136024156Y-92935626D01*
X136055059Y-93083805D01*
X136085750Y-93245284D01*
X136130116Y-93467107D01*
X136169383Y-93625574D01*
X136207279Y-93732862D01*
X136247534Y-93801149D01*
X136260424Y-93815643D01*
X136371450Y-93886723D01*
X136487741Y-93892392D01*
X136589041Y-93831778D01*
X136590792Y-93829865D01*
X136652412Y-93726967D01*
X136674492Y-93591161D01*
X136657130Y-93411860D01*
X136600423Y-93178481D01*
X136596932Y-93166484D01*
X136543790Y-92996877D01*
X136494707Y-92857089D01*
X137985918Y-92857089D01*
X138007205Y-93138612D01*
X138059239Y-93396875D01*
X138134929Y-93596070D01*
X138267298Y-93781855D01*
X138437566Y-93909298D01*
X138633734Y-93973442D01*
X138843801Y-93969330D01*
X138959575Y-93936688D01*
X139102059Y-93857542D01*
X139199819Y-93752236D01*
X139237671Y-93637346D01*
X139237724Y-93633057D01*
X139222405Y-93535006D01*
X139169103Y-93484116D01*
X139066801Y-93475170D01*
X138944503Y-93494246D01*
X138780174Y-93513054D01*
X138656249Y-93484638D01*
X138556302Y-93400043D01*
X138463903Y-93250317D01*
X138451601Y-93225626D01*
X138390491Y-93078814D01*
X138359132Y-92934699D01*
X138349372Y-92755174D01*
X138349320Y-92747497D01*
X138363074Y-92521368D01*
X138409728Y-92355658D01*
X138493001Y-92240561D01*
X138559421Y-92193199D01*
X138633576Y-92159880D01*
X138698230Y-92163412D01*
X138789689Y-92205997D01*
X138792106Y-92207297D01*
X138919627Y-92253713D01*
X139005783Y-92239990D01*
X139044982Y-92173097D01*
X139031633Y-92060006D01*
X138989925Y-91960731D01*
X138948860Y-91908506D01*
X139432156Y-91908506D01*
X139435145Y-92038202D01*
X139451166Y-92214890D01*
X139480206Y-92449657D01*
X139500445Y-92598354D01*
X139530025Y-92817152D01*
X139558135Y-93034966D01*
X139581749Y-93227733D01*
X139597844Y-93371389D01*
X139598792Y-93380809D01*
X139615516Y-93507920D01*
X139643190Y-93600162D01*
X139691398Y-93659937D01*
X139769723Y-93689645D01*
X139887749Y-93691687D01*
X140055060Y-93668465D01*
X140281238Y-93622380D01*
X140430113Y-93589085D01*
X140654571Y-93527189D01*
X140806822Y-93458843D01*
X140890583Y-93381909D01*
X140910778Y-93312550D01*
X140876697Y-93258253D01*
X140782982Y-93229097D01*
X140642422Y-93227029D01*
X140492114Y-93248755D01*
X140339627Y-93274255D01*
X140188631Y-93290162D01*
X140122519Y-93292813D01*
X139966232Y-93292813D01*
X139944703Y-93036152D01*
X139907583Y-92642142D01*
X139867938Y-92319729D01*
X139824811Y-92064476D01*
X139777248Y-91871948D01*
X139724290Y-91737709D01*
X139697697Y-91701665D01*
X140656082Y-91701665D01*
X140658145Y-91717871D01*
X140687014Y-91871917D01*
X140734389Y-92064718D01*
X140793976Y-92275711D01*
X140859483Y-92484336D01*
X140924619Y-92670031D01*
X140983091Y-92812234D01*
X141007840Y-92860565D01*
X141133801Y-93010154D01*
X141302307Y-93116209D01*
X141493049Y-93171790D01*
X141685718Y-93169955D01*
X141805602Y-93133225D01*
X141926447Y-93037435D01*
X142012571Y-92880173D01*
X142062576Y-92668326D01*
X142075065Y-92408781D01*
X142048640Y-92108422D01*
X142033102Y-92012434D01*
X141972327Y-91720546D01*
X141905961Y-91500970D01*
X141832269Y-91350068D01*
X141749516Y-91264203D01*
X141664549Y-91239520D01*
X141592531Y-91259966D01*
X141550758Y-91325755D01*
X141538387Y-91443561D01*
X141554572Y-91620058D01*
X141590627Y-91823581D01*
X141636403Y-92090187D01*
X141662816Y-92332155D01*
X141669297Y-92536521D01*
X141655275Y-92690322D01*
X141631896Y-92762978D01*
X141563060Y-92820852D01*
X141463101Y-92834517D01*
X141378047Y-92806093D01*
X141333040Y-92756079D01*
X141284364Y-92657440D01*
X141229588Y-92503434D01*
X141166284Y-92287318D01*
X141100227Y-92034998D01*
X141037036Y-91799829D01*
X140981291Y-91630787D01*
X140928475Y-91518900D01*
X140874070Y-91455194D01*
X140813559Y-91430696D01*
X140795469Y-91429640D01*
X140705145Y-91460852D01*
X140658213Y-91552513D01*
X140656082Y-91701665D01*
X139697697Y-91701665D01*
X139664982Y-91657324D01*
X139644100Y-91642007D01*
X139584106Y-91624130D01*
X139527087Y-91661273D01*
X139501510Y-91690514D01*
X139465326Y-91745748D01*
X139442212Y-91814716D01*
X139432156Y-91908506D01*
X138948860Y-91908506D01*
X138885476Y-91827896D01*
X138749902Y-91754703D01*
X138596421Y-91739010D01*
X138438247Y-91778676D01*
X138288597Y-91871559D01*
X138160688Y-92015516D01*
X138110335Y-92103270D01*
X138037104Y-92316387D01*
X137995758Y-92575337D01*
X137985918Y-92857089D01*
X136494707Y-92857089D01*
X136487816Y-92837464D01*
X136438684Y-92715260D01*
X136425240Y-92686955D01*
X136351741Y-92542886D01*
X136469027Y-92433044D01*
X136596130Y-92300208D01*
X136716125Y-92150639D01*
X136817471Y-92001460D01*
X136888628Y-91869796D01*
X136918056Y-91772769D01*
X136918263Y-91766479D01*
X136896899Y-91664114D01*
X136833219Y-91624308D01*
X136727842Y-91646850D01*
X136581384Y-91731531D01*
X136394466Y-91878139D01*
X136274094Y-91985597D01*
X136160902Y-92085965D01*
X136075132Y-92153702D01*
X136026650Y-92181578D01*
X136021022Y-92171107D01*
X136035788Y-92101656D01*
X136051163Y-91976845D01*
X136064875Y-91817308D01*
X136071322Y-91714183D01*
X136079743Y-91539991D01*
X136080548Y-91423221D01*
X136070689Y-91345385D01*
X136047120Y-91287992D01*
X136006794Y-91232554D01*
X135988305Y-91210365D01*
X135928384Y-91156502D01*
X142206376Y-91156502D01*
X142218313Y-91236979D01*
X142246652Y-91346486D01*
X142274885Y-91447873D01*
X142317457Y-91598638D01*
X142369504Y-91781783D01*
X142426165Y-91980309D01*
X142482577Y-92177219D01*
X142533877Y-92355513D01*
X142575203Y-92498193D01*
X142601692Y-92588261D01*
X142604908Y-92598876D01*
X142653666Y-92637064D01*
X142757725Y-92642561D01*
X142904167Y-92616275D01*
X143059800Y-92566843D01*
X143233582Y-92481705D01*
X143391517Y-92368268D01*
X143515592Y-92242276D01*
X143587792Y-92119479D01*
X143593561Y-92100254D01*
X143597807Y-91957150D01*
X143554694Y-91797831D01*
X143476148Y-91645950D01*
X143374099Y-91525159D01*
X143271951Y-91462556D01*
X143239210Y-91434398D01*
X143257587Y-91373758D01*
X143262811Y-91363780D01*
X143302539Y-91227010D01*
X143302710Y-91065826D01*
X143265931Y-90915483D01*
X143224172Y-90841191D01*
X143167814Y-90779871D01*
X143107259Y-90751850D01*
X143014356Y-90748316D01*
X142943352Y-90753276D01*
X142784886Y-90784268D01*
X142606795Y-90846123D01*
X142436151Y-90926899D01*
X142300030Y-91014653D01*
X142253055Y-91057770D01*
X142217781Y-91104676D01*
X142206376Y-91156502D01*
X135928384Y-91156502D01*
X135888972Y-91121075D01*
X135795213Y-91087431D01*
X135794053Y-91087424D01*
X135718161Y-91103460D01*
X135659684Y-91157404D01*
X135615248Y-91258006D01*
X135581477Y-91414020D01*
X135554996Y-91634197D01*
X135546772Y-91728700D01*
X135507084Y-92076953D01*
X135444293Y-92379643D01*
X135350319Y-92665760D01*
X135217082Y-92964290D01*
X135184049Y-93029920D01*
X135091321Y-93221193D01*
X135038339Y-93359429D01*
X135023284Y-93455275D01*
X131350596Y-93455275D01*
X131092629Y-93384379D01*
X130604519Y-93257198D01*
X130165203Y-93150728D01*
X129768979Y-93063740D01*
X129410146Y-92995007D01*
X129083001Y-92943298D01*
X128781844Y-92907385D01*
X128500972Y-92886040D01*
X128234685Y-92878033D01*
X128153742Y-92878071D01*
X127940311Y-92883028D01*
X127736819Y-92893728D01*
X127558151Y-92908795D01*
X127419190Y-92926851D01*
X127334820Y-92946517D01*
X127318793Y-92955358D01*
X127293808Y-93014252D01*
X127265379Y-93137858D01*
X127234863Y-93314992D01*
X127203617Y-93534469D01*
X127172998Y-93785105D01*
X127144363Y-94055715D01*
X127119069Y-94335115D01*
X127098473Y-94612120D01*
X127083933Y-94875547D01*
X127082921Y-94899325D01*
X127058169Y-95498203D01*
X126778935Y-95498203D01*
X126499701Y-95498203D01*
X126499701Y-95354478D01*
X126505891Y-95228728D01*
X126523078Y-95044244D01*
X126549186Y-94817205D01*
X126582138Y-94563792D01*
X126619857Y-94300186D01*
X126660268Y-94042567D01*
X126691066Y-93863173D01*
X126834813Y-93169910D01*
X127017873Y-92479455D01*
X127244052Y-91780824D01*
X127292189Y-91654307D01*
X129205641Y-91654307D01*
X129212853Y-91796586D01*
X129261612Y-91884723D01*
X129352246Y-91922113D01*
X129385236Y-91923951D01*
X129536770Y-91886654D01*
X129686996Y-91774456D01*
X129836441Y-91586896D01*
X129909723Y-91467026D01*
X129984391Y-91334364D01*
X130043816Y-91226590D01*
X130078483Y-91161049D01*
X130083129Y-91150979D01*
X130119289Y-91152928D01*
X130206299Y-91176431D01*
X130324498Y-91214559D01*
X130454224Y-91260382D01*
X130575815Y-91306970D01*
X130669608Y-91347394D01*
X130714940Y-91373658D01*
X130713173Y-91414056D01*
X130697599Y-91512353D01*
X130671023Y-91652235D01*
X130647612Y-91765063D01*
X130608004Y-91970079D01*
X130590876Y-92114528D01*
X130595125Y-92210140D01*
X130603044Y-92238625D01*
X130665693Y-92339805D01*
X130754353Y-92373257D01*
X130868805Y-92341680D01*
X131556886Y-92341680D01*
X131580046Y-92463575D01*
X131643279Y-92526525D01*
X131737214Y-92529367D01*
X131852479Y-92470937D01*
X131943925Y-92389745D01*
X132033384Y-92288039D01*
X132105226Y-92192281D01*
X132126762Y-92156604D01*
X132158248Y-92107036D01*
X132201216Y-92082929D01*
X132277118Y-92079139D01*
X132403851Y-92090150D01*
X132527802Y-92105179D01*
X132617366Y-92119929D01*
X132649690Y-92129529D01*
X132647098Y-92170656D01*
X132626080Y-92264927D01*
X132591036Y-92392944D01*
X132586228Y-92409214D01*
X132536188Y-92590362D01*
X132512893Y-92715320D01*
X132515287Y-92798683D01*
X132542313Y-92855044D01*
X132553114Y-92866945D01*
X132645415Y-92909928D01*
X132762785Y-92888369D01*
X132893937Y-92804524D01*
X132902407Y-92797203D01*
X132963433Y-92737246D01*
X133009593Y-92670461D01*
X133048415Y-92579542D01*
X133087427Y-92447187D01*
X133107893Y-92363831D01*
X133610742Y-92363831D01*
X133633836Y-92670665D01*
X133703488Y-92924419D01*
X133818169Y-93122038D01*
X133976348Y-93260468D01*
X134085479Y-93311749D01*
X134254996Y-93358065D01*
X134388810Y-93358253D01*
X134512068Y-93311799D01*
X134527959Y-93302703D01*
X134634561Y-93201849D01*
X134674166Y-93070214D01*
X134668578Y-93003148D01*
X134625216Y-92948980D01*
X134514355Y-92906175D01*
X134469511Y-92895575D01*
X134314745Y-92844991D01*
X134211297Y-92763911D01*
X134151213Y-92640157D01*
X134126540Y-92461550D01*
X134124821Y-92367808D01*
X134159129Y-92049642D01*
X134253184Y-91728352D01*
X134398126Y-91433627D01*
X134408451Y-91417117D01*
X134514470Y-91280974D01*
X134617272Y-91218058D01*
X134723995Y-91226258D01*
X134829184Y-91292604D01*
X134937624Y-91369203D01*
X135020022Y-91386231D01*
X135094268Y-91346195D01*
X135109410Y-91331864D01*
X135162352Y-91229980D01*
X135164431Y-91099910D01*
X135122080Y-90963474D01*
X135041730Y-90842492D01*
X134942263Y-90764864D01*
X134792105Y-90719611D01*
X134610521Y-90710588D01*
X134432841Y-90737602D01*
X134348781Y-90768129D01*
X134172660Y-90889752D01*
X134010441Y-91074226D01*
X133868035Y-91308776D01*
X133751349Y-91580627D01*
X133666292Y-91877003D01*
X133618773Y-92185129D01*
X133610742Y-92363831D01*
X133107893Y-92363831D01*
X133129857Y-92274373D01*
X133220203Y-91845540D01*
X133276896Y-91462009D01*
X133302754Y-91102353D01*
X133305081Y-90942083D01*
X133291577Y-90642143D01*
X133252176Y-90411312D01*
X133185778Y-90246807D01*
X133091286Y-90145848D01*
X132974829Y-90106294D01*
X132850888Y-90125622D01*
X132728084Y-90211064D01*
X132602941Y-90365881D01*
X132487359Y-90563550D01*
X132424004Y-90682967D01*
X132332189Y-90853716D01*
X132220182Y-91060540D01*
X132096248Y-91288178D01*
X131968656Y-91521372D01*
X131949764Y-91555793D01*
X131833368Y-91770950D01*
X131730668Y-91966859D01*
X131647087Y-92132670D01*
X131588050Y-92257535D01*
X131558980Y-92330604D01*
X131556886Y-92341680D01*
X130868805Y-92341680D01*
X130874554Y-92340094D01*
X130936931Y-92305864D01*
X131035559Y-92231267D01*
X131111049Y-92150092D01*
X131114869Y-92144404D01*
X131147346Y-92074308D01*
X131196095Y-91943765D01*
X131257061Y-91765608D01*
X131326188Y-91552672D01*
X131399421Y-91317789D01*
X131472704Y-91073793D01*
X131541981Y-90833518D01*
X131603198Y-90609798D01*
X131619283Y-90548222D01*
X131672755Y-90319225D01*
X131697520Y-90148582D01*
X131692979Y-90023987D01*
X131658533Y-89933134D01*
X131593585Y-89863715D01*
X131585716Y-89857720D01*
X131512504Y-89809576D01*
X131453985Y-89801736D01*
X131373191Y-89831971D01*
X131348903Y-89843440D01*
X131285890Y-89881076D01*
X131229403Y-89936773D01*
X131170082Y-90023993D01*
X131098567Y-90156199D01*
X131020038Y-90316425D01*
X130943188Y-90476271D01*
X130878939Y-90608832D01*
X130834000Y-90700340D01*
X130815081Y-90737025D01*
X130815069Y-90737040D01*
X130777432Y-90731486D01*
X130692022Y-90704495D01*
X130581031Y-90664429D01*
X130466653Y-90619650D01*
X130371079Y-90578523D01*
X130316503Y-90549409D01*
X130315890Y-90548935D01*
X130291772Y-90493840D01*
X130302079Y-90385628D01*
X130308374Y-90355868D01*
X130324239Y-90188847D01*
X130307516Y-90005008D01*
X130263967Y-89825148D01*
X130199354Y-89670065D01*
X130119439Y-89560558D01*
X130080028Y-89531694D01*
X129951720Y-89490784D01*
X129843813Y-89518106D01*
X129754525Y-89615402D01*
X129682076Y-89784414D01*
X129636399Y-89965728D01*
X129495981Y-90574937D01*
X129326070Y-91158156D01*
X129314542Y-91193741D01*
X129239647Y-91454491D01*
X129205641Y-91654307D01*
X127292189Y-91654307D01*
X127517153Y-91063034D01*
X127840981Y-90315102D01*
X128133281Y-89699550D01*
X128279637Y-89404683D01*
X128398634Y-89172780D01*
X128494540Y-88997645D01*
X128571618Y-88873081D01*
X128634136Y-88792891D01*
X128686359Y-88750880D01*
X128732553Y-88740851D01*
X128776983Y-88756608D01*
X128780817Y-88758939D01*
X128838585Y-88779604D01*
X128918870Y-88773152D01*
X129042828Y-88737258D01*
X129073376Y-88726810D01*
X129311229Y-88651861D01*
X129544269Y-88596412D01*
X129792935Y-88557195D01*
X130077668Y-88530941D01*
X130397156Y-88515138D01*
X130942357Y-88516801D01*
G37*
G36*
X132910984Y-90818491D02*
G01*
X132922644Y-90914605D01*
X132923364Y-91057083D01*
X132912824Y-91231434D01*
X132901110Y-91344086D01*
X132881087Y-91464854D01*
X132845659Y-91526298D01*
X132776068Y-91541000D01*
X132653557Y-91521536D01*
X132640569Y-91518808D01*
X132529755Y-91496181D01*
X132461520Y-91475600D01*
X132435255Y-91444086D01*
X132450353Y-91388659D01*
X132506207Y-91296339D01*
X132602209Y-91154145D01*
X132622115Y-91124618D01*
X132718766Y-90985675D01*
X132802608Y-90873972D01*
X132863444Y-90802567D01*
X132888705Y-90783233D01*
X132910984Y-90818491D01*
G37*
G36*
X143172777Y-91779186D02*
G01*
X143253802Y-91811279D01*
X143260659Y-91817484D01*
X143296131Y-91894366D01*
X143304220Y-91998995D01*
X143282295Y-92087213D01*
X143277187Y-92095059D01*
X143211449Y-92158172D01*
X143114753Y-92222820D01*
X143008129Y-92278561D01*
X142912611Y-92314952D01*
X142849229Y-92321551D01*
X142837494Y-92313357D01*
X142819559Y-92259955D01*
X142797469Y-92166308D01*
X142794597Y-92152095D01*
X142771215Y-92041807D01*
X142750319Y-91955388D01*
X142749295Y-91951701D01*
X142766214Y-91891233D01*
X142838090Y-91838217D01*
X142943854Y-91798185D01*
X143062439Y-91776664D01*
X143172777Y-91779186D01*
G37*
G36*
X142981095Y-91130361D02*
G01*
X143009237Y-91182974D01*
X143032275Y-91245530D01*
X143025762Y-91295411D01*
X142979946Y-91353504D01*
X142891627Y-91434885D01*
X142798349Y-91514055D01*
X142727751Y-91567372D01*
X142700560Y-91581736D01*
X142672940Y-91549735D01*
X142628817Y-91467296D01*
X142593855Y-91389733D01*
X142512736Y-91197731D01*
X142614826Y-91158252D01*
X142730195Y-91122420D01*
X142839142Y-91098343D01*
X142929329Y-91093508D01*
X142981095Y-91130361D01*
G37*
D16*
%TO.C,J3*%
X145100000Y-54100000D02*
X145100000Y-54350000D01*
X145100000Y-56650000D02*
X145100000Y-58500000D01*
X145100000Y-58500000D02*
X145550000Y-58500000D01*
X150700000Y-59050000D02*
X150250000Y-59050000D01*
X150700000Y-59050000D02*
X150700000Y-58600000D01*
X152900000Y-54100000D02*
X152900000Y-54350000D01*
X152900000Y-56650000D02*
X152900000Y-58500000D01*
X152900000Y-58500000D02*
X152450000Y-58500000D01*
%TO.C,R3*%
X140227064Y-84265000D02*
X139772936Y-84265000D01*
X140227064Y-85735000D02*
X139772936Y-85735000D01*
%TO.C,J1*%
X153427000Y-68239534D02*
X153427000Y-86079534D01*
X153427000Y-68239534D02*
X156087000Y-68239534D01*
X153427000Y-86079534D02*
X156087000Y-86079534D01*
X154757000Y-65639534D02*
X156087000Y-65639534D01*
X156087000Y-65639534D02*
X156087000Y-66969534D01*
X156087000Y-68239534D02*
X156087000Y-86079534D01*
%TO.C,D3*%
X149040000Y-65975000D02*
X149040000Y-68835000D01*
X149040000Y-68835000D02*
X150960000Y-68835000D01*
X150960000Y-68835000D02*
X150960000Y-65975000D01*
%TO.C,C7*%
X135738748Y-76265000D02*
X136261252Y-76265000D01*
X135738748Y-77735000D02*
X136261252Y-77735000D01*
%TO.C,C2*%
X135738748Y-68265000D02*
X136261252Y-68265000D01*
X135738748Y-69735000D02*
X136261252Y-69735000D01*
%TO.C,D1*%
X134027500Y-84040000D02*
X134027500Y-85960000D01*
X134027500Y-85960000D02*
X136887500Y-85960000D01*
X136887500Y-84040000D02*
X134027500Y-84040000D01*
%TO.C,J2*%
X130170000Y-83270000D02*
X130170000Y-65430000D01*
X130170000Y-85870000D02*
X130170000Y-84540000D01*
X131500000Y-85870000D02*
X130170000Y-85870000D01*
X132830000Y-65430000D02*
X130170000Y-65430000D01*
X132830000Y-83270000D02*
X130170000Y-83270000D01*
X132830000Y-83270000D02*
X132830000Y-65430000D01*
D17*
%TO.C,U1*%
X144185000Y-65645000D02*
X141125000Y-65645000D01*
X144185000Y-70545000D02*
X141125000Y-70545000D01*
D18*
X147215000Y-70000000D02*
G75*
G02*
X147015000Y-70000000I-100000J0D01*
G01*
X147015000Y-70000000D02*
G75*
G02*
X147215000Y-70000000I100000J0D01*
G01*
D16*
%TO.C,J4*%
X132140000Y-54222500D02*
X139860000Y-54222500D01*
X132140000Y-55442500D02*
X133360000Y-55442500D01*
X132140000Y-62642500D02*
X132140000Y-54222500D01*
X133360000Y-55442500D02*
X133360000Y-60442500D01*
X133360000Y-59442500D02*
X138640000Y-59442500D01*
X133360000Y-60442500D02*
X132140000Y-60442500D01*
X133360000Y-60442500D02*
X133360000Y-62642500D01*
X133360000Y-62642500D02*
X132140000Y-62642500D01*
X134430000Y-56022500D02*
X134750000Y-55942500D01*
X134430000Y-59442500D02*
X134430000Y-56022500D01*
X134450000Y-63132500D02*
X135050000Y-63132500D01*
X134750000Y-55942500D02*
X135070000Y-56022500D01*
X134750000Y-59442500D02*
X134430000Y-59442500D01*
X134750000Y-62532500D02*
X134450000Y-63132500D01*
X135050000Y-63132500D02*
X134750000Y-62532500D01*
X135070000Y-56022500D02*
X135070000Y-59442500D01*
X135070000Y-59442500D02*
X134750000Y-59442500D01*
X135920000Y-60442500D02*
X136080000Y-60442500D01*
X136930000Y-56022500D02*
X137250000Y-55942500D01*
X136930000Y-59442500D02*
X136930000Y-56022500D01*
X137250000Y-55942500D02*
X137570000Y-56022500D01*
X137250000Y-59442500D02*
X136930000Y-59442500D01*
X137570000Y-56022500D02*
X137570000Y-59442500D01*
X137570000Y-59442500D02*
X137250000Y-59442500D01*
X138640000Y-55442500D02*
X138640000Y-60442500D01*
X138640000Y-60442500D02*
X139860000Y-60442500D01*
X138640000Y-62642500D02*
X138640000Y-60442500D01*
X139860000Y-54222500D02*
X139860000Y-62642500D01*
X139860000Y-55442500D02*
X138640000Y-55442500D01*
X139860000Y-62642500D02*
X138640000Y-62642500D01*
%TO.C,C8*%
X149265000Y-71211252D02*
X149265000Y-70688748D01*
X150735000Y-71211252D02*
X150735000Y-70688748D01*
%TO.C,R4*%
X143772936Y-84265000D02*
X144227064Y-84265000D01*
X143772936Y-85735000D02*
X144227064Y-85735000D01*
%TO.C,L1*%
X139800000Y-74800000D02*
X147200000Y-74800000D01*
X139800000Y-77100000D02*
X139800000Y-74800000D01*
X139800000Y-82200000D02*
X139800000Y-79900000D01*
X147200000Y-74800000D02*
X147200000Y-77100000D01*
X147200000Y-79900000D02*
X147200000Y-82200000D01*
X147200000Y-82200000D02*
X139800000Y-82200000D01*
%TO.C,D2*%
X142115000Y-62540000D02*
X142115000Y-64460000D01*
X142115000Y-64460000D02*
X144975000Y-64460000D01*
X144975000Y-62540000D02*
X142115000Y-62540000D01*
%TO.C,C9*%
X149265000Y-75688748D02*
X149265000Y-76211252D01*
X150735000Y-75688748D02*
X150735000Y-76211252D01*
%TO.C,C5*%
X152288748Y-62765000D02*
X152811252Y-62765000D01*
X152288748Y-64235000D02*
X152811252Y-64235000D01*
%TO.C,C1*%
X141711252Y-71765000D02*
X141188748Y-71765000D01*
X141711252Y-73235000D02*
X141188748Y-73235000D01*
%TO.C,R5*%
X136089564Y-78765000D02*
X135635436Y-78765000D01*
X136089564Y-80235000D02*
X135635436Y-80235000D01*
%TO.C,C6*%
X136161252Y-73765000D02*
X135638748Y-73765000D01*
X136161252Y-75235000D02*
X135638748Y-75235000D01*
%TO.C,R2*%
X144772936Y-71765000D02*
X145227064Y-71765000D01*
X144772936Y-73235000D02*
X145227064Y-73235000D01*
%TO.C,R1*%
X149265000Y-84139564D02*
X149265000Y-83685436D01*
X150735000Y-84139564D02*
X150735000Y-83685436D01*
%TO.C,IO0*%
X148350000Y-99250000D02*
X148350000Y-99150000D01*
X148350000Y-100750000D02*
X152750000Y-100750000D01*
X152750000Y-97650000D02*
X148350000Y-97650000D01*
X152750000Y-99250000D02*
X152750000Y-99150000D01*
%TO.C,C3*%
X135738748Y-70765000D02*
X136261252Y-70765000D01*
X135738748Y-72235000D02*
X136261252Y-72235000D01*
%TO.C,KEY*%
X133250000Y-98850000D02*
X133250000Y-98750000D01*
X133250000Y-100350000D02*
X137650000Y-100350000D01*
X137650000Y-97250000D02*
X133250000Y-97250000D01*
X137650000Y-98850000D02*
X137650000Y-98750000D01*
%TO.C,C4*%
X135738748Y-65765000D02*
X136261252Y-65765000D01*
X135738748Y-67235000D02*
X136261252Y-67235000D01*
%TD*%
M02*
