ISO-10303-21;
HEADER;
/* Generated by software containing ST-Developer
 * from STEP Tools, Inc. (www.steptools.com) 
 */

FILE_DESCRIPTION(
/* description */ (''),
/* implementation_level */ '2;1');

FILE_NAME(
/* name */ 'BATTERY HOLDER V1 v19.step',
/* time_stamp */ '2026-04-14T20:55:25+05:30',
/* author */ (''),
/* organization */ (''),
/* preprocessor_version */ 'ST-DEVELOPER v20.1',
/* originating_system */ 'Autodesk Translation Framework v14.24.0.0',
/* authorisation */ '');

FILE_SCHEMA (('AUTOMOTIVE_DESIGN { 1 0 10303 214 3 1 1 }'));
ENDSEC;

DATA;
#10=MECHANICAL_DESIGN_GEOMETRIC_PRESENTATION_REPRESENTATION('',(#13),#801);
#11=SHAPE_REPRESENTATION_RELATIONSHIP('SRR','None',#808,#12);
#12=ADVANCED_BREP_SHAPE_REPRESENTATION('',(#14),#800);
#13=STYLED_ITEM('',(#817),#14);
#14=MANIFOLD_SOLID_BREP('Body1',#465);
#15=FACE_BOUND('',#73,.T.);
#16=FACE_BOUND('',#74,.T.);
#17=FACE_BOUND('',#75,.T.);
#18=FACE_BOUND('',#76,.T.);
#19=FACE_BOUND('',#77,.T.);
#20=FACE_BOUND('',#90,.T.);
#21=FACE_BOUND('',#93,.T.);
#22=FACE_BOUND('',#96,.T.);
#23=FACE_BOUND('',#98,.T.);
#24=FACE_BOUND('',#104,.T.);
#25=FACE_BOUND('',#105,.T.);
#26=FACE_BOUND('',#106,.T.);
#27=FACE_BOUND('',#107,.T.);
#28=PLANE('',#482);
#29=PLANE('',#483);
#30=PLANE('',#493);
#31=PLANE('',#496);
#32=PLANE('',#499);
#33=PLANE('',#500);
#34=PLANE('',#501);
#35=PLANE('',#502);
#36=PLANE('',#503);
#37=PLANE('',#507);
#38=PLANE('',#512);
#39=PLANE('',#517);
#40=PLANE('',#519);
#41=PLANE('',#526);
#42=PLANE('',#527);
#43=FACE_OUTER_BOUND('',#70,.T.);
#44=FACE_OUTER_BOUND('',#71,.T.);
#45=FACE_OUTER_BOUND('',#72,.T.);
#46=FACE_OUTER_BOUND('',#78,.T.);
#47=FACE_OUTER_BOUND('',#79,.T.);
#48=FACE_OUTER_BOUND('',#80,.T.);
#49=FACE_OUTER_BOUND('',#81,.T.);
#50=FACE_OUTER_BOUND('',#82,.T.);
#51=FACE_OUTER_BOUND('',#83,.T.);
#52=FACE_OUTER_BOUND('',#84,.T.);
#53=FACE_OUTER_BOUND('',#85,.T.);
#54=FACE_OUTER_BOUND('',#86,.T.);
#55=FACE_OUTER_BOUND('',#87,.T.);
#56=FACE_OUTER_BOUND('',#88,.T.);
#57=FACE_OUTER_BOUND('',#89,.T.);
#58=FACE_OUTER_BOUND('',#91,.T.);
#59=FACE_OUTER_BOUND('',#92,.T.);
#60=FACE_OUTER_BOUND('',#94,.T.);
#61=FACE_OUTER_BOUND('',#95,.T.);
#62=FACE_OUTER_BOUND('',#97,.T.);
#63=FACE_OUTER_BOUND('',#99,.T.);
#64=FACE_OUTER_BOUND('',#100,.T.);
#65=FACE_OUTER_BOUND('',#101,.T.);
#66=FACE_OUTER_BOUND('',#102,.T.);
#67=FACE_OUTER_BOUND('',#103,.T.);
#68=FACE_OUTER_BOUND('',#108,.T.);
#69=FACE_OUTER_BOUND('',#109,.T.);
#70=EDGE_LOOP('',(#306,#307,#308,#309));
#71=EDGE_LOOP('',(#310,#311,#312,#313));
#72=EDGE_LOOP('',(#314,#315,#316,#317,#318,#319,#320,#321));
#73=EDGE_LOOP('',(#322));
#74=EDGE_LOOP('',(#323));
#75=EDGE_LOOP('',(#324,#325,#326,#327));
#76=EDGE_LOOP('',(#328));
#77=EDGE_LOOP('',(#329));
#78=EDGE_LOOP('',(#330,#331,#332,#333));
#79=EDGE_LOOP('',(#334,#335,#336,#337));
#80=EDGE_LOOP('',(#338,#339,#340,#341));
#81=EDGE_LOOP('',(#342,#343,#344,#345));
#82=EDGE_LOOP('',(#346,#347,#348,#349));
#83=EDGE_LOOP('',(#350,#351,#352,#353));
#84=EDGE_LOOP('',(#354,#355,#356,#357));
#85=EDGE_LOOP('',(#358,#359,#360,#361));
#86=EDGE_LOOP('',(#362,#363,#364,#365));
#87=EDGE_LOOP('',(#366,#367,#368,#369));
#88=EDGE_LOOP('',(#370,#371,#372,#373));
#89=EDGE_LOOP('',(#374));
#90=EDGE_LOOP('',(#375));
#91=EDGE_LOOP('',(#376,#377,#378,#379));
#92=EDGE_LOOP('',(#380));
#93=EDGE_LOOP('',(#381));
#94=EDGE_LOOP('',(#382,#383,#384,#385));
#95=EDGE_LOOP('',(#386));
#96=EDGE_LOOP('',(#387));
#97=EDGE_LOOP('',(#388));
#98=EDGE_LOOP('',(#389));
#99=EDGE_LOOP('',(#390,#391,#392,#393));
#100=EDGE_LOOP('',(#394,#395,#396,#397));
#101=EDGE_LOOP('',(#398,#399,#400,#401));
#102=EDGE_LOOP('',(#402,#403,#404,#405));
#103=EDGE_LOOP('',(#406,#407,#408,#409,#410,#411,#412,#413));
#104=EDGE_LOOP('',(#414));
#105=EDGE_LOOP('',(#415));
#106=EDGE_LOOP('',(#416));
#107=EDGE_LOOP('',(#417));
#108=EDGE_LOOP('',(#418,#419,#420,#421));
#109=EDGE_LOOP('',(#422,#423,#424,#425));
#110=LINE('',#676,#146);
#111=LINE('',#679,#147);
#112=LINE('',#682,#148);
#113=LINE('',#684,#149);
#114=LINE('',#685,#150);
#115=LINE('',#688,#151);
#116=LINE('',#692,#152);
#117=LINE('',#696,#153);
#118=LINE('',#704,#154);
#119=LINE('',#706,#155);
#120=LINE('',#708,#156);
#121=LINE('',#709,#157);
#122=LINE('',#716,#158);
#123=LINE('',#720,#159);
#124=LINE('',#721,#160);
#125=LINE('',#724,#161);
#126=LINE('',#728,#162);
#127=LINE('',#729,#163);
#128=LINE('',#733,#164);
#129=LINE('',#735,#165);
#130=LINE('',#739,#166);
#131=LINE('',#740,#167);
#132=LINE('',#741,#168);
#133=LINE('',#744,#169);
#134=LINE('',#745,#170);
#135=LINE('',#748,#171);
#136=LINE('',#749,#172);
#137=LINE('',#751,#173);
#138=LINE('',#756,#174);
#139=LINE('',#765,#175);
#140=LINE('',#774,#176);
#141=LINE('',#785,#177);
#142=LINE('',#787,#178);
#143=LINE('',#791,#179);
#144=LINE('',#795,#180);
#145=LINE('',#797,#181);
#146=VECTOR('',#536,10.);
#147=VECTOR('',#539,10.);
#148=VECTOR('',#542,10.);
#149=VECTOR('',#543,10.);
#150=VECTOR('',#544,10.);
#151=VECTOR('',#547,10.);
#152=VECTOR('',#550,10.);
#153=VECTOR('',#553,10.);
#154=VECTOR('',#560,10.);
#155=VECTOR('',#561,10.);
#156=VECTOR('',#562,10.);
#157=VECTOR('',#563,10.);
#158=VECTOR('',#570,10.);
#159=VECTOR('',#575,10.);
#160=VECTOR('',#576,10.);
#161=VECTOR('',#579,10.);
#162=VECTOR('',#584,10.);
#163=VECTOR('',#585,10.);
#164=VECTOR('',#590,10.);
#165=VECTOR('',#593,10.);
#166=VECTOR('',#596,10.);
#167=VECTOR('',#597,10.);
#168=VECTOR('',#598,10.);
#169=VECTOR('',#601,10.);
#170=VECTOR('',#602,10.);
#171=VECTOR('',#605,10.);
#172=VECTOR('',#606,10.);
#173=VECTOR('',#609,10.);
#174=VECTOR('',#614,2.);
#175=VECTOR('',#625,2.);
#176=VECTOR('',#636,2.);
#177=VECTOR('',#651,1.115);
#178=VECTOR('',#654,1.115);
#179=VECTOR('',#659,2.);
#180=VECTOR('',#666,1.115);
#181=VECTOR('',#669,1.115);
#182=CIRCLE('',#480,3.);
#183=CIRCLE('',#481,3.);
#184=CIRCLE('',#484,3.);
#185=CIRCLE('',#485,3.);
#186=CIRCLE('',#486,3.);
#187=CIRCLE('',#487,1.115);
#188=CIRCLE('',#488,1.115);
#189=CIRCLE('',#489,1.115);
#190=CIRCLE('',#490,1.115);
#191=CIRCLE('',#492,3.);
#192=CIRCLE('',#495,3.);
#193=CIRCLE('',#498,3.);
#194=CIRCLE('',#505,2.);
#195=CIRCLE('',#506,2.);
#196=CIRCLE('',#508,1.115);
#197=CIRCLE('',#510,2.);
#198=CIRCLE('',#511,2.);
#199=CIRCLE('',#513,1.115);
#200=CIRCLE('',#515,2.);
#201=CIRCLE('',#516,2.);
#202=CIRCLE('',#518,1.115);
#203=CIRCLE('',#520,2.);
#204=CIRCLE('',#521,1.115);
#205=CIRCLE('',#525,2.);
#206=VERTEX_POINT('',#672);
#207=VERTEX_POINT('',#673);
#208=VERTEX_POINT('',#675);
#209=VERTEX_POINT('',#677);
#210=VERTEX_POINT('',#681);
#211=VERTEX_POINT('',#683);
#212=VERTEX_POINT('',#687);
#213=VERTEX_POINT('',#689);
#214=VERTEX_POINT('',#691);
#215=VERTEX_POINT('',#693);
#216=VERTEX_POINT('',#695);
#217=VERTEX_POINT('',#698);
#218=VERTEX_POINT('',#700);
#219=VERTEX_POINT('',#702);
#220=VERTEX_POINT('',#703);
#221=VERTEX_POINT('',#705);
#222=VERTEX_POINT('',#707);
#223=VERTEX_POINT('',#710);
#224=VERTEX_POINT('',#712);
#225=VERTEX_POINT('',#715);
#226=VERTEX_POINT('',#719);
#227=VERTEX_POINT('',#723);
#228=VERTEX_POINT('',#727);
#229=VERTEX_POINT('',#731);
#230=VERTEX_POINT('',#737);
#231=VERTEX_POINT('',#738);
#232=VERTEX_POINT('',#743);
#233=VERTEX_POINT('',#747);
#234=VERTEX_POINT('',#753);
#235=VERTEX_POINT('',#755);
#236=VERTEX_POINT('',#759);
#237=VERTEX_POINT('',#762);
#238=VERTEX_POINT('',#764);
#239=VERTEX_POINT('',#768);
#240=VERTEX_POINT('',#771);
#241=VERTEX_POINT('',#773);
#242=VERTEX_POINT('',#777);
#243=VERTEX_POINT('',#780);
#244=VERTEX_POINT('',#782);
#245=VERTEX_POINT('',#789);
#246=EDGE_CURVE('',#206,#207,#182,.T.);
#247=EDGE_CURVE('',#207,#208,#110,.T.);
#248=EDGE_CURVE('',#208,#209,#183,.T.);
#249=EDGE_CURVE('',#209,#206,#111,.T.);
#250=EDGE_CURVE('',#210,#207,#112,.T.);
#251=EDGE_CURVE('',#211,#210,#113,.T.);
#252=EDGE_CURVE('',#208,#211,#114,.T.);
#253=EDGE_CURVE('',#206,#212,#115,.T.);
#254=EDGE_CURVE('',#213,#212,#184,.T.);
#255=EDGE_CURVE('',#213,#214,#116,.T.);
#256=EDGE_CURVE('',#215,#214,#185,.T.);
#257=EDGE_CURVE('',#215,#216,#117,.T.);
#258=EDGE_CURVE('',#210,#216,#186,.T.);
#259=EDGE_CURVE('',#217,#217,#187,.T.);
#260=EDGE_CURVE('',#218,#218,#188,.T.);
#261=EDGE_CURVE('',#219,#220,#118,.T.);
#262=EDGE_CURVE('',#219,#221,#119,.T.);
#263=EDGE_CURVE('',#222,#221,#120,.T.);
#264=EDGE_CURVE('',#222,#220,#121,.T.);
#265=EDGE_CURVE('',#223,#223,#189,.T.);
#266=EDGE_CURVE('',#224,#224,#190,.T.);
#267=EDGE_CURVE('',#216,#225,#122,.T.);
#268=EDGE_CURVE('',#225,#211,#191,.T.);
#269=EDGE_CURVE('',#226,#215,#123,.T.);
#270=EDGE_CURVE('',#225,#226,#124,.T.);
#271=EDGE_CURVE('',#214,#227,#125,.T.);
#272=EDGE_CURVE('',#227,#226,#192,.T.);
#273=EDGE_CURVE('',#228,#213,#126,.T.);
#274=EDGE_CURVE('',#227,#228,#127,.T.);
#275=EDGE_CURVE('',#229,#228,#193,.T.);
#276=EDGE_CURVE('',#212,#229,#128,.T.);
#277=EDGE_CURVE('',#229,#209,#129,.T.);
#278=EDGE_CURVE('',#230,#231,#130,.T.);
#279=EDGE_CURVE('',#219,#230,#131,.T.);
#280=EDGE_CURVE('',#231,#220,#132,.T.);
#281=EDGE_CURVE('',#222,#232,#133,.T.);
#282=EDGE_CURVE('',#231,#232,#134,.T.);
#283=EDGE_CURVE('',#232,#233,#135,.T.);
#284=EDGE_CURVE('',#233,#221,#136,.T.);
#285=EDGE_CURVE('',#233,#230,#137,.T.);
#286=EDGE_CURVE('',#234,#234,#194,.T.);
#287=EDGE_CURVE('',#234,#235,#138,.T.);
#288=EDGE_CURVE('',#235,#235,#195,.T.);
#289=EDGE_CURVE('',#236,#236,#196,.T.);
#290=EDGE_CURVE('',#237,#237,#197,.T.);
#291=EDGE_CURVE('',#237,#238,#139,.T.);
#292=EDGE_CURVE('',#238,#238,#198,.T.);
#293=EDGE_CURVE('',#239,#239,#199,.T.);
#294=EDGE_CURVE('',#240,#240,#200,.T.);
#295=EDGE_CURVE('',#240,#241,#140,.T.);
#296=EDGE_CURVE('',#241,#241,#201,.T.);
#297=EDGE_CURVE('',#242,#242,#202,.T.);
#298=EDGE_CURVE('',#243,#243,#203,.T.);
#299=EDGE_CURVE('',#244,#244,#204,.T.);
#300=EDGE_CURVE('',#218,#244,#141,.T.);
#301=EDGE_CURVE('',#224,#242,#142,.T.);
#302=EDGE_CURVE('',#245,#245,#205,.T.);
#303=EDGE_CURVE('',#245,#243,#143,.T.);
#304=EDGE_CURVE('',#223,#236,#144,.T.);
#305=EDGE_CURVE('',#217,#239,#145,.T.);
#306=ORIENTED_EDGE('',*,*,#246,.T.);
#307=ORIENTED_EDGE('',*,*,#247,.T.);
#308=ORIENTED_EDGE('',*,*,#248,.T.);
#309=ORIENTED_EDGE('',*,*,#249,.T.);
#310=ORIENTED_EDGE('',*,*,#247,.F.);
#311=ORIENTED_EDGE('',*,*,#250,.F.);
#312=ORIENTED_EDGE('',*,*,#251,.F.);
#313=ORIENTED_EDGE('',*,*,#252,.F.);
#314=ORIENTED_EDGE('',*,*,#246,.F.);
#315=ORIENTED_EDGE('',*,*,#253,.T.);
#316=ORIENTED_EDGE('',*,*,#254,.F.);
#317=ORIENTED_EDGE('',*,*,#255,.T.);
#318=ORIENTED_EDGE('',*,*,#256,.F.);
#319=ORIENTED_EDGE('',*,*,#257,.T.);
#320=ORIENTED_EDGE('',*,*,#258,.F.);
#321=ORIENTED_EDGE('',*,*,#250,.T.);
#322=ORIENTED_EDGE('',*,*,#259,.T.);
#323=ORIENTED_EDGE('',*,*,#260,.T.);
#324=ORIENTED_EDGE('',*,*,#261,.F.);
#325=ORIENTED_EDGE('',*,*,#262,.T.);
#326=ORIENTED_EDGE('',*,*,#263,.F.);
#327=ORIENTED_EDGE('',*,*,#264,.T.);
#328=ORIENTED_EDGE('',*,*,#265,.T.);
#329=ORIENTED_EDGE('',*,*,#266,.T.);
#330=ORIENTED_EDGE('',*,*,#258,.T.);
#331=ORIENTED_EDGE('',*,*,#267,.T.);
#332=ORIENTED_EDGE('',*,*,#268,.T.);
#333=ORIENTED_EDGE('',*,*,#251,.T.);
#334=ORIENTED_EDGE('',*,*,#267,.F.);
#335=ORIENTED_EDGE('',*,*,#257,.F.);
#336=ORIENTED_EDGE('',*,*,#269,.F.);
#337=ORIENTED_EDGE('',*,*,#270,.F.);
#338=ORIENTED_EDGE('',*,*,#256,.T.);
#339=ORIENTED_EDGE('',*,*,#271,.T.);
#340=ORIENTED_EDGE('',*,*,#272,.T.);
#341=ORIENTED_EDGE('',*,*,#269,.T.);
#342=ORIENTED_EDGE('',*,*,#271,.F.);
#343=ORIENTED_EDGE('',*,*,#255,.F.);
#344=ORIENTED_EDGE('',*,*,#273,.F.);
#345=ORIENTED_EDGE('',*,*,#274,.F.);
#346=ORIENTED_EDGE('',*,*,#275,.T.);
#347=ORIENTED_EDGE('',*,*,#273,.T.);
#348=ORIENTED_EDGE('',*,*,#254,.T.);
#349=ORIENTED_EDGE('',*,*,#276,.T.);
#350=ORIENTED_EDGE('',*,*,#249,.F.);
#351=ORIENTED_EDGE('',*,*,#277,.F.);
#352=ORIENTED_EDGE('',*,*,#276,.F.);
#353=ORIENTED_EDGE('',*,*,#253,.F.);
#354=ORIENTED_EDGE('',*,*,#278,.F.);
#355=ORIENTED_EDGE('',*,*,#279,.F.);
#356=ORIENTED_EDGE('',*,*,#261,.T.);
#357=ORIENTED_EDGE('',*,*,#280,.F.);
#358=ORIENTED_EDGE('',*,*,#280,.T.);
#359=ORIENTED_EDGE('',*,*,#264,.F.);
#360=ORIENTED_EDGE('',*,*,#281,.T.);
#361=ORIENTED_EDGE('',*,*,#282,.F.);
#362=ORIENTED_EDGE('',*,*,#283,.F.);
#363=ORIENTED_EDGE('',*,*,#281,.F.);
#364=ORIENTED_EDGE('',*,*,#263,.T.);
#365=ORIENTED_EDGE('',*,*,#284,.F.);
#366=ORIENTED_EDGE('',*,*,#279,.T.);
#367=ORIENTED_EDGE('',*,*,#285,.F.);
#368=ORIENTED_EDGE('',*,*,#284,.T.);
#369=ORIENTED_EDGE('',*,*,#262,.F.);
#370=ORIENTED_EDGE('',*,*,#286,.F.);
#371=ORIENTED_EDGE('',*,*,#287,.T.);
#372=ORIENTED_EDGE('',*,*,#288,.T.);
#373=ORIENTED_EDGE('',*,*,#287,.F.);
#374=ORIENTED_EDGE('',*,*,#288,.F.);
#375=ORIENTED_EDGE('',*,*,#289,.F.);
#376=ORIENTED_EDGE('',*,*,#290,.F.);
#377=ORIENTED_EDGE('',*,*,#291,.T.);
#378=ORIENTED_EDGE('',*,*,#292,.T.);
#379=ORIENTED_EDGE('',*,*,#291,.F.);
#380=ORIENTED_EDGE('',*,*,#292,.F.);
#381=ORIENTED_EDGE('',*,*,#293,.F.);
#382=ORIENTED_EDGE('',*,*,#294,.F.);
#383=ORIENTED_EDGE('',*,*,#295,.T.);
#384=ORIENTED_EDGE('',*,*,#296,.T.);
#385=ORIENTED_EDGE('',*,*,#295,.F.);
#386=ORIENTED_EDGE('',*,*,#296,.F.);
#387=ORIENTED_EDGE('',*,*,#297,.F.);
#388=ORIENTED_EDGE('',*,*,#298,.F.);
#389=ORIENTED_EDGE('',*,*,#299,.F.);
#390=ORIENTED_EDGE('',*,*,#260,.F.);
#391=ORIENTED_EDGE('',*,*,#300,.T.);
#392=ORIENTED_EDGE('',*,*,#299,.T.);
#393=ORIENTED_EDGE('',*,*,#300,.F.);
#394=ORIENTED_EDGE('',*,*,#266,.F.);
#395=ORIENTED_EDGE('',*,*,#301,.T.);
#396=ORIENTED_EDGE('',*,*,#297,.T.);
#397=ORIENTED_EDGE('',*,*,#301,.F.);
#398=ORIENTED_EDGE('',*,*,#302,.F.);
#399=ORIENTED_EDGE('',*,*,#303,.T.);
#400=ORIENTED_EDGE('',*,*,#298,.T.);
#401=ORIENTED_EDGE('',*,*,#303,.F.);
#402=ORIENTED_EDGE('',*,*,#278,.T.);
#403=ORIENTED_EDGE('',*,*,#282,.T.);
#404=ORIENTED_EDGE('',*,*,#283,.T.);
#405=ORIENTED_EDGE('',*,*,#285,.T.);
#406=ORIENTED_EDGE('',*,*,#248,.F.);
#407=ORIENTED_EDGE('',*,*,#252,.T.);
#408=ORIENTED_EDGE('',*,*,#268,.F.);
#409=ORIENTED_EDGE('',*,*,#270,.T.);
#410=ORIENTED_EDGE('',*,*,#272,.F.);
#411=ORIENTED_EDGE('',*,*,#274,.T.);
#412=ORIENTED_EDGE('',*,*,#275,.F.);
#413=ORIENTED_EDGE('',*,*,#277,.T.);
#414=ORIENTED_EDGE('',*,*,#286,.T.);
#415=ORIENTED_EDGE('',*,*,#290,.T.);
#416=ORIENTED_EDGE('',*,*,#294,.T.);
#417=ORIENTED_EDGE('',*,*,#302,.T.);
#418=ORIENTED_EDGE('',*,*,#265,.F.);
#419=ORIENTED_EDGE('',*,*,#304,.T.);
#420=ORIENTED_EDGE('',*,*,#289,.T.);
#421=ORIENTED_EDGE('',*,*,#304,.F.);
#422=ORIENTED_EDGE('',*,*,#259,.F.);
#423=ORIENTED_EDGE('',*,*,#305,.T.);
#424=ORIENTED_EDGE('',*,*,#293,.T.);
#425=ORIENTED_EDGE('',*,*,#305,.F.);
#426=CYLINDRICAL_SURFACE('',#479,3.);
#427=CYLINDRICAL_SURFACE('',#491,3.);
#428=CYLINDRICAL_SURFACE('',#494,3.);
#429=CYLINDRICAL_SURFACE('',#497,3.);
#430=CYLINDRICAL_SURFACE('',#504,2.);
#431=CYLINDRICAL_SURFACE('',#509,2.);
#432=CYLINDRICAL_SURFACE('',#514,2.);
#433=CYLINDRICAL_SURFACE('',#522,1.115);
#434=CYLINDRICAL_SURFACE('',#523,1.115);
#435=CYLINDRICAL_SURFACE('',#524,2.);
#436=CYLINDRICAL_SURFACE('',#528,1.115);
#437=CYLINDRICAL_SURFACE('',#529,1.115);
#438=ADVANCED_FACE('',(#43),#426,.T.);
#439=ADVANCED_FACE('',(#44),#28,.T.);
#440=ADVANCED_FACE('',(#45,#15,#16,#17,#18,#19),#29,.T.);
#441=ADVANCED_FACE('',(#46),#427,.T.);
#442=ADVANCED_FACE('',(#47),#30,.T.);
#443=ADVANCED_FACE('',(#48),#428,.T.);
#444=ADVANCED_FACE('',(#49),#31,.T.);
#445=ADVANCED_FACE('',(#50),#429,.T.);
#446=ADVANCED_FACE('',(#51),#32,.T.);
#447=ADVANCED_FACE('',(#52),#33,.T.);
#448=ADVANCED_FACE('',(#53),#34,.F.);
#449=ADVANCED_FACE('',(#54),#35,.T.);
#450=ADVANCED_FACE('',(#55),#36,.F.);
#451=ADVANCED_FACE('',(#56),#430,.F.);
#452=ADVANCED_FACE('',(#57,#20),#37,.T.);
#453=ADVANCED_FACE('',(#58),#431,.F.);
#454=ADVANCED_FACE('',(#59,#21),#38,.T.);
#455=ADVANCED_FACE('',(#60),#432,.F.);
#456=ADVANCED_FACE('',(#61,#22),#39,.T.);
#457=ADVANCED_FACE('',(#62,#23),#40,.T.);
#458=ADVANCED_FACE('',(#63),#433,.F.);
#459=ADVANCED_FACE('',(#64),#434,.F.);
#460=ADVANCED_FACE('',(#65),#435,.F.);
#461=ADVANCED_FACE('',(#66),#41,.T.);
#462=ADVANCED_FACE('',(#67,#24,#25,#26,#27),#42,.F.);
#463=ADVANCED_FACE('',(#68),#436,.F.);
#464=ADVANCED_FACE('',(#69),#437,.F.);
#465=CLOSED_SHELL('',(#438,#439,#440,#441,#442,#443,#444,#445,#446,#447,
#448,#449,#450,#451,#452,#453,#454,#455,#456,#457,#458,#459,#460,#461,#462,
#463,#464));
#466=DERIVED_UNIT_ELEMENT(#468,1.);
#467=DERIVED_UNIT_ELEMENT(#803,-3.);
#468=(
MASS_UNIT()
NAMED_UNIT(*)
SI_UNIT(.KILO.,.GRAM.)
);
#469=DERIVED_UNIT((#466,#467));
#470=MEASURE_REPRESENTATION_ITEM('density measure',
POSITIVE_RATIO_MEASURE(952.),#469);
#471=PROPERTY_DEFINITION_REPRESENTATION(#476,#473);
#472=PROPERTY_DEFINITION_REPRESENTATION(#477,#474);
#473=REPRESENTATION('material name',(#475),#800);
#474=REPRESENTATION('density',(#470),#800);
#475=DESCRIPTIVE_REPRESENTATION_ITEM('Plastic, Opaque White',
'Plastic, Opaque White');
#476=PROPERTY_DEFINITION('material property','material name',#810);
#477=PROPERTY_DEFINITION('material property','density of part',#810);
#478=AXIS2_PLACEMENT_3D('',#670,#530,#531);
#479=AXIS2_PLACEMENT_3D('',#671,#532,#533);
#480=AXIS2_PLACEMENT_3D('',#674,#534,#535);
#481=AXIS2_PLACEMENT_3D('',#678,#537,#538);
#482=AXIS2_PLACEMENT_3D('',#680,#540,#541);
#483=AXIS2_PLACEMENT_3D('',#686,#545,#546);
#484=AXIS2_PLACEMENT_3D('',#690,#548,#549);
#485=AXIS2_PLACEMENT_3D('',#694,#551,#552);
#486=AXIS2_PLACEMENT_3D('',#697,#554,#555);
#487=AXIS2_PLACEMENT_3D('',#699,#556,#557);
#488=AXIS2_PLACEMENT_3D('',#701,#558,#559);
#489=AXIS2_PLACEMENT_3D('',#711,#564,#565);
#490=AXIS2_PLACEMENT_3D('',#713,#566,#567);
#491=AXIS2_PLACEMENT_3D('',#714,#568,#569);
#492=AXIS2_PLACEMENT_3D('',#717,#571,#572);
#493=AXIS2_PLACEMENT_3D('',#718,#573,#574);
#494=AXIS2_PLACEMENT_3D('',#722,#577,#578);
#495=AXIS2_PLACEMENT_3D('',#725,#580,#581);
#496=AXIS2_PLACEMENT_3D('',#726,#582,#583);
#497=AXIS2_PLACEMENT_3D('',#730,#586,#587);
#498=AXIS2_PLACEMENT_3D('',#732,#588,#589);
#499=AXIS2_PLACEMENT_3D('',#734,#591,#592);
#500=AXIS2_PLACEMENT_3D('',#736,#594,#595);
#501=AXIS2_PLACEMENT_3D('',#742,#599,#600);
#502=AXIS2_PLACEMENT_3D('',#746,#603,#604);
#503=AXIS2_PLACEMENT_3D('',#750,#607,#608);
#504=AXIS2_PLACEMENT_3D('',#752,#610,#611);
#505=AXIS2_PLACEMENT_3D('',#754,#612,#613);
#506=AXIS2_PLACEMENT_3D('',#757,#615,#616);
#507=AXIS2_PLACEMENT_3D('',#758,#617,#618);
#508=AXIS2_PLACEMENT_3D('',#760,#619,#620);
#509=AXIS2_PLACEMENT_3D('',#761,#621,#622);
#510=AXIS2_PLACEMENT_3D('',#763,#623,#624);
#511=AXIS2_PLACEMENT_3D('',#766,#626,#627);
#512=AXIS2_PLACEMENT_3D('',#767,#628,#629);
#513=AXIS2_PLACEMENT_3D('',#769,#630,#631);
#514=AXIS2_PLACEMENT_3D('',#770,#632,#633);
#515=AXIS2_PLACEMENT_3D('',#772,#634,#635);
#516=AXIS2_PLACEMENT_3D('',#775,#637,#638);
#517=AXIS2_PLACEMENT_3D('',#776,#639,#640);
#518=AXIS2_PLACEMENT_3D('',#778,#641,#642);
#519=AXIS2_PLACEMENT_3D('',#779,#643,#644);
#520=AXIS2_PLACEMENT_3D('',#781,#645,#646);
#521=AXIS2_PLACEMENT_3D('',#783,#647,#648);
#522=AXIS2_PLACEMENT_3D('',#784,#649,#650);
#523=AXIS2_PLACEMENT_3D('',#786,#652,#653);
#524=AXIS2_PLACEMENT_3D('',#788,#655,#656);
#525=AXIS2_PLACEMENT_3D('',#790,#657,#658);
#526=AXIS2_PLACEMENT_3D('',#792,#660,#661);
#527=AXIS2_PLACEMENT_3D('',#793,#662,#663);
#528=AXIS2_PLACEMENT_3D('',#794,#664,#665);
#529=AXIS2_PLACEMENT_3D('',#796,#667,#668);
#530=DIRECTION('axis',(0.,0.,1.));
#531=DIRECTION('refdir',(1.,0.,0.));
#532=DIRECTION('center_axis',(0.,0.,1.));
#533=DIRECTION('ref_axis',(0.707106781186549,0.707106781186546,0.));
#534=DIRECTION('center_axis',(0.,0.,-1.));
#535=DIRECTION('ref_axis',(0.707106781186549,0.707106781186546,0.));
#536=DIRECTION('',(0.,0.,-1.));
#537=DIRECTION('center_axis',(0.,0.,1.));
#538=DIRECTION('ref_axis',(0.707106781186549,0.707106781186546,0.));
#539=DIRECTION('',(0.,0.,1.));
#540=DIRECTION('center_axis',(1.,5.41572207134237E-17,0.));
#541=DIRECTION('ref_axis',(5.41572207134237E-17,-1.,0.));
#542=DIRECTION('',(-5.41572207134237E-17,1.,0.));
#543=DIRECTION('',(0.,0.,1.));
#544=DIRECTION('',(5.41572207134237E-17,-1.,0.));
#545=DIRECTION('center_axis',(0.,0.,1.));
#546=DIRECTION('ref_axis',(1.,0.,0.));
#547=DIRECTION('',(-1.,0.,0.));
#548=DIRECTION('center_axis',(0.,0.,-1.));
#549=DIRECTION('ref_axis',(-0.707106781186547,0.707106781186547,0.));
#550=DIRECTION('',(-6.49886648561084E-16,-1.,0.));
#551=DIRECTION('center_axis',(0.,0.,-1.));
#552=DIRECTION('ref_axis',(-0.707106781186547,-0.707106781186547,0.));
#553=DIRECTION('',(1.,0.,0.));
#554=DIRECTION('center_axis',(0.,0.,-1.));
#555=DIRECTION('ref_axis',(0.707106781186547,-0.707106781186547,0.));
#556=DIRECTION('center_axis',(0.,0.,-1.));
#557=DIRECTION('ref_axis',(1.,0.,0.));
#558=DIRECTION('center_axis',(0.,0.,-1.));
#559=DIRECTION('ref_axis',(1.,0.,0.));
#560=DIRECTION('',(0.,1.,0.));
#561=DIRECTION('',(-1.,0.,0.));
#562=DIRECTION('',(0.,-1.,0.));
#563=DIRECTION('',(1.,0.,0.));
#564=DIRECTION('center_axis',(0.,0.,-1.));
#565=DIRECTION('ref_axis',(1.,0.,0.));
#566=DIRECTION('center_axis',(0.,0.,-1.));
#567=DIRECTION('ref_axis',(1.,0.,0.));
#568=DIRECTION('center_axis',(0.,0.,1.));
#569=DIRECTION('ref_axis',(0.707106781186547,-0.707106781186547,0.));
#570=DIRECTION('',(0.,0.,-1.));
#571=DIRECTION('center_axis',(0.,0.,1.));
#572=DIRECTION('ref_axis',(0.707106781186547,-0.707106781186547,0.));
#573=DIRECTION('center_axis',(0.,-1.,0.));
#574=DIRECTION('ref_axis',(-1.,0.,0.));
#575=DIRECTION('',(0.,0.,1.));
#576=DIRECTION('',(-1.,0.,0.));
#577=DIRECTION('center_axis',(0.,0.,1.));
#578=DIRECTION('ref_axis',(-0.707106781186547,-0.707106781186547,0.));
#579=DIRECTION('',(0.,0.,-1.));
#580=DIRECTION('center_axis',(0.,0.,1.));
#581=DIRECTION('ref_axis',(-0.707106781186547,-0.707106781186547,0.));
#582=DIRECTION('center_axis',(-1.,6.49886648561084E-16,0.));
#583=DIRECTION('ref_axis',(6.49886648561084E-16,1.,0.));
#584=DIRECTION('',(0.,0.,1.));
#585=DIRECTION('',(6.49886648561084E-16,1.,0.));
#586=DIRECTION('center_axis',(0.,0.,-1.));
#587=DIRECTION('ref_axis',(-0.707106781186547,0.707106781186547,0.));
#588=DIRECTION('center_axis',(0.,0.,1.));
#589=DIRECTION('ref_axis',(-0.707106781186547,0.707106781186547,0.));
#590=DIRECTION('',(0.,0.,-1.));
#591=DIRECTION('center_axis',(0.,1.,0.));
#592=DIRECTION('ref_axis',(1.,0.,0.));
#593=DIRECTION('',(1.,0.,0.));
#594=DIRECTION('center_axis',(-1.,0.,0.));
#595=DIRECTION('ref_axis',(0.,0.,1.));
#596=DIRECTION('',(0.,1.,0.));
#597=DIRECTION('',(0.,0.,-1.));
#598=DIRECTION('',(0.,0.,1.));
#599=DIRECTION('center_axis',(0.,1.,0.));
#600=DIRECTION('ref_axis',(0.,0.,1.));
#601=DIRECTION('',(0.,0.,-1.));
#602=DIRECTION('',(-1.,0.,0.));
#603=DIRECTION('center_axis',(1.,0.,0.));
#604=DIRECTION('ref_axis',(0.,0.,-1.));
#605=DIRECTION('',(0.,-1.,0.));
#606=DIRECTION('',(0.,0.,1.));
#607=DIRECTION('center_axis',(0.,-1.,0.));
#608=DIRECTION('ref_axis',(0.,0.,-1.));
#609=DIRECTION('',(1.,0.,0.));
#610=DIRECTION('center_axis',(0.,0.,1.));
#611=DIRECTION('ref_axis',(1.,0.,0.));
#612=DIRECTION('center_axis',(0.,0.,1.));
#613=DIRECTION('ref_axis',(1.,0.,0.));
#614=DIRECTION('',(0.,0.,1.));
#615=DIRECTION('center_axis',(0.,0.,1.));
#616=DIRECTION('ref_axis',(1.,0.,0.));
#617=DIRECTION('center_axis',(0.,0.,-1.));
#618=DIRECTION('ref_axis',(1.,0.,0.));
#619=DIRECTION('center_axis',(0.,0.,-1.));
#620=DIRECTION('ref_axis',(1.,0.,0.));
#621=DIRECTION('center_axis',(0.,0.,1.));
#622=DIRECTION('ref_axis',(1.,0.,0.));
#623=DIRECTION('center_axis',(0.,0.,1.));
#624=DIRECTION('ref_axis',(1.,0.,0.));
#625=DIRECTION('',(0.,0.,1.));
#626=DIRECTION('center_axis',(0.,0.,1.));
#627=DIRECTION('ref_axis',(1.,0.,0.));
#628=DIRECTION('center_axis',(0.,0.,-1.));
#629=DIRECTION('ref_axis',(1.,0.,0.));
#630=DIRECTION('center_axis',(0.,0.,-1.));
#631=DIRECTION('ref_axis',(1.,0.,0.));
#632=DIRECTION('center_axis',(0.,0.,1.));
#633=DIRECTION('ref_axis',(1.,0.,0.));
#634=DIRECTION('center_axis',(0.,0.,1.));
#635=DIRECTION('ref_axis',(1.,0.,0.));
#636=DIRECTION('',(0.,0.,1.));
#637=DIRECTION('center_axis',(0.,0.,1.));
#638=DIRECTION('ref_axis',(1.,0.,0.));
#639=DIRECTION('center_axis',(0.,0.,-1.));
#640=DIRECTION('ref_axis',(1.,0.,0.));
#641=DIRECTION('center_axis',(0.,0.,-1.));
#642=DIRECTION('ref_axis',(1.,0.,0.));
#643=DIRECTION('center_axis',(0.,0.,-1.));
#644=DIRECTION('ref_axis',(1.,0.,0.));
#645=DIRECTION('center_axis',(0.,0.,1.));
#646=DIRECTION('ref_axis',(1.,0.,0.));
#647=DIRECTION('center_axis',(0.,0.,-1.));
#648=DIRECTION('ref_axis',(1.,0.,0.));
#649=DIRECTION('center_axis',(0.,0.,1.));
#650=DIRECTION('ref_axis',(1.,0.,0.));
#651=DIRECTION('',(0.,0.,-1.));
#652=DIRECTION('center_axis',(0.,0.,1.));
#653=DIRECTION('ref_axis',(1.,0.,0.));
#654=DIRECTION('',(0.,0.,-1.));
#655=DIRECTION('center_axis',(0.,0.,-1.));
#656=DIRECTION('ref_axis',(1.,0.,0.));
#657=DIRECTION('center_axis',(0.,0.,1.));
#658=DIRECTION('ref_axis',(1.,0.,0.));
#659=DIRECTION('',(0.,0.,1.));
#660=DIRECTION('center_axis',(0.,0.,1.));
#661=DIRECTION('ref_axis',(1.,0.,0.));
#662=DIRECTION('center_axis',(0.,0.,1.));
#663=DIRECTION('ref_axis',(1.,0.,0.));
#664=DIRECTION('center_axis',(0.,0.,1.));
#665=DIRECTION('ref_axis',(1.,0.,0.));
#666=DIRECTION('',(0.,0.,-1.));
#667=DIRECTION('center_axis',(0.,0.,1.));
#668=DIRECTION('ref_axis',(1.,0.,0.));
#669=DIRECTION('',(0.,0.,-1.));
#670=CARTESIAN_POINT('',(0.,0.,0.));
#671=CARTESIAN_POINT('Origin',(24.,37.9999999999995,0.));
#672=CARTESIAN_POINT('',(24.,40.9999999999995,20.));
#673=CARTESIAN_POINT('',(27.,37.9999999999995,20.));
#674=CARTESIAN_POINT('Origin',(24.,37.9999999999995,20.));
#675=CARTESIAN_POINT('',(27.,37.9999999999995,-5.));
#676=CARTESIAN_POINT('',(27.,37.9999999999995,0.));
#677=CARTESIAN_POINT('',(24.,40.9999999999995,-5.));
#678=CARTESIAN_POINT('Origin',(24.,37.9999999999995,-5.));
#679=CARTESIAN_POINT('',(24.,40.9999999999995,0.));
#680=CARTESIAN_POINT('Origin',(27.,40.9999999999995,0.));
#681=CARTESIAN_POINT('',(27.,-37.9999999999984,20.));
#682=CARTESIAN_POINT('',(27.,40.9999999999995,20.));
#683=CARTESIAN_POINT('',(27.,-37.9999999999984,-5.));
#684=CARTESIAN_POINT('',(27.,-37.9999999999984,0.));
#685=CARTESIAN_POINT('',(27.,40.9999999999995,-5.));
#686=CARTESIAN_POINT('Origin',(24.1715728752505,-38.1715728752555,20.));
#687=CARTESIAN_POINT('',(-24.,40.9999999999995,20.));
#688=CARTESIAN_POINT('',(-27.,40.9999999999995,20.));
#689=CARTESIAN_POINT('',(-27.,37.9999999999995,20.));
#690=CARTESIAN_POINT('Origin',(-24.,37.9999999999995,20.));
#691=CARTESIAN_POINT('',(-27.,-37.9999999999984,20.));
#692=CARTESIAN_POINT('',(-27.,-40.9999999999984,20.));
#693=CARTESIAN_POINT('',(-24.,-40.9999999999984,20.));
#694=CARTESIAN_POINT('Origin',(-24.,-37.9999999999984,20.));
#695=CARTESIAN_POINT('',(24.,-40.9999999999984,20.));
#696=CARTESIAN_POINT('',(27.,-40.9999999999984,20.));
#697=CARTESIAN_POINT('Origin',(24.,-37.9999999999984,20.));
#698=CARTESIAN_POINT('',(23.0565728752503,-38.1715728752548,20.));
#699=CARTESIAN_POINT('Origin',(24.1715728752503,-38.1715728752548,20.));
#700=CARTESIAN_POINT('',(-25.2865728752538,-38.1715728752522,20.));
#701=CARTESIAN_POINT('Origin',(-24.1715728752538,-38.1715728752522,20.));
#702=CARTESIAN_POINT('',(19.,-36.,20.));
#703=CARTESIAN_POINT('',(19.,36.,20.));
#704=CARTESIAN_POINT('',(19.,-2.08578643762772,20.));
#705=CARTESIAN_POINT('',(-19.,-36.,20.));
#706=CARTESIAN_POINT('',(22.0857864376252,-36.,20.));
#707=CARTESIAN_POINT('',(-19.,36.,20.));
#708=CARTESIAN_POINT('',(-19.,-36.0857864376277,20.));
#709=CARTESIAN_POINT('',(2.08578643762524,36.,20.));
#710=CARTESIAN_POINT('',(23.0565728752518,38.1715728752559,20.));
#711=CARTESIAN_POINT('Origin',(24.1715728752518,38.1715728752559,20.));
#712=CARTESIAN_POINT('',(-25.2865728752558,38.1715728752507,20.));
#713=CARTESIAN_POINT('Origin',(-24.1715728752558,38.1715728752507,20.));
#714=CARTESIAN_POINT('Origin',(24.,-37.9999999999984,0.));
#715=CARTESIAN_POINT('',(24.,-40.9999999999984,-5.));
#716=CARTESIAN_POINT('',(24.,-40.9999999999984,0.));
#717=CARTESIAN_POINT('Origin',(24.,-37.9999999999984,-5.));
#718=CARTESIAN_POINT('Origin',(27.,-40.9999999999984,0.));
#719=CARTESIAN_POINT('',(-24.,-40.9999999999984,-5.));
#720=CARTESIAN_POINT('',(-24.,-40.9999999999984,0.));
#721=CARTESIAN_POINT('',(27.,-40.9999999999984,-5.));
#722=CARTESIAN_POINT('Origin',(-24.,-37.9999999999984,0.));
#723=CARTESIAN_POINT('',(-27.,-37.9999999999984,-5.));
#724=CARTESIAN_POINT('',(-27.,-37.9999999999984,0.));
#725=CARTESIAN_POINT('Origin',(-24.,-37.9999999999984,-5.));
#726=CARTESIAN_POINT('Origin',(-27.,-40.9999999999984,0.));
#727=CARTESIAN_POINT('',(-27.,37.9999999999995,-5.));
#728=CARTESIAN_POINT('',(-27.,37.9999999999995,0.));
#729=CARTESIAN_POINT('',(-27.,-40.9999999999984,-5.));
#730=CARTESIAN_POINT('Origin',(-24.,37.9999999999995,0.));
#731=CARTESIAN_POINT('',(-24.,40.9999999999995,-5.));
#732=CARTESIAN_POINT('Origin',(-24.,37.9999999999995,-5.));
#733=CARTESIAN_POINT('',(-24.,40.9999999999995,0.));
#734=CARTESIAN_POINT('Origin',(-27.,40.9999999999995,0.));
#735=CARTESIAN_POINT('',(-27.,40.9999999999995,-5.));
#736=CARTESIAN_POINT('Origin',(19.,34.,0.));
#737=CARTESIAN_POINT('',(19.,-36.,0.));
#738=CARTESIAN_POINT('',(19.,36.,0.));
#739=CARTESIAN_POINT('',(19.,17.0000000000003,0.));
#740=CARTESIAN_POINT('',(19.,-36.,0.));
#741=CARTESIAN_POINT('',(19.,36.,0.));
#742=CARTESIAN_POINT('Origin',(-20.,36.,0.));
#743=CARTESIAN_POINT('',(-19.,36.,0.));
#744=CARTESIAN_POINT('',(-19.,36.,0.));
#745=CARTESIAN_POINT('',(-10.,36.,0.));
#746=CARTESIAN_POINT('Origin',(-19.,-34.,0.));
#747=CARTESIAN_POINT('',(-19.,-36.,0.));
#748=CARTESIAN_POINT('',(-19.,-16.9999999999997,0.));
#749=CARTESIAN_POINT('',(-19.,-36.,0.));
#750=CARTESIAN_POINT('Origin',(20.,-36.,0.));
#751=CARTESIAN_POINT('',(10.,-36.,0.));
#752=CARTESIAN_POINT('Origin',(24.1715728752518,38.1715728752559,-5.));
#753=CARTESIAN_POINT('',(22.1715728752518,38.1715728752559,-5.));
#754=CARTESIAN_POINT('Origin',(24.1715728752518,38.1715728752559,-5.));
#755=CARTESIAN_POINT('',(22.1715728752518,38.1715728752559,15.));
#756=CARTESIAN_POINT('',(22.1715728752518,38.1715728752559,-5.));
#757=CARTESIAN_POINT('Origin',(24.1715728752518,38.1715728752559,15.));
#758=CARTESIAN_POINT('Origin',(24.1715728752518,38.1715728752559,15.));
#759=CARTESIAN_POINT('',(23.0565728752518,38.1715728752559,15.));
#760=CARTESIAN_POINT('Origin',(24.1715728752518,38.1715728752559,15.));
#761=CARTESIAN_POINT('Origin',(24.1715728752503,-38.1715728752548,-5.));
#762=CARTESIAN_POINT('',(22.1715728752503,-38.1715728752548,-5.));
#763=CARTESIAN_POINT('Origin',(24.1715728752503,-38.1715728752548,-5.));
#764=CARTESIAN_POINT('',(22.1715728752503,-38.1715728752548,15.));
#765=CARTESIAN_POINT('',(22.1715728752503,-38.1715728752548,-5.));
#766=CARTESIAN_POINT('Origin',(24.1715728752503,-38.1715728752548,15.));
#767=CARTESIAN_POINT('Origin',(24.1715728752503,-38.1715728752548,15.));
#768=CARTESIAN_POINT('',(23.0565728752503,-38.1715728752548,15.));
#769=CARTESIAN_POINT('Origin',(24.1715728752503,-38.1715728752548,15.));
#770=CARTESIAN_POINT('Origin',(-24.1715728752558,38.1715728752507,-5.));
#771=CARTESIAN_POINT('',(-26.1715728752558,38.1715728752507,-5.));
#772=CARTESIAN_POINT('Origin',(-24.1715728752558,38.1715728752507,-5.));
#773=CARTESIAN_POINT('',(-26.1715728752558,38.1715728752507,15.));
#774=CARTESIAN_POINT('',(-26.1715728752558,38.1715728752507,-5.));
#775=CARTESIAN_POINT('Origin',(-24.1715728752558,38.1715728752507,15.));
#776=CARTESIAN_POINT('Origin',(-24.1715728752558,38.1715728752507,15.));
#777=CARTESIAN_POINT('',(-25.2865728752558,38.1715728752507,15.));
#778=CARTESIAN_POINT('Origin',(-24.1715728752558,38.1715728752507,15.));
#779=CARTESIAN_POINT('Origin',(-24.1715728752538,-38.1715728752522,15.));
#780=CARTESIAN_POINT('',(-26.1715728752538,-38.1715728752522,15.));
#781=CARTESIAN_POINT('Origin',(-24.1715728752538,-38.1715728752522,15.));
#782=CARTESIAN_POINT('',(-25.2865728752538,-38.1715728752522,15.));
#783=CARTESIAN_POINT('Origin',(-24.1715728752538,-38.1715728752522,15.));
#784=CARTESIAN_POINT('Origin',(-24.1715728752538,-38.1715728752522,0.));
#785=CARTESIAN_POINT('',(-25.2865728752538,-38.1715728752522,0.));
#786=CARTESIAN_POINT('Origin',(-24.1715728752558,38.1715728752507,0.));
#787=CARTESIAN_POINT('',(-25.2865728752558,38.1715728752507,0.));
#788=CARTESIAN_POINT('Origin',(-24.1715728752538,-38.1715728752522,0.));
#789=CARTESIAN_POINT('',(-26.1715728752538,-38.1715728752522,-5.));
#790=CARTESIAN_POINT('Origin',(-24.1715728752538,-38.1715728752522,-5.));
#791=CARTESIAN_POINT('',(-26.1715728752538,-38.1715728752522,0.));
#792=CARTESIAN_POINT('Origin',(-4.44089209850063E-15,5.32907051820075E-13,
0.));
#793=CARTESIAN_POINT('Origin',(-4.44089209850063E-15,5.32907051820075E-13,
-5.));
#794=CARTESIAN_POINT('Origin',(24.1715728752518,38.1715728752559,0.));
#795=CARTESIAN_POINT('',(23.0565728752518,38.1715728752559,0.));
#796=CARTESIAN_POINT('Origin',(24.1715728752503,-38.1715728752548,0.));
#797=CARTESIAN_POINT('',(23.0565728752503,-38.1715728752548,0.));
#798=UNCERTAINTY_MEASURE_WITH_UNIT(LENGTH_MEASURE(0.01),#802,
'DISTANCE_ACCURACY_VALUE',
'Maximum model space distance between geometric entities at asserted c
onnectivities');
#799=UNCERTAINTY_MEASURE_WITH_UNIT(LENGTH_MEASURE(0.01),#802,
'DISTANCE_ACCURACY_VALUE',
'Maximum model space distance between geometric entities at asserted c
onnectivities');
#800=(
GEOMETRIC_REPRESENTATION_CONTEXT(3)
GLOBAL_UNCERTAINTY_ASSIGNED_CONTEXT((#798))
GLOBAL_UNIT_ASSIGNED_CONTEXT((#802,#804,#805))
REPRESENTATION_CONTEXT('','3D')
);
#801=(
GEOMETRIC_REPRESENTATION_CONTEXT(3)
GLOBAL_UNCERTAINTY_ASSIGNED_CONTEXT((#799))
GLOBAL_UNIT_ASSIGNED_CONTEXT((#802,#804,#805))
REPRESENTATION_CONTEXT('','3D')
);
#802=(
LENGTH_UNIT()
NAMED_UNIT(*)
SI_UNIT(.MILLI.,.METRE.)
);
#803=(
LENGTH_UNIT()
NAMED_UNIT(*)
SI_UNIT($,.METRE.)
);
#804=(
NAMED_UNIT(*)
PLANE_ANGLE_UNIT()
SI_UNIT($,.RADIAN.)
);
#805=(
NAMED_UNIT(*)
SI_UNIT($,.STERADIAN.)
SOLID_ANGLE_UNIT()
);
#806=SHAPE_DEFINITION_REPRESENTATION(#807,#808);
#807=PRODUCT_DEFINITION_SHAPE('',$,#810);
#808=SHAPE_REPRESENTATION('',(#478),#800);
#809=PRODUCT_DEFINITION_CONTEXT('part definition',#814,'design');
#810=PRODUCT_DEFINITION('BATTERY HOLDER V1','BATTERY HOLDER V1 v19',#811,
#809);
#811=PRODUCT_DEFINITION_FORMATION('',$,#816);
#812=PRODUCT_RELATED_PRODUCT_CATEGORY('BATTERY HOLDER V1 v19',
'BATTERY HOLDER V1 v19',(#816));
#813=APPLICATION_PROTOCOL_DEFINITION('international standard',
'automotive_design',2009,#814);
#814=APPLICATION_CONTEXT(
'Core Data for Automotive Mechanical Design Process');
#815=PRODUCT_CONTEXT('part definition',#814,'mechanical');
#816=PRODUCT('BATTERY HOLDER V1','BATTERY HOLDER V1 v19',$,(#815));
#817=PRESENTATION_STYLE_ASSIGNMENT((#818));
#818=SURFACE_STYLE_USAGE(.BOTH.,#819);
#819=SURFACE_SIDE_STYLE('',(#820));
#820=SURFACE_STYLE_FILL_AREA(#821);
#821=FILL_AREA_STYLE('Plastic - Matte (White)',(#822));
#822=FILL_AREA_STYLE_COLOUR('Plastic - Matte (White)',#823);
#823=COLOUR_RGB('Plastic - Matte (White)',0.964705882352941,0.964705882352941,
0.952941176470588);
ENDSEC;
END-ISO-10303-21;
