ISO-10303-21;
HEADER;
/* Generated by software containing ST-Developer
 * from STEP Tools, Inc. (www.steptools.com) 
 */

FILE_DESCRIPTION(
/* description */ (''),
/* implementation_level */ '2;1');

FILE_NAME(
/* name */ 'Peekabot 3d design part 1 v1 v15.step',
/* time_stamp */ '2026-04-13T20:46:25+05:30',
/* author */ (''),
/* organization */ (''),
/* preprocessor_version */ 'ST-DEVELOPER v20.1',
/* originating_system */ 'Autodesk Translation Framework v14.24.0.0',
/* authorisation */ '');

FILE_SCHEMA (('AUTOMOTIVE_DESIGN { 1 0 10303 214 3 1 1 }'));
ENDSEC;

DATA;
#10=MECHANICAL_DESIGN_GEOMETRIC_PRESENTATION_REPRESENTATION('',(#13),#1273);
#11=SHAPE_REPRESENTATION_RELATIONSHIP('SRR','None',#1280,#12);
#12=ADVANCED_BREP_SHAPE_REPRESENTATION('',(#14),#1272);
#13=STYLED_ITEM('',(#1289),#14);
#14=MANIFOLD_SOLID_BREP('Body1',#741);
#15=FACE_BOUND('',#243,.T.);
#16=FACE_BOUND('',#244,.T.);
#17=FACE_BOUND('',#245,.T.);
#18=FACE_BOUND('',#246,.T.);
#19=FACE_BOUND('',#247,.T.);
#20=FACE_BOUND('',#248,.T.);
#21=FACE_BOUND('',#249,.T.);
#22=FACE_BOUND('',#250,.T.);
#23=FACE_BOUND('',#259,.T.);
#24=FACE_BOUND('',#260,.T.);
#25=FACE_BOUND('',#266,.T.);
#26=FACE_BOUND('',#267,.T.);
#27=FACE_BOUND('',#268,.T.);
#28=FACE_BOUND('',#269,.T.);
#29=FACE_BOUND('',#270,.T.);
#30=FACE_BOUND('',#272,.T.);
#31=FACE_BOUND('',#273,.T.);
#32=FACE_BOUND('',#294,.T.);
#33=FACE_BOUND('',#295,.T.);
#34=FACE_BOUND('',#296,.T.);
#35=FACE_BOUND('',#297,.T.);
#36=PLANE('',#763);
#37=PLANE('',#764);
#38=PLANE('',#782);
#39=PLANE('',#789);
#40=PLANE('',#795);
#41=PLANE('',#796);
#42=PLANE('',#801);
#43=PLANE('',#802);
#44=PLANE('',#803);
#45=PLANE('',#804);
#46=PLANE('',#805);
#47=PLANE('',#806);
#48=PLANE('',#807);
#49=PLANE('',#808);
#50=PLANE('',#813);
#51=PLANE('',#814);
#52=PLANE('',#815);
#53=PLANE('',#816);
#54=PLANE('',#825);
#55=LINE('',#1056,#119);
#56=LINE('',#1057,#120);
#57=LINE('',#1060,#121);
#58=LINE('',#1063,#122);
#59=LINE('',#1066,#123);
#60=LINE('',#1067,#124);
#61=LINE('',#1070,#125);
#62=LINE('',#1074,#126);
#63=LINE('',#1078,#127);
#64=LINE('',#1111,#128);
#65=LINE('',#1114,#129);
#66=LINE('',#1117,#130);
#67=LINE('',#1119,#131);
#68=LINE('',#1135,#132);
#69=LINE('',#1138,#133);
#70=LINE('',#1141,#134);
#71=LINE('',#1143,#135);
#72=LINE('',#1146,#136);
#73=LINE('',#1148,#137);
#74=LINE('',#1150,#138);
#75=LINE('',#1151,#139);
#76=LINE('',#1154,#140);
#77=LINE('',#1156,#141);
#78=LINE('',#1158,#142);
#79=LINE('',#1159,#143);
#80=LINE('',#1175,#144);
#81=LINE('',#1177,#145);
#82=LINE('',#1178,#146);
#83=LINE('',#1191,#147);
#84=LINE('',#1193,#148);
#85=LINE('',#1195,#149);
#86=LINE('',#1196,#150);
#87=LINE('',#1200,#151);
#88=LINE('',#1201,#152);
#89=LINE('',#1202,#153);
#90=LINE('',#1205,#154);
#91=LINE('',#1207,#155);
#92=LINE('',#1209,#156);
#93=LINE('',#1210,#157);
#94=LINE('',#1213,#158);
#95=LINE('',#1215,#159);
#96=LINE('',#1217,#160);
#97=LINE('',#1218,#161);
#98=LINE('',#1220,#162);
#99=LINE('',#1221,#163);
#100=LINE('',#1223,#164);
#101=LINE('',#1225,#165);
#102=LINE('',#1226,#166);
#103=LINE('',#1228,#167);
#104=LINE('',#1231,#168);
#105=LINE('',#1232,#169);
#106=LINE('',#1235,#170);
#107=LINE('',#1236,#171);
#108=LINE('',#1238,#172);
#109=LINE('',#1240,#173);
#110=LINE('',#1242,#174);
#111=LINE('',#1244,#175);
#112=LINE('',#1246,#176);
#113=LINE('',#1248,#177);
#114=LINE('',#1250,#178);
#115=LINE('',#1256,#179);
#116=LINE('',#1260,#180);
#117=LINE('',#1264,#181);
#118=LINE('',#1268,#182);
#119=VECTOR('',#840,10.);
#120=VECTOR('',#841,10.);
#121=VECTOR('',#844,10.);
#122=VECTOR('',#847,10.);
#123=VECTOR('',#850,10.);
#124=VECTOR('',#851,10.);
#125=VECTOR('',#854,10.);
#126=VECTOR('',#857,10.);
#127=VECTOR('',#860,10.);
#128=VECTOR('',#887,10.);
#129=VECTOR('',#890,10.);
#130=VECTOR('',#893,10.);
#131=VECTOR('',#896,10.);
#132=VECTOR('',#905,10.);
#133=VECTOR('',#908,10.);
#134=VECTOR('',#911,10.);
#135=VECTOR('',#914,10.);
#136=VECTOR('',#915,10.);
#137=VECTOR('',#916,10.);
#138=VECTOR('',#917,10.);
#139=VECTOR('',#918,10.);
#140=VECTOR('',#919,10.);
#141=VECTOR('',#920,10.);
#142=VECTOR('',#921,10.);
#143=VECTOR('',#922,10.);
#144=VECTOR('',#931,10.);
#145=VECTOR('',#934,10.);
#146=VECTOR('',#935,10.);
#147=VECTOR('',#948,10.);
#148=VECTOR('',#949,10.);
#149=VECTOR('',#950,10.);
#150=VECTOR('',#951,10.);
#151=VECTOR('',#954,10.);
#152=VECTOR('',#955,10.);
#153=VECTOR('',#956,10.);
#154=VECTOR('',#957,10.);
#155=VECTOR('',#958,10.);
#156=VECTOR('',#959,10.);
#157=VECTOR('',#960,10.);
#158=VECTOR('',#961,10.);
#159=VECTOR('',#962,10.);
#160=VECTOR('',#963,10.);
#161=VECTOR('',#964,10.);
#162=VECTOR('',#967,10.);
#163=VECTOR('',#968,10.);
#164=VECTOR('',#971,10.);
#165=VECTOR('',#974,10.);
#166=VECTOR('',#975,10.);
#167=VECTOR('',#978,10.);
#168=VECTOR('',#981,10.);
#169=VECTOR('',#982,10.);
#170=VECTOR('',#985,10.);
#171=VECTOR('',#986,10.);
#172=VECTOR('',#989,10.);
#173=VECTOR('',#992,1.115);
#174=VECTOR('',#995,1.115);
#175=VECTOR('',#998,1.115);
#176=VECTOR('',#1001,1.115);
#177=VECTOR('',#1004,10.);
#178=VECTOR('',#1007,10.);
#179=VECTOR('',#1016,1.115);
#180=VECTOR('',#1021,1.1);
#181=VECTOR('',#1026,1.115);
#182=VECTOR('',#1031,1.115);
#183=CYLINDRICAL_SURFACE('',#759,4.);
#184=CYLINDRICAL_SURFACE('',#761,2.);
#185=CYLINDRICAL_SURFACE('',#779,4.);
#186=CYLINDRICAL_SURFACE('',#780,2.);
#187=CYLINDRICAL_SURFACE('',#786,4.);
#188=CYLINDRICAL_SURFACE('',#787,2.);
#189=CYLINDRICAL_SURFACE('',#793,4.);
#190=CYLINDRICAL_SURFACE('',#794,2.);
#191=CYLINDRICAL_SURFACE('',#809,1.115);
#192=CYLINDRICAL_SURFACE('',#810,1.115);
#193=CYLINDRICAL_SURFACE('',#811,1.115);
#194=CYLINDRICAL_SURFACE('',#812,1.115);
#195=CYLINDRICAL_SURFACE('',#817,1.115);
#196=CYLINDRICAL_SURFACE('',#819,1.1);
#197=CYLINDRICAL_SURFACE('',#821,1.115);
#198=CYLINDRICAL_SURFACE('',#823,1.115);
#199=FACE_OUTER_BOUND('',#238,.T.);
#200=FACE_OUTER_BOUND('',#239,.T.);
#201=FACE_OUTER_BOUND('',#240,.T.);
#202=FACE_OUTER_BOUND('',#241,.T.);
#203=FACE_OUTER_BOUND('',#242,.T.);
#204=FACE_OUTER_BOUND('',#251,.T.);
#205=FACE_OUTER_BOUND('',#252,.T.);
#206=FACE_OUTER_BOUND('',#253,.T.);
#207=FACE_OUTER_BOUND('',#254,.T.);
#208=FACE_OUTER_BOUND('',#255,.T.);
#209=FACE_OUTER_BOUND('',#256,.T.);
#210=FACE_OUTER_BOUND('',#257,.T.);
#211=FACE_OUTER_BOUND('',#258,.T.);
#212=FACE_OUTER_BOUND('',#261,.T.);
#213=FACE_OUTER_BOUND('',#262,.T.);
#214=FACE_OUTER_BOUND('',#263,.T.);
#215=FACE_OUTER_BOUND('',#264,.T.);
#216=FACE_OUTER_BOUND('',#265,.T.);
#217=FACE_OUTER_BOUND('',#271,.T.);
#218=FACE_OUTER_BOUND('',#274,.T.);
#219=FACE_OUTER_BOUND('',#275,.T.);
#220=FACE_OUTER_BOUND('',#276,.T.);
#221=FACE_OUTER_BOUND('',#277,.T.);
#222=FACE_OUTER_BOUND('',#278,.T.);
#223=FACE_OUTER_BOUND('',#279,.T.);
#224=FACE_OUTER_BOUND('',#280,.T.);
#225=FACE_OUTER_BOUND('',#281,.T.);
#226=FACE_OUTER_BOUND('',#282,.T.);
#227=FACE_OUTER_BOUND('',#283,.T.);
#228=FACE_OUTER_BOUND('',#284,.T.);
#229=FACE_OUTER_BOUND('',#285,.T.);
#230=FACE_OUTER_BOUND('',#286,.T.);
#231=FACE_OUTER_BOUND('',#287,.T.);
#232=FACE_OUTER_BOUND('',#288,.T.);
#233=FACE_OUTER_BOUND('',#289,.T.);
#234=FACE_OUTER_BOUND('',#290,.T.);
#235=FACE_OUTER_BOUND('',#291,.T.);
#236=FACE_OUTER_BOUND('',#292,.T.);
#237=FACE_OUTER_BOUND('',#293,.T.);
#238=EDGE_LOOP('',(#498,#499,#500,#501));
#239=EDGE_LOOP('',(#502,#503,#504,#505));
#240=EDGE_LOOP('',(#506,#507,#508,#509));
#241=EDGE_LOOP('',(#510,#511,#512,#513));
#242=EDGE_LOOP('',(#514,#515,#516,#517,#518,#519,#520,#521));
#243=EDGE_LOOP('',(#522));
#244=EDGE_LOOP('',(#523));
#245=EDGE_LOOP('',(#524));
#246=EDGE_LOOP('',(#525));
#247=EDGE_LOOP('',(#526));
#248=EDGE_LOOP('',(#527));
#249=EDGE_LOOP('',(#528));
#250=EDGE_LOOP('',(#529));
#251=EDGE_LOOP('',(#530,#531,#532,#533));
#252=EDGE_LOOP('',(#534,#535,#536,#537));
#253=EDGE_LOOP('',(#538,#539,#540,#541));
#254=EDGE_LOOP('',(#542,#543,#544,#545));
#255=EDGE_LOOP('',(#546,#547,#548,#549));
#256=EDGE_LOOP('',(#550,#551,#552,#553));
#257=EDGE_LOOP('',(#554,#555,#556,#557));
#258=EDGE_LOOP('',(#558,#559,#560,#561));
#259=EDGE_LOOP('',(#562,#563,#564,#565));
#260=EDGE_LOOP('',(#566,#567,#568,#569));
#261=EDGE_LOOP('',(#570,#571,#572,#573));
#262=EDGE_LOOP('',(#574,#575,#576,#577));
#263=EDGE_LOOP('',(#578,#579,#580,#581));
#264=EDGE_LOOP('',(#582,#583,#584,#585));
#265=EDGE_LOOP('',(#586,#587,#588,#589,#590,#591,#592,#593));
#266=EDGE_LOOP('',(#594));
#267=EDGE_LOOP('',(#595));
#268=EDGE_LOOP('',(#596));
#269=EDGE_LOOP('',(#597));
#270=EDGE_LOOP('',(#598,#599,#600,#601));
#271=EDGE_LOOP('',(#602,#603,#604,#605));
#272=EDGE_LOOP('',(#606,#607,#608,#609));
#273=EDGE_LOOP('',(#610,#611,#612,#613));
#274=EDGE_LOOP('',(#614,#615,#616,#617));
#275=EDGE_LOOP('',(#618,#619,#620,#621));
#276=EDGE_LOOP('',(#622,#623,#624,#625));
#277=EDGE_LOOP('',(#626,#627,#628,#629));
#278=EDGE_LOOP('',(#630,#631,#632,#633));
#279=EDGE_LOOP('',(#634,#635,#636,#637));
#280=EDGE_LOOP('',(#638,#639,#640,#641));
#281=EDGE_LOOP('',(#642,#643,#644,#645));
#282=EDGE_LOOP('',(#646,#647,#648,#649));
#283=EDGE_LOOP('',(#650,#651,#652,#653));
#284=EDGE_LOOP('',(#654,#655,#656,#657));
#285=EDGE_LOOP('',(#658,#659,#660,#661));
#286=EDGE_LOOP('',(#662,#663,#664,#665));
#287=EDGE_LOOP('',(#666,#667,#668,#669));
#288=EDGE_LOOP('',(#670,#671,#672,#673));
#289=EDGE_LOOP('',(#674,#675,#676,#677));
#290=EDGE_LOOP('',(#678,#679,#680,#681));
#291=EDGE_LOOP('',(#682,#683,#684,#685));
#292=EDGE_LOOP('',(#686,#687,#688,#689));
#293=EDGE_LOOP('',(#690,#691,#692,#693));
#294=EDGE_LOOP('',(#694));
#295=EDGE_LOOP('',(#695));
#296=EDGE_LOOP('',(#696));
#297=EDGE_LOOP('',(#697));
#298=CIRCLE('',#755,2.);
#299=CIRCLE('',#756,2.);
#300=CIRCLE('',#757,2.);
#301=CIRCLE('',#758,4.);
#302=CIRCLE('',#760,4.);
#303=CIRCLE('',#762,2.);
#304=CIRCLE('',#765,4.);
#305=CIRCLE('',#766,4.);
#306=CIRCLE('',#767,4.);
#307=CIRCLE('',#768,1.115);
#308=CIRCLE('',#769,1.115);
#309=CIRCLE('',#770,1.1);
#310=CIRCLE('',#771,1.115);
#311=CIRCLE('',#772,1.115);
#312=CIRCLE('',#773,1.115);
#313=CIRCLE('',#774,1.115);
#314=CIRCLE('',#775,1.115);
#315=CIRCLE('',#776,2.);
#316=CIRCLE('',#777,2.);
#317=CIRCLE('',#778,4.);
#318=CIRCLE('',#781,2.);
#319=CIRCLE('',#783,2.);
#320=CIRCLE('',#784,2.);
#321=CIRCLE('',#785,4.);
#322=CIRCLE('',#788,2.);
#323=CIRCLE('',#790,2.);
#324=CIRCLE('',#791,2.);
#325=CIRCLE('',#792,4.);
#326=CIRCLE('',#797,1.115);
#327=CIRCLE('',#798,1.115);
#328=CIRCLE('',#799,1.115);
#329=CIRCLE('',#800,1.115);
#330=CIRCLE('',#818,1.115);
#331=CIRCLE('',#820,1.1);
#332=CIRCLE('',#822,1.115);
#333=CIRCLE('',#824,1.115);
#334=VERTEX_POINT('',#1044);
#335=VERTEX_POINT('',#1045);
#336=VERTEX_POINT('',#1047);
#337=VERTEX_POINT('',#1049);
#338=VERTEX_POINT('',#1053);
#339=VERTEX_POINT('',#1054);
#340=VERTEX_POINT('',#1059);
#341=VERTEX_POINT('',#1061);
#342=VERTEX_POINT('',#1065);
#343=VERTEX_POINT('',#1069);
#344=VERTEX_POINT('',#1071);
#345=VERTEX_POINT('',#1073);
#346=VERTEX_POINT('',#1075);
#347=VERTEX_POINT('',#1077);
#348=VERTEX_POINT('',#1080);
#349=VERTEX_POINT('',#1082);
#350=VERTEX_POINT('',#1084);
#351=VERTEX_POINT('',#1086);
#352=VERTEX_POINT('',#1088);
#353=VERTEX_POINT('',#1090);
#354=VERTEX_POINT('',#1092);
#355=VERTEX_POINT('',#1094);
#356=VERTEX_POINT('',#1105);
#357=VERTEX_POINT('',#1106);
#358=VERTEX_POINT('',#1113);
#359=VERTEX_POINT('',#1115);
#360=VERTEX_POINT('',#1129);
#361=VERTEX_POINT('',#1130);
#362=VERTEX_POINT('',#1137);
#363=VERTEX_POINT('',#1139);
#364=VERTEX_POINT('',#1144);
#365=VERTEX_POINT('',#1145);
#366=VERTEX_POINT('',#1147);
#367=VERTEX_POINT('',#1149);
#368=VERTEX_POINT('',#1152);
#369=VERTEX_POINT('',#1153);
#370=VERTEX_POINT('',#1155);
#371=VERTEX_POINT('',#1157);
#372=VERTEX_POINT('',#1169);
#373=VERTEX_POINT('',#1170);
#374=VERTEX_POINT('',#1181);
#375=VERTEX_POINT('',#1183);
#376=VERTEX_POINT('',#1185);
#377=VERTEX_POINT('',#1187);
#378=VERTEX_POINT('',#1189);
#379=VERTEX_POINT('',#1190);
#380=VERTEX_POINT('',#1192);
#381=VERTEX_POINT('',#1194);
#382=VERTEX_POINT('',#1198);
#383=VERTEX_POINT('',#1199);
#384=VERTEX_POINT('',#1203);
#385=VERTEX_POINT('',#1204);
#386=VERTEX_POINT('',#1206);
#387=VERTEX_POINT('',#1208);
#388=VERTEX_POINT('',#1211);
#389=VERTEX_POINT('',#1212);
#390=VERTEX_POINT('',#1214);
#391=VERTEX_POINT('',#1216);
#392=VERTEX_POINT('',#1230);
#393=VERTEX_POINT('',#1234);
#394=VERTEX_POINT('',#1254);
#395=VERTEX_POINT('',#1258);
#396=VERTEX_POINT('',#1262);
#397=VERTEX_POINT('',#1266);
#398=EDGE_CURVE('',#334,#335,#298,.T.);
#399=EDGE_CURVE('',#335,#336,#299,.T.);
#400=EDGE_CURVE('',#336,#337,#300,.T.);
#401=EDGE_CURVE('',#337,#334,#301,.T.);
#402=EDGE_CURVE('',#338,#339,#302,.T.);
#403=EDGE_CURVE('',#339,#334,#55,.T.);
#404=EDGE_CURVE('',#337,#338,#56,.T.);
#405=EDGE_CURVE('',#334,#340,#57,.T.);
#406=EDGE_CURVE('',#341,#340,#303,.T.);
#407=EDGE_CURVE('',#341,#335,#58,.T.);
#408=EDGE_CURVE('',#339,#342,#59,.T.);
#409=EDGE_CURVE('',#340,#342,#60,.T.);
#410=EDGE_CURVE('',#343,#338,#61,.T.);
#411=EDGE_CURVE('',#344,#343,#304,.T.);
#412=EDGE_CURVE('',#345,#344,#62,.T.);
#413=EDGE_CURVE('',#346,#345,#305,.T.);
#414=EDGE_CURVE('',#347,#346,#63,.T.);
#415=EDGE_CURVE('',#342,#347,#306,.T.);
#416=EDGE_CURVE('',#348,#348,#307,.T.);
#417=EDGE_CURVE('',#349,#349,#308,.T.);
#418=EDGE_CURVE('',#350,#350,#309,.T.);
#419=EDGE_CURVE('',#351,#351,#310,.T.);
#420=EDGE_CURVE('',#352,#352,#311,.T.);
#421=EDGE_CURVE('',#353,#353,#312,.T.);
#422=EDGE_CURVE('',#354,#354,#313,.T.);
#423=EDGE_CURVE('',#355,#355,#314,.T.);
#424=EDGE_CURVE('',#356,#357,#315,.T.);
#425=EDGE_CURVE('',#357,#341,#316,.T.);
#426=EDGE_CURVE('',#340,#356,#317,.T.);
#427=EDGE_CURVE('',#347,#356,#64,.T.);
#428=EDGE_CURVE('',#356,#358,#65,.T.);
#429=EDGE_CURVE('',#359,#358,#318,.T.);
#430=EDGE_CURVE('',#359,#357,#66,.T.);
#431=EDGE_CURVE('',#358,#346,#67,.T.);
#432=EDGE_CURVE('',#360,#361,#319,.T.);
#433=EDGE_CURVE('',#361,#359,#320,.T.);
#434=EDGE_CURVE('',#358,#360,#321,.T.);
#435=EDGE_CURVE('',#345,#360,#68,.T.);
#436=EDGE_CURVE('',#360,#362,#69,.T.);
#437=EDGE_CURVE('',#363,#362,#322,.T.);
#438=EDGE_CURVE('',#363,#361,#70,.T.);
#439=EDGE_CURVE('',#362,#344,#71,.T.);
#440=EDGE_CURVE('',#364,#365,#72,.T.);
#441=EDGE_CURVE('',#365,#366,#73,.T.);
#442=EDGE_CURVE('',#366,#367,#74,.T.);
#443=EDGE_CURVE('',#367,#364,#75,.T.);
#444=EDGE_CURVE('',#368,#369,#76,.T.);
#445=EDGE_CURVE('',#369,#370,#77,.T.);
#446=EDGE_CURVE('',#370,#371,#78,.T.);
#447=EDGE_CURVE('',#371,#368,#79,.T.);
#448=EDGE_CURVE('',#372,#373,#323,.T.);
#449=EDGE_CURVE('',#373,#363,#324,.T.);
#450=EDGE_CURVE('',#362,#372,#325,.T.);
#451=EDGE_CURVE('',#343,#372,#80,.T.);
#452=EDGE_CURVE('',#336,#373,#81,.T.);
#453=EDGE_CURVE('',#372,#337,#82,.T.);
#454=EDGE_CURVE('',#374,#374,#326,.T.);
#455=EDGE_CURVE('',#375,#375,#327,.T.);
#456=EDGE_CURVE('',#376,#376,#328,.T.);
#457=EDGE_CURVE('',#377,#377,#329,.T.);
#458=EDGE_CURVE('',#378,#379,#83,.T.);
#459=EDGE_CURVE('',#379,#380,#84,.T.);
#460=EDGE_CURVE('',#380,#381,#85,.T.);
#461=EDGE_CURVE('',#381,#378,#86,.T.);
#462=EDGE_CURVE('',#382,#383,#87,.T.);
#463=EDGE_CURVE('',#380,#382,#88,.T.);
#464=EDGE_CURVE('',#383,#379,#89,.T.);
#465=EDGE_CURVE('',#384,#385,#90,.T.);
#466=EDGE_CURVE('',#386,#384,#91,.T.);
#467=EDGE_CURVE('',#387,#386,#92,.T.);
#468=EDGE_CURVE('',#385,#387,#93,.T.);
#469=EDGE_CURVE('',#388,#389,#94,.T.);
#470=EDGE_CURVE('',#390,#388,#95,.T.);
#471=EDGE_CURVE('',#391,#390,#96,.T.);
#472=EDGE_CURVE('',#389,#391,#97,.T.);
#473=EDGE_CURVE('',#388,#369,#98,.T.);
#474=EDGE_CURVE('',#368,#390,#99,.T.);
#475=EDGE_CURVE('',#389,#370,#100,.T.);
#476=EDGE_CURVE('',#384,#366,#101,.T.);
#477=EDGE_CURVE('',#386,#365,#102,.T.);
#478=EDGE_CURVE('',#385,#367,#103,.T.);
#479=EDGE_CURVE('',#392,#382,#104,.T.);
#480=EDGE_CURVE('',#381,#392,#105,.T.);
#481=EDGE_CURVE('',#383,#393,#106,.T.);
#482=EDGE_CURVE('',#393,#378,#107,.T.);
#483=EDGE_CURVE('',#393,#392,#108,.T.);
#484=EDGE_CURVE('',#355,#375,#109,.T.);
#485=EDGE_CURVE('',#354,#376,#110,.T.);
#486=EDGE_CURVE('',#353,#374,#111,.T.);
#487=EDGE_CURVE('',#352,#377,#112,.T.);
#488=EDGE_CURVE('',#364,#387,#113,.T.);
#489=EDGE_CURVE('',#391,#371,#114,.T.);
#490=EDGE_CURVE('',#394,#394,#330,.T.);
#491=EDGE_CURVE('',#394,#348,#115,.T.);
#492=EDGE_CURVE('',#395,#395,#331,.T.);
#493=EDGE_CURVE('',#395,#350,#116,.T.);
#494=EDGE_CURVE('',#396,#396,#332,.T.);
#495=EDGE_CURVE('',#396,#349,#117,.T.);
#496=EDGE_CURVE('',#397,#397,#333,.T.);
#497=EDGE_CURVE('',#397,#351,#118,.T.);
#498=ORIENTED_EDGE('',*,*,#398,.T.);
#499=ORIENTED_EDGE('',*,*,#399,.T.);
#500=ORIENTED_EDGE('',*,*,#400,.T.);
#501=ORIENTED_EDGE('',*,*,#401,.T.);
#502=ORIENTED_EDGE('',*,*,#402,.T.);
#503=ORIENTED_EDGE('',*,*,#403,.T.);
#504=ORIENTED_EDGE('',*,*,#401,.F.);
#505=ORIENTED_EDGE('',*,*,#404,.T.);
#506=ORIENTED_EDGE('',*,*,#398,.F.);
#507=ORIENTED_EDGE('',*,*,#405,.T.);
#508=ORIENTED_EDGE('',*,*,#406,.F.);
#509=ORIENTED_EDGE('',*,*,#407,.T.);
#510=ORIENTED_EDGE('',*,*,#403,.F.);
#511=ORIENTED_EDGE('',*,*,#408,.T.);
#512=ORIENTED_EDGE('',*,*,#409,.F.);
#513=ORIENTED_EDGE('',*,*,#405,.F.);
#514=ORIENTED_EDGE('',*,*,#402,.F.);
#515=ORIENTED_EDGE('',*,*,#410,.F.);
#516=ORIENTED_EDGE('',*,*,#411,.F.);
#517=ORIENTED_EDGE('',*,*,#412,.F.);
#518=ORIENTED_EDGE('',*,*,#413,.F.);
#519=ORIENTED_EDGE('',*,*,#414,.F.);
#520=ORIENTED_EDGE('',*,*,#415,.F.);
#521=ORIENTED_EDGE('',*,*,#408,.F.);
#522=ORIENTED_EDGE('',*,*,#416,.F.);
#523=ORIENTED_EDGE('',*,*,#417,.F.);
#524=ORIENTED_EDGE('',*,*,#418,.F.);
#525=ORIENTED_EDGE('',*,*,#419,.F.);
#526=ORIENTED_EDGE('',*,*,#420,.F.);
#527=ORIENTED_EDGE('',*,*,#421,.F.);
#528=ORIENTED_EDGE('',*,*,#422,.F.);
#529=ORIENTED_EDGE('',*,*,#423,.F.);
#530=ORIENTED_EDGE('',*,*,#424,.T.);
#531=ORIENTED_EDGE('',*,*,#425,.T.);
#532=ORIENTED_EDGE('',*,*,#406,.T.);
#533=ORIENTED_EDGE('',*,*,#426,.T.);
#534=ORIENTED_EDGE('',*,*,#415,.T.);
#535=ORIENTED_EDGE('',*,*,#427,.T.);
#536=ORIENTED_EDGE('',*,*,#426,.F.);
#537=ORIENTED_EDGE('',*,*,#409,.T.);
#538=ORIENTED_EDGE('',*,*,#424,.F.);
#539=ORIENTED_EDGE('',*,*,#428,.T.);
#540=ORIENTED_EDGE('',*,*,#429,.F.);
#541=ORIENTED_EDGE('',*,*,#430,.T.);
#542=ORIENTED_EDGE('',*,*,#427,.F.);
#543=ORIENTED_EDGE('',*,*,#414,.T.);
#544=ORIENTED_EDGE('',*,*,#431,.F.);
#545=ORIENTED_EDGE('',*,*,#428,.F.);
#546=ORIENTED_EDGE('',*,*,#432,.T.);
#547=ORIENTED_EDGE('',*,*,#433,.T.);
#548=ORIENTED_EDGE('',*,*,#429,.T.);
#549=ORIENTED_EDGE('',*,*,#434,.T.);
#550=ORIENTED_EDGE('',*,*,#413,.T.);
#551=ORIENTED_EDGE('',*,*,#435,.T.);
#552=ORIENTED_EDGE('',*,*,#434,.F.);
#553=ORIENTED_EDGE('',*,*,#431,.T.);
#554=ORIENTED_EDGE('',*,*,#432,.F.);
#555=ORIENTED_EDGE('',*,*,#436,.T.);
#556=ORIENTED_EDGE('',*,*,#437,.F.);
#557=ORIENTED_EDGE('',*,*,#438,.T.);
#558=ORIENTED_EDGE('',*,*,#435,.F.);
#559=ORIENTED_EDGE('',*,*,#412,.T.);
#560=ORIENTED_EDGE('',*,*,#439,.F.);
#561=ORIENTED_EDGE('',*,*,#436,.F.);
#562=ORIENTED_EDGE('',*,*,#440,.T.);
#563=ORIENTED_EDGE('',*,*,#441,.T.);
#564=ORIENTED_EDGE('',*,*,#442,.T.);
#565=ORIENTED_EDGE('',*,*,#443,.T.);
#566=ORIENTED_EDGE('',*,*,#444,.T.);
#567=ORIENTED_EDGE('',*,*,#445,.T.);
#568=ORIENTED_EDGE('',*,*,#446,.T.);
#569=ORIENTED_EDGE('',*,*,#447,.T.);
#570=ORIENTED_EDGE('',*,*,#448,.T.);
#571=ORIENTED_EDGE('',*,*,#449,.T.);
#572=ORIENTED_EDGE('',*,*,#437,.T.);
#573=ORIENTED_EDGE('',*,*,#450,.T.);
#574=ORIENTED_EDGE('',*,*,#411,.T.);
#575=ORIENTED_EDGE('',*,*,#451,.T.);
#576=ORIENTED_EDGE('',*,*,#450,.F.);
#577=ORIENTED_EDGE('',*,*,#439,.T.);
#578=ORIENTED_EDGE('',*,*,#400,.F.);
#579=ORIENTED_EDGE('',*,*,#452,.T.);
#580=ORIENTED_EDGE('',*,*,#448,.F.);
#581=ORIENTED_EDGE('',*,*,#453,.T.);
#582=ORIENTED_EDGE('',*,*,#404,.F.);
#583=ORIENTED_EDGE('',*,*,#453,.F.);
#584=ORIENTED_EDGE('',*,*,#451,.F.);
#585=ORIENTED_EDGE('',*,*,#410,.T.);
#586=ORIENTED_EDGE('',*,*,#399,.F.);
#587=ORIENTED_EDGE('',*,*,#407,.F.);
#588=ORIENTED_EDGE('',*,*,#425,.F.);
#589=ORIENTED_EDGE('',*,*,#430,.F.);
#590=ORIENTED_EDGE('',*,*,#433,.F.);
#591=ORIENTED_EDGE('',*,*,#438,.F.);
#592=ORIENTED_EDGE('',*,*,#449,.F.);
#593=ORIENTED_EDGE('',*,*,#452,.F.);
#594=ORIENTED_EDGE('',*,*,#454,.T.);
#595=ORIENTED_EDGE('',*,*,#455,.T.);
#596=ORIENTED_EDGE('',*,*,#456,.T.);
#597=ORIENTED_EDGE('',*,*,#457,.T.);
#598=ORIENTED_EDGE('',*,*,#458,.T.);
#599=ORIENTED_EDGE('',*,*,#459,.T.);
#600=ORIENTED_EDGE('',*,*,#460,.T.);
#601=ORIENTED_EDGE('',*,*,#461,.T.);
#602=ORIENTED_EDGE('',*,*,#462,.F.);
#603=ORIENTED_EDGE('',*,*,#463,.F.);
#604=ORIENTED_EDGE('',*,*,#459,.F.);
#605=ORIENTED_EDGE('',*,*,#464,.F.);
#606=ORIENTED_EDGE('',*,*,#465,.F.);
#607=ORIENTED_EDGE('',*,*,#466,.F.);
#608=ORIENTED_EDGE('',*,*,#467,.F.);
#609=ORIENTED_EDGE('',*,*,#468,.F.);
#610=ORIENTED_EDGE('',*,*,#469,.F.);
#611=ORIENTED_EDGE('',*,*,#470,.F.);
#612=ORIENTED_EDGE('',*,*,#471,.F.);
#613=ORIENTED_EDGE('',*,*,#472,.F.);
#614=ORIENTED_EDGE('',*,*,#470,.T.);
#615=ORIENTED_EDGE('',*,*,#473,.T.);
#616=ORIENTED_EDGE('',*,*,#444,.F.);
#617=ORIENTED_EDGE('',*,*,#474,.T.);
#618=ORIENTED_EDGE('',*,*,#469,.T.);
#619=ORIENTED_EDGE('',*,*,#475,.T.);
#620=ORIENTED_EDGE('',*,*,#445,.F.);
#621=ORIENTED_EDGE('',*,*,#473,.F.);
#622=ORIENTED_EDGE('',*,*,#466,.T.);
#623=ORIENTED_EDGE('',*,*,#476,.T.);
#624=ORIENTED_EDGE('',*,*,#441,.F.);
#625=ORIENTED_EDGE('',*,*,#477,.F.);
#626=ORIENTED_EDGE('',*,*,#465,.T.);
#627=ORIENTED_EDGE('',*,*,#478,.T.);
#628=ORIENTED_EDGE('',*,*,#442,.F.);
#629=ORIENTED_EDGE('',*,*,#476,.F.);
#630=ORIENTED_EDGE('',*,*,#479,.F.);
#631=ORIENTED_EDGE('',*,*,#480,.F.);
#632=ORIENTED_EDGE('',*,*,#460,.F.);
#633=ORIENTED_EDGE('',*,*,#463,.T.);
#634=ORIENTED_EDGE('',*,*,#481,.F.);
#635=ORIENTED_EDGE('',*,*,#464,.T.);
#636=ORIENTED_EDGE('',*,*,#458,.F.);
#637=ORIENTED_EDGE('',*,*,#482,.F.);
#638=ORIENTED_EDGE('',*,*,#483,.F.);
#639=ORIENTED_EDGE('',*,*,#482,.T.);
#640=ORIENTED_EDGE('',*,*,#461,.F.);
#641=ORIENTED_EDGE('',*,*,#480,.T.);
#642=ORIENTED_EDGE('',*,*,#423,.T.);
#643=ORIENTED_EDGE('',*,*,#484,.T.);
#644=ORIENTED_EDGE('',*,*,#455,.F.);
#645=ORIENTED_EDGE('',*,*,#484,.F.);
#646=ORIENTED_EDGE('',*,*,#422,.T.);
#647=ORIENTED_EDGE('',*,*,#485,.T.);
#648=ORIENTED_EDGE('',*,*,#456,.F.);
#649=ORIENTED_EDGE('',*,*,#485,.F.);
#650=ORIENTED_EDGE('',*,*,#421,.T.);
#651=ORIENTED_EDGE('',*,*,#486,.T.);
#652=ORIENTED_EDGE('',*,*,#454,.F.);
#653=ORIENTED_EDGE('',*,*,#486,.F.);
#654=ORIENTED_EDGE('',*,*,#420,.T.);
#655=ORIENTED_EDGE('',*,*,#487,.T.);
#656=ORIENTED_EDGE('',*,*,#457,.F.);
#657=ORIENTED_EDGE('',*,*,#487,.F.);
#658=ORIENTED_EDGE('',*,*,#468,.T.);
#659=ORIENTED_EDGE('',*,*,#488,.F.);
#660=ORIENTED_EDGE('',*,*,#443,.F.);
#661=ORIENTED_EDGE('',*,*,#478,.F.);
#662=ORIENTED_EDGE('',*,*,#472,.T.);
#663=ORIENTED_EDGE('',*,*,#489,.T.);
#664=ORIENTED_EDGE('',*,*,#446,.F.);
#665=ORIENTED_EDGE('',*,*,#475,.F.);
#666=ORIENTED_EDGE('',*,*,#467,.T.);
#667=ORIENTED_EDGE('',*,*,#477,.T.);
#668=ORIENTED_EDGE('',*,*,#440,.F.);
#669=ORIENTED_EDGE('',*,*,#488,.T.);
#670=ORIENTED_EDGE('',*,*,#471,.T.);
#671=ORIENTED_EDGE('',*,*,#474,.F.);
#672=ORIENTED_EDGE('',*,*,#447,.F.);
#673=ORIENTED_EDGE('',*,*,#489,.F.);
#674=ORIENTED_EDGE('',*,*,#490,.F.);
#675=ORIENTED_EDGE('',*,*,#491,.T.);
#676=ORIENTED_EDGE('',*,*,#416,.T.);
#677=ORIENTED_EDGE('',*,*,#491,.F.);
#678=ORIENTED_EDGE('',*,*,#492,.F.);
#679=ORIENTED_EDGE('',*,*,#493,.T.);
#680=ORIENTED_EDGE('',*,*,#418,.T.);
#681=ORIENTED_EDGE('',*,*,#493,.F.);
#682=ORIENTED_EDGE('',*,*,#494,.F.);
#683=ORIENTED_EDGE('',*,*,#495,.T.);
#684=ORIENTED_EDGE('',*,*,#417,.T.);
#685=ORIENTED_EDGE('',*,*,#495,.F.);
#686=ORIENTED_EDGE('',*,*,#496,.F.);
#687=ORIENTED_EDGE('',*,*,#497,.T.);
#688=ORIENTED_EDGE('',*,*,#419,.T.);
#689=ORIENTED_EDGE('',*,*,#497,.F.);
#690=ORIENTED_EDGE('',*,*,#481,.T.);
#691=ORIENTED_EDGE('',*,*,#483,.T.);
#692=ORIENTED_EDGE('',*,*,#479,.T.);
#693=ORIENTED_EDGE('',*,*,#462,.T.);
#694=ORIENTED_EDGE('',*,*,#496,.T.);
#695=ORIENTED_EDGE('',*,*,#494,.T.);
#696=ORIENTED_EDGE('',*,*,#492,.T.);
#697=ORIENTED_EDGE('',*,*,#490,.T.);
#698=(
BOUNDED_SURFACE()
B_SPLINE_SURFACE(2,2,((#1035,#1036,#1037),(#1038,#1039,#1040),(#1041,#1042,
#1043)),.UNSPECIFIED.,.F.,.F.,.F.)
B_SPLINE_SURFACE_WITH_KNOTS((3,3),(3,3),(0.,1.5707963267949),(-3.14159265358979,
-1.5707963267949),.UNSPECIFIED.)
GEOMETRIC_REPRESENTATION_ITEM()
RATIONAL_B_SPLINE_SURFACE(((1.,0.707106781186548,1.),(0.707106781186545,
0.499999999999998,0.707106781186545),(1.,0.707106781186548,1.)))
REPRESENTATION_ITEM('')
SURFACE()
);
#699=(
BOUNDED_SURFACE()
B_SPLINE_SURFACE(2,2,((#1096,#1097,#1098),(#1099,#1100,#1101),(#1102,#1103,
#1104)),.UNSPECIFIED.,.F.,.F.,.F.)
B_SPLINE_SURFACE_WITH_KNOTS((3,3),(3,3),(0.,1.5707963267949),(-1.5707963267949,
0.),.UNSPECIFIED.)
GEOMETRIC_REPRESENTATION_ITEM()
RATIONAL_B_SPLINE_SURFACE(((1.,0.707106781186548,1.),(0.707106781186545,
0.499999999999998,0.707106781186545),(1.,0.707106781186548,1.)))
REPRESENTATION_ITEM('')
SURFACE()
);
#700=(
BOUNDED_SURFACE()
B_SPLINE_SURFACE(2,2,((#1120,#1121,#1122),(#1123,#1124,#1125),(#1126,#1127,
#1128)),.UNSPECIFIED.,.F.,.F.,.F.)
B_SPLINE_SURFACE_WITH_KNOTS((3,3),(3,3),(0.,1.5707963267949),(0.,1.5707963267949),
 .UNSPECIFIED.)
GEOMETRIC_REPRESENTATION_ITEM()
RATIONAL_B_SPLINE_SURFACE(((1.,0.707106781186548,1.),(0.707106781186545,
0.499999999999998,0.707106781186545),(1.,0.707106781186548,1.)))
REPRESENTATION_ITEM('')
SURFACE()
);
#701=(
BOUNDED_SURFACE()
B_SPLINE_SURFACE(2,2,((#1160,#1161,#1162),(#1163,#1164,#1165),(#1166,#1167,
#1168)),.UNSPECIFIED.,.F.,.F.,.F.)
B_SPLINE_SURFACE_WITH_KNOTS((3,3),(3,3),(0.,1.5707963267949),(1.5707963267949,
3.14159265358979),.UNSPECIFIED.)
GEOMETRIC_REPRESENTATION_ITEM()
RATIONAL_B_SPLINE_SURFACE(((1.,0.707106781186548,1.),(0.707106781186545,
0.499999999999998,0.707106781186545),(1.,0.707106781186548,1.)))
REPRESENTATION_ITEM('')
SURFACE()
);
#702=ADVANCED_FACE('',(#199),#698,.F.);
#703=ADVANCED_FACE('',(#200),#183,.T.);
#704=ADVANCED_FACE('',(#201),#184,.T.);
#705=ADVANCED_FACE('',(#202),#36,.T.);
#706=ADVANCED_FACE('',(#203,#15,#16,#17,#18,#19,#20,#21,#22),#37,.F.);
#707=ADVANCED_FACE('',(#204),#699,.F.);
#708=ADVANCED_FACE('',(#205),#185,.T.);
#709=ADVANCED_FACE('',(#206),#186,.T.);
#710=ADVANCED_FACE('',(#207),#38,.T.);
#711=ADVANCED_FACE('',(#208),#700,.F.);
#712=ADVANCED_FACE('',(#209),#187,.T.);
#713=ADVANCED_FACE('',(#210),#188,.T.);
#714=ADVANCED_FACE('',(#211,#23,#24),#39,.T.);
#715=ADVANCED_FACE('',(#212),#701,.F.);
#716=ADVANCED_FACE('',(#213),#189,.T.);
#717=ADVANCED_FACE('',(#214),#190,.T.);
#718=ADVANCED_FACE('',(#215),#40,.T.);
#719=ADVANCED_FACE('',(#216,#25,#26,#27,#28,#29),#41,.T.);
#720=ADVANCED_FACE('',(#217,#30,#31),#42,.F.);
#721=ADVANCED_FACE('',(#218),#43,.F.);
#722=ADVANCED_FACE('',(#219),#44,.F.);
#723=ADVANCED_FACE('',(#220),#45,.F.);
#724=ADVANCED_FACE('',(#221),#46,.F.);
#725=ADVANCED_FACE('',(#222),#47,.F.);
#726=ADVANCED_FACE('',(#223),#48,.F.);
#727=ADVANCED_FACE('',(#224),#49,.F.);
#728=ADVANCED_FACE('',(#225),#191,.F.);
#729=ADVANCED_FACE('',(#226),#192,.F.);
#730=ADVANCED_FACE('',(#227),#193,.F.);
#731=ADVANCED_FACE('',(#228),#194,.F.);
#732=ADVANCED_FACE('',(#229),#50,.T.);
#733=ADVANCED_FACE('',(#230),#51,.F.);
#734=ADVANCED_FACE('',(#231),#52,.F.);
#735=ADVANCED_FACE('',(#232),#53,.F.);
#736=ADVANCED_FACE('',(#233),#195,.F.);
#737=ADVANCED_FACE('',(#234),#196,.F.);
#738=ADVANCED_FACE('',(#235),#197,.F.);
#739=ADVANCED_FACE('',(#236),#198,.F.);
#740=ADVANCED_FACE('',(#237,#32,#33,#34,#35),#54,.T.);
#741=CLOSED_SHELL('',(#702,#703,#704,#705,#706,#707,#708,#709,#710,#711,
#712,#713,#714,#715,#716,#717,#718,#719,#720,#721,#722,#723,#724,#725,#726,
#727,#728,#729,#730,#731,#732,#733,#734,#735,#736,#737,#738,#739,#740));
#742=DERIVED_UNIT_ELEMENT(#744,1.);
#743=DERIVED_UNIT_ELEMENT(#1275,-3.);
#744=(
MASS_UNIT()
NAMED_UNIT(*)
SI_UNIT(.KILO.,.GRAM.)
);
#745=DERIVED_UNIT((#742,#743));
#746=MEASURE_REPRESENTATION_ITEM('density measure',
POSITIVE_RATIO_MEASURE(952.),#745);
#747=PROPERTY_DEFINITION_REPRESENTATION(#752,#749);
#748=PROPERTY_DEFINITION_REPRESENTATION(#753,#750);
#749=REPRESENTATION('material name',(#751),#1272);
#750=REPRESENTATION('density',(#746),#1272);
#751=DESCRIPTIVE_REPRESENTATION_ITEM('Plastic, Opaque White',
'Plastic, Opaque White');
#752=PROPERTY_DEFINITION('material property','material name',#1282);
#753=PROPERTY_DEFINITION('material property','density of part',#1282);
#754=AXIS2_PLACEMENT_3D('',#1034,#826,#827);
#755=AXIS2_PLACEMENT_3D('',#1046,#828,#829);
#756=AXIS2_PLACEMENT_3D('',#1048,#830,#831);
#757=AXIS2_PLACEMENT_3D('',#1050,#832,#833);
#758=AXIS2_PLACEMENT_3D('',#1051,#834,#835);
#759=AXIS2_PLACEMENT_3D('',#1052,#836,#837);
#760=AXIS2_PLACEMENT_3D('',#1055,#838,#839);
#761=AXIS2_PLACEMENT_3D('',#1058,#842,#843);
#762=AXIS2_PLACEMENT_3D('',#1062,#845,#846);
#763=AXIS2_PLACEMENT_3D('',#1064,#848,#849);
#764=AXIS2_PLACEMENT_3D('',#1068,#852,#853);
#765=AXIS2_PLACEMENT_3D('',#1072,#855,#856);
#766=AXIS2_PLACEMENT_3D('',#1076,#858,#859);
#767=AXIS2_PLACEMENT_3D('',#1079,#861,#862);
#768=AXIS2_PLACEMENT_3D('',#1081,#863,#864);
#769=AXIS2_PLACEMENT_3D('',#1083,#865,#866);
#770=AXIS2_PLACEMENT_3D('',#1085,#867,#868);
#771=AXIS2_PLACEMENT_3D('',#1087,#869,#870);
#772=AXIS2_PLACEMENT_3D('',#1089,#871,#872);
#773=AXIS2_PLACEMENT_3D('',#1091,#873,#874);
#774=AXIS2_PLACEMENT_3D('',#1093,#875,#876);
#775=AXIS2_PLACEMENT_3D('',#1095,#877,#878);
#776=AXIS2_PLACEMENT_3D('',#1107,#879,#880);
#777=AXIS2_PLACEMENT_3D('',#1108,#881,#882);
#778=AXIS2_PLACEMENT_3D('',#1109,#883,#884);
#779=AXIS2_PLACEMENT_3D('',#1110,#885,#886);
#780=AXIS2_PLACEMENT_3D('',#1112,#888,#889);
#781=AXIS2_PLACEMENT_3D('',#1116,#891,#892);
#782=AXIS2_PLACEMENT_3D('',#1118,#894,#895);
#783=AXIS2_PLACEMENT_3D('',#1131,#897,#898);
#784=AXIS2_PLACEMENT_3D('',#1132,#899,#900);
#785=AXIS2_PLACEMENT_3D('',#1133,#901,#902);
#786=AXIS2_PLACEMENT_3D('',#1134,#903,#904);
#787=AXIS2_PLACEMENT_3D('',#1136,#906,#907);
#788=AXIS2_PLACEMENT_3D('',#1140,#909,#910);
#789=AXIS2_PLACEMENT_3D('',#1142,#912,#913);
#790=AXIS2_PLACEMENT_3D('',#1171,#923,#924);
#791=AXIS2_PLACEMENT_3D('',#1172,#925,#926);
#792=AXIS2_PLACEMENT_3D('',#1173,#927,#928);
#793=AXIS2_PLACEMENT_3D('',#1174,#929,#930);
#794=AXIS2_PLACEMENT_3D('',#1176,#932,#933);
#795=AXIS2_PLACEMENT_3D('',#1179,#936,#937);
#796=AXIS2_PLACEMENT_3D('',#1180,#938,#939);
#797=AXIS2_PLACEMENT_3D('',#1182,#940,#941);
#798=AXIS2_PLACEMENT_3D('',#1184,#942,#943);
#799=AXIS2_PLACEMENT_3D('',#1186,#944,#945);
#800=AXIS2_PLACEMENT_3D('',#1188,#946,#947);
#801=AXIS2_PLACEMENT_3D('',#1197,#952,#953);
#802=AXIS2_PLACEMENT_3D('',#1219,#965,#966);
#803=AXIS2_PLACEMENT_3D('',#1222,#969,#970);
#804=AXIS2_PLACEMENT_3D('',#1224,#972,#973);
#805=AXIS2_PLACEMENT_3D('',#1227,#976,#977);
#806=AXIS2_PLACEMENT_3D('',#1229,#979,#980);
#807=AXIS2_PLACEMENT_3D('',#1233,#983,#984);
#808=AXIS2_PLACEMENT_3D('',#1237,#987,#988);
#809=AXIS2_PLACEMENT_3D('',#1239,#990,#991);
#810=AXIS2_PLACEMENT_3D('',#1241,#993,#994);
#811=AXIS2_PLACEMENT_3D('',#1243,#996,#997);
#812=AXIS2_PLACEMENT_3D('',#1245,#999,#1000);
#813=AXIS2_PLACEMENT_3D('',#1247,#1002,#1003);
#814=AXIS2_PLACEMENT_3D('',#1249,#1005,#1006);
#815=AXIS2_PLACEMENT_3D('',#1251,#1008,#1009);
#816=AXIS2_PLACEMENT_3D('',#1252,#1010,#1011);
#817=AXIS2_PLACEMENT_3D('',#1253,#1012,#1013);
#818=AXIS2_PLACEMENT_3D('',#1255,#1014,#1015);
#819=AXIS2_PLACEMENT_3D('',#1257,#1017,#1018);
#820=AXIS2_PLACEMENT_3D('',#1259,#1019,#1020);
#821=AXIS2_PLACEMENT_3D('',#1261,#1022,#1023);
#822=AXIS2_PLACEMENT_3D('',#1263,#1024,#1025);
#823=AXIS2_PLACEMENT_3D('',#1265,#1027,#1028);
#824=AXIS2_PLACEMENT_3D('',#1267,#1029,#1030);
#825=AXIS2_PLACEMENT_3D('',#1269,#1032,#1033);
#826=DIRECTION('axis',(0.,0.,1.));
#827=DIRECTION('refdir',(1.,0.,0.));
#828=DIRECTION('center_axis',(-1.,0.,0.));
#829=DIRECTION('ref_axis',(0.,-1.,0.));
#830=DIRECTION('center_axis',(0.,0.,-1.));
#831=DIRECTION('ref_axis',(-0.707106781186546,-0.707106781186549,0.));
#832=DIRECTION('center_axis',(0.,-1.,0.));
#833=DIRECTION('ref_axis',(2.22044604925031E-15,0.,1.));
#834=DIRECTION('center_axis',(0.,0.,1.));
#835=DIRECTION('ref_axis',(-0.707106781186546,-0.707106781186549,0.));
#836=DIRECTION('center_axis',(0.,0.,1.));
#837=DIRECTION('ref_axis',(-0.707106781186548,-0.707106781186548,0.));
#838=DIRECTION('center_axis',(0.,0.,1.));
#839=DIRECTION('ref_axis',(-0.707106781186548,-0.707106781186548,0.));
#840=DIRECTION('',(0.,0.,1.));
#841=DIRECTION('',(0.,0.,-1.));
#842=DIRECTION('center_axis',(1.,0.,0.));
#843=DIRECTION('ref_axis',(0.,-0.707106781186546,0.707106781186549));
#844=DIRECTION('',(1.,0.,0.));
#845=DIRECTION('center_axis',(1.,0.,0.));
#846=DIRECTION('ref_axis',(0.,0.,1.));
#847=DIRECTION('',(-1.,0.,0.));
#848=DIRECTION('center_axis',(0.,-1.,0.));
#849=DIRECTION('ref_axis',(0.,0.,-1.));
#850=DIRECTION('',(1.,0.,0.));
#851=DIRECTION('',(0.,0.,-1.));
#852=DIRECTION('center_axis',(0.,0.,1.));
#853=DIRECTION('ref_axis',(1.,0.,0.));
#854=DIRECTION('',(0.,-1.,0.));
#855=DIRECTION('center_axis',(0.,0.,1.));
#856=DIRECTION('ref_axis',(-0.707106781186548,0.707106781186548,0.));
#857=DIRECTION('',(-1.,0.,0.));
#858=DIRECTION('center_axis',(0.,0.,1.));
#859=DIRECTION('ref_axis',(0.707106781186548,0.707106781186548,0.));
#860=DIRECTION('',(0.,1.,0.));
#861=DIRECTION('center_axis',(0.,0.,1.));
#862=DIRECTION('ref_axis',(0.707106781186548,-0.707106781186548,0.));
#863=DIRECTION('center_axis',(0.,0.,-1.));
#864=DIRECTION('ref_axis',(1.,0.,0.));
#865=DIRECTION('center_axis',(0.,0.,-1.));
#866=DIRECTION('ref_axis',(1.,0.,0.));
#867=DIRECTION('center_axis',(0.,0.,-1.));
#868=DIRECTION('ref_axis',(1.,0.,0.));
#869=DIRECTION('center_axis',(0.,0.,-1.));
#870=DIRECTION('ref_axis',(1.,0.,0.));
#871=DIRECTION('center_axis',(0.,0.,-1.));
#872=DIRECTION('ref_axis',(1.,0.,0.));
#873=DIRECTION('center_axis',(0.,0.,-1.));
#874=DIRECTION('ref_axis',(1.,0.,0.));
#875=DIRECTION('center_axis',(0.,0.,-1.));
#876=DIRECTION('ref_axis',(1.,0.,0.));
#877=DIRECTION('center_axis',(0.,0.,-1.));
#878=DIRECTION('ref_axis',(1.,0.,0.));
#879=DIRECTION('center_axis',(0.,-1.,0.));
#880=DIRECTION('ref_axis',(1.,0.,0.));
#881=DIRECTION('center_axis',(0.,0.,-1.));
#882=DIRECTION('ref_axis',(0.707106781186546,-0.707106781186549,0.));
#883=DIRECTION('center_axis',(0.,0.,1.));
#884=DIRECTION('ref_axis',(0.707106781186546,-0.707106781186549,0.));
#885=DIRECTION('center_axis',(0.,0.,1.));
#886=DIRECTION('ref_axis',(0.707106781186548,-0.707106781186548,0.));
#887=DIRECTION('',(0.,0.,1.));
#888=DIRECTION('center_axis',(0.,1.,0.));
#889=DIRECTION('ref_axis',(0.707106781186548,0.,0.707106781186548));
#890=DIRECTION('',(0.,1.,0.));
#891=DIRECTION('center_axis',(0.,1.,0.));
#892=DIRECTION('ref_axis',(-2.22044604925031E-15,0.,1.));
#893=DIRECTION('',(0.,-1.,0.));
#894=DIRECTION('center_axis',(1.,0.,0.));
#895=DIRECTION('ref_axis',(0.,0.,-1.));
#896=DIRECTION('',(0.,0.,-1.));
#897=DIRECTION('center_axis',(1.,0.,0.));
#898=DIRECTION('ref_axis',(0.,1.,0.));
#899=DIRECTION('center_axis',(0.,0.,-1.));
#900=DIRECTION('ref_axis',(0.707106781186546,0.707106781186549,0.));
#901=DIRECTION('center_axis',(0.,0.,1.));
#902=DIRECTION('ref_axis',(0.707106781186546,0.707106781186549,0.));
#903=DIRECTION('center_axis',(0.,0.,1.));
#904=DIRECTION('ref_axis',(0.707106781186548,0.707106781186548,0.));
#905=DIRECTION('',(0.,0.,1.));
#906=DIRECTION('center_axis',(-1.,0.,0.));
#907=DIRECTION('ref_axis',(0.,0.707106781186546,0.707106781186549));
#908=DIRECTION('',(-1.,0.,0.));
#909=DIRECTION('center_axis',(-1.,0.,0.));
#910=DIRECTION('ref_axis',(0.,0.,1.));
#911=DIRECTION('',(1.,0.,0.));
#912=DIRECTION('center_axis',(0.,1.,0.));
#913=DIRECTION('ref_axis',(0.,0.,1.));
#914=DIRECTION('',(0.,0.,-1.));
#915=DIRECTION('',(1.,0.,0.));
#916=DIRECTION('',(0.,0.,1.));
#917=DIRECTION('',(-1.,0.,0.));
#918=DIRECTION('',(0.,0.,-1.));
#919=DIRECTION('',(-1.,0.,0.));
#920=DIRECTION('',(0.,0.,-1.));
#921=DIRECTION('',(1.,0.,0.));
#922=DIRECTION('',(0.,0.,1.));
#923=DIRECTION('center_axis',(0.,1.,0.));
#924=DIRECTION('ref_axis',(-1.,0.,0.));
#925=DIRECTION('center_axis',(0.,0.,-1.));
#926=DIRECTION('ref_axis',(-0.707106781186546,0.707106781186549,0.));
#927=DIRECTION('center_axis',(0.,0.,1.));
#928=DIRECTION('ref_axis',(-0.707106781186546,0.707106781186549,0.));
#929=DIRECTION('center_axis',(0.,0.,1.));
#930=DIRECTION('ref_axis',(-0.707106781186548,0.707106781186548,0.));
#931=DIRECTION('',(0.,0.,1.));
#932=DIRECTION('center_axis',(0.,-1.,0.));
#933=DIRECTION('ref_axis',(-0.707106781186548,0.,0.707106781186548));
#934=DIRECTION('',(0.,1.,0.));
#935=DIRECTION('',(0.,-1.,0.));
#936=DIRECTION('center_axis',(-1.,0.,0.));
#937=DIRECTION('ref_axis',(0.,0.,1.));
#938=DIRECTION('center_axis',(0.,0.,1.));
#939=DIRECTION('ref_axis',(1.,0.,0.));
#940=DIRECTION('center_axis',(0.,0.,-1.));
#941=DIRECTION('ref_axis',(-1.,0.,0.));
#942=DIRECTION('center_axis',(0.,0.,-1.));
#943=DIRECTION('ref_axis',(-1.,0.,0.));
#944=DIRECTION('center_axis',(0.,0.,-1.));
#945=DIRECTION('ref_axis',(-1.,0.,0.));
#946=DIRECTION('center_axis',(0.,0.,-1.));
#947=DIRECTION('ref_axis',(-1.,0.,0.));
#948=DIRECTION('',(0.,1.,0.));
#949=DIRECTION('',(1.,0.,0.));
#950=DIRECTION('',(0.,-1.,0.));
#951=DIRECTION('',(-1.,0.,0.));
#952=DIRECTION('center_axis',(0.,1.,0.));
#953=DIRECTION('ref_axis',(0.,0.,1.));
#954=DIRECTION('',(-1.,0.,0.));
#955=DIRECTION('',(0.,0.,-1.));
#956=DIRECTION('',(0.,0.,1.));
#957=DIRECTION('',(-1.,0.,0.));
#958=DIRECTION('',(0.,0.,1.));
#959=DIRECTION('',(1.,0.,0.));
#960=DIRECTION('',(0.,0.,-1.));
#961=DIRECTION('',(0.,0.,-1.));
#962=DIRECTION('',(-1.,0.,0.));
#963=DIRECTION('',(0.,0.,1.));
#964=DIRECTION('',(1.,0.,0.));
#965=DIRECTION('center_axis',(0.,0.,1.));
#966=DIRECTION('ref_axis',(-1.,0.,0.));
#967=DIRECTION('',(0.,1.,0.));
#968=DIRECTION('',(0.,-1.,0.));
#969=DIRECTION('center_axis',(-1.,0.,0.));
#970=DIRECTION('ref_axis',(0.,0.,-1.));
#971=DIRECTION('',(0.,1.,0.));
#972=DIRECTION('center_axis',(1.,0.,0.));
#973=DIRECTION('ref_axis',(0.,0.,1.));
#974=DIRECTION('',(0.,1.,0.));
#975=DIRECTION('',(0.,1.,0.));
#976=DIRECTION('center_axis',(0.,0.,1.));
#977=DIRECTION('ref_axis',(-1.,0.,0.));
#978=DIRECTION('',(0.,1.,0.));
#979=DIRECTION('center_axis',(1.,0.,0.));
#980=DIRECTION('ref_axis',(0.,0.,-1.));
#981=DIRECTION('',(0.,1.,0.));
#982=DIRECTION('',(0.,0.,-1.));
#983=DIRECTION('center_axis',(-1.,0.,0.));
#984=DIRECTION('ref_axis',(0.,0.,1.));
#985=DIRECTION('',(0.,-1.,0.));
#986=DIRECTION('',(0.,0.,1.));
#987=DIRECTION('center_axis',(0.,-1.,0.));
#988=DIRECTION('ref_axis',(0.,0.,-1.));
#989=DIRECTION('',(1.,0.,0.));
#990=DIRECTION('center_axis',(0.,0.,1.));
#991=DIRECTION('ref_axis',(1.,0.,0.));
#992=DIRECTION('',(0.,0.,1.));
#993=DIRECTION('center_axis',(0.,0.,1.));
#994=DIRECTION('ref_axis',(1.,0.,0.));
#995=DIRECTION('',(0.,0.,1.));
#996=DIRECTION('center_axis',(0.,0.,1.));
#997=DIRECTION('ref_axis',(1.,0.,0.));
#998=DIRECTION('',(0.,0.,1.));
#999=DIRECTION('center_axis',(0.,0.,1.));
#1000=DIRECTION('ref_axis',(1.,0.,0.));
#1001=DIRECTION('',(0.,0.,1.));
#1002=DIRECTION('center_axis',(1.,0.,0.));
#1003=DIRECTION('ref_axis',(0.,0.,-1.));
#1004=DIRECTION('',(0.,-1.,0.));
#1005=DIRECTION('center_axis',(0.,0.,-1.));
#1006=DIRECTION('ref_axis',(1.,0.,0.));
#1007=DIRECTION('',(0.,1.,0.));
#1008=DIRECTION('center_axis',(0.,0.,-1.));
#1009=DIRECTION('ref_axis',(1.,0.,0.));
#1010=DIRECTION('center_axis',(1.,0.,0.));
#1011=DIRECTION('ref_axis',(0.,0.,1.));
#1012=DIRECTION('center_axis',(0.,0.,1.));
#1013=DIRECTION('ref_axis',(1.,0.,0.));
#1014=DIRECTION('center_axis',(0.,0.,-1.));
#1015=DIRECTION('ref_axis',(1.,0.,0.));
#1016=DIRECTION('',(0.,0.,-1.));
#1017=DIRECTION('center_axis',(0.,0.,1.));
#1018=DIRECTION('ref_axis',(1.,0.,0.));
#1019=DIRECTION('center_axis',(0.,0.,-1.));
#1020=DIRECTION('ref_axis',(1.,0.,0.));
#1021=DIRECTION('',(0.,0.,-1.));
#1022=DIRECTION('center_axis',(0.,0.,1.));
#1023=DIRECTION('ref_axis',(1.,0.,0.));
#1024=DIRECTION('center_axis',(0.,0.,-1.));
#1025=DIRECTION('ref_axis',(1.,0.,0.));
#1026=DIRECTION('',(0.,0.,-1.));
#1027=DIRECTION('center_axis',(0.,0.,1.));
#1028=DIRECTION('ref_axis',(1.,0.,0.));
#1029=DIRECTION('center_axis',(0.,0.,-1.));
#1030=DIRECTION('ref_axis',(1.,0.,0.));
#1031=DIRECTION('',(0.,0.,-1.));
#1032=DIRECTION('center_axis',(0.,0.,1.));
#1033=DIRECTION('ref_axis',(1.,0.,0.));
#1034=CARTESIAN_POINT('',(0.,0.,0.));
#1035=CARTESIAN_POINT('Ctrl Pts',(-28.,-38.,17.));
#1036=CARTESIAN_POINT('Ctrl Pts',(-28.,-42.,17.));
#1037=CARTESIAN_POINT('Ctrl Pts',(-24.,-42.,17.));
#1038=CARTESIAN_POINT('Ctrl Pts',(-28.,-38.,19.));
#1039=CARTESIAN_POINT('Ctrl Pts',(-28.,-42.,19.));
#1040=CARTESIAN_POINT('Ctrl Pts',(-24.,-42.,19.));
#1041=CARTESIAN_POINT('Ctrl Pts',(-26.,-38.,19.));
#1042=CARTESIAN_POINT('Ctrl Pts',(-26.,-40.,19.));
#1043=CARTESIAN_POINT('Ctrl Pts',(-24.,-40.,19.));
#1044=CARTESIAN_POINT('',(-24.,-42.,17.));
#1045=CARTESIAN_POINT('',(-24.,-40.,19.));
#1046=CARTESIAN_POINT('Origin',(-24.,-40.,17.));
#1047=CARTESIAN_POINT('',(-26.,-38.,19.));
#1048=CARTESIAN_POINT('Origin',(-24.,-38.,19.));
#1049=CARTESIAN_POINT('',(-28.,-38.,17.));
#1050=CARTESIAN_POINT('Origin',(-26.,-38.,17.));
#1051=CARTESIAN_POINT('Origin',(-24.,-38.,17.));
#1052=CARTESIAN_POINT('Origin',(-24.,-38.,0.));
#1053=CARTESIAN_POINT('',(-28.0000004172325,-38.,0.));
#1054=CARTESIAN_POINT('',(-24.,-42.0000006258488,0.));
#1055=CARTESIAN_POINT('Origin',(-24.,-38.,0.));
#1056=CARTESIAN_POINT('',(-24.,-42.,0.));
#1057=CARTESIAN_POINT('',(-28.,-38.,0.));
#1058=CARTESIAN_POINT('Origin',(-13.5,-40.,17.));
#1059=CARTESIAN_POINT('',(24.,-42.,17.));
#1060=CARTESIAN_POINT('',(-13.5,-42.,17.));
#1061=CARTESIAN_POINT('',(24.,-40.,19.));
#1062=CARTESIAN_POINT('Origin',(24.,-40.,17.));
#1063=CARTESIAN_POINT('',(-13.5,-40.,19.));
#1064=CARTESIAN_POINT('Origin',(-27.,-42.,0.));
#1065=CARTESIAN_POINT('',(24.,-42.0000006258488,0.));
#1066=CARTESIAN_POINT('',(-28.0000004172325,-42.0000006258488,0.));
#1067=CARTESIAN_POINT('',(24.,-42.,0.));
#1068=CARTESIAN_POINT('Origin',(0.,0.,0.));
#1069=CARTESIAN_POINT('',(-28.0000004172325,38.,0.));
#1070=CARTESIAN_POINT('',(-28.0000004172325,42.0000006258488,0.));
#1071=CARTESIAN_POINT('',(-24.,42.0000006258488,0.));
#1072=CARTESIAN_POINT('Origin',(-24.,38.,0.));
#1073=CARTESIAN_POINT('',(24.,42.0000006258488,0.));
#1074=CARTESIAN_POINT('',(28.0000004172325,42.0000006258488,0.));
#1075=CARTESIAN_POINT('',(28.0000004172325,38.,0.));
#1076=CARTESIAN_POINT('Origin',(24.,38.,0.));
#1077=CARTESIAN_POINT('',(28.0000004172325,-38.,0.));
#1078=CARTESIAN_POINT('',(28.0000004172325,-42.0000006258488,0.));
#1079=CARTESIAN_POINT('Origin',(24.,-38.,0.));
#1080=CARTESIAN_POINT('',(-15.3647459274255,-21.7497459274255,0.));
#1081=CARTESIAN_POINT('Origin',(-14.2497459274255,-21.7497459274255,0.));
#1082=CARTESIAN_POINT('',(12.6347592731862,-21.7499308584044,0.));
#1083=CARTESIAN_POINT('Origin',(13.7497592731862,-21.7499308584044,0.));
#1084=CARTESIAN_POINT('',(12.6497592731862,21.7499308584044,0.));
#1085=CARTESIAN_POINT('Origin',(13.7497592731862,21.7499308584044,0.));
#1086=CARTESIAN_POINT('',(-15.3647459274255,21.7497459274255,0.));
#1087=CARTESIAN_POINT('Origin',(-14.2497459274255,21.7497459274255,0.));
#1088=CARTESIAN_POINT('',(-25.2865728752538,38.1715728752538,0.));
#1089=CARTESIAN_POINT('Origin',(-24.1715728752538,38.1715728752538,0.));
#1090=CARTESIAN_POINT('',(23.0565728752538,-38.1715728752538,0.));
#1091=CARTESIAN_POINT('Origin',(24.1715728752538,-38.1715728752538,0.));
#1092=CARTESIAN_POINT('',(-25.2865728752538,-38.1715728752538,0.));
#1093=CARTESIAN_POINT('Origin',(-24.1715728752538,-38.1715728752538,0.));
#1094=CARTESIAN_POINT('',(23.0565728752538,38.1715728752538,0.));
#1095=CARTESIAN_POINT('Origin',(24.1715728752538,38.1715728752538,0.));
#1096=CARTESIAN_POINT('Ctrl Pts',(24.,-42.,17.));
#1097=CARTESIAN_POINT('Ctrl Pts',(28.,-42.,17.));
#1098=CARTESIAN_POINT('Ctrl Pts',(28.,-38.,17.));
#1099=CARTESIAN_POINT('Ctrl Pts',(24.,-42.,19.));
#1100=CARTESIAN_POINT('Ctrl Pts',(28.,-42.,19.));
#1101=CARTESIAN_POINT('Ctrl Pts',(28.,-38.,19.));
#1102=CARTESIAN_POINT('Ctrl Pts',(24.,-40.,19.));
#1103=CARTESIAN_POINT('Ctrl Pts',(26.,-40.,19.));
#1104=CARTESIAN_POINT('Ctrl Pts',(26.,-38.,19.));
#1105=CARTESIAN_POINT('',(28.,-38.,17.));
#1106=CARTESIAN_POINT('',(26.,-38.,19.));
#1107=CARTESIAN_POINT('Origin',(26.,-38.,17.));
#1108=CARTESIAN_POINT('Origin',(24.,-38.,19.));
#1109=CARTESIAN_POINT('Origin',(24.,-38.,17.));
#1110=CARTESIAN_POINT('Origin',(24.,-38.,0.));
#1111=CARTESIAN_POINT('',(28.,-38.,0.));
#1112=CARTESIAN_POINT('Origin',(26.,-20.5,17.));
#1113=CARTESIAN_POINT('',(28.,38.,17.));
#1114=CARTESIAN_POINT('',(28.,-20.5,17.));
#1115=CARTESIAN_POINT('',(26.,38.,19.));
#1116=CARTESIAN_POINT('Origin',(26.,38.,17.));
#1117=CARTESIAN_POINT('',(26.,-20.5,19.));
#1118=CARTESIAN_POINT('Origin',(28.,-41.,0.));
#1119=CARTESIAN_POINT('',(28.,38.,0.));
#1120=CARTESIAN_POINT('Ctrl Pts',(28.,38.,17.));
#1121=CARTESIAN_POINT('Ctrl Pts',(28.,42.,17.));
#1122=CARTESIAN_POINT('Ctrl Pts',(24.,42.,17.));
#1123=CARTESIAN_POINT('Ctrl Pts',(28.,38.,19.));
#1124=CARTESIAN_POINT('Ctrl Pts',(28.,42.,19.));
#1125=CARTESIAN_POINT('Ctrl Pts',(24.,42.,19.));
#1126=CARTESIAN_POINT('Ctrl Pts',(26.,38.,19.));
#1127=CARTESIAN_POINT('Ctrl Pts',(26.,40.,19.));
#1128=CARTESIAN_POINT('Ctrl Pts',(24.,40.,19.));
#1129=CARTESIAN_POINT('',(24.,42.,17.));
#1130=CARTESIAN_POINT('',(24.,40.,19.));
#1131=CARTESIAN_POINT('Origin',(24.,40.,17.));
#1132=CARTESIAN_POINT('Origin',(24.,38.,19.));
#1133=CARTESIAN_POINT('Origin',(24.,38.,17.));
#1134=CARTESIAN_POINT('Origin',(24.,38.,0.));
#1135=CARTESIAN_POINT('',(24.,42.,0.));
#1136=CARTESIAN_POINT('Origin',(13.5,40.,17.));
#1137=CARTESIAN_POINT('',(-24.,42.,17.));
#1138=CARTESIAN_POINT('',(13.5,42.,17.));
#1139=CARTESIAN_POINT('',(-24.,40.,19.));
#1140=CARTESIAN_POINT('Origin',(-24.,40.,17.));
#1141=CARTESIAN_POINT('',(13.5,40.,19.));
#1142=CARTESIAN_POINT('Origin',(27.,42.,0.));
#1143=CARTESIAN_POINT('',(-24.,42.,0.));
#1144=CARTESIAN_POINT('',(1.25000000000001,42.,7.));
#1145=CARTESIAN_POINT('',(10.25,42.,7.));
#1146=CARTESIAN_POINT('',(18.625,42.,7.));
#1147=CARTESIAN_POINT('',(10.25,42.,14.));
#1148=CARTESIAN_POINT('',(10.25,42.,7.));
#1149=CARTESIAN_POINT('',(1.25000000000001,42.,14.));
#1150=CARTESIAN_POINT('',(14.125,42.,14.));
#1151=CARTESIAN_POINT('',(1.25000000000001,42.,3.5));
#1152=CARTESIAN_POINT('',(-1.74999999999999,42.,14.));
#1153=CARTESIAN_POINT('',(-11.75,42.,14.));
#1154=CARTESIAN_POINT('',(7.62500000000001,42.,14.));
#1155=CARTESIAN_POINT('',(-11.75,42.,7.));
#1156=CARTESIAN_POINT('',(-11.75,42.,3.5));
#1157=CARTESIAN_POINT('',(-1.74999999999999,42.,7.));
#1158=CARTESIAN_POINT('',(12.625,42.,7.));
#1159=CARTESIAN_POINT('',(-1.74999999999999,42.,7.));
#1160=CARTESIAN_POINT('Ctrl Pts',(-24.,42.,17.));
#1161=CARTESIAN_POINT('Ctrl Pts',(-28.,42.,17.));
#1162=CARTESIAN_POINT('Ctrl Pts',(-28.,38.,17.));
#1163=CARTESIAN_POINT('Ctrl Pts',(-24.,42.,19.));
#1164=CARTESIAN_POINT('Ctrl Pts',(-28.,42.,19.));
#1165=CARTESIAN_POINT('Ctrl Pts',(-28.,38.,19.));
#1166=CARTESIAN_POINT('Ctrl Pts',(-24.,40.,19.));
#1167=CARTESIAN_POINT('Ctrl Pts',(-26.,40.,19.));
#1168=CARTESIAN_POINT('Ctrl Pts',(-26.,38.,19.));
#1169=CARTESIAN_POINT('',(-28.,38.,17.));
#1170=CARTESIAN_POINT('',(-26.,38.,19.));
#1171=CARTESIAN_POINT('Origin',(-26.,38.,17.));
#1172=CARTESIAN_POINT('Origin',(-24.,38.,19.));
#1173=CARTESIAN_POINT('Origin',(-24.,38.,17.));
#1174=CARTESIAN_POINT('Origin',(-24.,38.,0.));
#1175=CARTESIAN_POINT('',(-28.,38.,0.));
#1176=CARTESIAN_POINT('Origin',(-26.,20.5,17.));
#1177=CARTESIAN_POINT('',(-26.,20.5,19.));
#1178=CARTESIAN_POINT('',(-28.,20.5,17.));
#1179=CARTESIAN_POINT('Origin',(-28.,41.,0.));
#1180=CARTESIAN_POINT('Origin',(0.,0.,19.));
#1181=CARTESIAN_POINT('',(23.0565728752538,-38.1715728752538,19.));
#1182=CARTESIAN_POINT('Origin',(24.1715728752538,-38.1715728752538,19.));
#1183=CARTESIAN_POINT('',(23.0565728752538,38.1715728752538,19.));
#1184=CARTESIAN_POINT('Origin',(24.1715728752538,38.1715728752538,19.));
#1185=CARTESIAN_POINT('',(-25.2865728752538,-38.1715728752538,19.));
#1186=CARTESIAN_POINT('Origin',(-24.1715728752538,-38.1715728752538,19.));
#1187=CARTESIAN_POINT('',(-25.2865728752538,38.1715728752538,19.));
#1188=CARTESIAN_POINT('Origin',(-24.1715728752538,38.1715728752538,19.));
#1189=CARTESIAN_POINT('',(-22.75,-35.25,19.));
#1190=CARTESIAN_POINT('',(-22.75,33.25,19.));
#1191=CARTESIAN_POINT('',(-22.75,14.125,19.));
#1192=CARTESIAN_POINT('',(22.75,33.25,19.));
#1193=CARTESIAN_POINT('',(-8.625,33.25,19.));
#1194=CARTESIAN_POINT('',(22.75,-35.25,19.));
#1195=CARTESIAN_POINT('',(22.75,14.125,19.));
#1196=CARTESIAN_POINT('',(8.875,-35.25,19.));
#1197=CARTESIAN_POINT('Origin',(-17.25,33.25,0.));
#1198=CARTESIAN_POINT('',(22.75,33.25,5.));
#1199=CARTESIAN_POINT('',(-22.75,33.25,5.));
#1200=CARTESIAN_POINT('',(-17.75,33.25,5.));
#1201=CARTESIAN_POINT('',(22.75,33.25,0.));
#1202=CARTESIAN_POINT('',(-22.75,33.25,0.));
#1203=CARTESIAN_POINT('',(10.25,33.25,14.));
#1204=CARTESIAN_POINT('',(1.25000000000001,33.25,14.));
#1205=CARTESIAN_POINT('',(-3.5,33.25,14.));
#1206=CARTESIAN_POINT('',(10.25,33.25,7.));
#1207=CARTESIAN_POINT('',(10.25,33.25,3.5));
#1208=CARTESIAN_POINT('',(1.25000000000001,33.25,7.));
#1209=CARTESIAN_POINT('',(-8.49999999999999,33.25,7.));
#1210=CARTESIAN_POINT('',(1.25000000000001,33.25,7.));
#1211=CARTESIAN_POINT('',(-11.75,33.25,14.));
#1212=CARTESIAN_POINT('',(-11.75,33.25,7.));
#1213=CARTESIAN_POINT('',(-11.75,33.25,7.));
#1214=CARTESIAN_POINT('',(-1.74999999999999,33.25,14.));
#1215=CARTESIAN_POINT('',(-9.5,33.25,14.));
#1216=CARTESIAN_POINT('',(-1.74999999999999,33.25,7.));
#1217=CARTESIAN_POINT('',(-1.74999999999999,33.25,3.5));
#1218=CARTESIAN_POINT('',(-14.5,33.25,7.));
#1219=CARTESIAN_POINT('Origin',(-1.74999999999999,29.75,14.));
#1220=CARTESIAN_POINT('',(-11.75,41.,14.));
#1221=CARTESIAN_POINT('',(-1.74999999999999,29.75,14.));
#1222=CARTESIAN_POINT('Origin',(-11.75,29.75,14.));
#1223=CARTESIAN_POINT('',(-11.75,41.,7.));
#1224=CARTESIAN_POINT('Origin',(10.25,29.75,7.));
#1225=CARTESIAN_POINT('',(10.25,41.,14.));
#1226=CARTESIAN_POINT('',(10.25,41.,7.));
#1227=CARTESIAN_POINT('Origin',(10.25,29.75,14.));
#1228=CARTESIAN_POINT('',(1.25000000000001,41.,14.));
#1229=CARTESIAN_POINT('Origin',(22.75,24.75,0.));
#1230=CARTESIAN_POINT('',(22.75,-35.25,5.));
#1231=CARTESIAN_POINT('',(22.75,28.25,5.));
#1232=CARTESIAN_POINT('',(22.75,-35.25,0.));
#1233=CARTESIAN_POINT('Origin',(-22.75,-24.75,0.));
#1234=CARTESIAN_POINT('',(-22.75,-35.25,5.));
#1235=CARTESIAN_POINT('',(-22.75,-24.75,5.));
#1236=CARTESIAN_POINT('',(-22.75,-35.25,0.));
#1237=CARTESIAN_POINT('Origin',(17.25,-35.25,0.));
#1238=CARTESIAN_POINT('',(17.75,-35.25,5.));
#1239=CARTESIAN_POINT('Origin',(24.1715728752538,38.1715728752538,-5.));
#1240=CARTESIAN_POINT('',(23.0565728752538,38.1715728752538,-5.));
#1241=CARTESIAN_POINT('Origin',(-24.1715728752538,-38.1715728752538,-5.));
#1242=CARTESIAN_POINT('',(-25.2865728752538,-38.1715728752538,-5.));
#1243=CARTESIAN_POINT('Origin',(24.1715728752538,-38.1715728752538,-5.));
#1244=CARTESIAN_POINT('',(23.0565728752538,-38.1715728752538,-5.));
#1245=CARTESIAN_POINT('Origin',(-24.1715728752538,38.1715728752538,-5.));
#1246=CARTESIAN_POINT('',(-25.2865728752538,38.1715728752538,-5.));
#1247=CARTESIAN_POINT('Origin',(1.25000000000001,29.75,14.));
#1248=CARTESIAN_POINT('',(1.25000000000001,29.75,7.));
#1249=CARTESIAN_POINT('Origin',(-11.75,29.75,7.));
#1250=CARTESIAN_POINT('',(-1.74999999999999,41.,7.));
#1251=CARTESIAN_POINT('Origin',(0.250000000000013,29.75,7.));
#1252=CARTESIAN_POINT('Origin',(-1.74999999999999,29.75,7.));
#1253=CARTESIAN_POINT('Origin',(-14.2497459274255,-21.7497459274255,0.));
#1254=CARTESIAN_POINT('',(-15.3647459274255,-21.7497459274255,5.));
#1255=CARTESIAN_POINT('Origin',(-14.2497459274255,-21.7497459274255,5.));
#1256=CARTESIAN_POINT('',(-15.3647459274255,-21.7497459274255,0.));
#1257=CARTESIAN_POINT('Origin',(13.7497592731862,21.7499308584044,0.));
#1258=CARTESIAN_POINT('',(12.6497592731862,21.7499308584044,5.));
#1259=CARTESIAN_POINT('Origin',(13.7497592731862,21.7499308584044,5.));
#1260=CARTESIAN_POINT('',(12.6497592731862,21.7499308584044,0.));
#1261=CARTESIAN_POINT('Origin',(13.7497592731862,-21.7499308584044,0.));
#1262=CARTESIAN_POINT('',(12.6347592731862,-21.7499308584044,5.));
#1263=CARTESIAN_POINT('Origin',(13.7497592731862,-21.7499308584044,5.));
#1264=CARTESIAN_POINT('',(12.6347592731862,-21.7499308584044,0.));
#1265=CARTESIAN_POINT('Origin',(-14.2497459274255,21.7497459274255,0.));
#1266=CARTESIAN_POINT('',(-15.3647459274255,21.7497459274255,5.));
#1267=CARTESIAN_POINT('Origin',(-14.2497459274255,21.7497459274255,5.));
#1268=CARTESIAN_POINT('',(-15.3647459274255,21.7497459274255,0.));
#1269=CARTESIAN_POINT('Origin',(0.,0.,5.));
#1270=UNCERTAINTY_MEASURE_WITH_UNIT(LENGTH_MEASURE(0.01),#1274,
'DISTANCE_ACCURACY_VALUE',
'Maximum model space distance between geometric entities at asserted c
onnectivities');
#1271=UNCERTAINTY_MEASURE_WITH_UNIT(LENGTH_MEASURE(0.01),#1274,
'DISTANCE_ACCURACY_VALUE',
'Maximum model space distance between geometric entities at asserted c
onnectivities');
#1272=(
GEOMETRIC_REPRESENTATION_CONTEXT(3)
GLOBAL_UNCERTAINTY_ASSIGNED_CONTEXT((#1270))
GLOBAL_UNIT_ASSIGNED_CONTEXT((#1274,#1276,#1277))
REPRESENTATION_CONTEXT('','3D')
);
#1273=(
GEOMETRIC_REPRESENTATION_CONTEXT(3)
GLOBAL_UNCERTAINTY_ASSIGNED_CONTEXT((#1271))
GLOBAL_UNIT_ASSIGNED_CONTEXT((#1274,#1276,#1277))
REPRESENTATION_CONTEXT('','3D')
);
#1274=(
LENGTH_UNIT()
NAMED_UNIT(*)
SI_UNIT(.MILLI.,.METRE.)
);
#1275=(
LENGTH_UNIT()
NAMED_UNIT(*)
SI_UNIT($,.METRE.)
);
#1276=(
NAMED_UNIT(*)
PLANE_ANGLE_UNIT()
SI_UNIT($,.RADIAN.)
);
#1277=(
NAMED_UNIT(*)
SI_UNIT($,.STERADIAN.)
SOLID_ANGLE_UNIT()
);
#1278=SHAPE_DEFINITION_REPRESENTATION(#1279,#1280);
#1279=PRODUCT_DEFINITION_SHAPE('',$,#1282);
#1280=SHAPE_REPRESENTATION('',(#754),#1272);
#1281=PRODUCT_DEFINITION_CONTEXT('part definition',#1286,'design');
#1282=PRODUCT_DEFINITION('Peekabot 3d design part 1 v1',
'Peekabot 3d design part 1 v1 v15',#1283,#1281);
#1283=PRODUCT_DEFINITION_FORMATION('',$,#1288);
#1284=PRODUCT_RELATED_PRODUCT_CATEGORY(
'Peekabot 3d design part 1 v1 v15','Peekabot 3d design part 1 v1 v15',(#1288));
#1285=APPLICATION_PROTOCOL_DEFINITION('international standard',
'automotive_design',2009,#1286);
#1286=APPLICATION_CONTEXT(
'Core Data for Automotive Mechanical Design Process');
#1287=PRODUCT_CONTEXT('part definition',#1286,'mechanical');
#1288=PRODUCT('Peekabot 3d design part 1 v1',
'Peekabot 3d design part 1 v1 v15',$,(#1287));
#1289=PRESENTATION_STYLE_ASSIGNMENT((#1290));
#1290=SURFACE_STYLE_USAGE(.BOTH.,#1291);
#1291=SURFACE_SIDE_STYLE('',(#1292));
#1292=SURFACE_STYLE_FILL_AREA(#1293);
#1293=FILL_AREA_STYLE('Plastic - Matte (White)',(#1294));
#1294=FILL_AREA_STYLE_COLOUR('Plastic - Matte (White)',#1295);
#1295=COLOUR_RGB('Plastic - Matte (White)',0.964705882352941,0.964705882352941,
0.952941176470588);
ENDSEC;
END-ISO-10303-21;
